<?xml version="1.0" standalone="no"?>
<!DOCTYPE svg PUBLIC "-//W3C//DTD SVG 1.1//EN" "http://www.w3.org/Graphics/SVG/1.1/DTD/svg11.dtd">
<svg width="19mm" height="20mm" viewBox="-13 -10 19 20" xmlns="http://www.w3.org/2000/svg" version="1.1">
<title>OpenSCAD Model</title>
<path d="
M 6,6.5 L 4.5,6.5 L 4.5,5.5 L 3.5,5.5 L 3.8888,-3.05362 L 3.9445,-3.08986
 L 4.01533,-3.13845 L 4.08495,-3.18877 L 4.15331,-3.24079 L 4.22038,-3.29446 L 4.2861,-3.34977 L 4.35046,-3.40667
 L 4.41339,-3.46513 L 4.47487,-3.52513 L 4.53486,-3.58661 L 4.59333,-3.64954 L 4.65023,-3.71389 L 4.70554,-3.77962
 L 4.75921,-3.84669 L 4.81123,-3.91505 L 4.86155,-3.98467 L 4.91014,-4.0555 L 4.95699,-4.12751 L 5.00205,-4.20064
 L 5.0453,-4.27486 L 5.08672,-4.35011 L 5.12628,-4.42636 L 5.16396,-4.50356 L 5.19973,-4.58165 L 5.23358,-4.66061
 L 5.26547,-4.74037 L 5.2954,-4.82088 L 5.32335,-4.90211 L 5.34929,-4.984 L 5.37322,-5.0665 L 5.39511,-5.14957
 L 5.41496,-5.23314 L 5.43275,-5.31718 L 5.44847,-5.40163 L 5.46212,-5.48644 L 5.47368,-5.57156 L 5.48315,-5.65694
 L 5.49052,-5.74252 L 5.49578,-5.82826 L 5.49895,-5.91411 L 5.5,-6 L 5.49895,-6.08589 L 5.49578,-6.17174
 L 5.49052,-6.25748 L 5.48315,-6.34306 L 5.47368,-6.42844 L 5.46212,-6.51356 L 5.44847,-6.59837 L 5.43275,-6.68282
 L 5.41496,-6.76685 L 5.39511,-6.85043 L 5.37322,-6.93349 L 5.34929,-7.016 L 5.32335,-7.09789 L 5.2954,-7.17911
 L 5.26547,-7.25963 L 5.23358,-7.33939 L 5.19973,-7.41834 L 5.16396,-7.49644 L 5.12628,-7.57364 L 5.08672,-7.64989
 L 5.0453,-7.72514 L 5.00205,-7.79936 L 4.95699,-7.87249 L 4.91014,-7.9445 L 4.86155,-8.01533 L 4.81123,-8.08495
 L 4.75921,-8.15331 L 4.70554,-8.22038 L 4.65023,-8.2861 L 4.59333,-8.35046 L 4.53486,-8.41339 L 4.47487,-8.47487
 L 4.41339,-8.53486 L 4.35046,-8.59333 L 4.2861,-8.65023 L 4.22038,-8.70554 L 4.15331,-8.75921 L 4.08495,-8.81123
 L 4.01533,-8.86155 L 3.9445,-8.91014 L 3.87249,-8.95699 L 3.79936,-9.00205 L 3.72514,-9.0453 L 3.64989,-9.08672
 L 3.57364,-9.12628 L 3.49644,-9.16396 L 3.41834,-9.19973 L 3.33939,-9.23358 L 3.25963,-9.26547 L 3.17911,-9.2954
 L 3.09789,-9.32335 L 3.016,-9.34929 L 2.93349,-9.37322 L 2.85043,-9.39511 L 2.76685,-9.41496 L 2.68282,-9.43275
 L 2.59837,-9.44847 L 2.51356,-9.46212 L 2.42844,-9.47368 L 2.34306,-9.48315 L 2.25748,-9.49052 L 2.17174,-9.49578
 L 2.08589,-9.49895 L 2,-9.5 L 1.91411,-9.49895 L 1.82826,-9.49578 L 1.74252,-9.49052 L 1.65694,-9.48315
 L 1.57156,-9.47368 L 1.48644,-9.46212 L 1.40163,-9.44847 L 1.31718,-9.43275 L 1.23315,-9.41496 L 1.14957,-9.39511
 L 1.06651,-9.37322 L 0.984004,-9.34929 L 0.902114,-9.32335 L 0.820886,-9.2954 L 0.740368,-9.26547 L 0.660608,-9.23358
 L 0.581656,-9.19973 L 0.503557,-9.16396 L 0.426361,-9.12628 L 0.350112,-9.08672 L 0.274857,-9.0453 L 0.200641,-9.00205
 L 0.127509,-8.95699 L 0.0555048,-8.91014 L -0.0153284,-8.86155 L -0.0849466,-8.81123 L -0.15331,-8.75921 L -0.220376,-8.70554
 L -0.286104,-8.65023 L -0.350456,-8.59333 L -0.413391,-8.53486 L -0.474874,-8.47487 L -0.534864,-8.41339 L -0.593328,-8.35046
 L -0.65023,-8.2861 L -0.705536,-8.22038 L -0.759212,-8.15331 L -0.811226,-8.08495 L -0.861547,-8.01533 L -0.910143,-7.9445
 L -0.956987,-7.87249 L -1.00205,-7.79936 L -1.0453,-7.72514 L -1.08672,-7.64989 L -1.12628,-7.57364 L -1.16396,-7.49644
 L -1.19973,-7.41834 L -1.23358,-7.33939 L -1.26547,-7.25963 L -1.2954,-7.17911 L -1.32335,-7.09789 L -1.34929,-7.016
 L -1.37322,-6.93349 L -1.39511,-6.85043 L -1.41496,-6.76685 L -1.43275,-6.68282 L -1.44847,-6.59837 L -1.46212,-6.51356
 L -1.47368,-6.42844 L -1.48315,-6.34306 L -1.49052,-6.25748 L -1.49578,-6.17174 L -1.49895,-6.08589 L -1.5,-6
 L -1.49895,-5.91411 L -1.49578,-5.82826 L -1.49052,-5.74252 L -1.48315,-5.65694 L -1.47368,-5.57156 L -1.46212,-5.48644
 L -1.44847,-5.40163 L -1.43275,-5.31718 L -1.41496,-5.23314 L -1.39511,-5.14957 L -1.37322,-5.0665 L -1.34929,-4.984
 L -1.32335,-4.90211 L -1.2954,-4.82088 L -1.26547,-4.74037 L -1.23358,-4.66061 L -1.19973,-4.58165 L -1.16396,-4.50356
 L -1.12628,-4.42636 L -1.08672,-4.35011 L -1.0453,-4.27486 L -1.00205,-4.20064 L -0.956987,-4.12751 L -0.910143,-4.0555
 L -0.861547,-3.98467 L -0.811226,-3.91505 L -0.759212,-3.84669 L -0.705536,-3.77962 L -0.65023,-3.71389 L -0.593328,-3.64954
 L -0.534864,-3.58661 L -0.474874,-3.52513 L -0.413391,-3.46513 L -0.350456,-3.40667 L -0.286104,-3.34977 L -0.220376,-3.29446
 L -0.15331,-3.24079 L -0.0849466,-3.18877 L -0.0153284,-3.13845 L 0.0555048,-3.08986 L 0.111199,-3.05362 L 0.5,5.5
 L -0.5,5.5 L -0.5,6.5 L -2,6.5 L -2,9.5 L 6,9.5 z
M -8.48773,3.49985 L -8.47547,3.4994 L -8.46322,3.49864 L -8.45099,3.49759 L -8.4388,3.49624 L -8.42663,3.49459
 L -8.41452,3.49264 L -8.40246,3.49039 L -8.39045,3.48785 L -8.37851,3.48501 L -8.36664,3.48189 L -8.35486,3.47847
 L -8.34316,3.47476 L -8.33156,3.47077 L -8.32005,3.4665 L -8.30866,3.46194 L -8.29738,3.4571 L -8.28622,3.45199
 L -8.2752,3.44661 L -8.2643,3.44096 L -8.25355,3.43504 L -8.24295,3.42886 L -8.2325,3.42243 L -8.22222,3.41573
 L -8.2121,3.40879 L -8.20215,3.4016 L -8.19238,3.39417 L -8.1828,3.38651 L -8.17341,3.3786 L -8.16422,3.37047
 L -8.15523,3.36212 L -8.14645,3.35355 L -8.13788,3.34477 L -8.12953,3.33578 L -8.1214,3.32659 L -8.11349,3.3172
 L -8.10583,3.30762 L -8.0984,3.29785 L -8.09121,3.2879 L -8.08427,3.27778 L -8.07757,3.2675 L -8.07114,3.25705
 L -8.06496,3.24645 L -8.05904,3.2357 L -8.05339,3.2248 L -8.04801,3.21378 L -8.0429,3.20262 L -8.03806,3.19134
 L -8.0335,3.17995 L -8.02923,3.16844 L -8.02524,3.15684 L -8.02153,3.14514 L -8.01811,3.13336 L -8.01499,3.12149
 L -8.01215,3.10955 L -8.00961,3.09754 L -8.00736,3.08548 L -8.00541,3.07337 L -8.00376,3.0612 L -8.00241,3.04901
 L -8.00136,3.03678 L -8.0006,3.02453 L -8.00015,3.01227 L -8,3 L -8.00015,2.98773 L -8.0006,2.97547
 L -8.00136,2.96322 L -8.00241,2.95099 L -8.00376,2.93879 L -8.30861,0.5 L -7.5,0.5 L -7.48773,0.499849
 L -7.47547,0.499397 L -7.46322,0.498645 L -7.45099,0.497592 L -7.4388,0.49624 L -7.42663,0.494588 L -7.41452,0.492639
 L -7.40246,0.490392 L -7.39045,0.48785 L -7.37851,0.485015 L -7.36664,0.481888 L -7.35486,0.47847 L -7.34316,0.474764
 L -7.33156,0.470772 L -7.32005,0.466496 L -7.30866,0.461939 L -7.29738,0.457105 L -7.28622,0.451994 L -7.2752,0.446611
 L -7.2643,0.44096 L -7.25355,0.435043 L -7.24295,0.428864 L -7.2325,0.422426 L -7.22222,0.415734 L -7.2121,0.408792
 L -7.20215,0.401604 L -7.19238,0.394173 L -7.1828,0.386505 L -7.17341,0.378604 L -7.16422,0.370475 L -7.15523,0.362123
 L -7.14645,0.353553 L -7.13788,0.344769 L -7.12953,0.335779 L -7.1214,0.326586 L -7.11349,0.317196 L -7.10583,0.307615
 L -7.0984,0.297849 L -7.09121,0.287904 L -7.08427,0.277784 L -7.07757,0.267498 L -7.07114,0.257051 L -7.06496,0.246449
 L -7.05904,0.235698 L -7.05339,0.224805 L -7.04801,0.213778 L -7.0429,0.202621 L -7.03806,0.191341 L -7.0335,0.179947
 L -7.02923,0.168445 L -7.02524,0.15684 L -7.02153,0.145142 L -7.01811,0.133356 L -7.01499,0.12149 L -7.01215,0.10955
 L -7.00961,0.0975447 L -7.00736,0.0854807 L -7.00541,0.0733652 L -7.00376,0.0612049 L -7.00241,0.0490084 L -7.00136,0.0367823
 L -7.0006,0.0245333 L -7.00015,0.01227 L -7,-0 L -7.00015,-0.0122709 L -7.0006,-0.0245342 L -7.00136,-0.0367832
 L -7.00241,-0.0490093 L -7.00376,-0.0612059 L -7.00541,-0.0733662 L -7.00736,-0.0854816 L -7.00961,-0.0975456 L -7.01215,-0.109551
 L -7.01499,-0.12149 L -7.01811,-0.133357 L -7.02153,-0.145143 L -7.02524,-0.156841 L -7.02923,-0.168446 L -7.0335,-0.179948
 L -7.03806,-0.191342 L -7.0429,-0.202621 L -7.04801,-0.213778 L -7.05339,-0.224806 L -9.55339,-5.2248 L -9.55904,-5.2357
 L -9.56496,-5.24645 L -9.57114,-5.25705 L -9.57757,-5.2675 L -9.58427,-5.27778 L -9.59121,-5.2879 L -9.5984,-5.29785
 L -9.60583,-5.30762 L -9.61349,-5.3172 L -9.6214,-5.32659 L -9.62953,-5.33578 L -9.63788,-5.34477 L -9.64645,-5.35355
 L -9.65523,-5.36212 L -9.66422,-5.37047 L -9.67341,-5.3786 L -9.6828,-5.38651 L -9.69238,-5.39417 L -9.70215,-5.4016
 L -9.7121,-5.40879 L -9.72222,-5.41573 L -9.7325,-5.42243 L -9.74295,-5.42886 L -9.75355,-5.43504 L -9.7643,-5.44096
 L -9.7752,-5.44661 L -9.78622,-5.45199 L -9.79738,-5.4571 L -9.80866,-5.46194 L -9.82005,-5.4665 L -9.83156,-5.47077
 L -9.84316,-5.47476 L -9.85486,-5.47847 L -9.86664,-5.48189 L -9.87851,-5.48501 L -9.89045,-5.48785 L -9.90246,-5.49039
 L -9.91452,-5.49264 L -9.92663,-5.49459 L -9.9388,-5.49624 L -9.95099,-5.49759 L -9.96322,-5.49864 L -9.97547,-5.4994
 L -9.98773,-5.49985 L -10,-5.5 L -10.0123,-5.49985 L -10.0245,-5.4994 L -10.0368,-5.49864 L -10.049,-5.49759
 L -10.0612,-5.49624 L -10.0734,-5.49459 L -10.0855,-5.49264 L -10.0975,-5.49039 L -10.1096,-5.48785 L -10.1215,-5.48501
 L -10.1334,-5.48189 L -10.1451,-5.47847 L -10.1568,-5.47476 L -10.1684,-5.47077 L -10.1799,-5.4665 L -10.1913,-5.46194
 L -10.2026,-5.4571 L -10.2138,-5.45199 L -10.2248,-5.44661 L -10.2357,-5.44096 L -10.2464,-5.43504 L -10.2571,-5.42886
 L -10.2675,-5.42243 L -10.2778,-5.41573 L -10.2879,-5.40879 L -10.2978,-5.4016 L -10.3076,-5.39417 L -10.3172,-5.38651
 L -10.3266,-5.3786 L -10.3358,-5.37047 L -10.3448,-5.36212 L -10.3536,-5.35355 L -10.3621,-5.34477 L -10.3705,-5.33578
 L -10.3786,-5.32659 L -10.3865,-5.3172 L -10.3942,-5.30762 L -10.4016,-5.29785 L -10.4088,-5.2879 L -10.4157,-5.27778
 L -10.4224,-5.2675 L -10.4289,-5.25705 L -10.435,-5.24645 L -10.441,-5.2357 L -10.4466,-5.2248 L -12.9466,-0.224806
 L -12.952,-0.213778 L -12.9571,-0.202621 L -12.9619,-0.191342 L -12.9665,-0.179948 L -12.9708,-0.168446 L -12.9748,-0.156841
 L -12.9785,-0.145143 L -12.9819,-0.133357 L -12.985,-0.12149 L -12.9879,-0.109551 L -12.9904,-0.0975456 L -12.9926,-0.0854816
 L -12.9946,-0.0733662 L -12.9962,-0.0612059 L -12.9976,-0.0490093 L -12.9986,-0.0367832 L -12.9994,-0.0245342 L -12.9998,-0.0122709
 L -13,-0 L -12.9998,0.01227 L -12.9994,0.0245333 L -12.9986,0.0367823 L -12.9976,0.0490084 L -12.9962,0.0612049
 L -12.9946,0.0733652 L -12.9926,0.0854807 L -12.9904,0.0975447 L -12.9879,0.10955 L -12.985,0.12149 L -12.9819,0.133356
 L -12.9785,0.145142 L -12.9748,0.15684 L -12.9708,0.168445 L -12.9665,0.179947 L -12.9619,0.191341 L -12.9571,0.202621
 L -12.952,0.213778 L -12.9466,0.224805 L -12.941,0.235698 L -12.935,0.246449 L -12.9289,0.257051 L -12.9224,0.267498
 L -12.9157,0.277784 L -12.9088,0.287904 L -12.9016,0.297849 L -12.8942,0.307615 L -12.8865,0.317196 L -12.8786,0.326586
 L -12.8705,0.335779 L -12.8621,0.344769 L -12.8536,0.353553 L -12.8448,0.362123 L -12.8358,0.370475 L -12.8266,0.378604
 L -12.8172,0.386505 L -12.8076,0.394173 L -12.7978,0.401604 L -12.7879,0.408792 L -12.7778,0.415734 L -12.7675,0.422426
 L -12.7571,0.428864 L -12.7464,0.435043 L -12.7357,0.44096 L -12.7248,0.446611 L -12.7138,0.451994 L -12.7026,0.457105
 L -12.6913,0.461939 L -12.6799,0.466496 L -12.6684,0.470772 L -12.6568,0.474764 L -12.6451,0.47847 L -12.6334,0.481888
 L -12.6215,0.485015 L -12.6096,0.48785 L -12.5975,0.490392 L -12.5855,0.492639 L -12.5734,0.494588 L -12.5612,0.49624
 L -12.549,0.497592 L -12.5368,0.498645 L -12.5245,0.499397 L -12.5123,0.499849 L -12.5,0.5 L -11.6914,0.5
 L -11.9962,2.93879 L -11.9976,2.95099 L -11.9986,2.96322 L -11.9994,2.97547 L -11.9998,2.98773 L -12,3
 L -11.9998,3.01227 L -11.9994,3.02453 L -11.9986,3.03678 L -11.9976,3.04901 L -11.9962,3.0612 L -11.9946,3.07337
 L -11.9926,3.08548 L -11.9904,3.09754 L -11.9879,3.10955 L -11.985,3.12149 L -11.9819,3.13336 L -11.9785,3.14514
 L -11.9748,3.15684 L -11.9708,3.16844 L -11.9665,3.17995 L -11.9619,3.19134 L -11.9571,3.20262 L -11.952,3.21378
 L -11.9466,3.2248 L -11.941,3.2357 L -11.935,3.24645 L -11.9289,3.25705 L -11.9224,3.2675 L -11.9157,3.27778
 L -11.9088,3.2879 L -11.9016,3.29785 L -11.8942,3.30762 L -11.8865,3.3172 L -11.8786,3.32659 L -11.8705,3.33578
 L -11.8621,3.34477 L -11.8536,3.35355 L -11.8448,3.36212 L -11.8358,3.37047 L -11.8266,3.3786 L -11.8172,3.38651
 L -11.8076,3.39417 L -11.7978,3.4016 L -11.7879,3.40879 L -11.7778,3.41573 L -11.7675,3.42243 L -11.7571,3.42886
 L -11.7464,3.43504 L -11.7357,3.44096 L -11.7248,3.44661 L -11.7138,3.45199 L -11.7026,3.4571 L -11.6913,3.46194
 L -11.6799,3.4665 L -11.6684,3.47077 L -11.6568,3.47476 L -11.6451,3.47847 L -11.6334,3.48189 L -11.6215,3.48501
 L -11.6096,3.48785 L -11.5975,3.49039 L -11.5855,3.49264 L -11.5734,3.49459 L -11.5612,3.49624 L -11.549,3.49759
 L -11.5368,3.49864 L -11.5245,3.4994 L -11.5123,3.49985 L -11.5,3.5 L -8.5,3.5 z
" stroke="black" fill="lightgray" stroke-width="0.5"/>
</svg>
