<?xml version="1.0" standalone="no"?>
<!DOCTYPE svg PUBLIC "-//W3C//DTD SVG 1.1//EN" "http://www.w3.org/Graphics/SVG/1.1/DTD/svg11.dtd">
<svg width="30mm" height="19mm" viewBox="-15 -11 30 19" xmlns="http://www.w3.org/2000/svg" version="1.1">
<title>OpenSCAD Model</title>
<path d="
M 2.811,-2.6 L 3.9354,-2.6 L 3.9354,-5.6 L 2.811,-5.6 L 2.811,-6.2 L 3.9354,-6.2
 L 3.9354,-9.2 L 2.811,-9.2 L 2.811,-10.4 L -2.2488,-10.4 L -2.2488,-9.2 L -3.3732,-9.2
 L -3.3732,-7.4 L -0.5622,-7.4 L -0.5622,-8.6 L 1.1244,-8.6 L 1.1244,-6.8 L -1.1244,-6.8
 L -1.1244,-5 L 1.1244,-5 L 1.1244,-3.2 L -0.5622,-3.2 L -0.5622,-4.4 L -3.3732,-4.4
 L -3.3732,-2.6 L -2.2488,-2.6 L -2.2488,-1.4 L 2.811,-1.4 z
M 14.9759,7.50991 L 14.9039,7.02455 L 14.7847,6.54858 L 14.6194,6.08658 L 14.4096,5.64302 L 14.1573,5.22215
 L 13.8651,4.82803 L 13.5355,4.46447 L 13.172,4.13495 L 12.7779,3.84265 L 12.357,3.59039 L 11.9134,3.3806
 L 11.4514,3.2153 L 10.9755,3.09607 L 10.4901,3.02408 L 10,3 L 10,0.245954 L 7.35128,0.638854
 L 0,1 L -7.35128,0.638854 L -10,0.245954 L -10,3 L -10.4901,3.02408 L -10.9755,3.09607
 L -11.4514,3.2153 L -11.9134,3.3806 L -12.357,3.59039 L -12.7779,3.84265 L -13.172,4.13495 L -13.5355,4.46447
 L -13.8651,4.82803 L -14.1573,5.22215 L -14.4096,5.64302 L -14.6194,6.08658 L -14.7847,6.54858 L -14.9039,7.02455
 L -14.9759,7.50991 L -15,8 L 15,8 z
" stroke="black" fill="lightgray" stroke-width="0.5"/>
</svg>
