<?xml version="1.0" standalone="no"?>
<!DOCTYPE svg PUBLIC "-//W3C//DTD SVG 1.1//EN" "http://www.w3.org/Graphics/SVG/1.1/DTD/svg11.dtd">
<svg width="20mm" height="20mm" viewBox="-14 -10 20 20" xmlns="http://www.w3.org/2000/svg" version="1.1">
<title>OpenSCAD Model</title>
<path d="
M 6,6.5 L 4.5,6.5 L 4.5,5.5 L 3.5,5.5 L 3.88893,-3.05655 L 3.9445,-3.08986
 L 4.22038,-3.29446 L 4.47487,-3.52513 L 4.70554,-3.77962 L 4.91014,-4.0555 L 5.08672,-4.35011 L 5.23358,-4.66061
 L 5.34929,-4.984 L 5.43275,-5.31718 L 5.48315,-5.65694 L 5.5,-6 L 5.48315,-6.34306 L 5.43275,-6.68282
 L 5.34929,-7.016 L 5.23358,-7.33939 L 5.08672,-7.64989 L 4.91014,-7.9445 L 4.70554,-8.22038 L 4.47487,-8.47487
 L 4.22038,-8.70554 L 3.9445,-8.91014 L 3.64989,-9.08672 L 3.33939,-9.23358 L 3.016,-9.34929 L 2.68282,-9.43275
 L 2.34306,-9.48315 L 2,-9.5 L 1.65694,-9.48315 L 1.31718,-9.43275 L 0.984004,-9.34929 L 0.660608,-9.23358
 L 0.350112,-9.08672 L 0.0555048,-8.91014 L -0.220376,-8.70554 L -0.474874,-8.47487 L -0.705536,-8.22038 L -0.910143,-7.9445
 L -1.08672,-7.64989 L -1.23358,-7.33939 L -1.34929,-7.016 L -1.43275,-6.68282 L -1.48315,-6.34306 L -1.5,-6
 L -1.48315,-5.65694 L -1.43275,-5.31718 L -1.34929,-4.984 L -1.23358,-4.66061 L -1.08672,-4.35011 L -0.910143,-4.0555
 L -0.705536,-3.77962 L -0.474874,-3.52513 L -0.220376,-3.29446 L 0.0555048,-3.08986 L 0.111066,-3.05655 L 0.5,5.5
 L -0.5,5.5 L -0.5,6.5 L -2,6.5 L -2,9.5 L 6,9.5 z
M -9.95099,2.99759 L -9.90245,2.99039 L -9.85486,2.97847 L -9.80866,2.96194 L -9.7643,2.94096 L -4.7643,0.44096
 L -4.72222,0.415734 L -4.6828,0.386505 L -4.64645,0.353553 L -4.61349,0.317196 L -4.58427,0.277784 L -4.55904,0.235698
 L -4.53806,0.191341 L -4.52153,0.145142 L -4.50961,0.0975447 L -4.50241,0.0490084 L -4.5,-0 L -4.50241,-0.0490084
 L -4.50961,-0.0975447 L -4.52153,-0.145142 L -4.53806,-0.191341 L -4.55904,-0.235698 L -4.58427,-0.277784 L -4.61349,-0.317196
 L -4.64645,-0.353553 L -4.6828,-0.386505 L -4.72222,-0.415734 L -4.7643,-0.44096 L -9.7643,-2.94096 L -9.80866,-2.96194
 L -9.85486,-2.97847 L -9.90245,-2.99039 L -9.95099,-2.99759 L -10,-3 L -10.049,-2.99759 L -10.0975,-2.99039
 L -10.1451,-2.97847 L -10.1913,-2.96194 L -10.2357,-2.94096 L -10.2778,-2.91573 L -10.3172,-2.88651 L -10.3536,-2.85355
 L -10.3865,-2.8172 L -10.4157,-2.77778 L -10.441,-2.7357 L -10.4619,-2.69134 L -10.4785,-2.64514 L -10.4904,-2.59754
 L -10.4976,-2.54901 L -10.5,-2.5 L -10.5,-1.69122 L -12.951,-1.99759 L -13,-2 L -13.049,-1.99759
 L -13.0975,-1.99039 L -13.1451,-1.97847 L -13.1913,-1.96194 L -13.2357,-1.94096 L -13.2778,-1.91573 L -13.3172,-1.88651
 L -13.3536,-1.85355 L -13.3865,-1.8172 L -13.4157,-1.77778 L -13.441,-1.7357 L -13.4619,-1.69134 L -13.4785,-1.64514
 L -13.4904,-1.59754 L -13.4976,-1.54901 L -13.5,-1.5 L -13.5,1.5 L -13.4976,1.54901 L -13.4904,1.59754
 L -13.4785,1.64514 L -13.4619,1.69134 L -13.441,1.7357 L -13.4157,1.77778 L -13.3865,1.8172 L -13.3536,1.85355
 L -13.3172,1.88651 L -13.2778,1.91573 L -13.2357,1.94096 L -13.1913,1.96194 L -13.1451,1.97847 L -13.0975,1.99039
 L -13.049,1.99759 L -13,2 L -12.951,1.99759 L -10.5,1.69122 L -10.5,2.5 L -10.4976,2.54901
 L -10.4904,2.59754 L -10.4785,2.64514 L -10.4619,2.69134 L -10.441,2.7357 L -10.4157,2.77778 L -10.3865,2.8172
 L -10.3536,2.85355 L -10.3172,2.88651 L -10.2778,2.91573 L -10.2357,2.94096 L -10.1913,2.96194 L -10.1451,2.97847
 L -10.0975,2.99039 L -10.049,2.99759 L -10,3 z
" stroke="black" fill="lightgray" stroke-width="0.5"/>
</svg>
