<?xml version="1.0" standalone="no"?>
<!DOCTYPE svg PUBLIC "-//W3C//DTD SVG 1.1//EN" "http://www.w3.org/Graphics/SVG/1.1/DTD/svg11.dtd">
<svg width="20mm" height="20mm" viewBox="-14 -10 20 20" xmlns="http://www.w3.org/2000/svg" version="1.1">
<title>OpenSCAD Model</title>
<path d="
M 6,6.5 L 4.5,6.5 L 4.5,5.5 L 3.5,5.5 L 3.8888,-3.05362 L 3.9445,-3.08986
 L 4.01533,-3.13845 L 4.08495,-3.18877 L 4.15331,-3.24079 L 4.22038,-3.29446 L 4.2861,-3.34977 L 4.35046,-3.40667
 L 4.41339,-3.46513 L 4.47487,-3.52513 L 4.53486,-3.58661 L 4.59333,-3.64954 L 4.65023,-3.71389 L 4.70554,-3.77962
 L 4.75921,-3.84669 L 4.81123,-3.91505 L 4.86155,-3.98467 L 4.91014,-4.0555 L 4.95699,-4.12751 L 5.00205,-4.20064
 L 5.0453,-4.27486 L 5.08672,-4.35011 L 5.12628,-4.42636 L 5.16396,-4.50356 L 5.19973,-4.58165 L 5.23358,-4.66061
 L 5.26547,-4.74037 L 5.2954,-4.82088 L 5.32335,-4.90211 L 5.34929,-4.984 L 5.37322,-5.0665 L 5.39511,-5.14957
 L 5.41496,-5.23314 L 5.43275,-5.31718 L 5.44847,-5.40163 L 5.46212,-5.48644 L 5.47368,-5.57156 L 5.48315,-5.65694
 L 5.49052,-5.74252 L 5.49578,-5.82826 L 5.49895,-5.91411 L 5.5,-6 L 5.49895,-6.08589 L 5.49578,-6.17174
 L 5.49052,-6.25748 L 5.48315,-6.34306 L 5.47368,-6.42844 L 5.46212,-6.51356 L 5.44847,-6.59837 L 5.43275,-6.68282
 L 5.41496,-6.76685 L 5.39511,-6.85043 L 5.37322,-6.93349 L 5.34929,-7.016 L 5.32335,-7.09789 L 5.2954,-7.17911
 L 5.26547,-7.25963 L 5.23358,-7.33939 L 5.19973,-7.41834 L 5.16396,-7.49644 L 5.12628,-7.57364 L 5.08672,-7.64989
 L 5.0453,-7.72514 L 5.00205,-7.79936 L 4.95699,-7.87249 L 4.91014,-7.9445 L 4.86155,-8.01533 L 4.81123,-8.08495
 L 4.75921,-8.15331 L 4.70554,-8.22038 L 4.65023,-8.2861 L 4.59333,-8.35046 L 4.53486,-8.41339 L 4.47487,-8.47487
 L 4.41339,-8.53486 L 4.35046,-8.59333 L 4.2861,-8.65023 L 4.22038,-8.70554 L 4.15331,-8.75921 L 4.08495,-8.81123
 L 4.01533,-8.86155 L 3.9445,-8.91014 L 3.87249,-8.95699 L 3.79936,-9.00205 L 3.72514,-9.0453 L 3.64989,-9.08672
 L 3.57364,-9.12628 L 3.49644,-9.16396 L 3.41834,-9.19973 L 3.33939,-9.23358 L 3.25963,-9.26547 L 3.17911,-9.2954
 L 3.09789,-9.32335 L 3.016,-9.34929 L 2.93349,-9.37322 L 2.85043,-9.39511 L 2.76685,-9.41496 L 2.68282,-9.43275
 L 2.59837,-9.44847 L 2.51356,-9.46212 L 2.42844,-9.47368 L 2.34306,-9.48315 L 2.25748,-9.49052 L 2.17174,-9.49578
 L 2.08589,-9.49895 L 2,-9.5 L 1.91411,-9.49895 L 1.82826,-9.49578 L 1.74252,-9.49052 L 1.65694,-9.48315
 L 1.57156,-9.47368 L 1.48644,-9.46212 L 1.40163,-9.44847 L 1.31718,-9.43275 L 1.23315,-9.41496 L 1.14957,-9.39511
 L 1.06651,-9.37322 L 0.984004,-9.34929 L 0.902114,-9.32335 L 0.820886,-9.2954 L 0.740368,-9.26547 L 0.660608,-9.23358
 L 0.581656,-9.19973 L 0.503557,-9.16396 L 0.426361,-9.12628 L 0.350112,-9.08672 L 0.274857,-9.0453 L 0.200641,-9.00205
 L 0.127509,-8.95699 L 0.0555048,-8.91014 L -0.0153284,-8.86155 L -0.0849466,-8.81123 L -0.15331,-8.75921 L -0.220376,-8.70554
 L -0.286104,-8.65023 L -0.350456,-8.59333 L -0.413391,-8.53486 L -0.474874,-8.47487 L -0.534864,-8.41339 L -0.593328,-8.35046
 L -0.65023,-8.2861 L -0.705536,-8.22038 L -0.759212,-8.15331 L -0.811226,-8.08495 L -0.861547,-8.01533 L -0.910143,-7.9445
 L -0.956987,-7.87249 L -1.00205,-7.79936 L -1.0453,-7.72514 L -1.08672,-7.64989 L -1.12628,-7.57364 L -1.16396,-7.49644
 L -1.19973,-7.41834 L -1.23358,-7.33939 L -1.26547,-7.25963 L -1.2954,-7.17911 L -1.32335,-7.09789 L -1.34929,-7.016
 L -1.37322,-6.93349 L -1.39511,-6.85043 L -1.41496,-6.76685 L -1.43275,-6.68282 L -1.44847,-6.59837 L -1.46212,-6.51356
 L -1.47368,-6.42844 L -1.48315,-6.34306 L -1.49052,-6.25748 L -1.49578,-6.17174 L -1.49895,-6.08589 L -1.5,-6
 L -1.49895,-5.91411 L -1.49578,-5.82826 L -1.49052,-5.74252 L -1.48315,-5.65694 L -1.47368,-5.57156 L -1.46212,-5.48644
 L -1.44847,-5.40163 L -1.43275,-5.31718 L -1.41496,-5.23314 L -1.39511,-5.14957 L -1.37322,-5.0665 L -1.34929,-4.984
 L -1.32335,-4.90211 L -1.2954,-4.82088 L -1.26547,-4.74037 L -1.23358,-4.66061 L -1.19973,-4.58165 L -1.16396,-4.50356
 L -1.12628,-4.42636 L -1.08672,-4.35011 L -1.0453,-4.27486 L -1.00205,-4.20064 L -0.956987,-4.12751 L -0.910143,-4.0555
 L -0.861547,-3.98467 L -0.811226,-3.91505 L -0.759212,-3.84669 L -0.705536,-3.77962 L -0.65023,-3.71389 L -0.593328,-3.64954
 L -0.534864,-3.58661 L -0.474874,-3.52513 L -0.413391,-3.46513 L -0.350456,-3.40667 L -0.286104,-3.34977 L -0.220376,-3.29446
 L -0.15331,-3.24079 L -0.0849466,-3.18877 L -0.0153284,-3.13845 L 0.0555048,-3.08986 L 0.111199,-3.05362 L 0.5,5.5
 L -0.5,5.5 L -0.5,6.5 L -2,6.5 L -2,9.5 L 6,9.5 z
M -9.98773,2.99985 L -9.97547,2.9994 L -9.96322,2.99864 L -9.95099,2.99759 L -9.93879,2.99624 L -9.92663,2.99459
 L -9.91452,2.99264 L -9.90245,2.99039 L -9.89045,2.98785 L -9.87851,2.98501 L -9.86664,2.98189 L -9.85486,2.97847
 L -9.84316,2.97476 L -9.83155,2.97077 L -9.82005,2.9665 L -9.80866,2.96194 L -9.79738,2.9571 L -9.78622,2.95199
 L -9.77519,2.94661 L -4.7752,0.446611 L -4.7643,0.44096 L -4.75355,0.435043 L -4.74295,0.428864 L -4.7325,0.422426
 L -4.72222,0.415734 L -4.7121,0.408792 L -4.70215,0.401604 L -4.69238,0.394173 L -4.6828,0.386505 L -4.67341,0.378604
 L -4.66422,0.370475 L -4.65523,0.362123 L -4.64645,0.353553 L -4.63788,0.344769 L -4.62953,0.335779 L -4.6214,0.326586
 L -4.61349,0.317196 L -4.60583,0.307615 L -4.5984,0.297849 L -4.59121,0.287904 L -4.58427,0.277784 L -4.57757,0.267498
 L -4.57114,0.257051 L -4.56496,0.246449 L -4.55904,0.235698 L -4.55339,0.224805 L -4.54801,0.213778 L -4.5429,0.202621
 L -4.53806,0.191341 L -4.5335,0.179947 L -4.52923,0.168445 L -4.52524,0.15684 L -4.52153,0.145142 L -4.51811,0.133356
 L -4.51499,0.12149 L -4.51215,0.10955 L -4.50961,0.0975447 L -4.50736,0.0854807 L -4.50541,0.0733652 L -4.50376,0.0612049
 L -4.50241,0.0490084 L -4.50136,0.0367823 L -4.5006,0.0245333 L -4.50015,0.01227 L -4.5,-0 L -4.50015,-0.01227
 L -4.5006,-0.0245333 L -4.50136,-0.0367823 L -4.50241,-0.0490084 L -4.50376,-0.0612049 L -4.50541,-0.0733652 L -4.50736,-0.0854807
 L -4.50961,-0.0975447 L -4.51215,-0.10955 L -4.51499,-0.12149 L -4.51811,-0.133356 L -4.52153,-0.145142 L -4.52524,-0.15684
 L -4.52923,-0.168445 L -4.5335,-0.179947 L -4.53806,-0.191341 L -4.5429,-0.202621 L -4.54801,-0.213778 L -4.55339,-0.224805
 L -4.55904,-0.235698 L -4.56496,-0.246449 L -4.57114,-0.257051 L -4.57757,-0.267498 L -4.58427,-0.277784 L -4.59121,-0.287904
 L -4.5984,-0.297849 L -4.60583,-0.307615 L -4.61349,-0.317196 L -4.6214,-0.326586 L -4.62953,-0.335779 L -4.63788,-0.344769
 L -4.64645,-0.353553 L -4.65523,-0.362123 L -4.66422,-0.370475 L -4.67341,-0.378604 L -4.6828,-0.386505 L -4.69238,-0.394173
 L -4.70215,-0.401604 L -4.7121,-0.408792 L -4.72222,-0.415734 L -4.7325,-0.422426 L -4.74295,-0.428864 L -4.75355,-0.435043
 L -4.7643,-0.44096 L -4.7752,-0.446611 L -9.77519,-2.94661 L -9.78622,-2.95199 L -9.79738,-2.9571 L -9.80866,-2.96194
 L -9.82005,-2.9665 L -9.83155,-2.97077 L -9.84316,-2.97476 L -9.85486,-2.97847 L -9.86664,-2.98189 L -9.87851,-2.98501
 L -9.89045,-2.98785 L -9.90245,-2.99039 L -9.91452,-2.99264 L -9.92663,-2.99459 L -9.93879,-2.99624 L -9.95099,-2.99759
 L -9.96322,-2.99864 L -9.97547,-2.9994 L -9.98773,-2.99985 L -10,-3 L -10.0123,-2.99985 L -10.0245,-2.9994
 L -10.0368,-2.99864 L -10.049,-2.99759 L -10.0612,-2.99624 L -10.0734,-2.99459 L -10.0855,-2.99264 L -10.0975,-2.99039
 L -10.1096,-2.98785 L -10.1215,-2.98501 L -10.1334,-2.98189 L -10.1451,-2.97847 L -10.1568,-2.97476 L -10.1684,-2.97077
 L -10.1799,-2.9665 L -10.1913,-2.96194 L -10.2026,-2.9571 L -10.2138,-2.95199 L -10.2248,-2.94661 L -10.2357,-2.94096
 L -10.2464,-2.93504 L -10.2571,-2.92886 L -10.2675,-2.92243 L -10.2778,-2.91573 L -10.2879,-2.90879 L -10.2978,-2.9016
 L -10.3076,-2.89417 L -10.3172,-2.88651 L -10.3266,-2.8786 L -10.3358,-2.87047 L -10.3448,-2.86212 L -10.3536,-2.85355
 L -10.3621,-2.84477 L -10.3705,-2.83578 L -10.3786,-2.82659 L -10.3865,-2.8172 L -10.3942,-2.80762 L -10.4016,-2.79785
 L -10.4088,-2.7879 L -10.4157,-2.77778 L -10.4224,-2.7675 L -10.4289,-2.75705 L -10.435,-2.74645 L -10.441,-2.7357
 L -10.4466,-2.7248 L -10.452,-2.71378 L -10.4571,-2.70262 L -10.4619,-2.69134 L -10.4665,-2.67995 L -10.4708,-2.66844
 L -10.4748,-2.65684 L -10.4785,-2.64514 L -10.4819,-2.63336 L -10.485,-2.62149 L -10.4879,-2.60955 L -10.4904,-2.59754
 L -10.4926,-2.58548 L -10.4946,-2.57337 L -10.4962,-2.5612 L -10.4976,-2.54901 L -10.4986,-2.53678 L -10.4994,-2.52453
 L -10.4998,-2.51227 L -10.5,-2.5 L -10.5,-1.69139 L -12.9388,-1.99624 L -12.951,-1.99759 L -12.9632,-1.99864
 L -12.9755,-1.9994 L -12.9877,-1.99985 L -13,-2 L -13.0123,-1.99985 L -13.0245,-1.9994 L -13.0368,-1.99864
 L -13.049,-1.99759 L -13.0612,-1.99624 L -13.0734,-1.99459 L -13.0855,-1.99264 L -13.0975,-1.99039 L -13.1096,-1.98785
 L -13.1215,-1.98501 L -13.1334,-1.98189 L -13.1451,-1.97847 L -13.1568,-1.97476 L -13.1684,-1.97077 L -13.1799,-1.9665
 L -13.1913,-1.96194 L -13.2026,-1.9571 L -13.2138,-1.95199 L -13.2248,-1.94661 L -13.2357,-1.94096 L -13.2464,-1.93504
 L -13.2571,-1.92886 L -13.2675,-1.92243 L -13.2778,-1.91573 L -13.2879,-1.90879 L -13.2978,-1.9016 L -13.3076,-1.89417
 L -13.3172,-1.88651 L -13.3266,-1.8786 L -13.3358,-1.87047 L -13.3448,-1.86212 L -13.3536,-1.85355 L -13.3621,-1.84477
 L -13.3705,-1.83578 L -13.3786,-1.82659 L -13.3865,-1.8172 L -13.3942,-1.80762 L -13.4016,-1.79785 L -13.4088,-1.7879
 L -13.4157,-1.77778 L -13.4224,-1.7675 L -13.4289,-1.75705 L -13.435,-1.74645 L -13.441,-1.7357 L -13.4466,-1.7248
 L -13.452,-1.71378 L -13.4571,-1.70262 L -13.4619,-1.69134 L -13.4665,-1.67995 L -13.4708,-1.66844 L -13.4748,-1.65684
 L -13.4785,-1.64514 L -13.4819,-1.63336 L -13.485,-1.62149 L -13.4879,-1.60955 L -13.4904,-1.59754 L -13.4926,-1.58548
 L -13.4946,-1.57337 L -13.4962,-1.5612 L -13.4976,-1.54901 L -13.4986,-1.53678 L -13.4994,-1.52453 L -13.4998,-1.51227
 L -13.5,-1.5 L -13.5,1.5 L -13.4998,1.51227 L -13.4994,1.52453 L -13.4986,1.53678 L -13.4976,1.54901
 L -13.4962,1.5612 L -13.4946,1.57337 L -13.4926,1.58548 L -13.4904,1.59754 L -13.4879,1.60955 L -13.485,1.62149
 L -13.4819,1.63336 L -13.4785,1.64514 L -13.4748,1.65684 L -13.4708,1.66844 L -13.4665,1.67995 L -13.4619,1.69134
 L -13.4571,1.70262 L -13.452,1.71378 L -13.4466,1.7248 L -13.441,1.7357 L -13.435,1.74645 L -13.4289,1.75705
 L -13.4224,1.7675 L -13.4157,1.77778 L -13.4088,1.7879 L -13.4016,1.79785 L -13.3942,1.80762 L -13.3865,1.8172
 L -13.3786,1.82659 L -13.3705,1.83578 L -13.3621,1.84477 L -13.3536,1.85355 L -13.3448,1.86212 L -13.3358,1.87047
 L -13.3266,1.8786 L -13.3172,1.88651 L -13.3076,1.89417 L -13.2978,1.9016 L -13.2879,1.90879 L -13.2778,1.91573
 L -13.2675,1.92243 L -13.2571,1.92886 L -13.2464,1.93504 L -13.2357,1.94096 L -13.2248,1.94661 L -13.2138,1.95199
 L -13.2026,1.9571 L -13.1913,1.96194 L -13.1799,1.9665 L -13.1684,1.97077 L -13.1568,1.97476 L -13.1451,1.97847
 L -13.1334,1.98189 L -13.1215,1.98501 L -13.1096,1.98785 L -13.0975,1.99039 L -13.0855,1.99264 L -13.0734,1.99459
 L -13.0612,1.99624 L -13.049,1.99759 L -13.0368,1.99864 L -13.0245,1.9994 L -13.0123,1.99985 L -13,2
 L -12.9877,1.99985 L -12.9755,1.9994 L -12.9632,1.99864 L -12.951,1.99759 L -12.9388,1.99624 L -10.5,1.69139
 L -10.5,2.5 L -10.4998,2.51227 L -10.4994,2.52453 L -10.4986,2.53678 L -10.4976,2.54901 L -10.4962,2.5612
 L -10.4946,2.57337 L -10.4926,2.58548 L -10.4904,2.59754 L -10.4879,2.60955 L -10.485,2.62149 L -10.4819,2.63336
 L -10.4785,2.64514 L -10.4748,2.65684 L -10.4708,2.66844 L -10.4665,2.67995 L -10.4619,2.69134 L -10.4571,2.70262
 L -10.452,2.71378 L -10.4466,2.7248 L -10.441,2.7357 L -10.435,2.74645 L -10.4289,2.75705 L -10.4224,2.7675
 L -10.4157,2.77778 L -10.4088,2.7879 L -10.4016,2.79785 L -10.3942,2.80762 L -10.3865,2.8172 L -10.3786,2.82659
 L -10.3705,2.83578 L -10.3621,2.84477 L -10.3536,2.85355 L -10.3448,2.86212 L -10.3358,2.87047 L -10.3266,2.8786
 L -10.3172,2.88651 L -10.3076,2.89417 L -10.2978,2.9016 L -10.2879,2.90879 L -10.2778,2.91573 L -10.2675,2.92243
 L -10.2571,2.92886 L -10.2464,2.93504 L -10.2357,2.94096 L -10.2248,2.94661 L -10.2138,2.95199 L -10.2026,2.9571
 L -10.1913,2.96194 L -10.1799,2.9665 L -10.1684,2.97077 L -10.1568,2.97476 L -10.1451,2.97847 L -10.1334,2.98189
 L -10.1215,2.98501 L -10.1096,2.98785 L -10.0975,2.99039 L -10.0855,2.99264 L -10.0734,2.99459 L -10.0612,2.99624
 L -10.049,2.99759 L -10.0368,2.99864 L -10.0245,2.9994 L -10.0123,2.99985 L -10,3 z
" stroke="black" fill="lightgray" stroke-width="0.5"/>
</svg>
