<?xml version="1.0" standalone="no"?>
<!DOCTYPE svg PUBLIC "-//W3C//DTD SVG 1.1//EN" "http://www.w3.org/Graphics/SVG/1.1/DTD/svg11.dtd">
<svg width="22mm" height="20mm" viewBox="-16 -10 22 20" xmlns="http://www.w3.org/2000/svg" version="1.1">
<title>OpenSCAD Model</title>
<path d="
M 6,6.5 L 4.5,6.5 L 4.5,5.5 L 3.5,5.5 L 3.8888,-3.05362 L 3.9445,-3.08986
 L 4.01533,-3.13845 L 4.08495,-3.18877 L 4.15331,-3.24079 L 4.22038,-3.29446 L 4.2861,-3.34977 L 4.35046,-3.40667
 L 4.41339,-3.46513 L 4.47487,-3.52513 L 4.53486,-3.58661 L 4.59333,-3.64954 L 4.65023,-3.71389 L 4.70554,-3.77962
 L 4.75921,-3.84669 L 4.81123,-3.91505 L 4.86155,-3.98467 L 4.91014,-4.0555 L 4.95699,-4.12751 L 5.00205,-4.20064
 L 5.0453,-4.27486 L 5.08672,-4.35011 L 5.12628,-4.42636 L 5.16396,-4.50356 L 5.19973,-4.58165 L 5.23358,-4.66061
 L 5.26547,-4.74037 L 5.2954,-4.82088 L 5.32335,-4.90211 L 5.34929,-4.984 L 5.37322,-5.0665 L 5.39511,-5.14957
 L 5.41496,-5.23314 L 5.43275,-5.31718 L 5.44847,-5.40163 L 5.46212,-5.48644 L 5.47368,-5.57156 L 5.48315,-5.65694
 L 5.49052,-5.74252 L 5.49578,-5.82826 L 5.49895,-5.91411 L 5.5,-6 L 5.49895,-6.08589 L 5.49578,-6.17174
 L 5.49052,-6.25748 L 5.48315,-6.34306 L 5.47368,-6.42844 L 5.46212,-6.51356 L 5.44847,-6.59837 L 5.43275,-6.68282
 L 5.41496,-6.76685 L 5.39511,-6.85043 L 5.37322,-6.93349 L 5.34929,-7.016 L 5.32335,-7.09789 L 5.2954,-7.17911
 L 5.26547,-7.25963 L 5.23358,-7.33939 L 5.19973,-7.41834 L 5.16396,-7.49644 L 5.12628,-7.57364 L 5.08672,-7.64989
 L 5.0453,-7.72514 L 5.00205,-7.79936 L 4.95699,-7.87249 L 4.91014,-7.9445 L 4.86155,-8.01533 L 4.81123,-8.08495
 L 4.75921,-8.15331 L 4.70554,-8.22038 L 4.65023,-8.2861 L 4.59333,-8.35046 L 4.53486,-8.41339 L 4.47487,-8.47487
 L 4.41339,-8.53486 L 4.35046,-8.59333 L 4.2861,-8.65023 L 4.22038,-8.70554 L 4.15331,-8.75921 L 4.08495,-8.81123
 L 4.01533,-8.86155 L 3.9445,-8.91014 L 3.87249,-8.95699 L 3.79936,-9.00205 L 3.72514,-9.0453 L 3.64989,-9.08672
 L 3.57364,-9.12628 L 3.49644,-9.16396 L 3.41834,-9.19973 L 3.33939,-9.23358 L 3.25963,-9.26547 L 3.17911,-9.2954
 L 3.09789,-9.32335 L 3.016,-9.34929 L 2.93349,-9.37322 L 2.85043,-9.39511 L 2.76685,-9.41496 L 2.68282,-9.43275
 L 2.59837,-9.44847 L 2.51356,-9.46212 L 2.42844,-9.47368 L 2.34306,-9.48315 L 2.25748,-9.49052 L 2.17174,-9.49578
 L 2.08589,-9.49895 L 2,-9.5 L 1.91411,-9.49895 L 1.82826,-9.49578 L 1.74252,-9.49052 L 1.65694,-9.48315
 L 1.57156,-9.47368 L 1.48644,-9.46212 L 1.40163,-9.44847 L 1.31718,-9.43275 L 1.23315,-9.41496 L 1.14957,-9.39511
 L 1.06651,-9.37322 L 0.984004,-9.34929 L 0.902114,-9.32335 L 0.820886,-9.2954 L 0.740368,-9.26547 L 0.660608,-9.23358
 L 0.581656,-9.19973 L 0.503557,-9.16396 L 0.426361,-9.12628 L 0.350112,-9.08672 L 0.274857,-9.0453 L 0.200641,-9.00205
 L 0.127509,-8.95699 L 0.0555048,-8.91014 L -0.0153284,-8.86155 L -0.0849466,-8.81123 L -0.15331,-8.75921 L -0.220376,-8.70554
 L -0.286104,-8.65023 L -0.350456,-8.59333 L -0.413391,-8.53486 L -0.474874,-8.47487 L -0.534864,-8.41339 L -0.593328,-8.35046
 L -0.65023,-8.2861 L -0.705536,-8.22038 L -0.759212,-8.15331 L -0.811226,-8.08495 L -0.861547,-8.01533 L -0.910143,-7.9445
 L -0.956987,-7.87249 L -1.00205,-7.79936 L -1.0453,-7.72514 L -1.08672,-7.64989 L -1.12628,-7.57364 L -1.16396,-7.49644
 L -1.19973,-7.41834 L -1.23358,-7.33939 L -1.26547,-7.25963 L -1.2954,-7.17911 L -1.32335,-7.09789 L -1.34929,-7.016
 L -1.37322,-6.93349 L -1.39511,-6.85043 L -1.41496,-6.76685 L -1.43275,-6.68282 L -1.44847,-6.59837 L -1.46212,-6.51356
 L -1.47368,-6.42844 L -1.48315,-6.34306 L -1.49052,-6.25748 L -1.49578,-6.17174 L -1.49895,-6.08589 L -1.5,-6
 L -1.49895,-5.91411 L -1.49578,-5.82826 L -1.49052,-5.74252 L -1.48315,-5.65694 L -1.47368,-5.57156 L -1.46212,-5.48644
 L -1.44847,-5.40163 L -1.43275,-5.31718 L -1.41496,-5.23314 L -1.39511,-5.14957 L -1.37322,-5.0665 L -1.34929,-4.984
 L -1.32335,-4.90211 L -1.2954,-4.82088 L -1.26547,-4.74037 L -1.23358,-4.66061 L -1.19973,-4.58165 L -1.16396,-4.50356
 L -1.12628,-4.42636 L -1.08672,-4.35011 L -1.0453,-4.27486 L -1.00205,-4.20064 L -0.956987,-4.12751 L -0.910143,-4.0555
 L -0.861547,-3.98467 L -0.811226,-3.91505 L -0.759212,-3.84669 L -0.705536,-3.77962 L -0.65023,-3.71389 L -0.593328,-3.64954
 L -0.534864,-3.58661 L -0.474874,-3.52513 L -0.413391,-3.46513 L -0.350456,-3.40667 L -0.286104,-3.34977 L -0.220376,-3.29446
 L -0.15331,-3.24079 L -0.0849466,-3.18877 L -0.0153284,-3.13845 L 0.0555048,-3.08986 L 0.111199,-3.05362 L 0.5,5.5
 L -0.5,5.5 L -0.5,6.5 L -2,6.5 L -2,9.5 L 6,9.5 z
M -9.98773,2.99985 L -9.97547,2.9994 L -9.96322,2.99864 L -9.95099,2.99759 L -9.9388,2.99624 L -9.92663,2.99459
 L -9.91452,2.99264 L -9.90246,2.99039 L -9.89045,2.98785 L -9.87851,2.98501 L -9.86664,2.98189 L -9.85486,2.97847
 L -9.84316,2.97476 L -9.83156,2.97077 L -9.82005,2.9665 L -9.80866,2.96194 L -9.79738,2.9571 L -9.78622,2.95199
 L -9.7752,2.94661 L -9.7643,2.94096 L -9.75355,2.93504 L -9.74295,2.92886 L -9.7325,2.92243 L -9.72222,2.91573
 L -9.7121,2.90879 L -9.70215,2.9016 L -9.69238,2.89417 L -9.6828,2.88651 L -9.67341,2.8786 L -9.66422,2.87047
 L -9.65523,2.86212 L -9.64645,2.85355 L -9.63788,2.84477 L -9.62953,2.83578 L -9.6214,2.82659 L -9.61349,2.8172
 L -9.60583,2.80762 L -9.5984,2.79785 L -9.59121,2.7879 L -9.58427,2.77778 L -9.57757,2.7675 L -9.57114,2.75705
 L -9.56496,2.74645 L -9.55904,2.7357 L -9.55339,2.7248 L -9.54801,2.71378 L -9.5429,2.70262 L -9.53806,2.69134
 L -9.5335,2.67995 L -9.52923,2.66844 L -9.52524,2.65684 L -9.52153,2.64514 L -9.51811,2.63336 L -9.51499,2.62149
 L -9.51215,2.60955 L -9.50961,2.59754 L -9.50736,2.58548 L -9.50541,2.57337 L -9.50376,2.5612 L -9.50241,2.54901
 L -9.50136,2.53678 L -9.5006,2.52453 L -9.50015,2.51227 L -9.5,2.5 L -9.5,1.69139 L -7.06121,1.99624
 L -7.04901,1.99759 L -7.03678,1.99864 L -7.02453,1.9994 L -7.01227,1.99985 L -7,2 L -6.98773,1.99985
 L -6.97547,1.9994 L -6.96322,1.99864 L -6.95099,1.99759 L -6.9388,1.99624 L -6.92663,1.99459 L -6.91452,1.99264
 L -6.90246,1.99039 L -6.89045,1.98785 L -6.87851,1.98501 L -6.86664,1.98189 L -6.85486,1.97847 L -6.84316,1.97476
 L -6.83156,1.97077 L -6.82005,1.9665 L -6.80866,1.96194 L -6.79738,1.9571 L -6.78622,1.95199 L -6.7752,1.94661
 L -6.7643,1.94096 L -6.75355,1.93504 L -6.74295,1.92886 L -6.7325,1.92243 L -6.72222,1.91573 L -6.7121,1.90879
 L -6.70215,1.9016 L -6.69238,1.89417 L -6.6828,1.88651 L -6.67341,1.8786 L -6.66422,1.87047 L -6.65523,1.86212
 L -6.64645,1.85355 L -6.63788,1.84477 L -6.62953,1.83578 L -6.6214,1.82659 L -6.61349,1.8172 L -6.60583,1.80762
 L -6.5984,1.79785 L -6.59121,1.7879 L -6.58427,1.77778 L -6.57757,1.7675 L -6.57114,1.75705 L -6.56496,1.74645
 L -6.55904,1.7357 L -6.55339,1.7248 L -6.54801,1.71378 L -6.5429,1.70262 L -6.53806,1.69134 L -6.5335,1.67995
 L -6.52923,1.66844 L -6.52524,1.65684 L -6.52153,1.64514 L -6.51811,1.63336 L -6.51499,1.62149 L -6.51215,1.60955
 L -6.50961,1.59754 L -6.50736,1.58548 L -6.50541,1.57337 L -6.50376,1.5612 L -6.50241,1.54901 L -6.50136,1.53678
 L -6.5006,1.52453 L -6.50015,1.51227 L -6.5,1.5 L -6.5,-1.5 L -6.50015,-1.51227 L -6.5006,-1.52453
 L -6.50136,-1.53678 L -6.50241,-1.54901 L -6.50376,-1.5612 L -6.50541,-1.57337 L -6.50736,-1.58548 L -6.50961,-1.59754
 L -6.51215,-1.60955 L -6.51499,-1.62149 L -6.51811,-1.63336 L -6.52153,-1.64514 L -6.52524,-1.65684 L -6.52923,-1.66844
 L -6.5335,-1.67995 L -6.53806,-1.69134 L -6.5429,-1.70262 L -6.54801,-1.71378 L -6.55339,-1.7248 L -6.55904,-1.7357
 L -6.56496,-1.74645 L -6.57114,-1.75705 L -6.57757,-1.7675 L -6.58427,-1.77778 L -6.59121,-1.7879 L -6.5984,-1.79785
 L -6.60583,-1.80762 L -6.61349,-1.8172 L -6.6214,-1.82659 L -6.62953,-1.83578 L -6.63788,-1.84477 L -6.64645,-1.85355
 L -6.65523,-1.86212 L -6.66422,-1.87047 L -6.67341,-1.8786 L -6.6828,-1.88651 L -6.69238,-1.89417 L -6.70215,-1.9016
 L -6.7121,-1.90879 L -6.72222,-1.91573 L -6.7325,-1.92243 L -6.74295,-1.92886 L -6.75355,-1.93504 L -6.7643,-1.94096
 L -6.7752,-1.94661 L -6.78622,-1.95199 L -6.79738,-1.9571 L -6.80866,-1.96194 L -6.82005,-1.9665 L -6.83156,-1.97077
 L -6.84316,-1.97476 L -6.85486,-1.97847 L -6.86664,-1.98189 L -6.87851,-1.98501 L -6.89045,-1.98785 L -6.90246,-1.99039
 L -6.91452,-1.99264 L -6.92663,-1.99459 L -6.9388,-1.99624 L -6.95099,-1.99759 L -6.96322,-1.99864 L -6.97547,-1.9994
 L -6.98773,-1.99985 L -7,-2 L -7.01227,-1.99985 L -7.02453,-1.9994 L -7.03678,-1.99864 L -7.04901,-1.99759
 L -7.06121,-1.99624 L -9.5,-1.69139 L -9.5,-2.5 L -9.50015,-2.51227 L -9.5006,-2.52453 L -9.50136,-2.53678
 L -9.50241,-2.54901 L -9.50376,-2.5612 L -9.50541,-2.57337 L -9.50736,-2.58548 L -9.50961,-2.59754 L -9.51215,-2.60955
 L -9.51499,-2.62149 L -9.51811,-2.63336 L -9.52153,-2.64514 L -9.52524,-2.65684 L -9.52923,-2.66844 L -9.5335,-2.67995
 L -9.53806,-2.69134 L -9.5429,-2.70262 L -9.54801,-2.71378 L -9.55339,-2.7248 L -9.55904,-2.7357 L -9.56496,-2.74645
 L -9.57114,-2.75705 L -9.57757,-2.7675 L -9.58427,-2.77778 L -9.59121,-2.7879 L -9.5984,-2.79785 L -9.60583,-2.80762
 L -9.61349,-2.8172 L -9.6214,-2.82659 L -9.62953,-2.83578 L -9.63788,-2.84477 L -9.64645,-2.85355 L -9.65523,-2.86212
 L -9.66422,-2.87047 L -9.67341,-2.8786 L -9.6828,-2.88651 L -9.69238,-2.89417 L -9.70215,-2.9016 L -9.7121,-2.90879
 L -9.72222,-2.91573 L -9.7325,-2.92243 L -9.74295,-2.92886 L -9.75355,-2.93504 L -9.7643,-2.94096 L -9.7752,-2.94661
 L -9.78622,-2.95199 L -9.79738,-2.9571 L -9.80866,-2.96194 L -9.82005,-2.9665 L -9.83156,-2.97077 L -9.84316,-2.97476
 L -9.85486,-2.97847 L -9.86664,-2.98189 L -9.87851,-2.98501 L -9.89045,-2.98785 L -9.90246,-2.99039 L -9.91452,-2.99264
 L -9.92663,-2.99459 L -9.9388,-2.99624 L -9.95099,-2.99759 L -9.96322,-2.99864 L -9.97547,-2.9994 L -9.98773,-2.99985
 L -10,-3 L -10.0123,-2.99985 L -10.0245,-2.9994 L -10.0368,-2.99864 L -10.049,-2.99759 L -10.0612,-2.99624
 L -10.0734,-2.99459 L -10.0855,-2.99264 L -10.0975,-2.99039 L -10.1096,-2.98785 L -10.1215,-2.98501 L -10.1334,-2.98189
 L -10.1451,-2.97847 L -10.1568,-2.97476 L -10.1684,-2.97077 L -10.1799,-2.9665 L -10.1913,-2.96194 L -10.2026,-2.9571
 L -10.2138,-2.95199 L -10.2248,-2.94661 L -15.2248,-0.446611 L -15.2357,-0.44096 L -15.2464,-0.435043 L -15.2571,-0.428864
 L -15.2675,-0.422426 L -15.2778,-0.415734 L -15.2879,-0.408792 L -15.2978,-0.401604 L -15.3076,-0.394173 L -15.3172,-0.386505
 L -15.3266,-0.378604 L -15.3358,-0.370475 L -15.3448,-0.362123 L -15.3536,-0.353553 L -15.3621,-0.344769 L -15.3705,-0.335779
 L -15.3786,-0.326586 L -15.3865,-0.317196 L -15.3942,-0.307615 L -15.4016,-0.297849 L -15.4088,-0.287904 L -15.4157,-0.277784
 L -15.4224,-0.267498 L -15.4289,-0.257051 L -15.435,-0.246449 L -15.441,-0.235698 L -15.4466,-0.224805 L -15.452,-0.213778
 L -15.4571,-0.202621 L -15.4619,-0.191341 L -15.4665,-0.179947 L -15.4708,-0.168445 L -15.4748,-0.15684 L -15.4785,-0.145142
 L -15.4819,-0.133356 L -15.485,-0.12149 L -15.4879,-0.10955 L -15.4904,-0.0975447 L -15.4926,-0.0854807 L -15.4946,-0.0733652
 L -15.4962,-0.0612049 L -15.4976,-0.0490084 L -15.4986,-0.0367823 L -15.4994,-0.0245333 L -15.4998,-0.01227 L -15.5,-0
 L -15.4998,0.01227 L -15.4994,0.0245333 L -15.4986,0.0367823 L -15.4976,0.0490084 L -15.4962,0.0612049 L -15.4946,0.0733652
 L -15.4926,0.0854807 L -15.4904,0.0975447 L -15.4879,0.10955 L -15.485,0.12149 L -15.4819,0.133356 L -15.4785,0.145142
 L -15.4748,0.15684 L -15.4708,0.168445 L -15.4665,0.179947 L -15.4619,0.191341 L -15.4571,0.202621 L -15.452,0.213778
 L -15.4466,0.224805 L -15.441,0.235698 L -15.435,0.246449 L -15.4289,0.257051 L -15.4224,0.267498 L -15.4157,0.277784
 L -15.4088,0.287904 L -15.4016,0.297849 L -15.3942,0.307615 L -15.3865,0.317196 L -15.3786,0.326586 L -15.3705,0.335779
 L -15.3621,0.344769 L -15.3536,0.353553 L -15.3448,0.362123 L -15.3358,0.370475 L -15.3266,0.378604 L -15.3172,0.386505
 L -15.3076,0.394173 L -15.2978,0.401604 L -15.2879,0.408792 L -15.2778,0.415734 L -15.2675,0.422426 L -15.2571,0.428864
 L -15.2464,0.435043 L -15.2357,0.44096 L -15.2248,0.446611 L -10.2248,2.94661 L -10.2138,2.95199 L -10.2026,2.9571
 L -10.1913,2.96194 L -10.1799,2.9665 L -10.1684,2.97077 L -10.1568,2.97476 L -10.1451,2.97847 L -10.1334,2.98189
 L -10.1215,2.98501 L -10.1096,2.98785 L -10.0975,2.99039 L -10.0855,2.99264 L -10.0734,2.99459 L -10.0612,2.99624
 L -10.049,2.99759 L -10.0368,2.99864 L -10.0245,2.9994 L -10.0123,2.99985 L -10,3 z
" stroke="black" fill="lightgray" stroke-width="0.5"/>
</svg>
