<?xml version="1.0" standalone="no"?>
<!DOCTYPE svg PUBLIC "-//W3C//DTD SVG 1.1//EN" "http://www.w3.org/Graphics/SVG/1.1/DTD/svg11.dtd">
<svg width="24mm" height="24mm" viewBox="-12 -12 24 24" xmlns="http://www.w3.org/2000/svg" version="1.1">
<title>OpenSCAD Model</title>
<path d="
M 4.29901,11.9976 L 4.34754,11.9904 L 4.39514,11.9785 L 4.44134,11.9619 L 4.4857,11.941 L 4.52778,11.9157
 L 4.5672,11.8865 L 4.60355,11.8536 L 4.63651,11.8172 L 4.66573,11.7778 L 4.69096,11.7357 L 4.71194,11.6913
 L 4.72847,11.6451 L 4.74039,11.5975 L 4.74759,11.549 L 4.75,11.5 L 4.75,4.75 L 11.5,4.75
 L 11.549,4.74759 L 11.5975,4.74039 L 11.6451,4.72847 L 11.6913,4.71194 L 11.7357,4.69096 L 11.7778,4.66573
 L 11.8172,4.63651 L 11.8536,4.60355 L 11.8865,4.5672 L 11.9157,4.52778 L 11.941,4.4857 L 11.9619,4.44134
 L 11.9785,4.39514 L 11.9904,4.34754 L 11.9976,4.29901 L 12,4.25 L 12,-4.25 L 11.9976,-4.29901
 L 11.9904,-4.34754 L 11.9785,-4.39514 L 11.9619,-4.44134 L 11.941,-4.4857 L 11.9157,-4.52778 L 11.8865,-4.5672
 L 11.8536,-4.60355 L 11.8172,-4.63651 L 11.7778,-4.66573 L 11.7357,-4.69096 L 11.6913,-4.71194 L 11.6451,-4.72847
 L 11.5975,-4.74039 L 11.549,-4.74759 L 11.5,-4.75 L 4.75,-4.75 L 4.75,-11.5 L 4.74759,-11.549
 L 4.74039,-11.5975 L 4.72847,-11.6451 L 4.71194,-11.6913 L 4.69096,-11.7357 L 4.66573,-11.7778 L 4.63651,-11.8172
 L 4.60355,-11.8536 L 4.5672,-11.8865 L 4.52778,-11.9157 L 4.4857,-11.941 L 4.44134,-11.9619 L 4.39514,-11.9785
 L 4.34754,-11.9904 L 4.29901,-11.9976 L 4.25,-12 L -4.25,-12 L -4.29901,-11.9976 L -4.34754,-11.9904
 L -4.39514,-11.9785 L -4.44134,-11.9619 L -4.4857,-11.941 L -4.52778,-11.9157 L -4.5672,-11.8865 L -4.60355,-11.8536
 L -4.63651,-11.8172 L -4.66573,-11.7778 L -4.69096,-11.7357 L -4.71194,-11.6913 L -4.72847,-11.6451 L -4.74039,-11.5975
 L -4.74759,-11.549 L -4.75,-11.5 L -4.75,-4.75 L -11.5,-4.75 L -11.549,-4.74759 L -11.5975,-4.74039
 L -11.6451,-4.72847 L -11.6913,-4.71194 L -11.7357,-4.69096 L -11.7778,-4.66573 L -11.8172,-4.63651 L -11.8536,-4.60355
 L -11.8865,-4.5672 L -11.9157,-4.52778 L -11.941,-4.4857 L -11.9619,-4.44134 L -11.9785,-4.39514 L -11.9904,-4.34754
 L -11.9976,-4.29901 L -12,-4.25 L -12,4.25 L -11.9976,4.29901 L -11.9904,4.34754 L -11.9785,4.39514
 L -11.9619,4.44134 L -11.941,4.4857 L -11.9157,4.52778 L -11.8865,4.5672 L -11.8536,4.60355 L -11.8172,4.63651
 L -11.7778,4.66573 L -11.7357,4.69096 L -11.6913,4.71194 L -11.6451,4.72847 L -11.5975,4.74039 L -11.549,4.74759
 L -11.5,4.75 L -4.75,4.75 L -4.75,11.5 L -4.74759,11.549 L -4.74039,11.5975 L -4.72847,11.6451
 L -4.71194,11.6913 L -4.69096,11.7357 L -4.66573,11.7778 L -4.63651,11.8172 L -4.60355,11.8536 L -4.5672,11.8865
 L -4.52778,11.9157 L -4.4857,11.941 L -4.44134,11.9619 L -4.39514,11.9785 L -4.34754,11.9904 L -4.29901,11.9976
 L -4.25,12 L 4.25,12 z
M -5.04901,2.99759 L -5.09754,2.99039 L -5.14514,2.97847 L -5.19134,2.96194 L -10.6913,0.461939 L -10.7357,0.44096
 L -10.7778,0.415734 L -10.8172,0.386505 L -10.8536,0.353553 L -10.8865,0.317196 L -10.9157,0.277784 L -10.941,0.235698
 L -10.9619,0.191341 L -10.9785,0.145142 L -10.9904,0.0975447 L -10.9976,0.0490084 L -11,-0 L -10.9976,-0.0490084
 L -10.9904,-0.0975447 L -10.9785,-0.145142 L -10.9619,-0.191341 L -10.941,-0.235698 L -10.9157,-0.277784 L -10.8865,-0.317196
 L -10.8536,-0.353553 L -10.8172,-0.386505 L -10.7778,-0.415734 L -10.7357,-0.44096 L -10.6913,-0.461939 L -5.19134,-2.96194
 L -5.14514,-2.97847 L -5.09754,-2.99039 L -5.04901,-2.99759 L -5,-3 L -4.95099,-2.99759 L -4.90245,-2.99039
 L -4.85486,-2.97847 L -4.80866,-2.96194 L -4.7643,-2.94096 L -4.72221,-2.91573 L -4.6828,-2.88651 L -4.64645,-2.85355
 L -4.61349,-2.8172 L -4.58426,-2.77778 L -4.55904,-2.7357 L -4.53806,-2.69134 L -4.52153,-2.64514 L -4.50961,-2.59754
 L -4.50241,-2.54901 L -4.5,-2.5 L -4.5,2.5 L -4.50241,2.54901 L -4.50961,2.59754 L -4.52153,2.64514
 L -4.53806,2.69134 L -4.55904,2.7357 L -4.58426,2.77778 L -4.61349,2.8172 L -4.64645,2.85355 L -4.6828,2.88651
 L -4.72221,2.91573 L -4.7643,2.94096 L -4.80866,2.96194 L -4.85486,2.97847 L -4.90245,2.99039 L -4.95099,2.99759
 L -5,3 z
M -0.245043,2.48796 L -0.487725,2.45196 L -0.725711,2.39235 L -0.956708,2.3097 L -1.17849,2.2048 L -1.38893,2.07867
 L -1.58598,1.93253 L -1.76777,1.76777 L -1.93253,1.58598 L -2.07867,1.38893 L -2.2048,1.17849 L -2.3097,0.956708
 L -2.39235,0.725711 L -2.45196,0.487725 L -2.48796,0.245043 L -2.5,-0 L -2.48796,-0.245043 L -2.45196,-0.487725
 L -2.39235,-0.725711 L -2.3097,-0.956708 L -2.2048,-1.17849 L -2.07867,-1.38893 L -1.93253,-1.58598 L -1.76777,-1.76777
 L -1.58598,-1.93253 L -1.38893,-2.07867 L -1.17849,-2.2048 L -0.956708,-2.3097 L -0.725711,-2.39235 L -0.487725,-2.45196
 L -0.245043,-2.48796 L 0,-2.5 L 0.245043,-2.48796 L 0.487725,-2.45196 L 0.725711,-2.39235 L 0.956708,-2.3097
 L 1.17849,-2.2048 L 1.38893,-2.07867 L 1.58598,-1.93253 L 1.76777,-1.76777 L 1.93253,-1.58598 L 2.07867,-1.38893
 L 2.2048,-1.17849 L 2.3097,-0.956708 L 2.39235,-0.725711 L 2.45196,-0.487725 L 2.48796,-0.245043 L 2.5,-0
 L 2.48796,0.245043 L 2.45196,0.487725 L 2.39235,0.725711 L 2.3097,0.956708 L 2.2048,1.17849 L 2.07867,1.38893
 L 1.93253,1.58598 L 1.76777,1.76777 L 1.58598,1.93253 L 1.38893,2.07867 L 1.17849,2.2048 L 0.956708,2.3097
 L 0.725711,2.39235 L 0.487725,2.45196 L 0.245043,2.48796 L 0,2.5 z
" stroke="black" fill="lightgray" stroke-width="0.5"/>
</svg>
