<?xml version="1.0" standalone="no"?>
<!DOCTYPE svg PUBLIC "-//W3C//DTD SVG 1.1//EN" "http://www.w3.org/Graphics/SVG/1.1/DTD/svg11.dtd">
<svg width="16mm" height="14mm" viewBox="-8 -6 16 14" xmlns="http://www.w3.org/2000/svg" version="1.1">
<title>OpenSCAD Model</title>
<path d="
M 7.5,6.5 L 6,6.5 L 6,-0 L 5.97111,-0.588102 L 5.88471,-1.17054 L 5.74164,-1.74171
 L 5.54328,-2.2961 L 5.29153,-2.82838 L 4.98882,-3.33342 L 4.63806,-3.80636 L 4.24264,-4.24264 L 3.80636,-4.63806
 L 3.33342,-4.98882 L 2.82838,-5.29153 L 2.2961,-5.54328 L 1.74171,-5.74164 L 1.17054,-5.88471 L 0.588102,-5.97111
 L 0,-6 L -0.588102,-5.97111 L -1.17054,-5.88471 L -1.74171,-5.74164 L -2.2961,-5.54328 L -2.82838,-5.29153
 L -3.33342,-4.98882 L -3.80636,-4.63806 L -4.24264,-4.24264 L -4.63806,-3.80636 L -4.98882,-3.33342 L -5.29153,-2.82838
 L -5.54328,-2.2961 L -5.74164,-1.74171 L -5.88471,-1.17054 L -5.97111,-0.588102 L -6,-0 L -6,6.5
 L -7.5,6.5 L -7.5,7.5 L 7.5,7.5 z
M -1.58195,3.4256 L -1.58195,2.995 L -1.54259,2.908 L -1.50134,2.82329 L -1.45821,2.74089 L -1.41319,2.6608
 L -1.36629,2.583 L -1.3175,2.50751 L -1.26684,2.43432 L -1.21428,2.36343 L -1.15985,2.29485 L -1.10415,2.22812
 L -1.04782,2.16281 L -0.990867,2.09893 L -0.933287,2.03647 L -0.875081,1.97544 L -0.81625,1.91583 L -0.756792,1.85764
 L -0.696709,1.80088 L -0.636,1.74555 L -0.575029,1.69136 L -0.514185,1.63804 L -0.453466,1.58561 L -0.392874,1.53406
 L -0.332407,1.48339 L -0.272066,1.43359 L -0.211851,1.38468 L -0.151763,1.33665 L -0.0917997,1.2895 L -0.032548,1.24279
 L 0.0254049,1.19608 L 0.0820608,1.14937 L 0.13742,1.10266 L 0.191481,1.05594 L 0.244244,1.00923 L 0.29571,0.962522
 L 0.345879,0.915811 L 0.39475,0.8691 L 0.441946,0.822126 L 0.487093,0.774652 L 0.530189,0.726677 L 0.571234,0.678201
 L 0.610228,0.629223 L 0.647172,0.579744 L 0.682065,0.529764 L 0.714908,0.479282 L 0.7457,0.4283 L 0.773812,0.376303
 L 0.798618,0.322801 L 0.820116,0.267794 L 0.838307,0.211282 L 0.85319,0.153266 L 0.864766,0.0937443 L 0.873034,0.0327177
 L 0.877995,-0.0298128 L 0.879649,-0.0938492 L 0.876802,-0.179084 L 0.868262,-0.259963 L 0.854028,-0.336489 L 0.834099,-0.408659
 L 0.808476,-0.476476 L 0.777161,-0.539938 L 0.74015,-0.599047 L 0.697447,-0.6538 L 0.64905,-0.7042 L 0.595597,-0.749743
 L 0.537709,-0.789927 L 0.475383,-0.824755 L 0.40862,-0.854224 L 0.33742,-0.878335 L 0.261783,-0.897088 L 0.181708,-0.910483
 L 0.0971975,-0.918521 L 0.00824928,-0.9212 L -0.0767097,-0.918583 L -0.158278,-0.910733 L -0.236455,-0.89765 L -0.311241,-0.879333
 L -0.382635,-0.855783 L -0.450639,-0.827 L -0.51525,-0.792983 L -0.57647,-0.753733 L -0.634299,-0.709249 L -0.687859,-0.660047
 L -0.736267,-0.606615 L -0.779528,-0.548955 L -0.817637,-0.487067 L -0.850599,-0.42095 L -0.87841,-0.350605 L -0.901073,-0.276031
 L -0.918586,-0.197229 L -0.930949,-0.1142 L -1.55485,-0.171849 L -1.53545,-0.296294 L -1.50739,-0.414963 L -1.47066,-0.527855
 L -1.42526,-0.634971 L -1.3712,-0.736309 L -1.30847,-0.831872 L -1.23708,-0.921658 L -1.15702,-1.00567 L -1.0683,-1.0839
 L -0.972293,-1.15507 L -0.870383,-1.21786 L -0.762571,-1.27229 L -0.648857,-1.31834 L -0.529241,-1.35602 L -0.403722,-1.38532
 L -0.2723,-1.40625 L -0.134976,-1.41881 L 0.00824928,-1.423 L 0.164615,-1.41879 L 0.312734,-1.40617 L 0.452605,-1.38514
 L 0.584229,-1.35569 L 0.707607,-1.31783 L 0.822739,-1.27155 L 0.929623,-1.21687 L 1.02826,-1.15376 L 1.11865,-1.08225
 L 1.20013,-1.00299 L 1.27203,-0.916655 L 1.33434,-0.823244 L 1.38707,-0.722758 L 1.43021,-0.615197 L 1.46376,-0.500561
 L 1.48773,-0.378849 L 1.50211,-0.250062 L 1.5069,-0.1142 L 1.50533,-0.0524635 L 1.50062,0.00918961 L 1.49277,0.0707607
 L 1.48178,0.132249 L 1.46766,0.193654 L 1.45039,0.254977 L 1.42998,0.316217 L 1.40644,0.377375 L 1.37975,0.43845
 L 1.34997,0.499483 L 1.31713,0.560516 L 1.28123,0.62155 L 1.24228,0.682583 L 1.20028,0.743616 L 1.15522,0.804649
 L 1.1071,0.865683 L 1.05593,0.926716 L 1.0017,0.987749 L 0.940292,1.05251 L 0.867583,1.12472 L 0.783572,1.20438
 L 0.688257,1.29149 L 0.581641,1.38605 L 0.463721,1.48806 L 0.3345,1.59752 L 0.193976,1.71444 L 0.0421495,1.8388
 L -0.0425367,1.90885 L -0.123289,1.97735 L -0.200105,2.0443 L -0.272985,2.1097 L -0.341929,2.17356 L -0.406939,2.23587
 L -0.468011,2.29663 L -0.525148,2.35584 L -0.578349,2.4135 L -0.627992,2.47016 L -0.674453,2.52636 L -0.717732,2.58209
 L -0.757831,2.63737 L -0.794747,2.69219 L -0.828483,2.74654 L -0.859036,2.80044 L -0.886409,2.85388 L -0.9106,2.90685
 L 1.5815,2.90685 L 1.5815,3.4256 z
" stroke="black" fill="lightgray" stroke-width="0.5"/>
</svg>
