<?xml version="1.0" standalone="no"?>
<!DOCTYPE svg PUBLIC "-//W3C//DTD SVG 1.1//EN" "http://www.w3.org/Graphics/SVG/1.1/DTD/svg11.dtd">
<svg width="16mm" height="14mm" viewBox="-8 -6 16 14" xmlns="http://www.w3.org/2000/svg" version="1.1">
<title>OpenSCAD Model</title>
<path d="
M 7.5,6.5 L 6,6.5 L 6,-0 L 5.99819,-0.147247 L 5.99277,-0.294406 L 5.98374,-0.441387
 L 5.97111,-0.588102 L 5.95488,-0.734464 L 5.93506,-0.880383 L 5.91166,-1.02577 L 5.88471,-1.17054 L 5.85421,-1.31461
 L 5.82019,-1.45788 L 5.78266,-1.60028 L 5.74164,-1.74171 L 5.69717,-1.88209 L 5.64926,-2.02134 L 5.59796,-2.15937
 L 5.54328,-2.2961 L 5.48526,-2.43145 L 5.42393,-2.56533 L 5.35935,-2.69767 L 5.29153,-2.82838 L 5.22052,-2.95739
 L 5.14637,-3.08462 L 5.06912,-3.20998 L 4.98882,-3.33342 L 4.90551,-3.45485 L 4.81924,-3.57419 L 4.73008,-3.69139
 L 4.63806,-3.80636 L 4.54325,-3.91904 L 4.44571,-4.02935 L 4.34548,-4.13724 L 4.24264,-4.24264 L 4.13724,-4.34548
 L 4.02935,-4.44571 L 3.91904,-4.54325 L 3.80636,-4.63806 L 3.69139,-4.73008 L 3.57419,-4.81924 L 3.45485,-4.90551
 L 3.33342,-4.98882 L 3.20998,-5.06912 L 3.08462,-5.14637 L 2.95739,-5.22052 L 2.82838,-5.29153 L 2.69767,-5.35935
 L 2.56533,-5.42393 L 2.43145,-5.48526 L 2.2961,-5.54328 L 2.15937,-5.59796 L 2.02134,-5.64926 L 1.88209,-5.69717
 L 1.74171,-5.74164 L 1.60028,-5.78266 L 1.45788,-5.82019 L 1.31461,-5.85421 L 1.17054,-5.88471 L 1.02577,-5.91166
 L 0.880383,-5.93506 L 0.734464,-5.95488 L 0.588102,-5.97111 L 0.441387,-5.98374 L 0.294406,-5.99277 L 0.147247,-5.99819
 L 0,-6 L -0.147247,-5.99819 L -0.294406,-5.99277 L -0.441387,-5.98374 L -0.588102,-5.97111 L -0.734464,-5.95488
 L -0.880383,-5.93506 L -1.02577,-5.91166 L -1.17054,-5.88471 L -1.31461,-5.85421 L -1.45788,-5.82019 L -1.60028,-5.78266
 L -1.74171,-5.74164 L -1.88209,-5.69717 L -2.02134,-5.64926 L -2.15937,-5.59796 L -2.2961,-5.54328 L -2.43145,-5.48526
 L -2.56533,-5.42393 L -2.69767,-5.35935 L -2.82838,-5.29153 L -2.95739,-5.22052 L -3.08462,-5.14637 L -3.20998,-5.06912
 L -3.33342,-4.98882 L -3.45485,-4.90551 L -3.57419,-4.81924 L -3.69139,-4.73008 L -3.80636,-4.63806 L -3.91904,-4.54325
 L -4.02935,-4.44571 L -4.13724,-4.34548 L -4.24264,-4.24264 L -4.34548,-4.13724 L -4.44571,-4.02935 L -4.54325,-3.91904
 L -4.63806,-3.80636 L -4.73008,-3.69139 L -4.81924,-3.57419 L -4.90551,-3.45485 L -4.98882,-3.33342 L -5.06912,-3.20998
 L -5.14637,-3.08462 L -5.22052,-2.95739 L -5.29153,-2.82838 L -5.35935,-2.69767 L -5.42393,-2.56533 L -5.48526,-2.43145
 L -5.54328,-2.2961 L -5.59796,-2.15937 L -5.64926,-2.02134 L -5.69717,-1.88209 L -5.74164,-1.74171 L -5.78266,-1.60028
 L -5.82019,-1.45788 L -5.85421,-1.31461 L -5.88471,-1.17054 L -5.91166,-1.02577 L -5.93506,-0.880383 L -5.95488,-0.734464
 L -5.97111,-0.588102 L -5.98374,-0.441387 L -5.99277,-0.294406 L -5.99819,-0.147247 L -6,-0 L -6,6.5
 L -7.5,6.5 L -7.5,7.5 L 7.5,7.5 z
M -1.49665,3.3888 L -1.49665,2.87005 L -0.279449,2.87005 L -0.279449,-0.8054 L -1.35765,-0.0357494 L -1.35765,-0.612149
 L -0.22855,-1.3886 L 0.334299,-1.3886 L 0.334299,2.87005 L 1.49725,2.87005 L 1.49725,3.3888 z
" stroke="black" fill="lightgray" stroke-width="0.5"/>
</svg>
