<?xml version="1.0" standalone="no"?>
<!DOCTYPE svg PUBLIC "-//W3C//DTD SVG 1.1//EN" "http://www.w3.org/Graphics/SVG/1.1/DTD/svg11.dtd">
<svg width="28mm" height="8mm" viewBox="-14 -4 28 8" xmlns="http://www.w3.org/2000/svg" version="1.1">
<title>OpenSCAD Model</title>
<path d="
M 10.0859,3.49895 L 10.1717,3.49578 L 10.2575,3.49052 L 10.3431,3.48315 L 10.4284,3.47368 L 10.5136,3.46212
 L 10.5984,3.44847 L 10.6828,3.43275 L 10.7669,3.41496 L 10.8504,3.39511 L 10.9335,3.37322 L 11.016,3.34929
 L 11.0979,3.32335 L 11.1791,3.2954 L 11.2596,3.26547 L 11.3394,3.23358 L 11.4183,3.19973 L 11.4964,3.16396
 L 11.5736,3.12628 L 11.6499,3.08672 L 11.7251,3.0453 L 11.7994,3.00205 L 11.8725,2.95699 L 11.9445,2.91014
 L 12.0153,2.86155 L 12.0849,2.81123 L 12.1533,2.75921 L 12.2204,2.70554 L 12.2861,2.65023 L 12.3505,2.59333
 L 12.4134,2.53486 L 12.4749,2.47487 L 12.5349,2.41339 L 12.5933,2.35046 L 12.6502,2.2861 L 12.7055,2.22038
 L 12.7592,2.15331 L 12.8112,2.08495 L 12.8615,2.01533 L 12.9101,1.9445 L 12.957,1.87249 L 13.002,1.79936
 L 13.0453,1.72514 L 13.0867,1.64989 L 13.1263,1.57364 L 13.164,1.49644 L 13.1997,1.41834 L 13.2336,1.33939
 L 13.2655,1.25963 L 13.2954,1.17911 L 13.3233,1.09789 L 13.3493,1.016 L 13.3732,0.933495 L 13.3951,0.85043
 L 13.415,0.766854 L 13.4327,0.682816 L 13.4485,0.598366 L 13.4621,0.513556 L 13.4737,0.428437 L 13.4831,0.34306
 L 13.4905,0.257476 L 13.4958,0.171737 L 13.4989,0.0858936 L 13.5,-0 L 13.4989,-0.0858936 L 13.4958,-0.171737
 L 13.4905,-0.257476 L 13.4831,-0.34306 L 13.4737,-0.428437 L 13.4621,-0.513556 L 13.4485,-0.598366 L 13.4327,-0.682816
 L 13.415,-0.766854 L 13.3951,-0.85043 L 13.3732,-0.933495 L 13.3493,-1.016 L 13.3233,-1.09789 L 13.2954,-1.17911
 L 13.2655,-1.25963 L 13.2336,-1.33939 L 13.1997,-1.41834 L 13.164,-1.49644 L 13.1263,-1.57364 L 13.0867,-1.64989
 L 13.0453,-1.72514 L 13.002,-1.79936 L 12.957,-1.87249 L 12.9101,-1.9445 L 12.8615,-2.01533 L 12.8112,-2.08495
 L 12.7592,-2.15331 L 12.7055,-2.22038 L 12.6502,-2.2861 L 12.5933,-2.35046 L 12.5349,-2.41339 L 12.4749,-2.47487
 L 12.4134,-2.53486 L 12.3505,-2.59333 L 12.2861,-2.65023 L 12.2204,-2.70554 L 12.1533,-2.75921 L 12.0849,-2.81123
 L 12.0153,-2.86155 L 11.9445,-2.91014 L 11.8725,-2.95699 L 11.7994,-3.00205 L 11.7251,-3.0453 L 11.6499,-3.08672
 L 11.5736,-3.12628 L 11.4964,-3.16396 L 11.4183,-3.19973 L 11.3394,-3.23358 L 11.2596,-3.26547 L 11.1791,-3.2954
 L 11.0979,-3.32335 L 11.016,-3.34929 L 10.9335,-3.37322 L 10.8504,-3.39511 L 10.7669,-3.41496 L 10.6828,-3.43275
 L 10.5984,-3.44847 L 10.5136,-3.46212 L 10.4284,-3.47368 L 10.3431,-3.48315 L 10.2575,-3.49052 L 10.1717,-3.49578
 L 10.0859,-3.49895 L 10,-3.5 L -10,-3.5 L -10.0859,-3.49895 L -10.1717,-3.49578 L -10.2575,-3.49052
 L -10.3431,-3.48315 L -10.4284,-3.47368 L -10.5136,-3.46212 L -10.5984,-3.44847 L -10.6828,-3.43275 L -10.7669,-3.41496
 L -10.8504,-3.39511 L -10.9335,-3.37322 L -11.016,-3.34929 L -11.0979,-3.32335 L -11.1791,-3.2954 L -11.2596,-3.26547
 L -11.3394,-3.23358 L -11.4183,-3.19973 L -11.4964,-3.16396 L -11.5736,-3.12628 L -11.6499,-3.08672 L -11.7251,-3.0453
 L -11.7994,-3.00205 L -11.8725,-2.95699 L -11.9445,-2.91014 L -12.0153,-2.86155 L -12.0849,-2.81123 L -12.1533,-2.75921
 L -12.2204,-2.70554 L -12.2861,-2.65023 L -12.3505,-2.59333 L -12.4134,-2.53486 L -12.4749,-2.47487 L -12.5349,-2.41339
 L -12.5933,-2.35046 L -12.6502,-2.2861 L -12.7055,-2.22038 L -12.7592,-2.15331 L -12.8112,-2.08495 L -12.8615,-2.01533
 L -12.9101,-1.9445 L -12.957,-1.87249 L -13.002,-1.79936 L -13.0453,-1.72514 L -13.0867,-1.64989 L -13.1263,-1.57364
 L -13.164,-1.49644 L -13.1997,-1.41834 L -13.2336,-1.33939 L -13.2655,-1.25963 L -13.2954,-1.17911 L -13.3233,-1.09789
 L -13.3493,-1.016 L -13.3732,-0.933495 L -13.3951,-0.85043 L -13.415,-0.766854 L -13.4327,-0.682816 L -13.4485,-0.598366
 L -13.4621,-0.513556 L -13.4737,-0.428437 L -13.4831,-0.34306 L -13.4905,-0.257476 L -13.4958,-0.171737 L -13.4989,-0.0858936
 L -13.5,-0 L -13.4989,0.0858936 L -13.4958,0.171737 L -13.4905,0.257476 L -13.4831,0.34306 L -13.4737,0.428437
 L -13.4621,0.513556 L -13.4485,0.598366 L -13.4327,0.682816 L -13.415,0.766854 L -13.3951,0.85043 L -13.3732,0.933495
 L -13.3493,1.016 L -13.3233,1.09789 L -13.2954,1.17911 L -13.2655,1.25963 L -13.2336,1.33939 L -13.1997,1.41834
 L -13.164,1.49644 L -13.1263,1.57364 L -13.0867,1.64989 L -13.0453,1.72514 L -13.002,1.79936 L -12.957,1.87249
 L -12.9101,1.9445 L -12.8615,2.01533 L -12.8112,2.08495 L -12.7592,2.15331 L -12.7055,2.22038 L -12.6502,2.2861
 L -12.5933,2.35046 L -12.5349,2.41339 L -12.4749,2.47487 L -12.4134,2.53486 L -12.3505,2.59333 L -12.2861,2.65023
 L -12.2204,2.70554 L -12.1533,2.75921 L -12.0849,2.81123 L -12.0153,2.86155 L -11.9445,2.91014 L -11.8725,2.95699
 L -11.7994,3.00205 L -11.7251,3.0453 L -11.6499,3.08672 L -11.5736,3.12628 L -11.4964,3.16396 L -11.4183,3.19973
 L -11.3394,3.23358 L -11.2596,3.26547 L -11.1791,3.2954 L -11.0979,3.32335 L -11.016,3.34929 L -10.9335,3.37322
 L -10.8504,3.39511 L -10.7669,3.41496 L -10.6828,3.43275 L -10.5984,3.44847 L -10.5136,3.46212 L -10.4284,3.47368
 L -10.3431,3.48315 L -10.2575,3.49052 L -10.1717,3.49578 L -10.0859,3.49895 L -10,3.5 L 10,3.5
 z
M -2.06235,2.3888 L -2.06235,-2.3886 L 0.185599,-2.3886 L 0.234171,-2.38827 L 0.282066,-2.38727 L 0.329286,-2.38562
 L 0.37583,-2.38329 L 0.421698,-2.38031 L 0.46689,-2.37666 L 0.511407,-2.37235 L 0.555248,-2.36738 L 0.598413,-2.36174
 L 0.640903,-2.35544 L 0.682716,-2.34848 L 0.723854,-2.34085 L 0.764317,-2.33256 L 0.804103,-2.32361 L 0.843213,-2.31399
 L 0.881648,-2.30371 L 0.919407,-2.29277 L 0.956491,-2.28117 L 0.992898,-2.2689 L 1.02863,-2.25596 L 1.06369,-2.24237
 L 1.09807,-2.22811 L 1.13177,-2.21319 L 1.1648,-2.1976 L 1.19715,-2.18136 L 1.22883,-2.16445 L 1.25983,-2.14687
 L 1.29016,-2.12863 L 1.31981,-2.10973 L 1.34878,-2.09017 L 1.37708,-2.06994 L 1.4047,-2.04905 L 1.43165,-2.0275
 L 1.45786,-2.00535 L 1.48326,-1.98269 L 1.50786,-1.95951 L 1.53165,-1.9358 L 1.55463,-1.91158 L 1.57681,-1.88683
 L 1.59818,-1.86157 L 1.61874,-1.83578 L 1.6385,-1.80947 L 1.65745,-1.78265 L 1.67559,-1.75531 L 1.69293,-1.72744
 L 1.70946,-1.69905 L 1.72519,-1.67015 L 1.74011,-1.64073 L 1.75422,-1.61078 L 1.76753,-1.58031 L 1.78003,-1.54933
 L 1.79172,-1.51782 L 1.80261,-1.4858 L 1.81269,-1.45325 L 1.82196,-1.42019 L 1.83043,-1.3866 L 1.83809,-1.3525
 L 1.84494,-1.31787 L 1.85099,-1.28273 L 1.85623,-1.24706 L 1.86067,-1.21088 L 1.8643,-1.17417 L 1.86712,-1.13695
 L 1.86914,-1.0992 L 1.87035,-1.06094 L 1.87075,-1.02215 L 1.87046,-0.990045 L 1.86961,-0.958251 L 1.86819,-0.926768
 L 1.86619,-0.895597 L 1.86363,-0.864738 L 1.86049,-0.834189 L 1.85679,-0.803952 L 1.85252,-0.774026 L 1.84767,-0.744411
 L 1.84226,-0.715108 L 1.83628,-0.686116 L 1.82972,-0.657435 L 1.8226,-0.629066 L 1.81491,-0.601007 L 1.80665,-0.573261
 L 1.79782,-0.545826 L 1.78841,-0.518702 L 1.77844,-0.491888 L 1.7679,-0.465386 L 1.75679,-0.439197 L 1.74511,-0.413318
 L 1.73286,-0.38775 L 1.72004,-0.362494 L 1.70665,-0.337548 L 1.69269,-0.312914 L 1.67816,-0.288591 L 1.66306,-0.26458
 L 1.64739,-0.24088 L 1.63115,-0.217491 L 1.61434,-0.194414 L 1.59697,-0.171648 L 1.57902,-0.149193 L 1.5605,-0.127049
 L 1.54148,-0.105308 L 1.52203,-0.0840578 L 1.50214,-0.0632992 L 1.48183,-0.0430336 L 1.46108,-0.0232592 L 1.43989,-0.00397682
 L 1.41828,0.0148125 L 1.39623,0.0331116 L 1.37375,0.0509176 L 1.35083,0.0682325 L 1.32749,0.0850554 L 1.30371,0.101386
 L 1.2795,0.117225 L 1.25485,0.132572 L 1.22978,0.147427 L 1.20427,0.16179 L 1.17832,0.175661 L 1.15195,0.18904
 L 1.12514,0.201928 L 1.0979,0.214323 L 1.07023,0.226227 L 1.04212,0.237638 L 1.01358,0.248558 L 0.984612,0.258986
 L 0.955208,0.268922 L 0.925371,0.278366 L 0.895102,0.287317 L 0.8644,0.295778 L 0.833265,0.303746 L 0.801698,0.311222
 L 0.769698,0.318207 L 0.737265,0.324699 L 0.704399,0.3307 L 2.06065,2.3888 L 1.3147,2.3888 L 0.0737,0.405299
 L -1.41475,0.405299 L -1.41475,2.3888 z
M 0.179116,-0.106919 L 0.209507,-0.107577 L 0.23947,-0.108675 L 0.269008,-0.110211 L 0.298119,-0.112187 L 0.326802,-0.114602
 L 0.35506,-0.117455 L 0.38289,-0.120749 L 0.410294,-0.12448 L 0.437271,-0.128651 L 0.463821,-0.133261 L 0.489945,-0.138309
 L 0.515643,-0.143797 L 0.540914,-0.149724 L 0.565758,-0.15609 L 0.590176,-0.162895 L 0.614166,-0.170139 L 0.637731,-0.177822
 L 0.660869,-0.185944 L 0.683579,-0.194505 L 0.705864,-0.203505 L 0.727722,-0.212944 L 0.749153,-0.222822 L 0.770158,-0.233139
 L 0.790735,-0.243896 L 0.810886,-0.255091 L 0.830611,-0.266725 L 0.849909,-0.278798 L 0.86878,-0.29131 L 0.887225,-0.304261
 L 0.905243,-0.317652 L 0.922834,-0.331481 L 0.94,-0.34575 L 0.956697,-0.360414 L 0.972881,-0.375429 L 0.988551,-0.390797
 L 1.00371,-0.406515 L 1.01835,-0.422586 L 1.03248,-0.439009 L 1.04609,-0.455784 L 1.0592,-0.47291 L 1.07178,-0.490388
 L 1.08386,-0.508218 L 1.09542,-0.5264 L 1.10646,-0.544933 L 1.11699,-0.563818 L 1.12701,-0.583055 L 1.13652,-0.602644
 L 1.14551,-0.622584 L 1.15399,-0.642878 L 1.16195,-0.663522 L 1.1694,-0.684518 L 1.17634,-0.705865 L 1.18276,-0.727565
 L 1.18867,-0.749617 L 1.19406,-0.772019 L 1.19894,-0.794774 L 1.20331,-0.817881 L 1.20716,-0.84134 L 1.2105,-0.865149
 L 1.21333,-0.889312 L 1.21564,-0.913826 L 1.21744,-0.938692 L 1.21872,-0.963909 L 1.21949,-0.989478 L 1.21975,-1.0154
 L 1.21949,-1.04049 L 1.21871,-1.06522 L 1.21741,-1.08959 L 1.21559,-1.11359 L 1.21325,-1.13723 L 1.21039,-1.1605
 L 1.20701,-1.1834 L 1.20311,-1.20595 L 1.19869,-1.22813 L 1.19375,-1.24994 L 1.18829,-1.27139 L 1.18231,-1.29248
 L 1.17581,-1.3132 L 1.16879,-1.33356 L 1.16125,-1.35355 L 1.15319,-1.37318 L 1.14461,-1.39245 L 1.13551,-1.41135
 L 1.12589,-1.42989 L 1.11575,-1.44806 L 1.10509,-1.46587 L 1.09391,-1.48331 L 1.0822,-1.50039 L 1.06998,-1.51711
 L 1.05724,-1.53346 L 1.04398,-1.54944 L 1.0302,-1.56507 L 1.0159,-1.58032 L 1.00108,-1.59522 L 0.985742,-1.60975
 L 0.969881,-1.62391 L 0.9535,-1.63771 L 0.9366,-1.65115 L 0.919213,-1.6642 L 0.901369,-1.67686 L 0.883067,-1.68911
 L 0.864307,-1.70095 L 0.845091,-1.7124 L 0.825416,-1.72345 L 0.805284,-1.73409 L 0.784694,-1.74433 L 0.763646,-1.75417
 L 0.742141,-1.76361 L 0.720178,-1.77265 L 0.697757,-1.78129 L 0.674878,-1.78952 L 0.651542,-1.79735 L 0.627748,-1.80478
 L 0.603497,-1.81181 L 0.578788,-1.81844 L 0.553621,-1.82466 L 0.527997,-1.83049 L 0.501914,-1.83591 L 0.475375,-1.84093
 L 0.448378,-1.84555 L 0.420922,-1.84977 L 0.393009,-1.85358 L 0.364639,-1.857 L 0.335811,-1.86001 L 0.306525,-1.86262
 L 0.276782,-1.86483 L 0.246581,-1.86664 L 0.215921,-1.86804 L 0.184806,-1.86905 L 0.153232,-1.86965 L 0.1212,-1.86985
 L -1.41475,-1.86985 L -1.41475,-0.1067 L 0.148299,-0.1067 z
" stroke="black" fill="lightgray" stroke-width="0.5"/>
</svg>
