<?xml version="1.0" standalone="no"?>
<!DOCTYPE svg PUBLIC "-//W3C//DTD SVG 1.1//EN" "http://www.w3.org/Graphics/SVG/1.1/DTD/svg11.dtd">
<svg width="30mm" height="20mm" viewBox="-15 -9 30 20" xmlns="http://www.w3.org/2000/svg" version="1.1">
<title>OpenSCAD Model</title>
<path d="
M -12.804,3.99037 L -12.6098,3.96157 L -12.4194,3.91388 L -12.2346,3.84776 L -12.0572,3.76384 L -11.8889,3.66294
 L -11.7312,3.54602 L -11.5858,3.41421 L -2.58579,-5.58579 L -2.45398,-5.73121 L -2.33706,-5.88886 L -2.23616,-6.05721
 L -2.15224,-6.23463 L -2.08612,-6.41943 L -2.03843,-6.60982 L -2.00963,-6.80397 L -2,-7 L -2.00963,-7.19603
 L -2.03843,-7.39018 L -2.08612,-7.58057 L -2.15224,-7.76537 L -2.23616,-7.94279 L -2.33706,-8.11114 L -2.45398,-8.26879
 L -2.58579,-8.41421 L -2.73121,-8.54602 L -2.88886,-8.66294 L -3.05721,-8.76384 L -3.23463,-8.84776 L -3.41943,-8.91388
 L -3.60982,-8.96157 L -3.80397,-8.99037 L -4,-9 L -4.19603,-8.99037 L -4.39018,-8.96157 L -4.58057,-8.91388
 L -4.76537,-8.84776 L -4.94279,-8.76384 L -5.11114,-8.66294 L -5.26879,-8.54602 L -5.41421,-8.41421 L -14.4142,0.585786
 L -14.546,0.731213 L -14.6629,0.888859 L -14.7638,1.05721 L -14.8478,1.23463 L -14.9139,1.41943 L -14.9616,1.60982
 L -14.9904,1.80397 L -15,2 L -14.9904,2.19603 L -14.9616,2.39018 L -14.9139,2.58057 L -14.8478,2.76537
 L -14.7638,2.94279 L -14.6629,3.11114 L -14.546,3.26879 L -14.4142,3.41421 L -14.2688,3.54602 L -14.1111,3.66294
 L -13.9428,3.76384 L -13.7654,3.84776 L -13.5806,3.91388 L -13.3902,3.96157 L -13.196,3.99037 L -13,4
 z
M 4.19603,3.99037 L 4.39018,3.96157 L 4.58057,3.91388 L 4.76537,3.84776 L 4.94279,3.76384 L 5.11114,3.66294
 L 5.26879,3.54602 L 5.41421,3.41421 L 14.4142,-5.58579 L 14.546,-5.73121 L 14.6629,-5.88886 L 14.7638,-6.05721
 L 14.8478,-6.23463 L 14.9139,-6.41943 L 14.9616,-6.60982 L 14.9904,-6.80397 L 15,-7 L 14.9904,-7.19603
 L 14.9616,-7.39018 L 14.9139,-7.58057 L 14.8478,-7.76537 L 14.7638,-7.94279 L 14.6629,-8.11114 L 14.546,-8.26879
 L 14.4142,-8.41421 L 14.2688,-8.54602 L 14.1111,-8.66294 L 13.9428,-8.76384 L 13.7654,-8.84776 L 13.5806,-8.91388
 L 13.3902,-8.96157 L 13.196,-8.99037 L 13,-9 L 12.804,-8.99037 L 12.6098,-8.96157 L 12.4194,-8.91388
 L 12.2346,-8.84776 L 12.0572,-8.76384 L 11.8889,-8.66294 L 11.7312,-8.54602 L 11.5858,-8.41421 L 2.58579,0.585786
 L 2.45398,0.731213 L 2.33706,0.888859 L 2.23616,1.05721 L 2.15224,1.23463 L 2.08612,1.41943 L 2.03843,1.60982
 L 2.00963,1.80397 L 2,2 L 2.00963,2.19603 L 2.03843,2.39018 L 2.08612,2.58057 L 2.15224,2.76537
 L 2.23616,2.94279 L 2.33706,3.11114 L 2.45398,3.26879 L 2.58579,3.41421 L 2.73121,3.54602 L 2.88886,3.66294
 L 3.05721,3.76384 L 3.23463,3.84776 L 3.41943,3.91388 L 3.60982,3.96157 L 3.80397,3.99037 L 4,4
 z
M -8.59527,10.4537 L -8.4022,10.4403 L -8.21955,10.4179 L -8.04732,10.3865 L -7.88551,10.3462 L -7.73413,10.297
 L -7.59317,10.2387 L -7.46264,10.1715 L -7.34252,10.0954 L -7.234,10.0111 L -7.13824,9.91942 L -7.05525,9.82038
 L -6.98502,9.71398 L -6.92757,9.60021 L -6.88288,9.47907 L -6.85096,9.35056 L -6.83181,9.21469 L -6.82542,9.07145
 L -6.82632,9.01427 L -6.82902,8.95876 L -6.83352,8.90492 L -6.83982,8.85276 L -6.84792,8.80228 L -6.85782,8.75347
 L -6.86952,8.70634 L -6.88302,8.66088 L -6.89832,8.6171 L -6.91522,8.57478 L -6.93349,8.53372 L -6.95314,8.49392
 L -6.97418,8.45537 L -6.99659,8.41807 L -7.02039,8.38203 L -7.04557,8.34725 L -7.07213,8.31372 L -7.10007,8.28145
 L -7.12927,8.25034 L -7.1596,8.22032 L -7.19106,8.19139 L -7.22365,8.16355 L -7.25738,8.1368 L -7.29223,8.11114
 L -7.32821,8.08657 L -7.36533,8.06309 L -7.40357,8.0407 L -7.44269,8.01916 L -7.48243,7.99825 L -7.5228,7.97796
 L -7.5638,7.9583 L -7.60543,7.93928 L -7.64769,7.92088 L -7.69057,7.90311 L -7.73408,7.88596 L -7.77822,7.86945
 L -7.82291,7.8535 L -7.86806,7.83805 L -7.91366,7.82311 L -7.95973,7.80867 L -8.00626,7.79473 L -8.05325,7.78129
 L -8.1007,7.76836 L -8.1486,7.75593 L -8.19697,7.744 L -8.24559,7.73234 L -8.29426,7.72073 L -8.34296,7.70916
 L -8.3917,7.69762 L -8.44048,7.68614 L -8.48931,7.67469 L -8.53817,7.66328 L -8.58708,7.65192 L -8.63602,7.6406
 L -8.7768,7.60876 L -8.90678,7.57806 L -9.02596,7.54849 L -9.13434,7.52005 L -9.23191,7.49273 L -9.31869,7.46655
 L -9.39467,7.44151 L -9.45985,7.41759 L -9.51422,7.3948 L -9.56193,7.37202 L -9.60707,7.34816 L -9.64967,7.3232
 L -9.68971,7.29716 L -9.7272,7.27004 L -9.76214,7.24182 L -9.79452,7.21252 L -9.82435,7.18213 L -9.85162,7.15065
 L -9.87617,7.11769 L -9.89783,7.08284 L -9.9166,7.04611 L -9.93248,7.00749 L -9.94547,6.96699 L -9.95558,6.92461
 L -9.9628,6.88034 L -9.96713,6.83419 L -9.96857,6.78615 L -9.96485,6.70482 L -9.95367,6.62809 L -9.93505,6.55597
 L -9.90897,6.48846 L -9.87544,6.42554 L -9.83446,6.36724 L -9.78603,6.31354 L -9.73015,6.26444 L -9.66682,6.21995
 L -9.59641,6.18009 L -9.5193,6.14493 L -9.43549,6.11445 L -9.34499,6.08866 L -9.24779,6.06756 L -9.14389,6.05115
 L -9.0333,6.03943 L -8.91601,6.03239 L -8.79202,6.03005 L -8.6788,6.03216 L -8.57118,6.03851 L -8.46916,6.04908
 L -8.37276,6.06388 L -8.28197,6.0829 L -8.19678,6.10616 L -8.1172,6.13365 L -8.04323,6.16536 L -7.97487,6.2013
 L -7.91166,6.24192 L -7.85314,6.28769 L -7.79931,6.3386 L -7.75016,6.39467 L -7.70571,6.45589 L -7.66594,6.52225
 L -7.63086,6.59377 L -7.60047,6.67043 L -7.57477,6.75225 L -6.93732,6.64035 L -6.97894,6.51133 L -7.02691,6.39097
 L -7.08125,6.27927 L -7.14195,6.17624 L -7.20901,6.08187 L -7.28244,5.99617 L -7.36222,5.91913 L -7.44837,5.85076
 L -7.54087,5.79105 L -7.64129,5.73874 L -7.75117,5.69258 L -7.87051,5.65258 L -7.99931,5.61873 L -8.13758,5.59103
 L -8.2853,5.56949 L -8.44248,5.55411 L -8.60912,5.54488 L -8.78522,5.5418 L -8.97462,5.5459 L -9.15401,5.55821
 L -9.3234,5.57872 L -9.48279,5.60744 L -9.63216,5.64436 L -9.77154,5.68949 L -9.9009,5.74282 L -10.0203,5.80436
 L -10.1296,5.8741 L -10.2282,5.95141 L -10.3151,6.03566 L -10.3905,6.12687 L -10.4543,6.22503 L -10.5065,6.33013
 L -10.547,6.44219 L -10.576,6.56119 L -10.5934,6.68715 L -10.5992,6.82005 L -10.5981,6.87883 L -10.5948,6.9361
 L -10.5892,6.99187 L -10.5815,7.04612 L -10.5715,7.09887 L -10.5593,7.15012 L -10.5449,7.19985 L -10.5282,7.24808
 L -10.5094,7.2948 L -10.4884,7.34011 L -10.4655,7.38412 L -10.4406,7.42683 L -10.4138,7.46825 L -10.3849,7.50837
 L -10.3542,7.5472 L -10.3214,7.58473 L -10.2867,7.62096 L -10.25,7.6559 L -10.2108,7.68982 L -10.1685,7.72303
 L -10.1232,7.75553 L -10.0748,7.78732 L -10.0234,7.8184 L -9.96893,7.84877 L -9.9114,7.87842 L -9.85081,7.90737
 L -9.78717,7.9356 L -9.71863,7.96348 L -9.64334,7.99135 L -9.56131,8.01923 L -9.47255,8.04711 L -9.37704,8.07499
 L -9.2748,8.10287 L -9.16581,8.13074 L -9.05009,8.15862 L -8.92762,8.1865 L -8.856,8.20295 L -8.7858,8.21915
 L -8.71703,8.23511 L -8.64968,8.25081 L -8.58375,8.26626 L -8.51925,8.28146 L -8.45617,8.2964 L -8.39451,8.3111
 L -8.33427,8.32555 L -8.27567,8.34024 L -8.21891,8.35568 L -8.164,8.37188 L -8.11092,8.38883 L -8.05969,8.40653
 L -8.0103,8.42499 L -7.96275,8.44421 L -7.91704,8.46418 L -7.87317,8.4849 L -7.83129,8.50662 L -7.79154,8.52959
 L -7.75392,8.55382 L -7.71844,8.57931 L -7.68509,8.60605 L -7.65389,8.63406 L -7.62481,8.66331 L -7.59788,8.69383
 L -7.57307,8.7256 L -7.55066,8.75909 L -7.53088,8.79475 L -7.51374,8.83259 L -7.49924,8.87261 L -7.48737,8.91481
 L -7.47814,8.95918 L -7.47155,9.00572 L -7.46759,9.05445 L -7.46627,9.10535 L -7.47048,9.19554 L -7.4831,9.28074
 L -7.50414,9.36097 L -7.53358,9.43621 L -7.57144,9.50647 L -7.61772,9.57175 L -7.67241,9.63205 L -7.73551,9.68736
 L -7.80702,9.7377 L -7.88628,9.78289 L -7.97262,9.82276 L -8.06603,9.85731 L -8.16652,9.88655 L -8.27408,9.91047
 L -8.38871,9.92908 L -8.51043,9.94237 L -8.63921,9.95034 L -8.77507,9.953 L -8.9068,9.95051 L -9.03225,9.94304
 L -9.15142,9.93058 L -9.26432,9.91315 L -9.37094,9.89073 L -9.47127,9.86333 L -9.56534,9.83095 L -9.65312,9.79359
 L -9.73462,9.75125 L -9.80997,9.70359 L -9.87928,9.65028 L -9.94257,9.59132 L -9.99983,9.52671 L -10.0511,9.45645
 L -10.0963,9.38054 L -10.1354,9.29898 L -10.1686,9.21176 L -10.1957,9.1189 L -10.823,9.24435 L -10.7431,9.49911
 L -10.6269,9.7239 L -10.4745,9.91871 L -10.2858,10.0836 L -10.0609,10.2184 L -9.79977,10.3233 L -9.50236,10.3983
 L -9.16869,10.4432 L -8.79877,10.4582 z
M 9.18277,6.14195 L 10.8238,6.14195 L 10.8238,5.613 L 6.89747,5.613 L 6.89747,6.14195 L 8.53857,6.14195
 L 8.53857,10.3904 L 9.18277,10.3904 z
M -4.06517,6.14195 L -2.42412,6.14195 L -2.42412,5.613 L -6.35047,5.613 L -6.35047,6.14195 L -4.70937,6.14195
 L -4.70937,10.3904 L -4.06517,10.3904 z
M 3.06922,8.4069 L 4.55767,8.4069 L 5.79867,10.3904 L 6.54462,10.3904 L 5.18837,8.3323 L 5.30677,8.30789
 L 5.41934,8.27687 L 5.5261,8.23924 L 5.62704,8.19499 L 5.72216,8.14413 L 5.81146,8.08665 L 5.89495,8.02257
 L 5.97262,7.95187 L 6.04447,7.87455 L 6.10959,7.79183 L 6.16704,7.70494 L 6.21684,7.61385 L 6.25897,7.51858
 L 6.29344,7.41912 L 6.32025,7.31548 L 6.3394,7.20766 L 6.35089,7.09565 L 6.35472,6.97945 L 6.3493,6.83978
 L 6.33304,6.7071 L 6.30594,6.58141 L 6.26799,6.46271 L 6.2192,6.35101 L 6.15957,6.24629 L 6.0891,6.14857
 L 6.00778,6.05784 L 5.91562,5.9741 L 5.81352,5.89831 L 5.70232,5.83144 L 5.58204,5.77349 L 5.45268,5.72445
 L 5.31423,5.68433 L 5.16669,5.65312 L 5.01007,5.63083 L 4.84437,5.61746 L 4.66957,5.613 L 2.42162,5.613
 L 2.42162,10.3904 L 3.06922,10.3904 z
M 3.06922,7.8949 L 3.06922,6.13175 L 4.60517,6.13175 L 4.72039,6.13445 L 4.82945,6.14255 L 4.93235,6.15605
 L 5.02911,6.17495 L 5.11971,6.19925 L 5.20415,6.22895 L 5.28245,6.26405 L 5.35459,6.30455 L 5.42057,6.35045
 L 5.48,6.4015 L 5.53244,6.45744 L 5.57788,6.51829 L 5.61633,6.58403 L 5.64779,6.65467 L 5.67226,6.73021
 L 5.68974,6.81064 L 5.70023,6.89597 L 5.70372,6.9862 L 5.70027,7.07952 L 5.68991,7.16812 L 5.67264,7.25198
 L 5.64847,7.33112 L 5.61738,7.40552 L 5.57939,7.4752 L 5.53449,7.54015 L 5.48269,7.60036 L 5.42397,7.65585
 L 5.35895,7.70602 L 5.28819,7.75029 L 5.2117,7.78866 L 5.12947,7.82112 L 5.0415,7.84768 L 4.9478,7.86834
 L 4.84836,7.88309 L 4.74318,7.89195 L 4.63227,7.8949 z
M -1.54572,8.99345 L 0.631024,8.99345 L 1.17692,10.3904 L 1.83812,10.3904 L -0.0809746,5.613 L -0.816774,5.613
 L -2.76637,10.3904 L -2.09502,10.3904 z
M -1.34907,8.48825 L -0.738774,6.9184 L -0.702857,6.82241 L -0.66895,6.73036 L -0.637053,6.64224 L -0.607164,6.55806
 L -0.579287,6.47782 L -0.553419,6.40151 L -0.529561,6.32914 L -0.507712,6.2607 L -0.487875,6.1962 L -0.457325,6.10125
 L -0.365774,6.3827 L -0.344685,6.44749 L -0.323594,6.51078 L -0.302503,6.57256 L -0.281409,6.63283 L -0.260315,6.69159
 L -0.239219,6.74885 L -0.218122,6.80461 L -0.197024,6.85886 L -0.175924,6.9116 L 0.437775,8.48825 z
" stroke="black" fill="lightgray" stroke-width="0.5"/>
</svg>
