<?xml version="1.0" standalone="no"?>
<!DOCTYPE svg PUBLIC "-//W3C//DTD SVG 1.1//EN" "http://www.w3.org/Graphics/SVG/1.1/DTD/svg11.dtd">
<svg width="28mm" height="8mm" viewBox="-14 -4 28 8" xmlns="http://www.w3.org/2000/svg" version="1.1">
<title>OpenSCAD Model</title>
<path d="
M 10.3431,3.48315 L 10.6828,3.43275 L 11.016,3.34929 L 11.3394,3.23358 L 11.6499,3.08672 L 11.9445,2.91014
 L 12.2204,2.70554 L 12.4749,2.47487 L 12.7055,2.22038 L 12.9101,1.9445 L 13.0867,1.64989 L 13.2336,1.33939
 L 13.3493,1.016 L 13.4327,0.682816 L 13.4831,0.34306 L 13.5,-0 L 13.4831,-0.34306 L 13.4327,-0.682816
 L 13.3493,-1.016 L 13.2336,-1.33939 L 13.0867,-1.64989 L 12.9101,-1.9445 L 12.7055,-2.22038 L 12.4749,-2.47487
 L 12.2204,-2.70554 L 11.9445,-2.91014 L 11.6499,-3.08672 L 11.3394,-3.23358 L 11.016,-3.34929 L 10.6828,-3.43275
 L 10.3431,-3.48315 L 10,-3.5 L -10,-3.5 L -10.3431,-3.48315 L -10.6828,-3.43275 L -11.016,-3.34929
 L -11.3394,-3.23358 L -11.6499,-3.08672 L -11.9445,-2.91014 L -12.2204,-2.70554 L -12.4749,-2.47487 L -12.7055,-2.22038
 L -12.9101,-1.9445 L -13.0867,-1.64989 L -13.2336,-1.33939 L -13.3493,-1.016 L -13.4327,-0.682816 L -13.4831,-0.34306
 L -13.5,-0 L -13.4831,0.34306 L -13.4327,0.682816 L -13.3493,1.016 L -13.2336,1.33939 L -13.0867,1.64989
 L -12.9101,1.9445 L -12.7055,2.22038 L -12.4749,2.47487 L -12.2204,2.70554 L -11.9445,2.91014 L -11.6499,3.08672
 L -11.3394,3.23358 L -11.016,3.34929 L -10.6828,3.43275 L -10.3431,3.48315 L -10,3.5 L 10,3.5
 z
M -2.06235,2.3888 L -2.06235,-2.3886 L 0.185599,-2.3886 L 0.360391,-2.38414 L 0.526095,-2.37077 L 0.682716,-2.34848
 L 0.830252,-2.31727 L 0.968701,-2.27715 L 1.09807,-2.22811 L 1.21835,-2.17016 L 1.32954,-2.10329 L 1.43165,-2.0275
 L 1.52381,-1.94376 L 1.60512,-1.85303 L 1.67559,-1.75531 L 1.73522,-1.65059 L 1.78401,-1.53889 L 1.82196,-1.42019
 L 1.84907,-1.2945 L 1.86533,-1.16182 L 1.87075,-1.02215 L 1.86692,-0.905953 L 1.85543,-0.793942 L 1.83628,-0.686116
 L 1.80947,-0.582476 L 1.77499,-0.48302 L 1.73286,-0.38775 L 1.68307,-0.296664 L 1.62561,-0.209764 L 1.5605,-0.127049
 L 1.48865,-0.0497341 L 1.41098,0.0209665 L 1.32749,0.0850554 L 1.23818,0.142529 L 1.14306,0.193391 L 1.04212,0.237638
 L 0.935365,0.275272 L 0.822791,0.306293 L 0.704399,0.3307 L 2.06065,2.3888 L 1.3147,2.3888 L 0.0737,0.405299
 L -1.41475,0.405299 L -1.41475,2.3888 z
M 0.25921,-0.109651 L 0.364384,-0.118505 L 0.463821,-0.133261 L 0.557525,-0.153919 L 0.645491,-0.18048 L 0.727722,-0.212944
 L 0.804216,-0.25131 L 0.874976,-0.295579 L 0.94,-0.34575 L 0.998713,-0.401237 L 1.05052,-0.461453 L 1.09542,-0.5264
 L 1.13341,-0.596075 L 1.16449,-0.670481 L 1.18867,-0.749617 L 1.20593,-0.833481 L 1.2163,-0.922075 L 1.21975,-1.0154
 L 1.21625,-1.10563 L 1.20577,-1.19096 L 1.18829,-1.27139 L 1.16382,-1.34693 L 1.13236,-1.41757 L 1.09391,-1.48331
 L 1.04846,-1.54415 L 0.996026,-1.6001 L 0.9366,-1.65115 L 0.870612,-1.69705 L 0.798471,-1.73755 L 0.720178,-1.77265
 L 0.635731,-1.80235 L 0.545131,-1.82665 L 0.448378,-1.84555 L 0.345471,-1.85905 L 0.236412,-1.86715 L 0.1212,-1.86985
 L -1.41475,-1.86985 L -1.41475,-0.1067 L 0.148299,-0.1067 z
" stroke="black" fill="lightgray" stroke-width="0.5"/>
</svg>
