<?xml version="1.0" standalone="no"?>
<!DOCTYPE svg PUBLIC "-//W3C//DTD SVG 1.1//EN" "http://www.w3.org/Graphics/SVG/1.1/DTD/svg11.dtd">
<svg width="30mm" height="20mm" viewBox="-15 -9 30 20" xmlns="http://www.w3.org/2000/svg" version="1.1">
<title>OpenSCAD Model</title>
<path d="
M -12.804,3.99037 L -12.6098,3.96157 L -12.4194,3.91388 L -12.2346,3.84776 L -12.0572,3.76384 L -11.8889,3.66294
 L -11.7312,3.54602 L -11.5858,3.41421 L -2.58579,-5.58579 L -2.45398,-5.73121 L -2.33706,-5.88886 L -2.23616,-6.05721
 L -2.15224,-6.23463 L -2.08612,-6.41943 L -2.03843,-6.60982 L -2.00963,-6.80397 L -2,-7 L -2.00963,-7.19603
 L -2.03843,-7.39018 L -2.08612,-7.58057 L -2.15224,-7.76537 L -2.23616,-7.94279 L -2.33706,-8.11114 L -2.45398,-8.26879
 L -2.58579,-8.41421 L -2.73121,-8.54602 L -2.88886,-8.66294 L -3.05721,-8.76384 L -3.23463,-8.84776 L -3.41943,-8.91388
 L -3.60982,-8.96157 L -3.80397,-8.99037 L -4,-9 L -4.19603,-8.99037 L -4.39018,-8.96157 L -4.58057,-8.91388
 L -4.76537,-8.84776 L -4.94279,-8.76384 L -5.11114,-8.66294 L -5.26879,-8.54602 L -5.41421,-8.41421 L -14.4142,0.585786
 L -14.546,0.731213 L -14.6629,0.888859 L -14.7638,1.05721 L -14.8478,1.23463 L -14.9139,1.41943 L -14.9616,1.60982
 L -14.9904,1.80397 L -15,2 L -14.9904,2.19603 L -14.9616,2.39018 L -14.9139,2.58057 L -14.8478,2.76537
 L -14.7638,2.94279 L -14.6629,3.11114 L -14.546,3.26879 L -14.4142,3.41421 L -14.2688,3.54602 L -14.1111,3.66294
 L -13.9428,3.76384 L -13.7654,3.84776 L -13.5806,3.91388 L -13.3902,3.96157 L -13.196,3.99037 L -13,4
 z
M 4.19603,3.99037 L 4.39018,3.96157 L 4.58057,3.91388 L 4.76537,3.84776 L 4.94279,3.76384 L 5.11114,3.66294
 L 5.26879,3.54602 L 5.41421,3.41421 L 14.4142,-5.58579 L 14.546,-5.73121 L 14.6629,-5.88886 L 14.7638,-6.05721
 L 14.8478,-6.23463 L 14.9139,-6.41943 L 14.9616,-6.60982 L 14.9904,-6.80397 L 15,-7 L 14.9904,-7.19603
 L 14.9616,-7.39018 L 14.9139,-7.58057 L 14.8478,-7.76537 L 14.7638,-7.94279 L 14.6629,-8.11114 L 14.546,-8.26879
 L 14.4142,-8.41421 L 14.2688,-8.54602 L 14.1111,-8.66294 L 13.9428,-8.76384 L 13.7654,-8.84776 L 13.5806,-8.91388
 L 13.3902,-8.96157 L 13.196,-8.99037 L 13,-9 L 12.804,-8.99037 L 12.6098,-8.96157 L 12.4194,-8.91388
 L 12.2346,-8.84776 L 12.0572,-8.76384 L 11.8889,-8.66294 L 11.7312,-8.54602 L 11.5858,-8.41421 L 2.58579,0.585786
 L 2.45398,0.731213 L 2.33706,0.888859 L 2.23616,1.05721 L 2.15224,1.23463 L 2.08612,1.41943 L 2.03843,1.60982
 L 2.00963,1.80397 L 2,2 L 2.00963,2.19603 L 2.03843,2.39018 L 2.08612,2.58057 L 2.15224,2.76537
 L 2.23616,2.94279 L 2.33706,3.11114 L 2.45398,3.26879 L 2.58579,3.41421 L 2.73121,3.54602 L 2.88886,3.66294
 L 3.05721,3.76384 L 3.23463,3.84776 L 3.41943,3.91388 L 3.60982,3.96157 L 3.80397,3.99037 L 4,4
 z
M 7.00961,10.4542 L 7.15999,10.4423 L 7.30614,10.4224 L 7.44806,10.3946 L 7.58576,10.3588 L 7.71922,10.315
 L 7.84846,10.2633 L 7.97347,10.2037 L 8.09425,10.1361 L 8.20998,10.0609 L 8.3198,9.97838 L 8.42372,9.88859
 L 8.52173,9.79152 L 8.61384,9.68716 L 8.70005,9.57552 L 8.78035,9.4566 L 8.85475,9.33039 L 8.92325,9.1969
 L 8.39435,8.93245 L 8.27593,9.14095 L 8.1452,9.32492 L 8.00217,9.48437 L 7.84682,9.61928 L 7.67917,9.72966
 L 7.49922,9.81552 L 7.30695,9.87684 L 7.10238,9.91363 L 6.8855,9.9259 L 6.71544,9.91931 L 6.55338,9.89953
 L 6.39931,9.86657 L 6.25324,9.82042 L 6.11516,9.76108 L 5.98508,9.68857 L 5.86299,9.60286 L 5.7489,9.50397
 L 5.6428,9.3919 L 5.54638,9.26897 L 5.46131,9.13755 L 5.38758,8.99763 L 5.32519,8.84921 L 5.27415,8.69229
 L 5.23444,8.52688 L 5.20609,8.35297 L 5.18907,8.17056 L 5.1834,7.97965 L 5.18884,7.78691 L 5.20516,7.6035
 L 5.23237,7.42943 L 5.27046,7.26469 L 5.31943,7.10929 L 5.37929,6.96323 L 5.45003,6.8265 L 5.53165,6.69911
 L 5.62415,6.58105 L 5.72646,6.47395 L 5.83748,6.37945 L 5.9572,6.29755 L 6.08563,6.22825 L 6.22277,6.17155
 L 6.36862,6.12745 L 6.52317,6.09595 L 6.68643,6.07705 L 6.8584,6.07075 L 6.96897,6.07347 L 7.07615,6.08163
 L 7.17994,6.09524 L 7.28034,6.11429 L 7.37734,6.13877 L 7.47095,6.1687 L 7.56118,6.20408 L 7.64801,6.24489
 L 7.73145,6.29115 L 7.81071,6.34254 L 7.885,6.3988 L 7.9543,6.4599 L 8.01862,6.52587 L 8.07796,6.59669
 L 8.13232,6.67237 L 8.18169,6.75291 L 8.22609,6.8383 L 8.2655,6.92855 L 8.8792,6.72515 L 8.82235,6.59835
 L 8.7588,6.47867 L 8.68856,6.36611 L 8.61162,6.26067 L 8.52798,6.16234 L 8.43764,6.07113 L 8.34061,5.98703
 L 8.23688,5.91006 L 8.12645,5.8402 L 8.00958,5.77757 L 7.88652,5.72231 L 7.75727,5.67442 L 7.62181,5.6339
 L 7.48016,5.60074 L 7.33232,5.57495 L 7.17827,5.55654 L 7.01803,5.54548 L 6.8516,5.5418 L 6.61484,5.54979
 L 6.3898,5.57378 L 6.17648,5.61376 L 5.97488,5.66972 L 5.785,5.74168 L 5.60684,5.82962 L 5.44041,5.93356
 L 5.28569,6.05348 L 5.1427,6.1894 L 5.0132,6.33942 L 4.89893,6.50167 L 4.79989,6.67614 L 4.7161,6.86283
 L 4.64754,7.06175 L 4.59421,7.27289 L 4.55612,7.49625 L 4.53327,7.73184 L 4.52565,7.97965 L 4.52906,8.14665
 L 4.53929,8.30859 L 4.55635,8.46546 L 4.58023,8.61726 L 4.61093,8.764 L 4.64845,8.90567 L 4.69279,9.04228
 L 4.74396,9.17382 L 4.80195,9.3003 L 4.86646,9.42106 L 4.93716,9.53547 L 5.01406,9.64351 L 5.09715,9.74518
 L 5.18644,9.8405 L 5.28193,9.92945 L 5.38361,10.012 L 5.49148,10.0883 L 5.60555,10.1581 L 5.72512,10.2211
 L 5.84951,10.2767 L 5.97871,10.3248 L 6.11273,10.3656 L 6.25155,10.3989 L 6.39519,10.4249 L 6.54365,10.4434
 L 6.69692,10.4545 L 6.855,10.4582 z
M -11.0418,10.4537 L -10.8487,10.4403 L -10.6661,10.4179 L -10.4938,10.3865 L -10.332,10.3462 L -10.1807,10.297
 L -10.0397,10.2387 L -9.90916,10.1715 L -9.78905,10.0954 L -9.68052,10.0111 L -9.58476,9.91942 L -9.50177,9.82038
 L -9.43155,9.71398 L -9.37409,9.60021 L -9.3294,9.47907 L -9.29749,9.35056 L -9.27833,9.21469 L -9.27195,9.07145
 L -9.27285,9.01427 L -9.27555,8.95876 L -9.28005,8.90492 L -9.28635,8.85276 L -9.29445,8.80228 L -9.30435,8.75347
 L -9.31605,8.70634 L -9.32955,8.66088 L -9.34485,8.6171 L -9.36174,8.57478 L -9.38001,8.53372 L -9.39967,8.49392
 L -9.4207,8.45537 L -9.44312,8.41807 L -9.46692,8.38203 L -9.4921,8.34725 L -9.51866,8.31372 L -9.5466,8.28145
 L -9.5758,8.25034 L -9.60613,8.22032 L -9.63759,8.19139 L -9.67018,8.16355 L -9.7039,8.1368 L -9.73876,8.11114
 L -9.77474,8.08657 L -9.81185,8.06309 L -9.8501,8.0407 L -9.88921,8.01916 L -9.92896,7.99825 L -9.96933,7.97796
 L -10.0103,7.9583 L -10.052,7.93928 L -10.0942,7.92088 L -10.1371,7.90311 L -10.1806,7.88596 L -10.2247,7.86945
 L -10.2694,7.8535 L -10.3146,7.83805 L -10.3602,7.82311 L -10.4063,7.80867 L -10.4528,7.79473 L -10.4998,7.78129
 L -10.5472,7.76836 L -10.5951,7.75593 L -10.6435,7.744 L -10.6921,7.73234 L -10.7408,7.72073 L -10.7895,7.70916
 L -10.8382,7.69762 L -10.887,7.68614 L -10.9358,7.67469 L -10.9847,7.66328 L -11.0336,7.65192 L -11.0825,7.6406
 L -11.2233,7.60876 L -11.3533,7.57806 L -11.4725,7.54849 L -11.5809,7.52005 L -11.6784,7.49273 L -11.7652,7.46655
 L -11.8412,7.44151 L -11.9064,7.41759 L -11.9607,7.3948 L -12.0085,7.37202 L -12.0536,7.34816 L -12.0962,7.3232
 L -12.1362,7.29716 L -12.1737,7.27004 L -12.2087,7.24182 L -12.241,7.21252 L -12.2709,7.18213 L -12.2981,7.15065
 L -12.3227,7.11769 L -12.3444,7.08284 L -12.3631,7.04611 L -12.379,7.00749 L -12.392,6.96699 L -12.4021,6.92461
 L -12.4093,6.88034 L -12.4137,6.83419 L -12.4151,6.78615 L -12.4114,6.70482 L -12.4002,6.62809 L -12.3816,6.55597
 L -12.3555,6.48846 L -12.322,6.42554 L -12.281,6.36724 L -12.2326,6.31354 L -12.1767,6.26444 L -12.1133,6.21995
 L -12.0429,6.18009 L -11.9658,6.14493 L -11.882,6.11445 L -11.7915,6.08866 L -11.6943,6.06756 L -11.5904,6.05115
 L -11.4798,6.03943 L -11.3625,6.03239 L -11.2385,6.03005 L -11.1253,6.03216 L -11.0177,6.03851 L -10.9157,6.04908
 L -10.8193,6.06388 L -10.7285,6.0829 L -10.6433,6.10616 L -10.5637,6.13365 L -10.4898,6.16536 L -10.4214,6.2013
 L -10.3582,6.24192 L -10.2997,6.28769 L -10.2458,6.3386 L -10.1967,6.39467 L -10.1522,6.45589 L -10.1125,6.52225
 L -10.0774,6.59377 L -10.047,6.67043 L -10.0213,6.75225 L -9.38385,6.64035 L -9.42546,6.51133 L -9.47344,6.39097
 L -9.52778,6.27927 L -9.58848,6.17624 L -9.65554,6.08187 L -9.72896,5.99617 L -9.80875,5.91913 L -9.89489,5.85076
 L -9.9874,5.79105 L -10.0878,5.73874 L -10.1977,5.69258 L -10.317,5.65258 L -10.4458,5.61873 L -10.5841,5.59103
 L -10.7318,5.56949 L -10.889,5.55411 L -11.0556,5.54488 L -11.2317,5.5418 L -11.4211,5.5459 L -11.6005,5.55821
 L -11.7699,5.57872 L -11.9293,5.60744 L -12.0787,5.64436 L -12.2181,5.68949 L -12.3474,5.74282 L -12.4668,5.80436
 L -12.5761,5.8741 L -12.6747,5.95141 L -12.7617,6.03566 L -12.837,6.12687 L -12.9008,6.22503 L -12.953,6.33013
 L -12.9936,6.44219 L -13.0226,6.56119 L -13.04,6.68715 L -13.0457,6.82005 L -13.0446,6.87883 L -13.0413,6.9361
 L -13.0358,6.99187 L -13.028,7.04612 L -13.018,7.09887 L -13.0058,7.15012 L -12.9914,7.19985 L -12.9748,7.24808
 L -12.9559,7.2948 L -12.9349,7.34011 L -12.912,7.38412 L -12.8871,7.42683 L -12.8603,7.46825 L -12.8315,7.50837
 L -12.8007,7.5472 L -12.7679,7.58473 L -12.7332,7.62096 L -12.6965,7.6559 L -12.6573,7.68982 L -12.615,7.72303
 L -12.5697,7.75553 L -12.5214,7.78732 L -12.4699,7.8184 L -12.4155,7.84877 L -12.3579,7.87842 L -12.2973,7.90737
 L -12.2337,7.9356 L -12.1652,7.96348 L -12.0899,7.99135 L -12.0078,8.01923 L -11.9191,8.04711 L -11.8236,8.07499
 L -11.7213,8.10287 L -11.6123,8.13074 L -11.4966,8.15862 L -11.3741,8.1865 L -11.3025,8.20295 L -11.2323,8.21915
 L -11.1636,8.23511 L -11.0962,8.25081 L -11.0303,8.26626 L -10.9658,8.28146 L -10.9027,8.2964 L -10.841,8.3111
 L -10.7808,8.32555 L -10.7222,8.34024 L -10.6654,8.35568 L -10.6105,8.37188 L -10.5574,8.38883 L -10.5062,8.40653
 L -10.4568,8.42499 L -10.4093,8.44421 L -10.3636,8.46418 L -10.3197,8.4849 L -10.2778,8.50662 L -10.2381,8.52959
 L -10.2004,8.55382 L -10.165,8.57931 L -10.1316,8.60605 L -10.1004,8.63406 L -10.0713,8.66331 L -10.0444,8.69383
 L -10.0196,8.7256 L -9.99718,8.75909 L -9.97741,8.79475 L -9.96027,8.83259 L -9.94576,8.87261 L -9.9339,8.91481
 L -9.92467,8.95918 L -9.91807,9.00572 L -9.91412,9.05445 L -9.9128,9.10535 L -9.91701,9.19554 L -9.92963,9.28074
 L -9.95066,9.36097 L -9.98011,9.43621 L -10.018,9.50647 L -10.0642,9.57175 L -10.1189,9.63205 L -10.182,9.68736
 L -10.2535,9.7377 L -10.3328,9.78289 L -10.4191,9.82276 L -10.5126,9.85731 L -10.613,9.88655 L -10.7206,9.91047
 L -10.8352,9.92908 L -10.957,9.94237 L -11.0857,9.95034 L -11.2216,9.953 L -11.3533,9.95051 L -11.4788,9.94304
 L -11.5979,9.93058 L -11.7108,9.91315 L -11.8175,9.89073 L -11.9178,9.86333 L -12.0119,9.83095 L -12.0996,9.79359
 L -12.1811,9.75125 L -12.2565,9.70359 L -12.3258,9.65028 L -12.3891,9.59132 L -12.4464,9.52671 L -12.4976,9.45645
 L -12.5428,9.38054 L -12.582,9.29898 L -12.6151,9.21176 L -12.6422,9.1189 L -13.2695,9.24435 L -13.1896,9.49911
 L -13.0734,9.7239 L -12.921,9.91871 L -12.7324,10.0836 L -12.5075,10.2184 L -12.2463,10.3233 L -11.9489,10.3983
 L -11.6152,10.4432 L -11.2453,10.4582 z
M 11.6293,6.14195 L 13.2703,6.14195 L 13.2703,5.613 L 9.344,5.613 L 9.344,6.14195 L 10.9851,6.14195
 L 10.9851,10.3904 L 11.6293,10.3904 z
M -0.689699,9.86145 L -3.1038,9.86145 L -3.1038,5.613 L -3.7514,5.613 L -3.7514,10.3904 L -0.689699,10.3904
 z
M 3.8743,9.86145 L 0.758349,9.86145 L 0.758349,8.19665 L 3.53185,8.19665 L 3.53185,7.6745 L 0.758349,7.6745
 L 0.758349,6.14195 L 3.7353,6.14195 L 3.7353,5.613 L 0.110749,5.613 L 0.110749,10.3904 L 3.8743,10.3904
 z
M -4.61975,9.86145 L -7.7357,9.86145 L -7.7357,8.19665 L -4.9622,8.19665 L -4.9622,7.6745 L -7.7357,7.6745
 L -7.7357,6.14195 L -4.75875,6.14195 L -4.75875,5.613 L -8.3833,5.613 L -8.3833,10.3904 L -4.61975,10.3904
 z
" stroke="black" fill="lightgray" stroke-width="0.5"/>
</svg>
