<?xml version="1.0" standalone="no"?>
<!DOCTYPE svg PUBLIC "-//W3C//DTD SVG 1.1//EN" "http://www.w3.org/Graphics/SVG/1.1/DTD/svg11.dtd">
<svg width="19mm" height="20mm" viewBox="-13 -10 19 20" xmlns="http://www.w3.org/2000/svg" version="1.1">
<title>OpenSCAD Model</title>
<path d="
M 6,6.5 L 4.5,6.5 L 4.5,5.5 L 3.5,5.5 L 3.88893,-3.05655 L 3.9445,-3.08986
 L 4.22038,-3.29446 L 4.47487,-3.52513 L 4.70554,-3.77962 L 4.91014,-4.0555 L 5.08672,-4.35011 L 5.23358,-4.66061
 L 5.34929,-4.984 L 5.43275,-5.31718 L 5.48315,-5.65694 L 5.5,-6 L 5.48315,-6.34306 L 5.43275,-6.68282
 L 5.34929,-7.016 L 5.23358,-7.33939 L 5.08672,-7.64989 L 4.91014,-7.9445 L 4.70554,-8.22038 L 4.47487,-8.47487
 L 4.22038,-8.70554 L 3.9445,-8.91014 L 3.64989,-9.08672 L 3.33939,-9.23358 L 3.016,-9.34929 L 2.68282,-9.43275
 L 2.34306,-9.48315 L 2,-9.5 L 1.65694,-9.48315 L 1.31718,-9.43275 L 0.984004,-9.34929 L 0.660608,-9.23358
 L 0.350112,-9.08672 L 0.0555048,-8.91014 L -0.220376,-8.70554 L -0.474874,-8.47487 L -0.705536,-8.22038 L -0.910143,-7.9445
 L -1.08672,-7.64989 L -1.23358,-7.33939 L -1.34929,-7.016 L -1.43275,-6.68282 L -1.48315,-6.34306 L -1.5,-6
 L -1.48315,-5.65694 L -1.43275,-5.31718 L -1.34929,-4.984 L -1.23358,-4.66061 L -1.08672,-4.35011 L -0.910143,-4.0555
 L -0.705536,-3.77962 L -0.474874,-3.52513 L -0.220376,-3.29446 L 0.0555048,-3.08986 L 0.111066,-3.05655 L 0.5,5.5
 L -0.5,5.5 L -0.5,6.5 L -2,6.5 L -2,9.5 L 6,9.5 z
M -8.45099,3.49759 L -8.40246,3.49039 L -8.35486,3.47847 L -8.30866,3.46194 L -8.2643,3.44096 L -8.22222,3.41573
 L -8.1828,3.38651 L -8.14645,3.35355 L -8.11349,3.3172 L -8.08427,3.27778 L -8.05904,3.2357 L -8.03806,3.19134
 L -8.02153,3.14514 L -8.00961,3.09754 L -8.00241,3.04901 L -8,3 L -8.00241,2.95099 L -8.30878,0.5
 L -7.5,0.5 L -7.45099,0.497592 L -7.40246,0.490392 L -7.35486,0.47847 L -7.30866,0.461939 L -7.2643,0.44096
 L -7.22222,0.415734 L -7.1828,0.386505 L -7.14645,0.353553 L -7.11349,0.317196 L -7.08427,0.277784 L -7.05904,0.235698
 L -7.03806,0.191341 L -7.02153,0.145142 L -7.00961,0.0975447 L -7.00241,0.0490084 L -7,-0 L -7.00241,-0.0490093
 L -7.00961,-0.0975456 L -7.02153,-0.145143 L -7.03806,-0.191342 L -7.05904,-0.235699 L -9.55904,-5.2357 L -9.58427,-5.27778
 L -9.61349,-5.3172 L -9.64645,-5.35355 L -9.6828,-5.38651 L -9.72222,-5.41573 L -9.7643,-5.44096 L -9.80866,-5.46194
 L -9.85486,-5.47847 L -9.90246,-5.49039 L -9.95099,-5.49759 L -10,-5.5 L -10.049,-5.49759 L -10.0975,-5.49039
 L -10.1451,-5.47847 L -10.1913,-5.46194 L -10.2357,-5.44096 L -10.2778,-5.41573 L -10.3172,-5.38651 L -10.3536,-5.35355
 L -10.3865,-5.3172 L -10.4157,-5.27778 L -10.441,-5.2357 L -12.941,-0.235699 L -12.9619,-0.191342 L -12.9785,-0.145143
 L -12.9904,-0.0975456 L -12.9976,-0.0490093 L -13,-0 L -12.9976,0.0490084 L -12.9904,0.0975447 L -12.9785,0.145142
 L -12.9619,0.191341 L -12.941,0.235698 L -12.9157,0.277784 L -12.8865,0.317196 L -12.8536,0.353553 L -12.8172,0.386505
 L -12.7778,0.415734 L -12.7357,0.44096 L -12.6913,0.461939 L -12.6451,0.47847 L -12.5975,0.490392 L -12.549,0.497592
 L -12.5,0.5 L -11.6912,0.5 L -11.9976,2.95099 L -12,3 L -11.9976,3.04901 L -11.9904,3.09754
 L -11.9785,3.14514 L -11.9619,3.19134 L -11.941,3.2357 L -11.9157,3.27778 L -11.8865,3.3172 L -11.8536,3.35355
 L -11.8172,3.38651 L -11.7778,3.41573 L -11.7357,3.44096 L -11.6913,3.46194 L -11.6451,3.47847 L -11.5975,3.49039
 L -11.549,3.49759 L -11.5,3.5 L -8.5,3.5 z
" stroke="black" fill="lightgray" stroke-width="0.5"/>
</svg>
