<?xml version="1.0" standalone="no"?>
<!DOCTYPE svg PUBLIC "-//W3C//DTD SVG 1.1//EN" "http://www.w3.org/Graphics/SVG/1.1/DTD/svg11.dtd">
<svg width="24mm" height="24mm" viewBox="-12 -12 24 24" xmlns="http://www.w3.org/2000/svg" version="1.1">
<title>OpenSCAD Model</title>
<path d="
M 4.29901,11.9976 L 4.34754,11.9904 L 4.39514,11.9785 L 4.44134,11.9619 L 4.4857,11.941 L 4.52778,11.9157
 L 4.5672,11.8865 L 4.60355,11.8536 L 4.63651,11.8172 L 4.66573,11.7778 L 4.69096,11.7357 L 4.71194,11.6913
 L 4.72847,11.6451 L 4.74039,11.5975 L 4.74759,11.549 L 4.75,11.5 L 4.75,4.75 L 11.5,4.75
 L 11.549,4.74759 L 11.5975,4.74039 L 11.6451,4.72847 L 11.6913,4.71194 L 11.7357,4.69096 L 11.7778,4.66573
 L 11.8172,4.63651 L 11.8536,4.60355 L 11.8865,4.5672 L 11.9157,4.52778 L 11.941,4.4857 L 11.9619,4.44134
 L 11.9785,4.39514 L 11.9904,4.34754 L 11.9976,4.29901 L 12,4.25 L 12,-4.25 L 11.9976,-4.29901
 L 11.9904,-4.34754 L 11.9785,-4.39514 L 11.9619,-4.44134 L 11.941,-4.4857 L 11.9157,-4.52778 L 11.8865,-4.5672
 L 11.8536,-4.60355 L 11.8172,-4.63651 L 11.7778,-4.66573 L 11.7357,-4.69096 L 11.6913,-4.71194 L 11.6451,-4.72847
 L 11.5975,-4.74039 L 11.549,-4.74759 L 11.5,-4.75 L 4.75,-4.75 L 4.75,-11.5 L 4.74759,-11.549
 L 4.74039,-11.5975 L 4.72847,-11.6451 L 4.71194,-11.6913 L 4.69096,-11.7357 L 4.66573,-11.7778 L 4.63651,-11.8172
 L 4.60355,-11.8536 L 4.5672,-11.8865 L 4.52778,-11.9157 L 4.4857,-11.941 L 4.44134,-11.9619 L 4.39514,-11.9785
 L 4.34754,-11.9904 L 4.29901,-11.9976 L 4.25,-12 L -4.25,-12 L -4.29901,-11.9976 L -4.34754,-11.9904
 L -4.39514,-11.9785 L -4.44134,-11.9619 L -4.4857,-11.941 L -4.52778,-11.9157 L -4.5672,-11.8865 L -4.60355,-11.8536
 L -4.63651,-11.8172 L -4.66573,-11.7778 L -4.69096,-11.7357 L -4.71194,-11.6913 L -4.72847,-11.6451 L -4.74039,-11.5975
 L -4.74759,-11.549 L -4.75,-11.5 L -4.75,-4.75 L -11.5,-4.75 L -11.549,-4.74759 L -11.5975,-4.74039
 L -11.6451,-4.72847 L -11.6913,-4.71194 L -11.7357,-4.69096 L -11.7778,-4.66573 L -11.8172,-4.63651 L -11.8536,-4.60355
 L -11.8865,-4.5672 L -11.9157,-4.52778 L -11.941,-4.4857 L -11.9619,-4.44134 L -11.9785,-4.39514 L -11.9904,-4.34754
 L -11.9976,-4.29901 L -12,-4.25 L -12,4.25 L -11.9976,4.29901 L -11.9904,4.34754 L -11.9785,4.39514
 L -11.9619,4.44134 L -11.941,4.4857 L -11.9157,4.52778 L -11.8865,4.5672 L -11.8536,4.60355 L -11.8172,4.63651
 L -11.7778,4.66573 L -11.7357,4.69096 L -11.6913,4.71194 L -11.6451,4.72847 L -11.5975,4.74039 L -11.549,4.74759
 L -11.5,4.75 L -4.75,4.75 L -4.75,11.5 L -4.74759,11.549 L -4.74039,11.5975 L -4.72847,11.6451
 L -4.71194,11.6913 L -4.69096,11.7357 L -4.66573,11.7778 L -4.63651,11.8172 L -4.60355,11.8536 L -4.5672,11.8865
 L -4.52778,11.9157 L -4.4857,11.941 L -4.44134,11.9619 L -4.39514,11.9785 L -4.34754,11.9904 L -4.29901,11.9976
 L -4.25,12 L 4.25,12 z
M -2.5,-4.5 L -2.54901,-4.50241 L -2.59754,-4.50961 L -2.64514,-4.52153 L -2.69134,-4.53806 L -2.7357,-4.55904
 L -2.77778,-4.58426 L -2.8172,-4.61349 L -2.85355,-4.64645 L -2.88651,-4.6828 L -2.91573,-4.72221 L -2.94096,-4.7643
 L -2.96194,-4.80866 L -2.97847,-4.85486 L -2.99039,-4.90245 L -2.99759,-4.95099 L -3,-5 L -2.99759,-5.04901
 L -2.99039,-5.09754 L -2.97847,-5.14514 L -2.96194,-5.19134 L -0.461939,-10.6913 L -0.44096,-10.7357 L -0.415734,-10.7778
 L -0.386505,-10.8172 L -0.353553,-10.8536 L -0.317196,-10.8865 L -0.277784,-10.9157 L -0.235698,-10.941 L -0.191341,-10.9619
 L -0.145142,-10.9785 L -0.0975447,-10.9904 L -0.0490084,-10.9976 L 0,-11 L 0.0490084,-10.9976 L 0.0975447,-10.9904
 L 0.145142,-10.9785 L 0.191341,-10.9619 L 0.235698,-10.941 L 0.277784,-10.9157 L 0.317196,-10.8865 L 0.353553,-10.8536
 L 0.386505,-10.8172 L 0.415734,-10.7778 L 0.44096,-10.7357 L 0.461939,-10.6913 L 2.96194,-5.19134 L 2.97847,-5.14514
 L 2.99039,-5.09754 L 2.99759,-5.04901 L 3,-5 L 2.99759,-4.95099 L 2.99039,-4.90245 L 2.97847,-4.85486
 L 2.96194,-4.80866 L 2.94096,-4.7643 L 2.91573,-4.72221 L 2.88651,-4.6828 L 2.85355,-4.64645 L 2.8172,-4.61349
 L 2.77778,-4.58426 L 2.7357,-4.55904 L 2.69134,-4.53806 L 2.64514,-4.52153 L 2.59754,-4.50961 L 2.54901,-4.50241
 L 2.5,-4.5 z
M -0.245043,2.48796 L -0.487725,2.45196 L -0.725711,2.39235 L -0.956708,2.3097 L -1.17849,2.2048 L -1.38893,2.07867
 L -1.58598,1.93253 L -1.76777,1.76777 L -1.93253,1.58598 L -2.07867,1.38893 L -2.2048,1.17849 L -2.3097,0.956708
 L -2.39235,0.725711 L -2.45196,0.487725 L -2.48796,0.245043 L -2.5,-0 L -2.48796,-0.245043 L -2.45196,-0.487725
 L -2.39235,-0.725711 L -2.3097,-0.956708 L -2.2048,-1.17849 L -2.07867,-1.38893 L -1.93253,-1.58598 L -1.76777,-1.76777
 L -1.58598,-1.93253 L -1.38893,-2.07867 L -1.17849,-2.2048 L -0.956708,-2.3097 L -0.725711,-2.39235 L -0.487725,-2.45196
 L -0.245043,-2.48796 L 0,-2.5 L 0.245043,-2.48796 L 0.487725,-2.45196 L 0.725711,-2.39235 L 0.956708,-2.3097
 L 1.17849,-2.2048 L 1.38893,-2.07867 L 1.58598,-1.93253 L 1.76777,-1.76777 L 1.93253,-1.58598 L 2.07867,-1.38893
 L 2.2048,-1.17849 L 2.3097,-0.956708 L 2.39235,-0.725711 L 2.45196,-0.487725 L 2.48796,-0.245043 L 2.5,-0
 L 2.48796,0.245043 L 2.45196,0.487725 L 2.39235,0.725711 L 2.3097,0.956708 L 2.2048,1.17849 L 2.07867,1.38893
 L 1.93253,1.58598 L 1.76777,1.76777 L 1.58598,1.93253 L 1.38893,2.07867 L 1.17849,2.2048 L 0.956708,2.3097
 L 0.725711,2.39235 L 0.487725,2.45196 L 0.245043,2.48796 L 0,2.5 z
" stroke="black" fill="lightgray" stroke-width="0.5"/>
</svg>
