<?xml version="1.0" standalone="no"?>
<!DOCTYPE svg PUBLIC "-//W3C//DTD SVG 1.1//EN" "http://www.w3.org/Graphics/SVG/1.1/DTD/svg11.dtd">
<svg width="24mm" height="24mm" viewBox="-12 -12 24 24" xmlns="http://www.w3.org/2000/svg" version="1.1">
<title>OpenSCAD Model</title>
<path d="
M 4.26227,11.9998 L 4.27453,11.9994 L 4.28678,11.9986 L 4.29901,11.9976 L 4.3112,11.9962 L 4.32337,11.9946
 L 4.33548,11.9926 L 4.34754,11.9904 L 4.35955,11.9879 L 4.37149,11.985 L 4.38336,11.9819 L 4.39514,11.9785
 L 4.40684,11.9748 L 4.41844,11.9708 L 4.42995,11.9665 L 4.44134,11.9619 L 4.45262,11.9571 L 4.46378,11.952
 L 4.4748,11.9466 L 4.4857,11.941 L 4.49645,11.935 L 4.50705,11.9289 L 4.5175,11.9224 L 4.52778,11.9157
 L 4.5379,11.9088 L 4.54785,11.9016 L 4.55762,11.8942 L 4.5672,11.8865 L 4.57659,11.8786 L 4.58578,11.8705
 L 4.59477,11.8621 L 4.60355,11.8536 L 4.61212,11.8448 L 4.62047,11.8358 L 4.6286,11.8266 L 4.63651,11.8172
 L 4.64417,11.8076 L 4.6516,11.7978 L 4.65879,11.7879 L 4.66573,11.7778 L 4.67243,11.7675 L 4.67886,11.7571
 L 4.68504,11.7464 L 4.69096,11.7357 L 4.69661,11.7248 L 4.70199,11.7138 L 4.7071,11.7026 L 4.71194,11.6913
 L 4.7165,11.6799 L 4.72077,11.6684 L 4.72476,11.6568 L 4.72847,11.6451 L 4.73189,11.6334 L 4.73501,11.6215
 L 4.73785,11.6096 L 4.74039,11.5975 L 4.74264,11.5855 L 4.74459,11.5734 L 4.74624,11.5612 L 4.74759,11.549
 L 4.74864,11.5368 L 4.7494,11.5245 L 4.74985,11.5123 L 4.75,11.5 L 4.75,4.75 L 11.5,4.75
 L 11.5123,4.74985 L 11.5245,4.7494 L 11.5368,4.74864 L 11.549,4.74759 L 11.5612,4.74624 L 11.5734,4.74459
 L 11.5855,4.74264 L 11.5975,4.74039 L 11.6096,4.73785 L 11.6215,4.73501 L 11.6334,4.73189 L 11.6451,4.72847
 L 11.6568,4.72476 L 11.6684,4.72077 L 11.6799,4.7165 L 11.6913,4.71194 L 11.7026,4.7071 L 11.7138,4.70199
 L 11.7248,4.69661 L 11.7357,4.69096 L 11.7464,4.68504 L 11.7571,4.67886 L 11.7675,4.67243 L 11.7778,4.66573
 L 11.7879,4.65879 L 11.7978,4.6516 L 11.8076,4.64417 L 11.8172,4.63651 L 11.8266,4.6286 L 11.8358,4.62047
 L 11.8448,4.61212 L 11.8536,4.60355 L 11.8621,4.59477 L 11.8705,4.58578 L 11.8786,4.57659 L 11.8865,4.5672
 L 11.8942,4.55762 L 11.9016,4.54785 L 11.9088,4.5379 L 11.9157,4.52778 L 11.9224,4.5175 L 11.9289,4.50705
 L 11.935,4.49645 L 11.941,4.4857 L 11.9466,4.4748 L 11.952,4.46378 L 11.9571,4.45262 L 11.9619,4.44134
 L 11.9665,4.42995 L 11.9708,4.41844 L 11.9748,4.40684 L 11.9785,4.39514 L 11.9819,4.38336 L 11.985,4.37149
 L 11.9879,4.35955 L 11.9904,4.34754 L 11.9926,4.33548 L 11.9946,4.32337 L 11.9962,4.3112 L 11.9976,4.29901
 L 11.9986,4.28678 L 11.9994,4.27453 L 11.9998,4.26227 L 12,4.25 L 12,-4.25 L 11.9998,-4.26227
 L 11.9994,-4.27453 L 11.9986,-4.28678 L 11.9976,-4.29901 L 11.9962,-4.3112 L 11.9946,-4.32337 L 11.9926,-4.33548
 L 11.9904,-4.34754 L 11.9879,-4.35955 L 11.985,-4.37149 L 11.9819,-4.38336 L 11.9785,-4.39514 L 11.9748,-4.40684
 L 11.9708,-4.41844 L 11.9665,-4.42995 L 11.9619,-4.44134 L 11.9571,-4.45262 L 11.952,-4.46378 L 11.9466,-4.4748
 L 11.941,-4.4857 L 11.935,-4.49645 L 11.9289,-4.50705 L 11.9224,-4.5175 L 11.9157,-4.52778 L 11.9088,-4.5379
 L 11.9016,-4.54785 L 11.8942,-4.55762 L 11.8865,-4.5672 L 11.8786,-4.57659 L 11.8705,-4.58578 L 11.8621,-4.59477
 L 11.8536,-4.60355 L 11.8448,-4.61212 L 11.8358,-4.62047 L 11.8266,-4.6286 L 11.8172,-4.63651 L 11.8076,-4.64417
 L 11.7978,-4.6516 L 11.7879,-4.65879 L 11.7778,-4.66573 L 11.7675,-4.67243 L 11.7571,-4.67886 L 11.7464,-4.68504
 L 11.7357,-4.69096 L 11.7248,-4.69661 L 11.7138,-4.70199 L 11.7026,-4.7071 L 11.6913,-4.71194 L 11.6799,-4.7165
 L 11.6684,-4.72077 L 11.6568,-4.72476 L 11.6451,-4.72847 L 11.6334,-4.73189 L 11.6215,-4.73501 L 11.6096,-4.73785
 L 11.5975,-4.74039 L 11.5855,-4.74264 L 11.5734,-4.74459 L 11.5612,-4.74624 L 11.549,-4.74759 L 11.5368,-4.74864
 L 11.5245,-4.7494 L 11.5123,-4.74985 L 11.5,-4.75 L 4.75,-4.75 L 4.75,-11.5 L 4.74985,-11.5123
 L 4.7494,-11.5245 L 4.74864,-11.5368 L 4.74759,-11.549 L 4.74624,-11.5612 L 4.74459,-11.5734 L 4.74264,-11.5855
 L 4.74039,-11.5975 L 4.73785,-11.6096 L 4.73501,-11.6215 L 4.73189,-11.6334 L 4.72847,-11.6451 L 4.72476,-11.6568
 L 4.72077,-11.6684 L 4.7165,-11.6799 L 4.71194,-11.6913 L 4.7071,-11.7026 L 4.70199,-11.7138 L 4.69661,-11.7248
 L 4.69096,-11.7357 L 4.68504,-11.7464 L 4.67886,-11.7571 L 4.67243,-11.7675 L 4.66573,-11.7778 L 4.65879,-11.7879
 L 4.6516,-11.7978 L 4.64417,-11.8076 L 4.63651,-11.8172 L 4.6286,-11.8266 L 4.62047,-11.8358 L 4.61212,-11.8448
 L 4.60355,-11.8536 L 4.59477,-11.8621 L 4.58578,-11.8705 L 4.57659,-11.8786 L 4.5672,-11.8865 L 4.55762,-11.8942
 L 4.54785,-11.9016 L 4.5379,-11.9088 L 4.52778,-11.9157 L 4.5175,-11.9224 L 4.50705,-11.9289 L 4.49645,-11.935
 L 4.4857,-11.941 L 4.4748,-11.9466 L 4.46378,-11.952 L 4.45262,-11.9571 L 4.44134,-11.9619 L 4.42995,-11.9665
 L 4.41844,-11.9708 L 4.40684,-11.9748 L 4.39514,-11.9785 L 4.38336,-11.9819 L 4.37149,-11.985 L 4.35955,-11.9879
 L 4.34754,-11.9904 L 4.33548,-11.9926 L 4.32337,-11.9946 L 4.3112,-11.9962 L 4.29901,-11.9976 L 4.28678,-11.9986
 L 4.27453,-11.9994 L 4.26227,-11.9998 L 4.25,-12 L -4.25,-12 L -4.26227,-11.9998 L -4.27453,-11.9994
 L -4.28678,-11.9986 L -4.29901,-11.9976 L -4.3112,-11.9962 L -4.32337,-11.9946 L -4.33548,-11.9926 L -4.34754,-11.9904
 L -4.35955,-11.9879 L -4.37149,-11.985 L -4.38336,-11.9819 L -4.39514,-11.9785 L -4.40684,-11.9748 L -4.41844,-11.9708
 L -4.42995,-11.9665 L -4.44134,-11.9619 L -4.45262,-11.9571 L -4.46378,-11.952 L -4.4748,-11.9466 L -4.4857,-11.941
 L -4.49645,-11.935 L -4.50705,-11.9289 L -4.5175,-11.9224 L -4.52778,-11.9157 L -4.5379,-11.9088 L -4.54785,-11.9016
 L -4.55762,-11.8942 L -4.5672,-11.8865 L -4.57659,-11.8786 L -4.58578,-11.8705 L -4.59477,-11.8621 L -4.60355,-11.8536
 L -4.61212,-11.8448 L -4.62047,-11.8358 L -4.6286,-11.8266 L -4.63651,-11.8172 L -4.64417,-11.8076 L -4.6516,-11.7978
 L -4.65879,-11.7879 L -4.66573,-11.7778 L -4.67243,-11.7675 L -4.67886,-11.7571 L -4.68504,-11.7464 L -4.69096,-11.7357
 L -4.69661,-11.7248 L -4.70199,-11.7138 L -4.7071,-11.7026 L -4.71194,-11.6913 L -4.7165,-11.6799 L -4.72077,-11.6684
 L -4.72476,-11.6568 L -4.72847,-11.6451 L -4.73189,-11.6334 L -4.73501,-11.6215 L -4.73785,-11.6096 L -4.74039,-11.5975
 L -4.74264,-11.5855 L -4.74459,-11.5734 L -4.74624,-11.5612 L -4.74759,-11.549 L -4.74864,-11.5368 L -4.7494,-11.5245
 L -4.74985,-11.5123 L -4.75,-11.5 L -4.75,-4.75 L -11.5,-4.75 L -11.5123,-4.74985 L -11.5245,-4.7494
 L -11.5368,-4.74864 L -11.549,-4.74759 L -11.5612,-4.74624 L -11.5734,-4.74459 L -11.5855,-4.74264 L -11.5975,-4.74039
 L -11.6096,-4.73785 L -11.6215,-4.73501 L -11.6334,-4.73189 L -11.6451,-4.72847 L -11.6568,-4.72476 L -11.6684,-4.72077
 L -11.6799,-4.7165 L -11.6913,-4.71194 L -11.7026,-4.7071 L -11.7138,-4.70199 L -11.7248,-4.69661 L -11.7357,-4.69096
 L -11.7464,-4.68504 L -11.7571,-4.67886 L -11.7675,-4.67243 L -11.7778,-4.66573 L -11.7879,-4.65879 L -11.7978,-4.6516
 L -11.8076,-4.64417 L -11.8172,-4.63651 L -11.8266,-4.6286 L -11.8358,-4.62047 L -11.8448,-4.61212 L -11.8536,-4.60355
 L -11.8621,-4.59477 L -11.8705,-4.58578 L -11.8786,-4.57659 L -11.8865,-4.5672 L -11.8942,-4.55762 L -11.9016,-4.54785
 L -11.9088,-4.5379 L -11.9157,-4.52778 L -11.9224,-4.5175 L -11.9289,-4.50705 L -11.935,-4.49645 L -11.941,-4.4857
 L -11.9466,-4.4748 L -11.952,-4.46378 L -11.9571,-4.45262 L -11.9619,-4.44134 L -11.9665,-4.42995 L -11.9708,-4.41844
 L -11.9748,-4.40684 L -11.9785,-4.39514 L -11.9819,-4.38336 L -11.985,-4.37149 L -11.9879,-4.35955 L -11.9904,-4.34754
 L -11.9926,-4.33548 L -11.9946,-4.32337 L -11.9962,-4.3112 L -11.9976,-4.29901 L -11.9986,-4.28678 L -11.9994,-4.27453
 L -11.9998,-4.26227 L -12,-4.25 L -12,4.25 L -11.9998,4.26227 L -11.9994,4.27453 L -11.9986,4.28678
 L -11.9976,4.29901 L -11.9962,4.3112 L -11.9946,4.32337 L -11.9926,4.33548 L -11.9904,4.34754 L -11.9879,4.35955
 L -11.985,4.37149 L -11.9819,4.38336 L -11.9785,4.39514 L -11.9748,4.40684 L -11.9708,4.41844 L -11.9665,4.42995
 L -11.9619,4.44134 L -11.9571,4.45262 L -11.952,4.46378 L -11.9466,4.4748 L -11.941,4.4857 L -11.935,4.49645
 L -11.9289,4.50705 L -11.9224,4.5175 L -11.9157,4.52778 L -11.9088,4.5379 L -11.9016,4.54785 L -11.8942,4.55762
 L -11.8865,4.5672 L -11.8786,4.57659 L -11.8705,4.58578 L -11.8621,4.59477 L -11.8536,4.60355 L -11.8448,4.61212
 L -11.8358,4.62047 L -11.8266,4.6286 L -11.8172,4.63651 L -11.8076,4.64417 L -11.7978,4.6516 L -11.7879,4.65879
 L -11.7778,4.66573 L -11.7675,4.67243 L -11.7571,4.67886 L -11.7464,4.68504 L -11.7357,4.69096 L -11.7248,4.69661
 L -11.7138,4.70199 L -11.7026,4.7071 L -11.6913,4.71194 L -11.6799,4.7165 L -11.6684,4.72077 L -11.6568,4.72476
 L -11.6451,4.72847 L -11.6334,4.73189 L -11.6215,4.73501 L -11.6096,4.73785 L -11.5975,4.74039 L -11.5855,4.74264
 L -11.5734,4.74459 L -11.5612,4.74624 L -11.549,4.74759 L -11.5368,4.74864 L -11.5245,4.7494 L -11.5123,4.74985
 L -11.5,4.75 L -4.75,4.75 L -4.75,11.5 L -4.74985,11.5123 L -4.7494,11.5245 L -4.74864,11.5368
 L -4.74759,11.549 L -4.74624,11.5612 L -4.74459,11.5734 L -4.74264,11.5855 L -4.74039,11.5975 L -4.73785,11.6096
 L -4.73501,11.6215 L -4.73189,11.6334 L -4.72847,11.6451 L -4.72476,11.6568 L -4.72077,11.6684 L -4.7165,11.6799
 L -4.71194,11.6913 L -4.7071,11.7026 L -4.70199,11.7138 L -4.69661,11.7248 L -4.69096,11.7357 L -4.68504,11.7464
 L -4.67886,11.7571 L -4.67243,11.7675 L -4.66573,11.7778 L -4.65879,11.7879 L -4.6516,11.7978 L -4.64417,11.8076
 L -4.63651,11.8172 L -4.6286,11.8266 L -4.62047,11.8358 L -4.61212,11.8448 L -4.60355,11.8536 L -4.59477,11.8621
 L -4.58578,11.8705 L -4.57659,11.8786 L -4.5672,11.8865 L -4.55762,11.8942 L -4.54785,11.9016 L -4.5379,11.9088
 L -4.52778,11.9157 L -4.5175,11.9224 L -4.50705,11.9289 L -4.49645,11.935 L -4.4857,11.941 L -4.4748,11.9466
 L -4.46378,11.952 L -4.45262,11.9571 L -4.44134,11.9619 L -4.42995,11.9665 L -4.41844,11.9708 L -4.40684,11.9748
 L -4.39514,11.9785 L -4.38336,11.9819 L -4.37149,11.985 L -4.35955,11.9879 L -4.34754,11.9904 L -4.33548,11.9926
 L -4.32337,11.9946 L -4.3112,11.9962 L -4.29901,11.9976 L -4.28678,11.9986 L -4.27453,11.9994 L -4.26227,11.9998
 L -4.25,12 L 4.25,12 z
M -2.5,-4.5 L -2.51227,-4.50015 L -2.52453,-4.5006 L -2.53678,-4.50135 L -2.54901,-4.50241 L -2.5612,-4.50376
 L -2.57337,-4.50541 L -2.58548,-4.50736 L -2.59754,-4.50961 L -2.60955,-4.51215 L -2.62149,-4.51498 L -2.63336,-4.51811
 L -2.64514,-4.52153 L -2.65684,-4.52524 L -2.66844,-4.52923 L -2.67995,-4.5335 L -2.69134,-4.53806 L -2.70262,-4.54289
 L -2.71378,-4.54801 L -2.7248,-4.55339 L -2.7357,-4.55904 L -2.74645,-4.56496 L -2.75705,-4.57114 L -2.7675,-4.57757
 L -2.77778,-4.58426 L -2.7879,-4.59121 L -2.79785,-4.5984 L -2.80762,-4.60583 L -2.8172,-4.61349 L -2.82659,-4.6214
 L -2.83578,-4.62952 L -2.84477,-4.63788 L -2.85355,-4.64645 L -2.86212,-4.65523 L -2.87047,-4.66422 L -2.8786,-4.67341
 L -2.88651,-4.6828 L -2.89417,-4.69238 L -2.9016,-4.70215 L -2.90879,-4.7121 L -2.91573,-4.72221 L -2.92243,-4.7325
 L -2.92886,-4.74295 L -2.93504,-4.75355 L -2.94096,-4.7643 L -2.94661,-4.77519 L -2.95199,-4.78622 L -2.9571,-4.79738
 L -2.96194,-4.80866 L -2.9665,-4.82005 L -2.97077,-4.83155 L -2.97476,-4.84316 L -2.97847,-4.85486 L -2.98189,-4.86664
 L -2.98501,-4.87851 L -2.98785,-4.89045 L -2.99039,-4.90245 L -2.99264,-4.91452 L -2.99459,-4.92663 L -2.99624,-4.93879
 L -2.99759,-4.95099 L -2.99864,-4.96322 L -2.9994,-4.97547 L -2.99985,-4.98773 L -3,-5 L -2.99985,-5.01227
 L -2.9994,-5.02453 L -2.99864,-5.03678 L -2.99759,-5.04901 L -2.99624,-5.0612 L -2.99459,-5.07337 L -2.99264,-5.08548
 L -2.99039,-5.09754 L -2.98785,-5.10955 L -2.98501,-5.12149 L -2.98189,-5.13336 L -2.97847,-5.14514 L -2.97476,-5.15684
 L -2.97077,-5.16844 L -2.9665,-5.17995 L -2.96194,-5.19134 L -2.9571,-5.20262 L -0.457105,-10.7026 L -0.451994,-10.7138
 L -0.446611,-10.7248 L -0.44096,-10.7357 L -0.435043,-10.7464 L -0.428864,-10.7571 L -0.422426,-10.7675 L -0.415734,-10.7778
 L -0.408792,-10.7879 L -0.401604,-10.7978 L -0.394173,-10.8076 L -0.386505,-10.8172 L -0.378604,-10.8266 L -0.370475,-10.8358
 L -0.362123,-10.8448 L -0.353553,-10.8536 L -0.344769,-10.8621 L -0.335779,-10.8705 L -0.326586,-10.8786 L -0.317196,-10.8865
 L -0.307615,-10.8942 L -0.297849,-10.9016 L -0.287904,-10.9088 L -0.277784,-10.9157 L -0.267498,-10.9224 L -0.257051,-10.9289
 L -0.246449,-10.935 L -0.235698,-10.941 L -0.224805,-10.9466 L -0.213778,-10.952 L -0.202621,-10.9571 L -0.191341,-10.9619
 L -0.179947,-10.9665 L -0.168445,-10.9708 L -0.15684,-10.9748 L -0.145142,-10.9785 L -0.133356,-10.9819 L -0.12149,-10.985
 L -0.10955,-10.9879 L -0.0975447,-10.9904 L -0.0854807,-10.9926 L -0.0733652,-10.9946 L -0.0612049,-10.9962 L -0.0490084,-10.9976
 L -0.0367823,-10.9986 L -0.0245333,-10.9994 L -0.01227,-10.9998 L 0,-11 L 0.01227,-10.9998 L 0.0245333,-10.9994
 L 0.0367823,-10.9986 L 0.0490084,-10.9976 L 0.0612049,-10.9962 L 0.0733652,-10.9946 L 0.0854807,-10.9926 L 0.0975447,-10.9904
 L 0.10955,-10.9879 L 0.12149,-10.985 L 0.133356,-10.9819 L 0.145142,-10.9785 L 0.15684,-10.9748 L 0.168445,-10.9708
 L 0.179947,-10.9665 L 0.191341,-10.9619 L 0.202621,-10.9571 L 0.213778,-10.952 L 0.224805,-10.9466 L 0.235698,-10.941
 L 0.246449,-10.935 L 0.257051,-10.9289 L 0.267498,-10.9224 L 0.277784,-10.9157 L 0.287904,-10.9088 L 0.297849,-10.9016
 L 0.307615,-10.8942 L 0.317196,-10.8865 L 0.326586,-10.8786 L 0.335779,-10.8705 L 0.344769,-10.8621 L 0.353553,-10.8536
 L 0.362123,-10.8448 L 0.370475,-10.8358 L 0.378604,-10.8266 L 0.386505,-10.8172 L 0.394173,-10.8076 L 0.401604,-10.7978
 L 0.408792,-10.7879 L 0.415734,-10.7778 L 0.422426,-10.7675 L 0.428864,-10.7571 L 0.435043,-10.7464 L 0.44096,-10.7357
 L 0.446611,-10.7248 L 0.451994,-10.7138 L 0.457105,-10.7026 L 2.9571,-5.20262 L 2.96194,-5.19134 L 2.9665,-5.17995
 L 2.97077,-5.16844 L 2.97476,-5.15684 L 2.97847,-5.14514 L 2.98189,-5.13336 L 2.98501,-5.12149 L 2.98785,-5.10955
 L 2.99039,-5.09754 L 2.99264,-5.08548 L 2.99459,-5.07337 L 2.99624,-5.0612 L 2.99759,-5.04901 L 2.99864,-5.03678
 L 2.9994,-5.02453 L 2.99985,-5.01227 L 3,-5 L 2.99985,-4.98773 L 2.9994,-4.97547 L 2.99864,-4.96322
 L 2.99759,-4.95099 L 2.99624,-4.93879 L 2.99459,-4.92663 L 2.99264,-4.91452 L 2.99039,-4.90245 L 2.98785,-4.89045
 L 2.98501,-4.87851 L 2.98189,-4.86664 L 2.97847,-4.85486 L 2.97476,-4.84316 L 2.97077,-4.83155 L 2.9665,-4.82005
 L 2.96194,-4.80866 L 2.9571,-4.79738 L 2.95199,-4.78622 L 2.94661,-4.77519 L 2.94096,-4.7643 L 2.93504,-4.75355
 L 2.92886,-4.74295 L 2.92243,-4.7325 L 2.91573,-4.72221 L 2.90879,-4.7121 L 2.9016,-4.70215 L 2.89417,-4.69238
 L 2.88651,-4.6828 L 2.8786,-4.67341 L 2.87047,-4.66422 L 2.86212,-4.65523 L 2.85355,-4.64645 L 2.84477,-4.63788
 L 2.83578,-4.62952 L 2.82659,-4.6214 L 2.8172,-4.61349 L 2.80762,-4.60583 L 2.79785,-4.5984 L 2.7879,-4.59121
 L 2.77778,-4.58426 L 2.7675,-4.57757 L 2.75705,-4.57114 L 2.74645,-4.56496 L 2.7357,-4.55904 L 2.7248,-4.55339
 L 2.71378,-4.54801 L 2.70262,-4.54289 L 2.69134,-4.53806 L 2.67995,-4.5335 L 2.66844,-4.52923 L 2.65684,-4.52524
 L 2.64514,-4.52153 L 2.63336,-4.51811 L 2.62149,-4.51498 L 2.60955,-4.51215 L 2.59754,-4.50961 L 2.58548,-4.50736
 L 2.57337,-4.50541 L 2.5612,-4.50376 L 2.54901,-4.50241 L 2.53678,-4.50135 L 2.52453,-4.5006 L 2.51227,-4.50015
 L 2.5,-4.5 z
M -0.0613527,2.49925 L -0.122668,2.49699 L -0.183911,2.49323 L -0.245043,2.48796 L -0.306026,2.4812 L -0.366826,2.47294
 L -0.427404,2.46319 L -0.487725,2.45196 L -0.547752,2.43925 L -0.60745,2.42508 L -0.666781,2.40944 L -0.725711,2.39235
 L -0.784204,2.37382 L -0.842224,2.35386 L -0.899737,2.33248 L -0.956708,2.3097 L -1.0131,2.28552 L -1.06889,2.25997
 L -1.12403,2.23306 L -1.17849,2.2048 L -1.23225,2.17522 L -1.28526,2.14432 L -1.33749,2.11213 L -1.38893,2.07867
 L -1.43952,2.04396 L -1.48925,2.00802 L -1.53808,1.97087 L -1.58598,1.93253 L -1.63293,1.89302 L -1.6789,1.85238
 L -1.72385,1.81062 L -1.76777,1.76777 L -1.81062,1.72385 L -1.85238,1.6789 L -1.89302,1.63293 L -1.93253,1.58598
 L -1.97087,1.53808 L -2.00802,1.48925 L -2.04396,1.43952 L -2.07867,1.38893 L -2.11213,1.33749 L -2.14432,1.28526
 L -2.17522,1.23225 L -2.2048,1.17849 L -2.23306,1.12403 L -2.25997,1.06889 L -2.28552,1.0131 L -2.3097,0.956708
 L -2.33248,0.899737 L -2.35386,0.842224 L -2.37382,0.784204 L -2.39235,0.725711 L -2.40944,0.666781 L -2.42508,0.60745
 L -2.43925,0.547752 L -2.45196,0.487725 L -2.46319,0.427404 L -2.47294,0.366826 L -2.4812,0.306026 L -2.48796,0.245043
 L -2.49323,0.183911 L -2.49699,0.122668 L -2.49925,0.0613527 L -2.5,-0 L -2.49925,-0.0613527 L -2.49699,-0.122668
 L -2.49323,-0.183911 L -2.48796,-0.245043 L -2.4812,-0.306026 L -2.47294,-0.366826 L -2.46319,-0.427404 L -2.45196,-0.487725
 L -2.43925,-0.547752 L -2.42508,-0.60745 L -2.40944,-0.666781 L -2.39235,-0.725711 L -2.37382,-0.784204 L -2.35386,-0.842224
 L -2.33248,-0.899737 L -2.3097,-0.956708 L -2.28552,-1.0131 L -2.25997,-1.06889 L -2.23306,-1.12403 L -2.2048,-1.17849
 L -2.17522,-1.23225 L -2.14432,-1.28526 L -2.11213,-1.33749 L -2.07867,-1.38893 L -2.04396,-1.43952 L -2.00802,-1.48925
 L -1.97087,-1.53808 L -1.93253,-1.58598 L -1.89302,-1.63293 L -1.85238,-1.6789 L -1.81062,-1.72385 L -1.76777,-1.76777
 L -1.72385,-1.81062 L -1.6789,-1.85238 L -1.63293,-1.89302 L -1.58598,-1.93253 L -1.53808,-1.97087 L -1.48925,-2.00802
 L -1.43952,-2.04396 L -1.38893,-2.07867 L -1.33749,-2.11213 L -1.28526,-2.14432 L -1.23225,-2.17522 L -1.17849,-2.2048
 L -1.12403,-2.23306 L -1.06889,-2.25997 L -1.0131,-2.28552 L -0.956708,-2.3097 L -0.899737,-2.33248 L -0.842224,-2.35386
 L -0.784204,-2.37382 L -0.725711,-2.39235 L -0.666781,-2.40944 L -0.60745,-2.42508 L -0.547752,-2.43925 L -0.487725,-2.45196
 L -0.427404,-2.46319 L -0.366826,-2.47294 L -0.306026,-2.4812 L -0.245043,-2.48796 L -0.183911,-2.49323 L -0.122668,-2.49699
 L -0.0613527,-2.49925 L 0,-2.5 L 0.0613527,-2.49925 L 0.122668,-2.49699 L 0.183911,-2.49323 L 0.245043,-2.48796
 L 0.306026,-2.4812 L 0.366826,-2.47294 L 0.427404,-2.46319 L 0.487725,-2.45196 L 0.547752,-2.43925 L 0.60745,-2.42508
 L 0.666781,-2.40944 L 0.725711,-2.39235 L 0.784204,-2.37382 L 0.842224,-2.35386 L 0.899737,-2.33248 L 0.956708,-2.3097
 L 1.0131,-2.28552 L 1.06889,-2.25997 L 1.12403,-2.23306 L 1.17849,-2.2048 L 1.23225,-2.17522 L 1.28526,-2.14432
 L 1.33749,-2.11213 L 1.38893,-2.07867 L 1.43952,-2.04396 L 1.48925,-2.00802 L 1.53808,-1.97087 L 1.58598,-1.93253
 L 1.63293,-1.89302 L 1.6789,-1.85238 L 1.72385,-1.81062 L 1.76777,-1.76777 L 1.81062,-1.72385 L 1.85238,-1.6789
 L 1.89302,-1.63293 L 1.93253,-1.58598 L 1.97087,-1.53808 L 2.00802,-1.48925 L 2.04396,-1.43952 L 2.07867,-1.38893
 L 2.11213,-1.33749 L 2.14432,-1.28526 L 2.17522,-1.23225 L 2.2048,-1.17849 L 2.23306,-1.12403 L 2.25997,-1.06889
 L 2.28552,-1.0131 L 2.3097,-0.956708 L 2.33248,-0.899737 L 2.35386,-0.842224 L 2.37382,-0.784204 L 2.39235,-0.725711
 L 2.40944,-0.666781 L 2.42508,-0.60745 L 2.43925,-0.547752 L 2.45196,-0.487725 L 2.46319,-0.427404 L 2.47294,-0.366826
 L 2.4812,-0.306026 L 2.48796,-0.245043 L 2.49323,-0.183911 L 2.49699,-0.122668 L 2.49925,-0.0613527 L 2.5,-0
 L 2.49925,0.0613527 L 2.49699,0.122668 L 2.49323,0.183911 L 2.48796,0.245043 L 2.4812,0.306026 L 2.47294,0.366826
 L 2.46319,0.427404 L 2.45196,0.487725 L 2.43925,0.547752 L 2.42508,0.60745 L 2.40944,0.666781 L 2.39235,0.725711
 L 2.37382,0.784204 L 2.35386,0.842224 L 2.33248,0.899737 L 2.3097,0.956708 L 2.28552,1.0131 L 2.25997,1.06889
 L 2.23306,1.12403 L 2.2048,1.17849 L 2.17522,1.23225 L 2.14432,1.28526 L 2.11213,1.33749 L 2.07867,1.38893
 L 2.04396,1.43952 L 2.00802,1.48925 L 1.97087,1.53808 L 1.93253,1.58598 L 1.89302,1.63293 L 1.85238,1.6789
 L 1.81062,1.72385 L 1.76777,1.76777 L 1.72385,1.81062 L 1.6789,1.85238 L 1.63293,1.89302 L 1.58598,1.93253
 L 1.53808,1.97087 L 1.48925,2.00802 L 1.43952,2.04396 L 1.38893,2.07867 L 1.33749,2.11213 L 1.28526,2.14432
 L 1.23225,2.17522 L 1.17849,2.2048 L 1.12403,2.23306 L 1.06889,2.25997 L 1.0131,2.28552 L 0.956708,2.3097
 L 0.899737,2.33248 L 0.842224,2.35386 L 0.784204,2.37382 L 0.725711,2.39235 L 0.666781,2.40944 L 0.60745,2.42508
 L 0.547752,2.43925 L 0.487725,2.45196 L 0.427404,2.46319 L 0.366826,2.47294 L 0.306026,2.4812 L 0.245043,2.48796
 L 0.183911,2.49323 L 0.122668,2.49699 L 0.0613527,2.49925 L 0,2.5 z
" stroke="black" fill="lightgray" stroke-width="0.5"/>
</svg>
