<?xml version="1.0" standalone="no"?>
<!DOCTYPE svg PUBLIC "-//W3C//DTD SVG 1.1//EN" "http://www.w3.org/Graphics/SVG/1.1/DTD/svg11.dtd">
<svg width="16mm" height="24mm" viewBox="-8 -16 16 24" xmlns="http://www.w3.org/2000/svg" version="1.1">
<title>OpenSCAD Model</title>
<path d="
M 0.01227,-7.50015 L 0.0245333,-7.5006 L 0.0367823,-7.50135 L 0.0490084,-7.50241 L 0.0612049,-7.50376 L 0.0733652,-7.50541
 L 0.0854807,-7.50736 L 0.0975447,-7.50961 L 0.10955,-7.51215 L 0.12149,-7.51498 L 0.133356,-7.51811 L 0.145142,-7.52153
 L 0.15684,-7.52524 L 0.168445,-7.52923 L 0.179947,-7.5335 L 0.191341,-7.53806 L 0.202621,-7.54289 L 0.213778,-7.54801
 L 0.224805,-7.55339 L 0.235698,-7.55904 L 0.246449,-7.56496 L 0.257051,-7.57114 L 0.267498,-7.57757 L 0.277784,-7.58426
 L 0.287904,-7.59121 L 0.297849,-7.5984 L 0.307615,-7.60583 L 0.317196,-7.61349 L 0.326586,-7.6214 L 0.335779,-7.62952
 L 0.344769,-7.63788 L 0.353553,-7.64645 L 0.362123,-7.65523 L 0.370475,-7.66422 L 0.378604,-7.67341 L 0.386505,-7.6828
 L 0.394173,-7.69238 L 0.401604,-7.70215 L 0.408792,-7.7121 L 0.415734,-7.72221 L 0.422426,-7.7325 L 0.428864,-7.74295
 L 0.435043,-7.75355 L 0.44096,-7.7643 L 0.446611,-7.77519 L 0.451994,-7.78622 L 0.457105,-7.79738 L 0.461939,-7.80866
 L 0.466496,-7.82005 L 0.470772,-7.83155 L 0.474764,-7.84316 L 0.47847,-7.85486 L 0.481888,-7.86664 L 0.485015,-7.87851
 L 0.48785,-7.89045 L 0.490392,-7.90245 L 0.492639,-7.91452 L 0.494588,-7.92663 L 0.49624,-7.93879 L 0.497592,-7.95099
 L 0.498645,-7.96322 L 0.499397,-7.97547 L 0.499849,-7.98773 L 0.5,-8 L 0.5,-15 L 0.499849,-15.0123
 L 0.499397,-15.0245 L 0.498645,-15.0368 L 0.497592,-15.049 L 0.49624,-15.0612 L 0.494588,-15.0734 L 0.492639,-15.0855
 L 0.490392,-15.0975 L 0.48785,-15.1096 L 0.485015,-15.1215 L 0.481888,-15.1334 L 0.47847,-15.1451 L 0.474764,-15.1568
 L 0.470772,-15.1684 L 0.466496,-15.1799 L 0.461939,-15.1913 L 0.457105,-15.2026 L 0.451994,-15.2138 L 0.446611,-15.2248
 L 0.44096,-15.2357 L 0.435043,-15.2464 L 0.428864,-15.2571 L 0.422426,-15.2675 L 0.415734,-15.2778 L 0.408792,-15.2879
 L 0.401604,-15.2978 L 0.394173,-15.3076 L 0.386505,-15.3172 L 0.378604,-15.3266 L 0.370475,-15.3358 L 0.362123,-15.3448
 L 0.353553,-15.3536 L 0.344769,-15.3621 L 0.335779,-15.3705 L 0.326586,-15.3786 L 0.317196,-15.3865 L 0.307615,-15.3942
 L 0.297849,-15.4016 L 0.287904,-15.4088 L 0.277784,-15.4157 L 0.267498,-15.4224 L 0.257051,-15.4289 L 0.246449,-15.435
 L 0.235698,-15.441 L 0.224805,-15.4466 L 0.213778,-15.452 L 0.202621,-15.4571 L 0.191341,-15.4619 L 0.179947,-15.4665
 L 0.168445,-15.4708 L 0.15684,-15.4748 L 0.145142,-15.4785 L 0.133356,-15.4819 L 0.12149,-15.485 L 0.10955,-15.4879
 L 0.0975447,-15.4904 L 0.0854807,-15.4926 L 0.0733652,-15.4946 L 0.0612049,-15.4962 L 0.0490084,-15.4976 L 0.0367823,-15.4986
 L 0.0245333,-15.4994 L 0.01227,-15.4998 L 0,-15.5 L -0.01227,-15.4998 L -0.0245333,-15.4994 L -0.0367823,-15.4986
 L -0.0490084,-15.4976 L -0.0612049,-15.4962 L -0.0733652,-15.4946 L -0.0854807,-15.4926 L -0.0975447,-15.4904 L -0.10955,-15.4879
 L -0.12149,-15.485 L -0.133356,-15.4819 L -0.145142,-15.4785 L -0.15684,-15.4748 L -0.168445,-15.4708 L -0.179947,-15.4665
 L -0.191341,-15.4619 L -0.202621,-15.4571 L -0.213778,-15.452 L -0.224805,-15.4466 L -0.235698,-15.441 L -0.246449,-15.435
 L -0.257051,-15.4289 L -0.267498,-15.4224 L -0.277784,-15.4157 L -0.287904,-15.4088 L -0.297849,-15.4016 L -0.307615,-15.3942
 L -0.317196,-15.3865 L -0.326586,-15.3786 L -0.335779,-15.3705 L -0.344769,-15.3621 L -0.353553,-15.3536 L -0.362123,-15.3448
 L -0.370475,-15.3358 L -0.378604,-15.3266 L -0.386505,-15.3172 L -0.394173,-15.3076 L -0.401604,-15.2978 L -0.408792,-15.2879
 L -0.415734,-15.2778 L -0.422426,-15.2675 L -0.428864,-15.2571 L -0.435043,-15.2464 L -0.44096,-15.2357 L -0.446611,-15.2248
 L -0.451994,-15.2138 L -0.457105,-15.2026 L -0.461939,-15.1913 L -0.466496,-15.1799 L -0.470772,-15.1684 L -0.474764,-15.1568
 L -0.47847,-15.1451 L -0.481888,-15.1334 L -0.485015,-15.1215 L -0.48785,-15.1096 L -0.490392,-15.0975 L -0.492639,-15.0855
 L -0.494588,-15.0734 L -0.49624,-15.0612 L -0.497592,-15.049 L -0.498645,-15.0368 L -0.499397,-15.0245 L -0.499849,-15.0123
 L -0.5,-15 L -0.5,-8 L -0.499849,-7.98773 L -0.499397,-7.97547 L -0.498645,-7.96322 L -0.497592,-7.95099
 L -0.49624,-7.93879 L -0.494588,-7.92663 L -0.492639,-7.91452 L -0.490392,-7.90245 L -0.48785,-7.89045 L -0.485015,-7.87851
 L -0.481888,-7.86664 L -0.47847,-7.85486 L -0.474764,-7.84316 L -0.470772,-7.83155 L -0.466496,-7.82005 L -0.461939,-7.80866
 L -0.457105,-7.79738 L -0.451994,-7.78622 L -0.446611,-7.77519 L -0.44096,-7.7643 L -0.435043,-7.75355 L -0.428864,-7.74295
 L -0.422426,-7.7325 L -0.415734,-7.72221 L -0.408792,-7.7121 L -0.401604,-7.70215 L -0.394173,-7.69238 L -0.386505,-7.6828
 L -0.378604,-7.67341 L -0.370475,-7.66422 L -0.362123,-7.65523 L -0.353553,-7.64645 L -0.344769,-7.63788 L -0.335779,-7.62952
 L -0.326586,-7.6214 L -0.317196,-7.61349 L -0.307615,-7.60583 L -0.297849,-7.5984 L -0.287904,-7.59121 L -0.277784,-7.58426
 L -0.267498,-7.57757 L -0.257051,-7.57114 L -0.246449,-7.56496 L -0.235698,-7.55904 L -0.224805,-7.55339 L -0.213778,-7.54801
 L -0.202621,-7.54289 L -0.191341,-7.53806 L -0.179947,-7.5335 L -0.168445,-7.52923 L -0.15684,-7.52524 L -0.145142,-7.52153
 L -0.133356,-7.51811 L -0.12149,-7.51498 L -0.10955,-7.51215 L -0.0975447,-7.50961 L -0.0854807,-7.50736 L -0.0733652,-7.50541
 L -0.0612049,-7.50376 L -0.0490084,-7.50241 L -0.0367823,-7.50135 L -0.0245333,-7.5006 L -0.01227,-7.50015 L 0,-7.5
 z
M 4.00818,-6.42827 L 4.02045,-6.42862 L 4.0327,-6.42927 L 4.04494,-6.43023 L 4.05714,-6.43148 L 4.06932,-6.43303
 L 4.08145,-6.43488 L 4.09353,-6.43703 L 4.10556,-6.43947 L 4.11752,-6.44221 L 4.12941,-6.44524 L 4.14122,-6.44856
 L 4.15295,-6.45217 L 4.16459,-6.45607 L 4.17612,-6.46025 L 4.18756,-6.46471 L 4.19887,-6.46946 L 4.21007,-6.47447
 L 4.22114,-6.47977 L 4.23208,-6.48533 L 4.24288,-6.49116 L 4.25353,-6.49725 L 4.26403,-6.5036 L 4.27437,-6.51021
 L 4.28455,-6.51707 L 4.29455,-6.52418 L 4.30438,-6.53153 L 4.31402,-6.53912 L 4.32348,-6.54694 L 4.33274,-6.55499
 L 4.3418,-6.56327 L 4.35065,-6.57177 L 4.35929,-6.58048 L 4.36772,-6.5894 L 4.37592,-6.59853 L 4.3839,-6.60785
 L 4.39164,-6.61737 L 4.39915,-6.62708 L 4.40642,-6.63696 L 4.41345,-6.64703 L 4.42022,-6.65726 L 4.42675,-6.66765
 L 4.43301,-6.6782 L 7.93301,-12.7404 L 7.93902,-12.7511 L 7.94476,-12.7619 L 7.95023,-12.7729 L 7.95543,-12.784
 L 7.96036,-12.7953 L 7.96501,-12.8066 L 7.96938,-12.8181 L 7.97346,-12.8297 L 7.97727,-12.8413 L 7.98078,-12.8531
 L 7.984,-12.8649 L 7.98694,-12.8768 L 7.98958,-12.8888 L 7.99192,-12.9009 L 7.99397,-12.913 L 7.99572,-12.9251
 L 7.99717,-12.9373 L 7.99833,-12.9495 L 7.99918,-12.9618 L 7.99973,-12.974 L 7.99998,-12.9863 L 7.99993,-12.9986
 L 7.99958,-13.0108 L 7.99893,-13.0231 L 7.99798,-13.0353 L 7.99672,-13.0475 L 7.99517,-13.0597 L 7.99332,-13.0718
 L 7.99117,-13.0839 L 7.98873,-13.0959 L 7.98599,-13.1079 L 7.98296,-13.1198 L 7.97964,-13.1316 L 7.97603,-13.1433
 L 7.97213,-13.155 L 7.96795,-13.1665 L 7.96349,-13.1779 L 7.95875,-13.1893 L 7.95373,-13.2005 L 7.94844,-13.2115
 L 7.94287,-13.2225 L 7.93705,-13.2333 L 7.93095,-13.2439 L 7.9246,-13.2544 L 7.91799,-13.2648 L 7.91113,-13.2749
 L 7.90403,-13.2849 L 7.89668,-13.2948 L 7.88909,-13.3044 L 7.88126,-13.3139 L 7.87321,-13.3231 L 7.86493,-13.3322
 L 7.85643,-13.341 L 7.84772,-13.3497 L 7.8388,-13.3581 L 7.82967,-13.3663 L 7.82035,-13.3743 L 7.81083,-13.382
 L 7.80112,-13.3895 L 7.79124,-13.3968 L 7.78118,-13.4038 L 7.77095,-13.4106 L 7.76055,-13.4171 L 7.75,-13.4234
 L 7.7393,-13.4294 L 7.72845,-13.4351 L 7.71747,-13.4406 L 7.70635,-13.4458 L 7.69511,-13.4507 L 7.68376,-13.4554
 L 7.67229,-13.4598 L 7.66072,-13.4638 L 7.64905,-13.4676 L 7.63729,-13.4712 L 7.62545,-13.4744 L 7.61354,-13.4773
 L 7.60155,-13.48 L 7.58951,-13.4823 L 7.57741,-13.4844 L 7.56526,-13.4861 L 7.55308,-13.4876 L 7.54086,-13.4887
 L 7.52862,-13.4896 L 7.51636,-13.4901 L 7.50409,-13.4904 L 7.49182,-13.4903 L 7.47955,-13.49 L 7.4673,-13.4893
 L 7.45506,-13.4884 L 7.44286,-13.4871 L 7.43068,-13.4856 L 7.41855,-13.4837 L 7.40647,-13.4816 L 7.39444,-13.4791
 L 7.38248,-13.4764 L 7.37059,-13.4733 L 7.35878,-13.47 L 7.34705,-13.4664 L 7.33541,-13.4625 L 7.32387,-13.4583
 L 7.31244,-13.4539 L 7.30113,-13.4491 L 7.28993,-13.4441 L 7.27886,-13.4388 L 7.26792,-13.4333 L 7.25712,-13.4274
 L 7.24647,-13.4213 L 7.23597,-13.415 L 7.22563,-13.4084 L 7.21545,-13.4015 L 7.20545,-13.3944 L 7.19562,-13.3871
 L 7.18598,-13.3795 L 7.17652,-13.3716 L 7.16726,-13.3636 L 7.1582,-13.3553 L 7.14935,-13.3468 L 7.14071,-13.3381
 L 7.13228,-13.3292 L 7.12408,-13.3201 L 7.1161,-13.3107 L 7.10836,-13.3012 L 7.10085,-13.2915 L 7.09358,-13.2816
 L 7.08655,-13.2716 L 7.07977,-13.2613 L 7.07325,-13.2509 L 7.06699,-13.2404 L 3.56699,-7.1782 L 3.56098,-7.1675
 L 3.55524,-7.15665 L 3.54977,-7.14567 L 3.54457,-7.13456 L 3.53964,-7.12332 L 3.53499,-7.11196 L 3.53062,-7.10049
 L 3.52653,-7.08892 L 3.52273,-7.07725 L 3.51922,-7.0655 L 3.51599,-7.05366 L 3.51306,-7.04174 L 3.51042,-7.02976
 L 3.50808,-7.01771 L 3.50603,-7.00561 L 3.50428,-6.99347 L 3.50282,-6.98128 L 3.50167,-6.96906 L 3.50082,-6.95682
 L 3.50027,-6.94456 L 3.50002,-6.93229 L 3.50007,-6.92002 L 3.50042,-6.90776 L 3.50107,-6.8955 L 3.50202,-6.88327
 L 3.50328,-6.87106 L 3.50483,-6.85889 L 3.50668,-6.84676 L 3.50883,-6.83467 L 3.51127,-6.82265 L 3.51401,-6.81069
 L 3.51704,-6.79879 L 3.52036,-6.78698 L 3.52397,-6.77525 L 3.52787,-6.76361 L 3.53205,-6.75208 L 3.53651,-6.74065
 L 3.54125,-6.72933 L 3.54627,-6.71813 L 3.55156,-6.70706 L 3.55713,-6.69612 L 3.56295,-6.68532 L 3.56905,-6.67467
 L 3.5754,-6.66417 L 3.58201,-6.65383 L 3.58887,-6.64365 L 3.59597,-6.63365 L 3.60332,-6.62382 L 3.61091,-6.61418
 L 3.61874,-6.60472 L 3.62679,-6.59547 L 3.63507,-6.58641 L 3.64357,-6.57755 L 3.65228,-6.56891 L 3.6612,-6.56049
 L 3.67033,-6.55228 L 3.67965,-6.54431 L 3.68917,-6.53656 L 3.69887,-6.52905 L 3.70876,-6.52178 L 3.71882,-6.51475
 L 3.72905,-6.50798 L 3.73945,-6.50146 L 3.75,-6.49519 L 3.7607,-6.48919 L 3.77155,-6.48345 L 3.78253,-6.47797
 L 3.79365,-6.47277 L 3.80488,-6.46784 L 3.81624,-6.46319 L 3.82771,-6.45882 L 3.83928,-6.45474 L 3.85095,-6.45094
 L 3.86271,-6.44742 L 3.87455,-6.4442 L 3.88646,-6.44126 L 3.89845,-6.43862 L 3.91049,-6.43628 L 3.92259,-6.43423
 L 3.93474,-6.43248 L 3.94692,-6.43103 L 3.95914,-6.42988 L 3.97138,-6.42902 L 3.98364,-6.42847 L 3.99591,-6.42822
 z
M -3.98364,-6.42847 L -3.97138,-6.42902 L -3.95914,-6.42988 L -3.94692,-6.43103 L -3.93474,-6.43248 L -3.92259,-6.43423
 L -3.91049,-6.43628 L -3.89845,-6.43862 L -3.88646,-6.44126 L -3.87455,-6.4442 L -3.86271,-6.44742 L -3.85095,-6.45094
 L -3.83928,-6.45474 L -3.82771,-6.45882 L -3.81624,-6.46319 L -3.80488,-6.46784 L -3.79365,-6.47277 L -3.78253,-6.47797
 L -3.77155,-6.48345 L -3.7607,-6.48919 L -3.75,-6.49519 L -3.73945,-6.50146 L -3.72905,-6.50798 L -3.71882,-6.51475
 L -3.70876,-6.52178 L -3.69887,-6.52905 L -3.68917,-6.53656 L -3.67965,-6.54431 L -3.67033,-6.55228 L -3.6612,-6.56049
 L -3.65228,-6.56891 L -3.64357,-6.57755 L -3.63507,-6.58641 L -3.62679,-6.59547 L -3.61874,-6.60472 L -3.61091,-6.61418
 L -3.60332,-6.62382 L -3.59597,-6.63365 L -3.58887,-6.64365 L -3.58201,-6.65383 L -3.5754,-6.66417 L -3.56905,-6.67467
 L -3.56295,-6.68532 L -3.55713,-6.69612 L -3.55156,-6.70706 L -3.54627,-6.71813 L -3.54125,-6.72933 L -3.53651,-6.74065
 L -3.53205,-6.75208 L -3.52787,-6.76361 L -3.52397,-6.77525 L -3.52036,-6.78698 L -3.51704,-6.79879 L -3.51401,-6.81069
 L -3.51127,-6.82265 L -3.50883,-6.83467 L -3.50668,-6.84676 L -3.50483,-6.85889 L -3.50328,-6.87106 L -3.50202,-6.88327
 L -3.50107,-6.8955 L -3.50042,-6.90776 L -3.50007,-6.92002 L -3.50002,-6.93229 L -3.50027,-6.94456 L -3.50082,-6.95682
 L -3.50167,-6.96906 L -3.50282,-6.98128 L -3.50428,-6.99347 L -3.50603,-7.00561 L -3.50808,-7.01771 L -3.51042,-7.02976
 L -3.51306,-7.04174 L -3.51599,-7.05366 L -3.51922,-7.0655 L -3.52273,-7.07725 L -3.52653,-7.08892 L -3.53062,-7.10049
 L -3.53499,-7.11196 L -3.53964,-7.12332 L -3.54457,-7.13456 L -3.54977,-7.14567 L -3.55524,-7.15665 L -3.56098,-7.1675
 L -3.56699,-7.1782 L -7.06699,-13.2404 L -7.07325,-13.2509 L -7.07977,-13.2613 L -7.08655,-13.2716 L -7.09358,-13.2816
 L -7.10085,-13.2915 L -7.10836,-13.3012 L -7.1161,-13.3107 L -7.12408,-13.3201 L -7.13228,-13.3292 L -7.14071,-13.3381
 L -7.14935,-13.3468 L -7.1582,-13.3553 L -7.16726,-13.3636 L -7.17652,-13.3716 L -7.18598,-13.3795 L -7.19562,-13.3871
 L -7.20545,-13.3944 L -7.21545,-13.4015 L -7.22563,-13.4084 L -7.23597,-13.415 L -7.24647,-13.4213 L -7.25712,-13.4274
 L -7.26792,-13.4333 L -7.27886,-13.4388 L -7.28993,-13.4441 L -7.30113,-13.4491 L -7.31244,-13.4539 L -7.32387,-13.4583
 L -7.33541,-13.4625 L -7.34705,-13.4664 L -7.35878,-13.47 L -7.37059,-13.4733 L -7.38248,-13.4764 L -7.39444,-13.4791
 L -7.40647,-13.4816 L -7.41855,-13.4837 L -7.43068,-13.4856 L -7.44286,-13.4871 L -7.45506,-13.4884 L -7.4673,-13.4893
 L -7.47955,-13.49 L -7.49182,-13.4903 L -7.50409,-13.4904 L -7.51636,-13.4901 L -7.52862,-13.4896 L -7.54086,-13.4887
 L -7.55308,-13.4876 L -7.56526,-13.4861 L -7.57741,-13.4844 L -7.58951,-13.4823 L -7.60155,-13.48 L -7.61354,-13.4773
 L -7.62545,-13.4744 L -7.63729,-13.4712 L -7.64905,-13.4676 L -7.66072,-13.4638 L -7.67229,-13.4598 L -7.68376,-13.4554
 L -7.69511,-13.4507 L -7.70635,-13.4458 L -7.71747,-13.4406 L -7.72845,-13.4351 L -7.7393,-13.4294 L -7.75,-13.4234
 L -7.76055,-13.4171 L -7.77095,-13.4106 L -7.78118,-13.4038 L -7.79124,-13.3968 L -7.80112,-13.3895 L -7.81083,-13.382
 L -7.82035,-13.3743 L -7.82967,-13.3663 L -7.8388,-13.3581 L -7.84772,-13.3497 L -7.85643,-13.341 L -7.86493,-13.3322
 L -7.87321,-13.3231 L -7.88126,-13.3139 L -7.88909,-13.3044 L -7.89668,-13.2948 L -7.90403,-13.2849 L -7.91113,-13.2749
 L -7.91799,-13.2648 L -7.9246,-13.2544 L -7.93095,-13.2439 L -7.93705,-13.2333 L -7.94287,-13.2225 L -7.94844,-13.2115
 L -7.95373,-13.2005 L -7.95875,-13.1893 L -7.96349,-13.1779 L -7.96795,-13.1665 L -7.97213,-13.155 L -7.97603,-13.1433
 L -7.97964,-13.1316 L -7.98296,-13.1198 L -7.98599,-13.1079 L -7.98873,-13.0959 L -7.99117,-13.0839 L -7.99332,-13.0718
 L -7.99517,-13.0597 L -7.99672,-13.0475 L -7.99798,-13.0353 L -7.99893,-13.0231 L -7.99958,-13.0108 L -7.99993,-12.9986
 L -7.99998,-12.9863 L -7.99973,-12.974 L -7.99918,-12.9618 L -7.99833,-12.9495 L -7.99717,-12.9373 L -7.99572,-12.9251
 L -7.99397,-12.913 L -7.99192,-12.9009 L -7.98958,-12.8888 L -7.98694,-12.8768 L -7.984,-12.8649 L -7.98078,-12.8531
 L -7.97727,-12.8413 L -7.97346,-12.8297 L -7.96938,-12.8181 L -7.96501,-12.8066 L -7.96036,-12.7953 L -7.95543,-12.784
 L -7.95023,-12.7729 L -7.94476,-12.7619 L -7.93902,-12.7511 L -7.93301,-12.7404 L -4.43301,-6.6782 L -4.42675,-6.66765
 L -4.42022,-6.65726 L -4.41345,-6.64703 L -4.40642,-6.63696 L -4.39915,-6.62708 L -4.39164,-6.61737 L -4.3839,-6.60785
 L -4.37592,-6.59853 L -4.36772,-6.5894 L -4.35929,-6.58048 L -4.35065,-6.57177 L -4.3418,-6.56327 L -4.33274,-6.55499
 L -4.32348,-6.54694 L -4.31402,-6.53912 L -4.30438,-6.53153 L -4.29455,-6.52418 L -4.28455,-6.51707 L -4.27437,-6.51021
 L -4.26403,-6.5036 L -4.25353,-6.49725 L -4.24288,-6.49116 L -4.23208,-6.48533 L -4.22114,-6.47977 L -4.21007,-6.47447
 L -4.19887,-6.46946 L -4.18756,-6.46471 L -4.17612,-6.46025 L -4.16459,-6.45607 L -4.15295,-6.45217 L -4.14122,-6.44856
 L -4.12941,-6.44524 L -4.11752,-6.44221 L -4.10556,-6.43947 L -4.09353,-6.43703 L -4.08145,-6.43488 L -4.06932,-6.43303
 L -4.05714,-6.43148 L -4.04494,-6.43023 L -4.0327,-6.42927 L -4.02045,-6.42862 L -4.00818,-6.42827 L -3.99591,-6.42822
 z
M 7.5,6.5 L 6,6.5 L 6,-0 L 5.99819,-0.147247 L 5.99277,-0.294406 L 5.98374,-0.441387
 L 5.97111,-0.588102 L 5.95488,-0.734464 L 5.93506,-0.880383 L 5.91166,-1.02577 L 5.88471,-1.17054 L 5.85421,-1.31461
 L 5.82019,-1.45788 L 5.78266,-1.60028 L 5.74164,-1.74171 L 5.69717,-1.88209 L 5.64926,-2.02134 L 5.59796,-2.15937
 L 5.54328,-2.2961 L 5.48526,-2.43145 L 5.42393,-2.56533 L 5.35935,-2.69767 L 5.29153,-2.82838 L 5.22052,-2.95739
 L 5.14637,-3.08462 L 5.06912,-3.20998 L 4.98882,-3.33342 L 4.90551,-3.45485 L 4.81924,-3.57419 L 4.73008,-3.69139
 L 4.63806,-3.80636 L 4.54325,-3.91904 L 4.44571,-4.02935 L 4.34548,-4.13724 L 4.24264,-4.24264 L 4.13724,-4.34548
 L 4.02935,-4.44571 L 3.91904,-4.54325 L 3.80636,-4.63806 L 3.69139,-4.73008 L 3.57419,-4.81924 L 3.45485,-4.90551
 L 3.33342,-4.98882 L 3.20998,-5.06912 L 3.08462,-5.14637 L 2.95739,-5.22052 L 2.82838,-5.29153 L 2.69767,-5.35935
 L 2.56533,-5.42393 L 2.43145,-5.48526 L 2.2961,-5.54328 L 2.15937,-5.59796 L 2.02134,-5.64926 L 1.88209,-5.69717
 L 1.74171,-5.74164 L 1.60028,-5.78266 L 1.45788,-5.82019 L 1.31461,-5.85421 L 1.17054,-5.88471 L 1.02577,-5.91166
 L 0.880383,-5.93506 L 0.734464,-5.95488 L 0.588102,-5.97111 L 0.441387,-5.98374 L 0.294406,-5.99277 L 0.147247,-5.99819
 L 0,-6 L -0.147247,-5.99819 L -0.294406,-5.99277 L -0.441387,-5.98374 L -0.588102,-5.97111 L -0.734464,-5.95488
 L -0.880383,-5.93506 L -1.02577,-5.91166 L -1.17054,-5.88471 L -1.31461,-5.85421 L -1.45788,-5.82019 L -1.60028,-5.78266
 L -1.74171,-5.74164 L -1.88209,-5.69717 L -2.02134,-5.64926 L -2.15937,-5.59796 L -2.2961,-5.54328 L -2.43145,-5.48526
 L -2.56533,-5.42393 L -2.69767,-5.35935 L -2.82838,-5.29153 L -2.95739,-5.22052 L -3.08462,-5.14637 L -3.20998,-5.06912
 L -3.33342,-4.98882 L -3.45485,-4.90551 L -3.57419,-4.81924 L -3.69139,-4.73008 L -3.80636,-4.63806 L -3.91904,-4.54325
 L -4.02935,-4.44571 L -4.13724,-4.34548 L -4.24264,-4.24264 L -4.34548,-4.13724 L -4.44571,-4.02935 L -4.54325,-3.91904
 L -4.63806,-3.80636 L -4.73008,-3.69139 L -4.81924,-3.57419 L -4.90551,-3.45485 L -4.98882,-3.33342 L -5.06912,-3.20998
 L -5.14637,-3.08462 L -5.22052,-2.95739 L -5.29153,-2.82838 L -5.35935,-2.69767 L -5.42393,-2.56533 L -5.48526,-2.43145
 L -5.54328,-2.2961 L -5.59796,-2.15937 L -5.64926,-2.02134 L -5.69717,-1.88209 L -5.74164,-1.74171 L -5.78266,-1.60028
 L -5.82019,-1.45788 L -5.85421,-1.31461 L -5.88471,-1.17054 L -5.91166,-1.02577 L -5.93506,-0.880383 L -5.95488,-0.734464
 L -5.97111,-0.588102 L -5.98374,-0.441387 L -5.99277,-0.294406 L -5.99819,-0.147247 L -6,-0 L -6,6.5
 L -7.5,6.5 L -7.5,7.5 L 7.5,7.5 z
M -1.49665,3.3888 L -1.49665,2.87005 L -0.279449,2.87005 L -0.279449,-0.8054 L -1.35765,-0.0357494 L -1.35765,-0.612149
 L -0.22855,-1.3886 L 0.334299,-1.3886 L 0.334299,2.87005 L 1.49725,2.87005 L 1.49725,3.3888 z
" stroke="black" fill="lightgray" stroke-width="0.5"/>
</svg>
