<?xml version="1.0" standalone="no"?>
<!DOCTYPE svg PUBLIC "-//W3C//DTD SVG 1.1//EN" "http://www.w3.org/Graphics/SVG/1.1/DTD/svg11.dtd">
<svg width="28mm" height="24mm" viewBox="-14 -16 28 24" xmlns="http://www.w3.org/2000/svg" version="1.1">
<title>OpenSCAD Model</title>
<path d="
M 0.0490084,-7.50241 L 0.0975447,-7.50961 L 0.145142,-7.52153 L 0.191341,-7.53806 L 0.235698,-7.55904 L 0.277784,-7.58426
 L 0.317196,-7.61349 L 0.353553,-7.64645 L 0.386505,-7.6828 L 0.415734,-7.72221 L 0.44096,-7.7643 L 0.461939,-7.80866
 L 0.47847,-7.85486 L 0.490392,-7.90245 L 0.497592,-7.95099 L 0.5,-8 L 0.5,-15 L 0.497592,-15.049
 L 0.490392,-15.0975 L 0.47847,-15.1451 L 0.461939,-15.1913 L 0.44096,-15.2357 L 0.415734,-15.2778 L 0.386505,-15.3172
 L 0.353553,-15.3536 L 0.317196,-15.3865 L 0.277784,-15.4157 L 0.235698,-15.441 L 0.191341,-15.4619 L 0.145142,-15.4785
 L 0.0975447,-15.4904 L 0.0490084,-15.4976 L 0,-15.5 L -0.0490084,-15.4976 L -0.0975447,-15.4904 L -0.145142,-15.4785
 L -0.191341,-15.4619 L -0.235698,-15.441 L -0.277784,-15.4157 L -0.317196,-15.3865 L -0.353553,-15.3536 L -0.386505,-15.3172
 L -0.415734,-15.2778 L -0.44096,-15.2357 L -0.461939,-15.1913 L -0.47847,-15.1451 L -0.490392,-15.0975 L -0.497592,-15.049
 L -0.5,-15 L -0.5,-8 L -0.497592,-7.95099 L -0.490392,-7.90245 L -0.47847,-7.85486 L -0.461939,-7.80866
 L -0.44096,-7.7643 L -0.415734,-7.72221 L -0.386505,-7.6828 L -0.353553,-7.64645 L -0.317196,-7.61349 L -0.277784,-7.58426
 L -0.235698,-7.55904 L -0.191341,-7.53806 L -0.145142,-7.52153 L -0.0975447,-7.50961 L -0.0490084,-7.50241 L 0,-7.5
 z
M 4.0327,-6.42927 L 4.08145,-6.43488 L 4.12941,-6.44524 L 4.17612,-6.46025 L 4.22114,-6.47977 L 4.26403,-6.5036
 L 4.30438,-6.53153 L 4.3418,-6.56327 L 4.37592,-6.59853 L 4.40642,-6.63696 L 4.43301,-6.6782 L 7.93301,-12.7404
 L 7.95543,-12.784 L 7.97346,-12.8297 L 7.98694,-12.8768 L 7.99572,-12.9251 L 7.99973,-12.974 L 7.99893,-13.0231
 L 7.99332,-13.0718 L 7.98296,-13.1198 L 7.96795,-13.1665 L 7.94844,-13.2115 L 7.9246,-13.2544 L 7.89668,-13.2948
 L 7.86493,-13.3322 L 7.82967,-13.3663 L 7.79124,-13.3968 L 7.75,-13.4234 L 7.70635,-13.4458 L 7.66072,-13.4638
 L 7.61354,-13.4773 L 7.56526,-13.4861 L 7.51636,-13.4901 L 7.4673,-13.4893 L 7.41855,-13.4837 L 7.37059,-13.4733
 L 7.32387,-13.4583 L 7.27886,-13.4388 L 7.23597,-13.415 L 7.19562,-13.3871 L 7.1582,-13.3553 L 7.12408,-13.3201
 L 7.09358,-13.2816 L 7.06699,-13.2404 L 3.56699,-7.1782 L 3.54457,-7.13456 L 3.52653,-7.08892 L 3.51306,-7.04174
 L 3.50428,-6.99347 L 3.50027,-6.94456 L 3.50107,-6.8955 L 3.50668,-6.84676 L 3.51704,-6.79879 L 3.53205,-6.75208
 L 3.55156,-6.70706 L 3.5754,-6.66417 L 3.60332,-6.62382 L 3.63507,-6.58641 L 3.67033,-6.55228 L 3.70876,-6.52178
 L 3.75,-6.49519 L 3.79365,-6.47277 L 3.83928,-6.45474 L 3.88646,-6.44126 L 3.93474,-6.43248 L 3.98364,-6.42847
 z
M -3.93474,-6.43248 L -3.88646,-6.44126 L -3.83928,-6.45474 L -3.79365,-6.47277 L -3.75,-6.49519 L -3.70876,-6.52178
 L -3.67033,-6.55228 L -3.63507,-6.58641 L -3.60332,-6.62382 L -3.5754,-6.66417 L -3.55156,-6.70706 L -3.53205,-6.75208
 L -3.51704,-6.79879 L -3.50668,-6.84676 L -3.50107,-6.8955 L -3.50027,-6.94456 L -3.50428,-6.99347 L -3.51306,-7.04174
 L -3.52653,-7.08892 L -3.54457,-7.13456 L -3.56699,-7.1782 L -7.06699,-13.2404 L -7.09358,-13.2816 L -7.12408,-13.3201
 L -7.1582,-13.3553 L -7.19562,-13.3871 L -7.23597,-13.415 L -7.27886,-13.4388 L -7.32387,-13.4583 L -7.37059,-13.4733
 L -7.41855,-13.4837 L -7.4673,-13.4893 L -7.51636,-13.4901 L -7.56526,-13.4861 L -7.61354,-13.4773 L -7.66072,-13.4638
 L -7.70635,-13.4458 L -7.75,-13.4234 L -7.79124,-13.3968 L -7.82967,-13.3663 L -7.86493,-13.3322 L -7.89668,-13.2948
 L -7.9246,-13.2544 L -7.94844,-13.2115 L -7.96795,-13.1665 L -7.98296,-13.1198 L -7.99332,-13.0718 L -7.99893,-13.0231
 L -7.99973,-12.974 L -7.99572,-12.9251 L -7.98694,-12.8768 L -7.97346,-12.8297 L -7.95543,-12.784 L -7.93301,-12.7404
 L -4.43301,-6.6782 L -4.40642,-6.63696 L -4.37592,-6.59853 L -4.3418,-6.56327 L -4.30438,-6.53153 L -4.26403,-6.5036
 L -4.22114,-6.47977 L -4.17612,-6.46025 L -4.12941,-6.44524 L -4.08145,-6.43488 L -4.0327,-6.42927 L -3.98364,-6.42847
 z
M 6.99347,-3.50428 L 7.04174,-3.51306 L 7.08892,-3.52653 L 7.13456,-3.54457 L 7.1782,-3.56699 L 13.2404,-7.06699
 L 13.2816,-7.09358 L 13.3201,-7.12408 L 13.3553,-7.1582 L 13.3871,-7.19562 L 13.415,-7.23597 L 13.4388,-7.27886
 L 13.4583,-7.32387 L 13.4733,-7.37059 L 13.4837,-7.41855 L 13.4893,-7.4673 L 13.4901,-7.51636 L 13.4861,-7.56526
 L 13.4773,-7.61354 L 13.4638,-7.66072 L 13.4458,-7.70635 L 13.4234,-7.75 L 13.3968,-7.79124 L 13.3663,-7.82967
 L 13.3322,-7.86493 L 13.2948,-7.89668 L 13.2544,-7.9246 L 13.2115,-7.94844 L 13.1665,-7.96795 L 13.1198,-7.98296
 L 13.0718,-7.99332 L 13.0231,-7.99893 L 12.974,-7.99973 L 12.9251,-7.99572 L 12.8768,-7.98694 L 12.8297,-7.97346
 L 12.784,-7.95543 L 12.7404,-7.93301 L 6.6782,-4.43301 L 6.63696,-4.40642 L 6.59853,-4.37592 L 6.56327,-4.3418
 L 6.53153,-4.30438 L 6.5036,-4.26403 L 6.47977,-4.22114 L 6.46025,-4.17612 L 6.44524,-4.12941 L 6.43488,-4.08145
 L 6.42927,-4.0327 L 6.42847,-3.98364 L 6.43248,-3.93474 L 6.44126,-3.88646 L 6.45474,-3.83928 L 6.47277,-3.79365
 L 6.49519,-3.75 L 6.52178,-3.70876 L 6.55228,-3.67033 L 6.58641,-3.63507 L 6.62382,-3.60332 L 6.66417,-3.5754
 L 6.70706,-3.55156 L 6.75208,-3.53205 L 6.79879,-3.51704 L 6.84676,-3.50668 L 6.8955,-3.50107 L 6.94456,-3.50027
 z
M -6.8955,-3.50107 L -6.84676,-3.50668 L -6.79879,-3.51704 L -6.75208,-3.53205 L -6.70706,-3.55156 L -6.66417,-3.5754
 L -6.62382,-3.60332 L -6.58641,-3.63507 L -6.55228,-3.67033 L -6.52178,-3.70876 L -6.49519,-3.75 L -6.47277,-3.79365
 L -6.45474,-3.83928 L -6.44126,-3.88646 L -6.43248,-3.93474 L -6.42847,-3.98364 L -6.42927,-4.0327 L -6.43488,-4.08145
 L -6.44524,-4.12941 L -6.46025,-4.17612 L -6.47977,-4.22114 L -6.5036,-4.26403 L -6.53153,-4.30438 L -6.56327,-4.3418
 L -6.59853,-4.37592 L -6.63696,-4.40642 L -6.6782,-4.43301 L -12.7404,-7.93301 L -12.784,-7.95543 L -12.8297,-7.97346
 L -12.8768,-7.98694 L -12.9251,-7.99572 L -12.974,-7.99973 L -13.0231,-7.99893 L -13.0718,-7.99332 L -13.1198,-7.98296
 L -13.1665,-7.96795 L -13.2115,-7.94844 L -13.2544,-7.9246 L -13.2948,-7.89668 L -13.3322,-7.86493 L -13.3663,-7.82967
 L -13.3968,-7.79124 L -13.4234,-7.75 L -13.4458,-7.70635 L -13.4638,-7.66072 L -13.4773,-7.61354 L -13.4861,-7.56526
 L -13.4901,-7.51636 L -13.4893,-7.4673 L -13.4837,-7.41855 L -13.4733,-7.37059 L -13.4583,-7.32387 L -13.4388,-7.27886
 L -13.415,-7.23597 L -13.3871,-7.19562 L -13.3553,-7.1582 L -13.3201,-7.12408 L -13.2816,-7.09358 L -13.2404,-7.06699
 L -7.1782,-3.56699 L -7.13456,-3.54457 L -7.08892,-3.52653 L -7.04174,-3.51306 L -6.99347,-3.50428 L -6.94456,-3.50027
 z
M 7.5,6.5 L 6,6.5 L 6,-0 L 5.97111,-0.588102 L 5.88471,-1.17054 L 5.74164,-1.74171
 L 5.54328,-2.2961 L 5.29153,-2.82838 L 4.98882,-3.33342 L 4.63806,-3.80636 L 4.24264,-4.24264 L 3.80636,-4.63806
 L 3.33342,-4.98882 L 2.82838,-5.29153 L 2.2961,-5.54328 L 1.74171,-5.74164 L 1.17054,-5.88471 L 0.588102,-5.97111
 L 0,-6 L -0.588102,-5.97111 L -1.17054,-5.88471 L -1.74171,-5.74164 L -2.2961,-5.54328 L -2.82838,-5.29153
 L -3.33342,-4.98882 L -3.80636,-4.63806 L -4.24264,-4.24264 L -4.63806,-3.80636 L -4.98882,-3.33342 L -5.29153,-2.82838
 L -5.54328,-2.2961 L -5.74164,-1.74171 L -5.88471,-1.17054 L -5.97111,-0.588102 L -6,-0 L -6,6.5
 L -7.5,6.5 L -7.5,7.5 L 7.5,7.5 z
M -1.58195,3.4256 L -1.58195,2.995 L -1.54259,2.908 L -1.50134,2.82329 L -1.45821,2.74089 L -1.41319,2.6608
 L -1.36629,2.583 L -1.3175,2.50751 L -1.26684,2.43432 L -1.21428,2.36343 L -1.15985,2.29485 L -1.10415,2.22812
 L -1.04782,2.16281 L -0.990867,2.09893 L -0.933287,2.03647 L -0.875081,1.97544 L -0.81625,1.91583 L -0.756792,1.85764
 L -0.696709,1.80088 L -0.636,1.74555 L -0.575029,1.69136 L -0.514185,1.63804 L -0.453466,1.58561 L -0.392874,1.53406
 L -0.332407,1.48339 L -0.272066,1.43359 L -0.211851,1.38468 L -0.151763,1.33665 L -0.0917997,1.2895 L -0.032548,1.24279
 L 0.0254049,1.19608 L 0.0820608,1.14937 L 0.13742,1.10266 L 0.191481,1.05594 L 0.244244,1.00923 L 0.29571,0.962522
 L 0.345879,0.915811 L 0.39475,0.8691 L 0.441946,0.822126 L 0.487093,0.774652 L 0.530189,0.726677 L 0.571234,0.678201
 L 0.610228,0.629223 L 0.647172,0.579744 L 0.682065,0.529764 L 0.714908,0.479282 L 0.7457,0.4283 L 0.773812,0.376303
 L 0.798618,0.322801 L 0.820116,0.267794 L 0.838307,0.211282 L 0.85319,0.153266 L 0.864766,0.0937443 L 0.873034,0.0327177
 L 0.877995,-0.0298128 L 0.879649,-0.0938492 L 0.876802,-0.179084 L 0.868262,-0.259963 L 0.854028,-0.336489 L 0.834099,-0.408659
 L 0.808476,-0.476476 L 0.777161,-0.539938 L 0.74015,-0.599047 L 0.697447,-0.6538 L 0.64905,-0.7042 L 0.595597,-0.749743
 L 0.537709,-0.789927 L 0.475383,-0.824755 L 0.40862,-0.854224 L 0.33742,-0.878335 L 0.261783,-0.897088 L 0.181708,-0.910483
 L 0.0971975,-0.918521 L 0.00824928,-0.9212 L -0.0767097,-0.918583 L -0.158278,-0.910733 L -0.236455,-0.89765 L -0.311241,-0.879333
 L -0.382635,-0.855783 L -0.450639,-0.827 L -0.51525,-0.792983 L -0.57647,-0.753733 L -0.634299,-0.709249 L -0.687859,-0.660047
 L -0.736267,-0.606615 L -0.779528,-0.548955 L -0.817637,-0.487067 L -0.850599,-0.42095 L -0.87841,-0.350605 L -0.901073,-0.276031
 L -0.918586,-0.197229 L -0.930949,-0.1142 L -1.55485,-0.171849 L -1.53545,-0.296294 L -1.50739,-0.414963 L -1.47066,-0.527855
 L -1.42526,-0.634971 L -1.3712,-0.736309 L -1.30847,-0.831872 L -1.23708,-0.921658 L -1.15702,-1.00567 L -1.0683,-1.0839
 L -0.972293,-1.15507 L -0.870383,-1.21786 L -0.762571,-1.27229 L -0.648857,-1.31834 L -0.529241,-1.35602 L -0.403722,-1.38532
 L -0.2723,-1.40625 L -0.134976,-1.41881 L 0.00824928,-1.423 L 0.164615,-1.41879 L 0.312734,-1.40617 L 0.452605,-1.38514
 L 0.584229,-1.35569 L 0.707607,-1.31783 L 0.822739,-1.27155 L 0.929623,-1.21687 L 1.02826,-1.15376 L 1.11865,-1.08225
 L 1.20013,-1.00299 L 1.27203,-0.916655 L 1.33434,-0.823244 L 1.38707,-0.722758 L 1.43021,-0.615197 L 1.46376,-0.500561
 L 1.48773,-0.378849 L 1.50211,-0.250062 L 1.5069,-0.1142 L 1.50533,-0.0524635 L 1.50062,0.00918961 L 1.49277,0.0707607
 L 1.48178,0.132249 L 1.46766,0.193654 L 1.45039,0.254977 L 1.42998,0.316217 L 1.40644,0.377375 L 1.37975,0.43845
 L 1.34997,0.499483 L 1.31713,0.560516 L 1.28123,0.62155 L 1.24228,0.682583 L 1.20028,0.743616 L 1.15522,0.804649
 L 1.1071,0.865683 L 1.05593,0.926716 L 1.0017,0.987749 L 0.940292,1.05251 L 0.867583,1.12472 L 0.783572,1.20438
 L 0.688257,1.29149 L 0.581641,1.38605 L 0.463721,1.48806 L 0.3345,1.59752 L 0.193976,1.71444 L 0.0421495,1.8388
 L -0.0425367,1.90885 L -0.123289,1.97735 L -0.200105,2.0443 L -0.272985,2.1097 L -0.341929,2.17356 L -0.406939,2.23587
 L -0.468011,2.29663 L -0.525148,2.35584 L -0.578349,2.4135 L -0.627992,2.47016 L -0.674453,2.52636 L -0.717732,2.58209
 L -0.757831,2.63737 L -0.794747,2.69219 L -0.828483,2.74654 L -0.859036,2.80044 L -0.886409,2.85388 L -0.9106,2.90685
 L 1.5815,2.90685 L 1.5815,3.4256 z
" stroke="black" fill="lightgray" stroke-width="0.5"/>
</svg>
