<?xml version="1.0" standalone="no"?>
<!DOCTYPE svg PUBLIC "-//W3C//DTD SVG 1.1//EN" "http://www.w3.org/Graphics/SVG/1.1/DTD/svg11.dtd">
<svg width="16mm" height="14mm" viewBox="-8 -6 16 14" xmlns="http://www.w3.org/2000/svg" version="1.1">
<title>OpenSCAD Model</title>
<path d="
M 7.5,6.5 L 6,6.5 L 6,-0 L 5.99819,-0.147247 L 5.99277,-0.294406 L 5.98374,-0.441387
 L 5.97111,-0.588102 L 5.95488,-0.734464 L 5.93506,-0.880383 L 5.91166,-1.02577 L 5.88471,-1.17054 L 5.85421,-1.31461
 L 5.82019,-1.45788 L 5.78266,-1.60028 L 5.74164,-1.74171 L 5.69717,-1.88209 L 5.64926,-2.02134 L 5.59796,-2.15937
 L 5.54328,-2.2961 L 5.48526,-2.43145 L 5.42393,-2.56533 L 5.35935,-2.69767 L 5.29153,-2.82838 L 5.22052,-2.95739
 L 5.14637,-3.08462 L 5.06912,-3.20998 L 4.98882,-3.33342 L 4.90551,-3.45485 L 4.81924,-3.57419 L 4.73008,-3.69139
 L 4.63806,-3.80636 L 4.54325,-3.91904 L 4.44571,-4.02935 L 4.34548,-4.13724 L 4.24264,-4.24264 L 4.13724,-4.34548
 L 4.02935,-4.44571 L 3.91904,-4.54325 L 3.80636,-4.63806 L 3.69139,-4.73008 L 3.57419,-4.81924 L 3.45485,-4.90551
 L 3.33342,-4.98882 L 3.20998,-5.06912 L 3.08462,-5.14637 L 2.95739,-5.22052 L 2.82838,-5.29153 L 2.69767,-5.35935
 L 2.56533,-5.42393 L 2.43145,-5.48526 L 2.2961,-5.54328 L 2.15937,-5.59796 L 2.02134,-5.64926 L 1.88209,-5.69717
 L 1.74171,-5.74164 L 1.60028,-5.78266 L 1.45788,-5.82019 L 1.31461,-5.85421 L 1.17054,-5.88471 L 1.02577,-5.91166
 L 0.880383,-5.93506 L 0.734464,-5.95488 L 0.588102,-5.97111 L 0.441387,-5.98374 L 0.294406,-5.99277 L 0.147247,-5.99819
 L 0,-6 L -0.147247,-5.99819 L -0.294406,-5.99277 L -0.441387,-5.98374 L -0.588102,-5.97111 L -0.734464,-5.95488
 L -0.880383,-5.93506 L -1.02577,-5.91166 L -1.17054,-5.88471 L -1.31461,-5.85421 L -1.45788,-5.82019 L -1.60028,-5.78266
 L -1.74171,-5.74164 L -1.88209,-5.69717 L -2.02134,-5.64926 L -2.15937,-5.59796 L -2.2961,-5.54328 L -2.43145,-5.48526
 L -2.56533,-5.42393 L -2.69767,-5.35935 L -2.82838,-5.29153 L -2.95739,-5.22052 L -3.08462,-5.14637 L -3.20998,-5.06912
 L -3.33342,-4.98882 L -3.45485,-4.90551 L -3.57419,-4.81924 L -3.69139,-4.73008 L -3.80636,-4.63806 L -3.91904,-4.54325
 L -4.02935,-4.44571 L -4.13724,-4.34548 L -4.24264,-4.24264 L -4.34548,-4.13724 L -4.44571,-4.02935 L -4.54325,-3.91904
 L -4.63806,-3.80636 L -4.73008,-3.69139 L -4.81924,-3.57419 L -4.90551,-3.45485 L -4.98882,-3.33342 L -5.06912,-3.20998
 L -5.14637,-3.08462 L -5.22052,-2.95739 L -5.29153,-2.82838 L -5.35935,-2.69767 L -5.42393,-2.56533 L -5.48526,-2.43145
 L -5.54328,-2.2961 L -5.59796,-2.15937 L -5.64926,-2.02134 L -5.69717,-1.88209 L -5.74164,-1.74171 L -5.78266,-1.60028
 L -5.82019,-1.45788 L -5.85421,-1.31461 L -5.88471,-1.17054 L -5.91166,-1.02577 L -5.93506,-0.880383 L -5.95488,-0.734464
 L -5.97111,-0.588102 L -5.98374,-0.441387 L -5.99277,-0.294406 L -5.99819,-0.147247 L -6,-0 L -6,6.5
 L -7.5,6.5 L -7.5,7.5 L 7.5,7.5 z
M -1.58195,3.4256 L -1.58195,2.995 L -1.5714,2.97104 L -1.56071,2.94726 L -1.54988,2.92364 L -1.53891,2.9002
 L -1.5278,2.87693 L -1.51655,2.85383 L -1.50517,2.8309 L -1.49364,2.80814 L -1.48197,2.78555 L -1.47015,2.76314
 L -1.45821,2.74089 L -1.44611,2.71882 L -1.43388,2.69692 L -1.42151,2.67519 L -1.409,2.65363 L -1.39635,2.63224
 L -1.38356,2.61102 L -1.37063,2.58998 L -1.35756,2.56911 L -1.34435,2.5484 L -1.331,2.52787 L -1.3175,2.50751
 L -1.30387,2.48732 L -1.2901,2.4673 L -1.27619,2.44746 L -1.26214,2.42778 L -1.24795,2.40828 L -1.23361,2.38894
 L -1.21914,2.36978 L -1.20453,2.35079 L -1.18978,2.33197 L -1.17488,2.31333 L -1.15985,2.29485 L -1.14472,2.27651
 L -1.12954,2.25827 L -1.11432,2.24014 L -1.09905,2.22212 L -1.08374,2.2042 L -1.06838,2.18639 L -1.05297,2.16869
 L -1.03751,2.15109 L -1.02201,2.1336 L -1.00646,2.11621 L -0.990867,2.09893 L -0.975224,2.08175 L -0.959537,2.06468
 L -0.943802,2.04772 L -0.928021,2.03086 L -0.912193,2.01411 L -0.896319,1.99747 L -0.880399,1.98093 L -0.864431,1.96449
 L -0.848417,1.94816 L -0.832356,1.93194 L -0.81625,1.91583 L -0.800096,1.89982 L -0.783895,1.88391 L -0.767649,1.86812
 L -0.751356,1.85242 L -0.735016,1.83684 L -0.71863,1.82136 L -0.702197,1.80599 L -0.685718,1.79072 L -0.669191,1.77556
 L -0.652618,1.7605 L -0.636,1.74555 L -0.619359,1.73068 L -0.602727,1.71588 L -0.586105,1.70114 L -0.569492,1.68647
 L -0.552889,1.67187 L -0.536295,1.65733 L -0.519711,1.64285 L -0.503136,1.62844 L -0.486569,1.6141 L -0.470014,1.59982
 L -0.453466,1.58561 L -0.436929,1.57146 L -0.4204,1.55738 L -0.403881,1.54337 L -0.387371,1.52942 L -0.370872,1.51553
 L -0.354381,1.50171 L -0.337898,1.48796 L -0.321426,1.47427 L -0.304964,1.46064 L -0.28851,1.44709 L -0.272066,1.43359
 L -0.255631,1.42017 L -0.239206,1.40681 L -0.22279,1.39351 L -0.206384,1.38028 L -0.189986,1.36711 L -0.173598,1.35402
 L -0.15722,1.34098 L -0.140851,1.32801 L -0.124491,1.31511 L -0.108141,1.30227 L -0.0917997,1.2895 L -0.075511,1.27676
 L -0.0593195,1.26402 L -0.0432243,1.25128 L -0.0272264,1.23854 L -0.0113239,1.2258 L 0.00448036,1.21306 L 0.0201893,1.20032
 L 0.0358019,1.18758 L 0.0513182,1.17484 L 0.0667372,1.16211 L 0.0820608,1.14937 L 0.0972872,1.13663 L 0.112417,1.12389
 L 0.127451,1.11115 L 0.142387,1.09841 L 0.157228,1.08567 L 0.171972,1.07293 L 0.18662,1.06019 L 0.20117,1.04745
 L 0.215625,1.03471 L 0.229982,1.02197 L 0.244244,1.00923 L 0.258409,0.996493 L 0.272477,0.983754 L 0.286449,0.971015
 L 0.300324,0.958275 L 0.314103,0.945536 L 0.327785,0.932796 L 0.341372,0.920057 L 0.35486,0.907318 L 0.368254,0.894578
 L 0.38155,0.881839 L 0.39475,0.8691 L 0.407825,0.856339 L 0.420748,0.84354 L 0.433517,0.830705 L 0.446136,0.817832
 L 0.458601,0.804921 L 0.470913,0.791974 L 0.483073,0.778989 L 0.495081,0.765967 L 0.506936,0.752908 L 0.518639,0.739811
 L 0.530189,0.726677 L 0.541586,0.713506 L 0.552831,0.700297 L 0.563923,0.687052 L 0.574863,0.673769 L 0.58565,0.660449
 L 0.596286,0.647091 L 0.606768,0.633697 L 0.617098,0.620264 L 0.627275,0.606794 L 0.6373,0.593288 L 0.647172,0.579744
 L 0.656892,0.566163 L 0.666459,0.552545 L 0.675873,0.538888 L 0.685136,0.525195 L 0.694245,0.511465 L 0.703202,0.497697
 L 0.712007,0.483892 L 0.720658,0.47005 L 0.729158,0.45617 L 0.737505,0.442254 L 0.7457,0.4283 L 0.753695,0.414268
 L 0.761444,0.400125 L 0.768947,0.385868 L 0.776204,0.371501 L 0.783216,0.357021 L 0.789981,0.34243 L 0.796499,0.327726
 L 0.802773,0.312911 L 0.8088,0.297984 L 0.814581,0.282945 L 0.820116,0.267794 L 0.825405,0.252531 L 0.830448,0.237156
 L 0.835245,0.221669 L 0.839797,0.20607 L 0.844102,0.190359 L 0.848161,0.174537 L 0.851974,0.158602 L 0.855541,0.142555
 L 0.858862,0.126397 L 0.861938,0.110126 L 0.864766,0.0937443 L 0.86735,0.0772495 L 0.869686,0.0606432 L 0.871778,0.0439253
 L 0.873622,0.0270948 L 0.875221,0.0101528 L 0.876575,-0.00689983 L 0.877682,-0.024066 L 0.878543,-0.0413437 L 0.879157,-0.0587339
 L 0.879526,-0.0762358 L 0.879649,-0.0938492 L 0.879437,-0.117527 L 0.878802,-0.140881 L 0.877744,-0.16391 L 0.876262,-0.186616
 L 0.874355,-0.208998 L 0.872026,-0.231056 L 0.869273,-0.25279 L 0.866097,-0.2742 L 0.862497,-0.295287 L 0.858474,-0.31605
 L 0.854028,-0.336489 L 0.849157,-0.356604 L 0.843863,-0.376394 L 0.838146,-0.395862 L 0.832005,-0.415005 L 0.82544,-0.433824
 L 0.818453,-0.452319 L 0.811041,-0.47049 L 0.803206,-0.488338 L 0.794948,-0.505862 L 0.786266,-0.523063 L 0.777161,-0.539938
 L 0.767632,-0.556491 L 0.757679,-0.572719 L 0.747303,-0.588623 L 0.736504,-0.604204 L 0.725281,-0.619461 L 0.713634,-0.634394
 L 0.701565,-0.649002 L 0.689071,-0.663287 L 0.676154,-0.677249 L 0.662813,-0.690886 L 0.64905,-0.7042 L 0.634912,-0.717152
 L 0.620444,-0.729706 L 0.605646,-0.74186 L 0.590518,-0.753617 L 0.575061,-0.764976 L 0.559273,-0.775935 L 0.543155,-0.786496
 L 0.526707,-0.796659 L 0.509929,-0.806422 L 0.492821,-0.815788 L 0.475383,-0.824755 L 0.457615,-0.833323 L 0.439517,-0.841494
 L 0.421088,-0.849265 L 0.40233,-0.856638 L 0.383243,-0.863612 L 0.363824,-0.870188 L 0.344076,-0.876365 L 0.323997,-0.882144
 L 0.30359,-0.887524 L 0.282851,-0.892506 L 0.261783,-0.897088 L 0.240384,-0.901273 L 0.218657,-0.905059 L 0.196598,-0.908446
 L 0.17421,-0.911435 L 0.151491,-0.914026 L 0.128443,-0.916218 L 0.105063,-0.918012 L 0.0813551,-0.919406 L 0.0573168,-0.920403
 L 0.0329485,-0.921 L 0.00824928,-0.9212 L -0.0152569,-0.921005 L -0.0385113,-0.920421 L -0.0615149,-0.919448 L -0.0842648,-0.918085
 L -0.106763,-0.916334 L -0.129009,-0.914193 L -0.151003,-0.911663 L -0.172744,-0.908743 L -0.194233,-0.905435 L -0.21547,-0.901736
 L -0.236455,-0.89765 L -0.257188,-0.893173 L -0.277668,-0.888308 L -0.297895,-0.883053 L -0.317871,-0.877408 L -0.337595,-0.871375
 L -0.357066,-0.864952 L -0.376285,-0.85814 L -0.395252,-0.850939 L -0.413966,-0.843349 L -0.432428,-0.835368 L -0.450639,-0.827
 L -0.468596,-0.818241 L -0.486301,-0.809093 L -0.503755,-0.799557 L -0.520956,-0.789631 L -0.537905,-0.779316 L -0.554601,-0.768611
 L -0.571045,-0.757517 L -0.587237,-0.746035 L -0.603177,-0.734162 L -0.618864,-0.7219 L -0.634299,-0.709249 L -0.649417,-0.69625
 L -0.664152,-0.682936 L -0.678503,-0.669307 L -0.692472,-0.655364 L -0.706058,-0.641106 L -0.71926,-0.626534 L -0.73208,-0.611647
 L -0.744515,-0.596446 L -0.756569,-0.58093 L -0.76824,-0.5651 L -0.779528,-0.548955 L -0.790432,-0.532495 L -0.800953,-0.515722
 L -0.811091,-0.498633 L -0.820848,-0.481231 L -0.830219,-0.463513 L -0.839209,-0.445482 L -0.847816,-0.427135 L -0.856039,-0.408475
 L -0.863879,-0.3895 L -0.871336,-0.37021 L -0.87841,-0.350605 L -0.885102,-0.330687 L -0.89141,-0.310452 L -0.897336,-0.289905
 L -0.902878,-0.269043 L -0.908037,-0.247866 L -0.912813,-0.226375 L -0.917207,-0.204568 L -0.921217,-0.182447 L -0.924844,-0.160013
 L -0.928088,-0.137263 L -0.930949,-0.1142 L -1.55485,-0.171849 L -1.55042,-0.206362 L -1.54534,-0.240445 L -1.53962,-0.274097
 L -1.53326,-0.307322 L -1.52625,-0.340116 L -1.51859,-0.372479 L -1.51029,-0.404414 L -1.50135,-0.435919 L -1.49176,-0.466993
 L -1.48153,-0.49764 L -1.47066,-0.527855 L -1.45913,-0.557641 L -1.44697,-0.586998 L -1.43416,-0.615925 L -1.4207,-0.644422
 L -1.4066,-0.672489 L -1.39186,-0.700128 L -1.37647,-0.727336 L -1.36044,-0.754114 L -1.34376,-0.780463 L -1.32644,-0.806382
 L -1.30847,-0.831872 L -1.28986,-0.856932 L -1.27061,-0.881562 L -1.2507,-0.905763 L -1.23016,-0.929533 L -1.20897,-0.952875
 L -1.18714,-0.975786 L -1.16466,-0.998268 L -1.14154,-1.02032 L -1.11777,-1.04194 L -1.09336,-1.06314 L -1.0683,-1.0839
 L -1.0427,-1.10414 L -1.01666,-1.12376 L -0.990188,-1.14275 L -0.963272,-1.16112 L -0.935918,-1.17887 L -0.908124,-1.196
 L -0.879891,-1.2125 L -0.85122,-1.22838 L -0.82211,-1.24364 L -0.792561,-1.25828 L -0.762571,-1.27229 L -0.732144,-1.28568
 L -0.701278,-1.29844 L -0.669971,-1.31059 L -0.638227,-1.32211 L -0.606044,-1.33301 L -0.573421,-1.34328 L -0.540359,-1.35294
 L -0.506858,-1.36197 L -0.472919,-1.37038 L -0.43854,-1.37816 L -0.403722,-1.38532 L -0.368464,-1.39186 L -0.332769,-1.39778
 L -0.296634,-1.40307 L -0.26006,-1.40774 L -0.223047,-1.41179 L -0.185595,-1.41521 L -0.147704,-1.41802 L -0.109374,-1.4202
 L -0.0706053,-1.42175 L -0.0313969,-1.42269 L 0.00824928,-1.423 L 0.051713,-1.42269 L 0.0945625,-1.42175 L 0.136798,-1.42018
 L 0.178421,-1.41799 L 0.21943,-1.41518 L 0.259827,-1.41174 L 0.299609,-1.40767 L 0.338778,-1.40297 L 0.377334,-1.39765
 L 0.415277,-1.39171 L 0.452605,-1.38514 L 0.489321,-1.37794 L 0.525423,-1.37012 L 0.560911,-1.36167 L 0.595787,-1.3526
 L 0.630049,-1.3429 L 0.663697,-1.33257 L 0.696733,-1.32162 L 0.729154,-1.31004 L 0.760962,-1.29784 L 0.792157,-1.28501
 L 0.822739,-1.27155 L 0.852707,-1.25747 L 0.882061,-1.24277 L 0.910802,-1.22744 L 0.938931,-1.21148 L 0.966445,-1.19489
 L 0.993345,-1.17768 L 1.01963,-1.15985 L 1.04531,-1.14139 L 1.07037,-1.1223 L 1.09482,-1.10259 L 1.11865,-1.08225
 L 1.14182,-1.06133 L 1.16428,-1.03989 L 1.18603,-1.01793 L 1.20707,-0.995434 L 1.22739,-0.972414 L 1.247,-0.948868
 L 1.26589,-0.924795 L 1.28407,-0.900197 L 1.30154,-0.875072 L 1.3183,-0.849422 L 1.33434,-0.823244 L 1.34967,-0.79654
 L 1.36429,-0.769311 L 1.3782,-0.741554 L 1.39139,-0.713272 L 1.40386,-0.684464 L 1.41563,-0.655128 L 1.42668,-0.625268
 L 1.43702,-0.59488 L 1.44665,-0.563967 L 1.45556,-0.532527 L 1.46376,-0.500561 L 1.47125,-0.468068 L 1.47802,-0.435049
 L 1.48408,-0.401505 L 1.48943,-0.367434 L 1.49407,-0.332836 L 1.49799,-0.297712 L 1.50119,-0.262062 L 1.50369,-0.225886
 L 1.50547,-0.189183 L 1.50654,-0.151955 L 1.5069,-0.1142 L 1.50678,-0.0973539 L 1.50643,-0.0805149 L 1.50585,-0.0636816
 L 1.50503,-0.046855 L 1.50398,-0.0300341 L 1.5027,-0.0132198 L 1.50118,0.00358772 L 1.49943,0.0203905 L 1.49744,0.0371866
 L 1.49522,0.053977 L 1.49277,0.0707607 L 1.49009,0.0875387 L 1.48717,0.10431 L 1.48401,0.121076 L 1.48063,0.137835
 L 1.47701,0.154588 L 1.47316,0.171334 L 1.46907,0.188076 L 1.46475,0.20481 L 1.4602,0.221539 L 1.45541,0.238261
 L 1.45039,0.254977 L 1.44513,0.271688 L 1.43965,0.288391 L 1.43393,0.305089 L 1.42797,0.32178 L 1.42178,0.338466
 L 1.41536,0.355145 L 1.40871,0.371819 L 1.40182,0.388486 L 1.39469,0.405147 L 1.38734,0.421801 L 1.37975,0.43845
 L 1.37193,0.455095 L 1.36388,0.471741 L 1.35561,0.488386 L 1.34711,0.505032 L 1.33838,0.521677 L 1.32942,0.538322
 L 1.32024,0.554968 L 1.31083,0.571613 L 1.30119,0.588259 L 1.29133,0.604904 L 1.28123,0.62155 L 1.27091,0.638195
 L 1.26037,0.65484 L 1.24959,0.671486 L 1.23859,0.688131 L 1.22736,0.704777 L 1.21591,0.721422 L 1.20422,0.738068
 L 1.19231,0.754713 L 1.18017,0.771358 L 1.16781,0.788004 L 1.15522,0.804649 L 1.1424,0.821295 L 1.12935,0.83794
 L 1.11608,0.854586 L 1.10257,0.871231 L 1.08885,0.887877 L 1.07489,0.904522 L 1.06071,0.921167 L 1.0463,0.937813
 L 1.03166,0.954458 L 1.01679,0.971104 L 1.0017,0.987749 L 0.986073,1.00467 L 0.969606,1.02215 L 0.952298,1.04018
 L 0.93415,1.05876 L 0.915161,1.0779 L 0.895331,1.0976 L 0.87466,1.11785 L 0.853149,1.13865 L 0.830797,1.16
 L 0.807605,1.18191 L 0.783572,1.20438 L 0.758698,1.2274 L 0.732984,1.25097 L 0.706429,1.27509 L 0.679032,1.29978
 L 0.650796,1.32501 L 0.621718,1.3508 L 0.591801,1.37714 L 0.561042,1.40404 L 0.529443,1.43149 L 0.497003,1.4595
 L 0.463721,1.48806 L 0.429601,1.51717 L 0.394638,1.54684 L 0.358835,1.57707 L 0.322192,1.60784 L 0.284708,1.63917
 L 0.246384,1.67106 L 0.207218,1.7035 L 0.167212,1.73649 L 0.126365,1.77004 L 0.0846777,1.80414 L 0.0421495,1.8388
 L 0.0186625,1.85806 L -0.00453091,1.8772 L -0.0274324,1.89623 L -0.0500412,1.91514 L -0.0723572,1.93394 L -0.0943804,1.95262
 L -0.116111,1.97118 L -0.137548,1.98964 L -0.158693,2.00797 L -0.179545,2.02619 L -0.200105,2.0443 L -0.220372,2.06229
 L -0.240346,2.08017 L -0.260027,2.09793 L -0.279416,2.11557 L -0.298512,2.1331 L -0.317314,2.15052 L -0.335825,2.16782
 L -0.354042,2.185 L -0.371967,2.20207 L -0.389599,2.21903 L -0.406939,2.23587 L -0.423985,2.25259 L -0.440739,2.2692
 L -0.4572,2.28569 L -0.473368,2.30207 L -0.489244,2.31834 L -0.504827,2.33448 L -0.520117,2.35052 L -0.535114,2.36644
 L -0.549819,2.38224 L -0.56423,2.39793 L -0.578349,2.4135 L -0.592204,2.429 L -0.605822,2.44446 L -0.619203,2.45989
 L -0.632347,2.47529 L -0.645255,2.49065 L -0.657927,2.50597 L -0.670361,2.52127 L -0.682559,2.53652 L -0.69452,2.55175
 L -0.706244,2.56694 L -0.717732,2.58209 L -0.728984,2.59722 L -0.739999,2.6123 L -0.750777,2.62735 L -0.761318,2.64237
 L -0.771624,2.65736 L -0.781692,2.67231 L -0.791523,2.68722 L -0.801118,2.7021 L -0.810476,2.71695 L -0.819598,2.73176
 L -0.828483,2.74654 L -0.837132,2.76129 L -0.845543,2.776 L -0.853718,2.79067 L -0.861656,2.80532 L -0.869358,2.81992
 L -0.876823,2.8345 L -0.884052,2.84904 L -0.891044,2.86354 L -0.897799,2.87801 L -0.904318,2.89245 L -0.9106,2.90685
 L 1.5815,2.90685 L 1.5815,3.4256 z
" stroke="black" fill="lightgray" stroke-width="0.5"/>
</svg>
