<?xml version="1.0" standalone="no"?>
<!DOCTYPE svg PUBLIC "-//W3C//DTD SVG 1.1//EN" "http://www.w3.org/Graphics/SVG/1.1/DTD/svg11.dtd">
<svg width="21mm" height="20mm" viewBox="72 -10 21 20" xmlns="http://www.w3.org/2000/svg" version="1.1">
<title>OpenSCAD Model</title>
<path d="
M 82.7454,9.99699 L 82.9907,9.98795 L 83.2356,9.9729 L 83.4802,9.95185 L 83.7241,9.9248 L 83.9673,9.89177
 L 84.2096,9.85278 L 84.4509,9.80785 L 84.691,9.75702 L 84.9298,9.70031 L 85.1671,9.63776 L 85.4028,9.5694
 L 85.6368,9.49528 L 85.8689,9.41544 L 86.099,9.32993 L 86.3268,9.2388 L 86.5524,9.1421 L 86.7756,9.03989
 L 86.9961,8.93224 L 87.214,8.81921 L 87.429,8.70087 L 87.641,8.57729 L 87.85,8.44854 L 88.0557,8.3147
 L 88.2581,8.17585 L 88.457,8.03208 L 88.6523,7.88346 L 88.8439,7.7301 L 89.0317,7.57209 L 89.2156,7.40951
 L 89.3954,7.24247 L 89.5711,7.07107 L 89.7425,6.89541 L 89.9095,6.71559 L 90.0721,6.53173 L 90.2301,6.34393
 L 90.3835,6.15232 L 90.5321,5.95699 L 90.6758,5.75808 L 90.8147,5.5557 L 90.9485,5.34998 L 91.0773,5.14103
 L 91.2009,4.92898 L 91.3192,4.71397 L 91.4322,4.49611 L 91.5399,4.27555 L 91.6421,4.05241 L 91.7388,3.82683
 L 91.8299,3.59895 L 91.9154,3.3689 L 91.9953,3.13682 L 92.0694,2.90285 L 92.1378,2.66713 L 92.2003,2.4298
 L 92.257,2.19101 L 92.3079,1.9509 L 92.3528,1.70962 L 92.3918,1.4673 L 92.4248,1.22411 L 92.4518,0.980171
 L 92.4729,0.735646 L 92.488,0.490677 L 92.497,0.245412 L 92.5,-0 L 92.497,-0.245412 L 92.488,-0.490677
 L 92.4729,-0.735646 L 92.4518,-0.980171 L 92.4248,-1.22411 L 92.3918,-1.4673 L 92.3528,-1.70962 L 92.3079,-1.9509
 L 92.257,-2.19101 L 92.2003,-2.4298 L 92.1378,-2.66713 L 92.0694,-2.90285 L 91.9953,-3.13682 L 91.9154,-3.3689
 L 91.8299,-3.59895 L 91.7388,-3.82683 L 91.6421,-4.05241 L 91.5399,-4.27555 L 91.4322,-4.49611 L 91.3192,-4.71397
 L 91.2009,-4.92898 L 91.0773,-5.14103 L 90.9485,-5.34998 L 90.8147,-5.5557 L 90.6758,-5.75808 L 90.5321,-5.95699
 L 90.3835,-6.15232 L 90.2301,-6.34393 L 90.0721,-6.53173 L 89.9095,-6.71559 L 89.7425,-6.89541 L 89.5711,-7.07107
 L 89.3954,-7.24247 L 89.2156,-7.40951 L 89.0317,-7.57209 L 88.8439,-7.7301 L 88.6523,-7.88346 L 88.457,-8.03208
 L 88.2581,-8.17585 L 88.0557,-8.3147 L 87.85,-8.44854 L 87.641,-8.57729 L 87.429,-8.70087 L 87.214,-8.81921
 L 86.9961,-8.93224 L 86.7756,-9.03989 L 86.5524,-9.1421 L 86.3268,-9.2388 L 86.099,-9.32993 L 85.8689,-9.41544
 L 85.6368,-9.49528 L 85.4028,-9.5694 L 85.1671,-9.63776 L 84.9298,-9.70031 L 84.691,-9.75702 L 84.4509,-9.80785
 L 84.2096,-9.85278 L 83.9673,-9.89177 L 83.7241,-9.9248 L 83.4802,-9.95185 L 83.2356,-9.9729 L 82.9907,-9.98795
 L 82.7454,-9.99699 L 82.5,-10 L 82.2546,-9.99699 L 82.0093,-9.98795 L 81.7644,-9.9729 L 81.5198,-9.95185
 L 81.2759,-9.9248 L 81.0327,-9.89177 L 80.7904,-9.85278 L 80.5491,-9.80785 L 80.309,-9.75702 L 80.0702,-9.70031
 L 79.8329,-9.63776 L 79.5972,-9.5694 L 79.3632,-9.49528 L 79.1311,-9.41544 L 78.901,-9.32993 L 78.6732,-9.2388
 L 78.4476,-9.1421 L 78.2244,-9.03989 L 78.0039,-8.93224 L 77.786,-8.81921 L 77.571,-8.70087 L 77.359,-8.57729
 L 77.15,-8.44854 L 76.9443,-8.3147 L 76.7419,-8.17585 L 76.543,-8.03208 L 76.3477,-7.88346 L 76.1561,-7.7301
 L 75.9683,-7.57209 L 75.7844,-7.40951 L 75.6046,-7.24247 L 75.4289,-7.07107 L 75.2575,-6.89541 L 75.0905,-6.71559
 L 74.9279,-6.53173 L 74.7699,-6.34393 L 74.6165,-6.15232 L 74.4679,-5.95699 L 74.3242,-5.75808 L 74.1853,-5.5557
 L 74.0515,-5.34998 L 73.9227,-5.14103 L 73.7991,-4.92898 L 73.6808,-4.71397 L 73.5678,-4.49611 L 73.4601,-4.27555
 L 73.3579,-4.05241 L 73.2612,-3.82683 L 73.1701,-3.59895 L 73.0846,-3.3689 L 73.0047,-3.13682 L 72.9306,-2.90285
 L 72.8622,-2.66713 L 72.7997,-2.4298 L 72.743,-2.19101 L 72.6921,-1.9509 L 72.6472,-1.70962 L 72.6082,-1.4673
 L 72.5752,-1.22411 L 72.5482,-0.980171 L 72.5271,-0.735646 L 72.512,-0.490677 L 72.503,-0.245412 L 72.5,-0
 L 72.503,0.245412 L 72.512,0.490677 L 72.5271,0.735646 L 72.5482,0.980171 L 72.5752,1.22411 L 72.6082,1.4673
 L 72.6472,1.70962 L 72.6921,1.9509 L 72.743,2.19101 L 72.7997,2.4298 L 72.8622,2.66713 L 72.9306,2.90285
 L 73.0047,3.13682 L 73.0846,3.3689 L 73.1701,3.59895 L 73.2612,3.82683 L 73.3579,4.05241 L 73.4601,4.27555
 L 73.5678,4.49611 L 73.6808,4.71397 L 73.7991,4.92898 L 73.9227,5.14103 L 74.0515,5.34998 L 74.1853,5.5557
 L 74.3242,5.75808 L 74.4679,5.95699 L 74.6165,6.15232 L 74.7699,6.34393 L 74.9279,6.53173 L 75.0905,6.71559
 L 75.2575,6.89541 L 75.4289,7.07107 L 75.6046,7.24247 L 75.7844,7.40951 L 75.9683,7.57209 L 76.1561,7.7301
 L 76.3477,7.88346 L 76.543,8.03208 L 76.7419,8.17585 L 76.9443,8.3147 L 77.15,8.44854 L 77.359,8.57729
 L 77.571,8.70087 L 77.786,8.81921 L 78.0039,8.93224 L 78.2244,9.03989 L 78.4476,9.1421 L 78.6732,9.2388
 L 78.901,9.32993 L 79.1311,9.41544 L 79.3632,9.49528 L 79.5972,9.5694 L 79.8329,9.63776 L 80.0702,9.70031
 L 80.309,9.75702 L 80.5491,9.80785 L 80.7904,9.85278 L 81.0327,9.89177 L 81.2759,9.9248 L 81.5198,9.95185
 L 81.7644,9.9729 L 82.0093,9.98795 L 82.2546,9.99699 L 82.5,10 z
" stroke="black" fill="red" stroke-width="0.5"/>
</svg>
