<?xml version="1.0" standalone="no"?>
<!DOCTYPE svg PUBLIC "-//W3C//DTD SVG 1.1//EN" "http://www.w3.org/Graphics/SVG/1.1/DTD/svg11.dtd">
<svg width="21mm" height="20mm" viewBox="20 -10 21 20" xmlns="http://www.w3.org/2000/svg" version="1.1">
<title>OpenSCAD Model</title>
<path d="
M 30.7454,9.99699 L 30.9907,9.98795 L 31.2356,9.9729 L 31.4802,9.95185 L 31.7241,9.9248 L 31.9673,9.89177
 L 32.2096,9.85278 L 32.4509,9.80785 L 32.691,9.75702 L 32.9298,9.70031 L 33.1671,9.63776 L 33.4028,9.5694
 L 33.6368,9.49528 L 33.8689,9.41544 L 34.099,9.32993 L 34.3268,9.2388 L 34.5524,9.1421 L 34.7756,9.03989
 L 34.9961,8.93224 L 35.214,8.81921 L 35.429,8.70087 L 35.641,8.57729 L 35.85,8.44854 L 36.0557,8.3147
 L 36.2581,8.17585 L 36.457,8.03208 L 36.6523,7.88346 L 36.8439,7.7301 L 37.0317,7.57209 L 37.2156,7.40951
 L 37.3954,7.24247 L 37.5711,7.07107 L 37.7425,6.89541 L 37.9095,6.71559 L 38.0721,6.53173 L 38.2301,6.34393
 L 38.3835,6.15232 L 38.5321,5.95699 L 38.6758,5.75808 L 38.8147,5.5557 L 38.9485,5.34998 L 39.0773,5.14103
 L 39.2009,4.92898 L 39.3192,4.71397 L 39.4322,4.49611 L 39.5399,4.27555 L 39.6421,4.05241 L 39.7388,3.82683
 L 39.8299,3.59895 L 39.9154,3.3689 L 39.9953,3.13682 L 40.0694,2.90285 L 40.1378,2.66713 L 40.2003,2.4298
 L 40.257,2.19101 L 40.3079,1.9509 L 40.3528,1.70962 L 40.3918,1.4673 L 40.4248,1.22411 L 40.4518,0.980171
 L 40.4729,0.735646 L 40.488,0.490677 L 40.497,0.245412 L 40.5,-0 L 40.497,-0.245412 L 40.488,-0.490677
 L 40.4729,-0.735646 L 40.4518,-0.980171 L 40.4248,-1.22411 L 40.3918,-1.4673 L 40.3528,-1.70962 L 40.3079,-1.9509
 L 40.257,-2.19101 L 40.2003,-2.4298 L 40.1378,-2.66713 L 40.0694,-2.90285 L 39.9953,-3.13682 L 39.9154,-3.3689
 L 39.8299,-3.59895 L 39.7388,-3.82683 L 39.6421,-4.05241 L 39.5399,-4.27555 L 39.4322,-4.49611 L 39.3192,-4.71397
 L 39.2009,-4.92898 L 39.0773,-5.14103 L 38.9485,-5.34998 L 38.8147,-5.5557 L 38.6758,-5.75808 L 38.5321,-5.95699
 L 38.3835,-6.15232 L 38.2301,-6.34393 L 38.0721,-6.53173 L 37.9095,-6.71559 L 37.7425,-6.89541 L 37.5711,-7.07107
 L 37.3954,-7.24247 L 37.2156,-7.40951 L 37.0317,-7.57209 L 36.8439,-7.7301 L 36.6523,-7.88346 L 36.457,-8.03208
 L 36.2581,-8.17585 L 36.0557,-8.3147 L 35.85,-8.44854 L 35.641,-8.57729 L 35.429,-8.70087 L 35.214,-8.81921
 L 34.9961,-8.93224 L 34.7756,-9.03989 L 34.5524,-9.1421 L 34.3268,-9.2388 L 34.099,-9.32993 L 33.8689,-9.41544
 L 33.6368,-9.49528 L 33.4028,-9.5694 L 33.1671,-9.63776 L 32.9298,-9.70031 L 32.691,-9.75702 L 32.4509,-9.80785
 L 32.2096,-9.85278 L 31.9673,-9.89177 L 31.7241,-9.9248 L 31.4802,-9.95185 L 31.2356,-9.9729 L 30.9907,-9.98795
 L 30.7454,-9.99699 L 30.5,-10 L 30.2546,-9.99699 L 30.0093,-9.98795 L 29.7644,-9.9729 L 29.5198,-9.95185
 L 29.2759,-9.9248 L 29.0327,-9.89177 L 28.7904,-9.85278 L 28.5491,-9.80785 L 28.309,-9.75702 L 28.0702,-9.70031
 L 27.8329,-9.63776 L 27.5972,-9.5694 L 27.3632,-9.49528 L 27.1311,-9.41544 L 26.901,-9.32993 L 26.6732,-9.2388
 L 26.4476,-9.1421 L 26.2244,-9.03989 L 26.0039,-8.93224 L 25.786,-8.81921 L 25.571,-8.70087 L 25.359,-8.57729
 L 25.15,-8.44854 L 24.9443,-8.3147 L 24.7419,-8.17585 L 24.543,-8.03208 L 24.3477,-7.88346 L 24.1561,-7.7301
 L 23.9683,-7.57209 L 23.7844,-7.40951 L 23.6046,-7.24247 L 23.4289,-7.07107 L 23.2575,-6.89541 L 23.0905,-6.71559
 L 22.9279,-6.53173 L 22.7699,-6.34393 L 22.6165,-6.15232 L 22.4679,-5.95699 L 22.3242,-5.75808 L 22.1853,-5.5557
 L 22.0515,-5.34998 L 21.9227,-5.14103 L 21.7991,-4.92898 L 21.6808,-4.71397 L 21.5678,-4.49611 L 21.4601,-4.27555
 L 21.3579,-4.05241 L 21.2612,-3.82683 L 21.1701,-3.59895 L 21.0846,-3.3689 L 21.0047,-3.13682 L 20.9306,-2.90285
 L 20.8622,-2.66713 L 20.7997,-2.4298 L 20.743,-2.19101 L 20.6921,-1.9509 L 20.6472,-1.70962 L 20.6082,-1.4673
 L 20.5752,-1.22411 L 20.5482,-0.980171 L 20.5271,-0.735646 L 20.512,-0.490677 L 20.503,-0.245412 L 20.5,-0
 L 20.503,0.245412 L 20.512,0.490677 L 20.5271,0.735646 L 20.5482,0.980171 L 20.5752,1.22411 L 20.6082,1.4673
 L 20.6472,1.70962 L 20.6921,1.9509 L 20.743,2.19101 L 20.7997,2.4298 L 20.8622,2.66713 L 20.9306,2.90285
 L 21.0047,3.13682 L 21.0846,3.3689 L 21.1701,3.59895 L 21.2612,3.82683 L 21.3579,4.05241 L 21.4601,4.27555
 L 21.5678,4.49611 L 21.6808,4.71397 L 21.7991,4.92898 L 21.9227,5.14103 L 22.0515,5.34998 L 22.1853,5.5557
 L 22.3242,5.75808 L 22.4679,5.95699 L 22.6165,6.15232 L 22.7699,6.34393 L 22.9279,6.53173 L 23.0905,6.71559
 L 23.2575,6.89541 L 23.4289,7.07107 L 23.6046,7.24247 L 23.7844,7.40951 L 23.9683,7.57209 L 24.1561,7.7301
 L 24.3477,7.88346 L 24.543,8.03208 L 24.7419,8.17585 L 24.9443,8.3147 L 25.15,8.44854 L 25.359,8.57729
 L 25.571,8.70087 L 25.786,8.81921 L 26.0039,8.93224 L 26.2244,9.03989 L 26.4476,9.1421 L 26.6732,9.2388
 L 26.901,9.32993 L 27.1311,9.41544 L 27.3632,9.49528 L 27.5972,9.5694 L 27.8329,9.63776 L 28.0702,9.70031
 L 28.309,9.75702 L 28.5491,9.80785 L 28.7904,9.85278 L 29.0327,9.89177 L 29.2759,9.9248 L 29.5198,9.95185
 L 29.7644,9.9729 L 30.0093,9.98795 L 30.2546,9.99699 L 30.5,10 z
" stroke="black" fill="green" stroke-width="0.5"/>
</svg>
