<?xml version="1.0" standalone="no"?>
<!DOCTYPE svg PUBLIC "-//W3C//DTD SVG 1.1//EN" "http://www.w3.org/Graphics/SVG/1.1/DTD/svg11.dtd">
<svg width="89mm" height="136mm" viewBox="-68 -68 89 136" xmlns="http://www.w3.org/2000/svg" version="1.1">
<title>OpenSCAD Model</title>
<path d="
M 1.65653,67.4797 L 3.31207,67.4187 L 4.96561,67.3171 L 6.61616,67.175 L 8.26272,66.9924 L 9.90431,66.7694
 L 11.5399,66.5062 L 13.1686,66.203 L 14.7893,65.8599 L 16.4012,65.4771 L 18.0031,65.0549 L 19.5942,64.5935
 L 20.5,64.3065 L 20.5,28.9818 L 20.4412,29.0243 L 19.7227,29.5172 L 18.9924,29.9923 L 18.2506,30.4494
 L 17.4979,30.8881 L 16.7346,31.3082 L 15.9612,31.7095 L 15.1782,32.0916 L 14.3861,32.4544 L 13.5853,32.7977
 L 12.7763,33.1212 L 11.9596,33.4248 L 11.1357,33.7083 L 10.3051,33.9714 L 9.4683,34.2141 L 8.6258,34.4361
 L 7.77809,34.6374 L 6.92571,34.8179 L 6.06915,34.9774 L 5.20893,35.1158 L 4.34558,35.233 L 3.47961,35.3291
 L 2.61154,35.4038 L 1.7419,35.4572 L 0.871213,35.4893 L 0,35.5 L -0.871213,35.4893 L -1.7419,35.4572
 L -2.61154,35.4038 L -3.47961,35.3291 L -4.34558,35.233 L -5.20893,35.1158 L -6.06915,34.9774 L -6.92571,34.8179
 L -7.77809,34.6374 L -8.6258,34.4361 L -9.4683,34.2141 L -10.3051,33.9714 L -11.1357,33.7083 L -11.9596,33.4248
 L -12.7763,33.1212 L -13.5853,32.7977 L -14.3861,32.4544 L -15.1782,32.0916 L -15.9612,31.7095 L -16.7346,31.3082
 L -17.4979,30.8881 L -18.2506,30.4494 L -18.9924,29.9923 L -19.7227,29.5172 L -20.4412,29.0243 L -21.1473,28.5139
 L -21.8407,27.9863 L -22.521,27.4419 L -23.1876,26.8809 L -23.8403,26.3038 L -24.4787,25.7108 L -25.1023,25.1023
 L -25.7108,24.4787 L -26.3038,23.8403 L -26.8809,23.1876 L -27.4419,22.521 L -27.9863,21.8407 L -28.5139,21.1473
 L -29.0243,20.4412 L -29.5172,19.7227 L -29.9923,18.9924 L -30.4494,18.2506 L -30.8881,17.4979 L -31.3082,16.7346
 L -31.7095,15.9612 L -32.0916,15.1782 L -32.4544,14.3861 L -32.7977,13.5853 L -33.1212,12.7763 L -33.4248,11.9596
 L -33.7083,11.1357 L -33.9714,10.3051 L -34.2141,9.4683 L -34.4361,8.6258 L -34.6374,7.77809 L -34.8179,6.92571
 L -34.9774,6.06915 L -35.1158,5.20893 L -35.233,4.34558 L -35.3291,3.47961 L -35.4038,2.61154 L -35.4572,1.7419
 L -35.4893,0.871213 L -35.5,-0 L -35.4893,-0.871213 L -35.4572,-1.7419 L -35.4038,-2.61154 L -35.3291,-3.47961
 L -35.233,-4.34558 L -35.1158,-5.20893 L -34.9774,-6.06915 L -34.8179,-6.92571 L -34.6374,-7.77809 L -34.4361,-8.6258
 L -34.2141,-9.4683 L -33.9714,-10.3051 L -33.7083,-11.1357 L -33.4248,-11.9596 L -33.1212,-12.7763 L -32.7977,-13.5853
 L -32.4544,-14.3861 L -32.0916,-15.1782 L -31.7095,-15.9612 L -31.3082,-16.7346 L -30.8881,-17.4979 L -30.4494,-18.2506
 L -29.9923,-18.9924 L -29.5172,-19.7227 L -29.0243,-20.4412 L -28.5139,-21.1473 L -27.9863,-21.8407 L -27.4419,-22.521
 L -26.8809,-23.1876 L -26.3038,-23.8403 L -25.7108,-24.4787 L -25.1023,-25.1023 L -24.4787,-25.7108 L -23.8403,-26.3038
 L -23.1876,-26.8809 L -22.521,-27.4419 L -21.8407,-27.9863 L -21.1473,-28.5139 L -20.4412,-29.0243 L -19.7227,-29.5172
 L -18.9924,-29.9923 L -18.2506,-30.4494 L -17.4979,-30.8881 L -16.7346,-31.3082 L -15.9612,-31.7095 L -15.1782,-32.0916
 L -14.3861,-32.4544 L -13.5853,-32.7977 L -12.7763,-33.1212 L -11.9596,-33.4248 L -11.1357,-33.7083 L -10.3051,-33.9714
 L -9.4683,-34.2141 L -8.6258,-34.4361 L -7.77809,-34.6374 L -6.92571,-34.8179 L -6.06915,-34.9774 L -5.20893,-35.1158
 L -4.34558,-35.233 L -3.47961,-35.3291 L -2.61154,-35.4038 L -1.7419,-35.4572 L -0.871213,-35.4893 L 0,-35.5
 L 0.871213,-35.4893 L 1.7419,-35.4572 L 2.61154,-35.4038 L 3.47961,-35.3291 L 4.34558,-35.233 L 5.20893,-35.1158
 L 6.06915,-34.9774 L 6.92571,-34.8179 L 7.77809,-34.6374 L 8.6258,-34.4361 L 9.4683,-34.2141 L 10.3051,-33.9714
 L 11.1357,-33.7083 L 11.9596,-33.4248 L 12.7763,-33.1212 L 13.5853,-32.7977 L 14.3861,-32.4544 L 15.1782,-32.0916
 L 15.9612,-31.7095 L 16.7346,-31.3082 L 17.4979,-30.8881 L 18.2506,-30.4494 L 18.9924,-29.9923 L 19.7227,-29.5172
 L 20.4412,-29.0243 L 20.5,-28.9818 L 20.5,-64.3065 L 19.5942,-64.5935 L 18.0031,-65.0549 L 16.4012,-65.4771
 L 14.7893,-65.8599 L 13.1686,-66.203 L 11.5399,-66.5062 L 9.90431,-66.7694 L 8.26272,-66.9924 L 6.61616,-67.175
 L 4.96561,-67.3171 L 3.31207,-67.4187 L 1.65653,-67.4797 L 0,-67.5 L -1.65653,-67.4797 L -3.31207,-67.4187
 L -4.96561,-67.3171 L -6.61616,-67.175 L -8.26272,-66.9924 L -9.90431,-66.7694 L -11.5399,-66.5062 L -13.1686,-66.203
 L -14.7893,-65.8599 L -16.4012,-65.4771 L -18.0031,-65.0549 L -19.5942,-64.5935 L -21.1735,-64.0932 L -22.7401,-63.5542
 L -24.2929,-62.977 L -25.8311,-62.3619 L -27.3538,-61.7092 L -28.86,-61.0193 L -30.3488,-60.2926 L -31.8193,-59.5297
 L -33.2706,-58.7309 L -34.7019,-57.8967 L -36.1123,-57.0276 L -37.501,-56.1242 L -38.8671,-55.187 L -40.2097,-54.2165
 L -41.5281,-53.2134 L -42.8215,-52.1782 L -44.0892,-51.1116 L -45.3302,-50.0142 L -46.544,-48.8867 L -47.7297,-47.7297
 L -48.8867,-46.544 L -50.0142,-45.3302 L -51.1116,-44.0892 L -52.1782,-42.8215 L -53.2134,-41.5281 L -54.2165,-40.2097
 L -55.187,-38.8671 L -56.1242,-37.501 L -57.0276,-36.1123 L -57.8967,-34.7019 L -58.7309,-33.2706 L -59.5297,-31.8193
 L -60.2926,-30.3488 L -61.0193,-28.86 L -61.7092,-27.3538 L -62.3619,-25.8311 L -62.977,-24.2929 L -63.5542,-22.7401
 L -64.0932,-21.1735 L -64.5935,-19.5942 L -65.0549,-18.0031 L -65.4771,-16.4012 L -65.8599,-14.7893 L -66.203,-13.1686
 L -66.5062,-11.5399 L -66.7694,-9.90431 L -66.9924,-8.26272 L -67.175,-6.61616 L -67.3171,-4.96561 L -67.4187,-3.31207
 L -67.4797,-1.65653 L -67.5,-0 L -67.4797,1.65653 L -67.4187,3.31207 L -67.3171,4.96561 L -67.175,6.61616
 L -66.9924,8.26272 L -66.7694,9.90431 L -66.5062,11.5399 L -66.203,13.1686 L -65.8599,14.7893 L -65.4771,16.4012
 L -65.0549,18.0031 L -64.5935,19.5942 L -64.0932,21.1735 L -63.5542,22.7401 L -62.977,24.2929 L -62.3619,25.8311
 L -61.7092,27.3538 L -61.0193,28.86 L -60.2926,30.3488 L -59.5297,31.8193 L -58.7309,33.2706 L -57.8967,34.7019
 L -57.0276,36.1123 L -56.1242,37.501 L -55.187,38.8671 L -54.2165,40.2097 L -53.2134,41.5281 L -52.1782,42.8215
 L -51.1116,44.0892 L -50.0142,45.3302 L -48.8867,46.544 L -47.7297,47.7297 L -46.544,48.8867 L -45.3302,50.0142
 L -44.0892,51.1116 L -42.8215,52.1782 L -41.5281,53.2134 L -40.2097,54.2165 L -38.8671,55.187 L -37.501,56.1242
 L -36.1123,57.0276 L -34.7019,57.8967 L -33.2706,58.7309 L -31.8193,59.5297 L -30.3488,60.2926 L -28.86,61.0193
 L -27.3538,61.7092 L -25.8311,62.3619 L -24.2929,62.977 L -22.7401,63.5542 L -21.1735,64.0932 L -19.5942,64.5935
 L -18.0031,65.0549 L -16.4012,65.4771 L -14.7893,65.8599 L -13.1686,66.203 L -11.5399,66.5062 L -9.90431,66.7694
 L -8.26272,66.9924 L -6.61616,67.175 L -4.96561,67.3171 L -3.31207,67.4187 L -1.65653,67.4797 L 0,67.5
 z
" stroke="black" fill="#025" stroke-width="0.5"/>
</svg>
