<?xml version="1.0" standalone="no"?>
<!DOCTYPE svg PUBLIC "-//W3C//DTD SVG 1.1//EN" "http://www.w3.org/Graphics/SVG/1.1/DTD/svg11.dtd">
<svg width="32mm" height="26mm" viewBox="-70 -75 160 150" xmlns="http://www.w3.org/2000/svg" version="1.1">
<title>OpenSCAD Model</title>
<path d="
M 82.7454,9.99699 L 82.9907,9.98795 L 83.2356,9.9729 L 83.4802,9.95185 L 83.7241,9.9248 L 83.9673,9.89177
 L 84.2096,9.85278 L 84.4509,9.80785 L 84.691,9.75702 L 84.9298,9.70031 L 85.1671,9.63776 L 85.4028,9.5694
 L 85.6368,9.49528 L 85.8689,9.41544 L 86.099,9.32993 L 86.3268,9.2388 L 86.5524,9.1421 L 86.7756,9.03989
 L 86.9961,8.93224 L 87.214,8.81921 L 87.429,8.70087 L 87.641,8.57729 L 87.85,8.44854 L 88.0557,8.3147
 L 88.2581,8.17585 L 88.457,8.03208 L 88.6523,7.88346 L 88.8439,7.7301 L 89.0317,7.57209 L 89.2156,7.40951
 L 89.3954,7.24247 L 89.5711,7.07107 L 89.7425,6.89541 L 89.9095,6.71559 L 90.0721,6.53173 L 90.2301,6.34393
 L 90.3835,6.15232 L 90.5321,5.95699 L 90.6758,5.75808 L 90.8147,5.5557 L 90.9485,5.34998 L 91.0773,5.14103
 L 91.2009,4.92898 L 91.3192,4.71397 L 91.4322,4.49611 L 91.5399,4.27555 L 91.6421,4.05241 L 91.7388,3.82683
 L 91.8299,3.59895 L 91.9154,3.3689 L 91.9953,3.13682 L 92.0694,2.90285 L 92.1378,2.66713 L 92.2003,2.4298
 L 92.257,2.19101 L 92.3079,1.9509 L 92.3528,1.70962 L 92.3918,1.4673 L 92.4248,1.22411 L 92.4518,0.980171
 L 92.4729,0.735646 L 92.488,0.490677 L 92.497,0.245412 L 92.5,-0 L 92.497,-0.245412 L 92.488,-0.490677
 L 92.4729,-0.735646 L 92.4518,-0.980171 L 92.4248,-1.22411 L 92.3918,-1.4673 L 92.3528,-1.70962 L 92.3079,-1.9509
 L 92.257,-2.19101 L 92.2003,-2.4298 L 92.1378,-2.66713 L 92.0694,-2.90285 L 91.9953,-3.13682 L 91.9154,-3.3689
 L 91.8299,-3.59895 L 91.7388,-3.82683 L 91.6421,-4.05241 L 91.5399,-4.27555 L 91.4322,-4.49611 L 91.3192,-4.71397
 L 91.2009,-4.92898 L 91.0773,-5.14103 L 90.9485,-5.34998 L 90.8147,-5.5557 L 90.6758,-5.75808 L 90.5321,-5.95699
 L 90.3835,-6.15232 L 90.2301,-6.34393 L 90.0721,-6.53173 L 89.9095,-6.71559 L 89.7425,-6.89541 L 89.5711,-7.07107
 L 89.3954,-7.24247 L 89.2156,-7.40951 L 89.0317,-7.57209 L 88.8439,-7.7301 L 88.6523,-7.88346 L 88.457,-8.03208
 L 88.2581,-8.17585 L 88.0557,-8.3147 L 87.85,-8.44854 L 87.641,-8.57729 L 87.429,-8.70087 L 87.214,-8.81921
 L 86.9961,-8.93224 L 86.7756,-9.03989 L 86.5524,-9.1421 L 86.3268,-9.2388 L 86.099,-9.32993 L 85.8689,-9.41544
 L 85.6368,-9.49528 L 85.4028,-9.5694 L 85.1671,-9.63776 L 84.9298,-9.70031 L 84.691,-9.75702 L 84.4509,-9.80785
 L 84.2096,-9.85278 L 83.9673,-9.89177 L 83.7241,-9.9248 L 83.4802,-9.95185 L 83.2356,-9.9729 L 82.9907,-9.98795
 L 82.7454,-9.99699 L 82.5,-10 L 82.2546,-9.99699 L 82.0093,-9.98795 L 81.7644,-9.9729 L 81.5198,-9.95185
 L 81.2759,-9.9248 L 81.0327,-9.89177 L 80.7904,-9.85278 L 80.5491,-9.80785 L 80.309,-9.75702 L 80.0702,-9.70031
 L 79.8329,-9.63776 L 79.5972,-9.5694 L 79.3632,-9.49528 L 79.1311,-9.41544 L 78.901,-9.32993 L 78.6732,-9.2388
 L 78.4476,-9.1421 L 78.2244,-9.03989 L 78.0039,-8.93224 L 77.786,-8.81921 L 77.571,-8.70087 L 77.359,-8.57729
 L 77.15,-8.44854 L 76.9443,-8.3147 L 76.7419,-8.17585 L 76.543,-8.03208 L 76.3477,-7.88346 L 76.1561,-7.7301
 L 75.9683,-7.57209 L 75.7844,-7.40951 L 75.6046,-7.24247 L 75.4289,-7.07107 L 75.2575,-6.89541 L 75.0905,-6.71559
 L 74.9279,-6.53173 L 74.7699,-6.34393 L 74.6165,-6.15232 L 74.4679,-5.95699 L 74.3242,-5.75808 L 74.1853,-5.5557
 L 74.0515,-5.34998 L 73.9227,-5.14103 L 73.7991,-4.92898 L 73.6808,-4.71397 L 73.5678,-4.49611 L 73.4601,-4.27555
 L 73.3579,-4.05241 L 73.2612,-3.82683 L 73.1701,-3.59895 L 73.0846,-3.3689 L 73.0047,-3.13682 L 72.9306,-2.90285
 L 72.8622,-2.66713 L 72.7997,-2.4298 L 72.743,-2.19101 L 72.6921,-1.9509 L 72.6472,-1.70962 L 72.6082,-1.4673
 L 72.5752,-1.22411 L 72.5482,-0.980171 L 72.5271,-0.735646 L 72.512,-0.490677 L 72.503,-0.245412 L 72.5,-0
 L 72.503,0.245412 L 72.512,0.490677 L 72.5271,0.735646 L 72.5482,0.980171 L 72.5752,1.22411 L 72.6082,1.4673
 L 72.6472,1.70962 L 72.6921,1.9509 L 72.743,2.19101 L 72.7997,2.4298 L 72.8622,2.66713 L 72.9306,2.90285
 L 73.0047,3.13682 L 73.0846,3.3689 L 73.1701,3.59895 L 73.2612,3.82683 L 73.3579,4.05241 L 73.4601,4.27555
 L 73.5678,4.49611 L 73.6808,4.71397 L 73.7991,4.92898 L 73.9227,5.14103 L 74.0515,5.34998 L 74.1853,5.5557
 L 74.3242,5.75808 L 74.4679,5.95699 L 74.6165,6.15232 L 74.7699,6.34393 L 74.9279,6.53173 L 75.0905,6.71559
 L 75.2575,6.89541 L 75.4289,7.07107 L 75.6046,7.24247 L 75.7844,7.40951 L 75.9683,7.57209 L 76.1561,7.7301
 L 76.3477,7.88346 L 76.543,8.03208 L 76.7419,8.17585 L 76.9443,8.3147 L 77.15,8.44854 L 77.359,8.57729
 L 77.571,8.70087 L 77.786,8.81921 L 78.0039,8.93224 L 78.2244,9.03989 L 78.4476,9.1421 L 78.6732,9.2388
 L 78.901,9.32993 L 79.1311,9.41544 L 79.3632,9.49528 L 79.5972,9.5694 L 79.8329,9.63776 L 80.0702,9.70031
 L 80.309,9.75702 L 80.5491,9.80785 L 80.7904,9.85278 L 81.0327,9.89177 L 81.2759,9.9248 L 81.5198,9.95185
 L 81.7644,9.9729 L 82.0093,9.98795 L 82.2546,9.99699 L 82.5,10 z
" stroke="black" fill="red" stroke-width="0.5"/>
<path d="
M 56.7454,35.997 L 56.9907,35.988 L 57.2356,35.9729 L 57.4802,35.9518 L 57.7241,35.9248 L 57.9673,35.8918
 L 58.2096,35.8528 L 58.4509,35.8079 L 58.691,35.757 L 58.9298,35.7003 L 59.1671,35.6378 L 59.4028,35.5694
 L 59.6368,35.4953 L 59.8689,35.4154 L 60.099,35.3299 L 60.3268,35.2388 L 60.5524,35.1421 L 60.7756,35.0399
 L 60.9961,34.9322 L 61.214,34.8192 L 61.429,34.7009 L 61.641,34.5773 L 61.85,34.4485 L 62.0557,34.3147
 L 62.2581,34.1758 L 62.457,34.0321 L 62.6523,33.8835 L 62.8439,33.7301 L 63.0317,33.5721 L 63.2156,33.4095
 L 63.3954,33.2425 L 63.5711,33.0711 L 63.7425,32.8954 L 63.9095,32.7156 L 64.0721,32.5317 L 64.2301,32.3439
 L 64.3835,32.1523 L 64.5321,31.957 L 64.6758,31.7581 L 64.8147,31.5557 L 64.9485,31.35 L 65.0773,31.141
 L 65.2009,30.929 L 65.3192,30.714 L 65.4322,30.4961 L 65.5399,30.2756 L 65.6421,30.0524 L 65.7388,29.8268
 L 65.8299,29.599 L 65.9154,29.3689 L 65.9953,29.1368 L 66.0694,28.9028 L 66.1378,28.6671 L 66.2003,28.4298
 L 66.257,28.191 L 66.3079,27.9509 L 66.3528,27.7096 L 66.3918,27.4673 L 66.4248,27.2241 L 66.4518,26.9802
 L 66.4729,26.7356 L 66.488,26.4907 L 66.497,26.2454 L 66.5,26 L 66.497,25.7546 L 66.488,25.5093
 L 66.4729,25.2644 L 66.4518,25.0198 L 66.4248,24.7759 L 66.3918,24.5327 L 66.3528,24.2904 L 66.3079,24.0491
 L 66.257,23.809 L 66.2003,23.5702 L 66.1378,23.3329 L 66.0694,23.0972 L 65.9953,22.8632 L 65.9154,22.6311
 L 65.8299,22.401 L 65.7388,22.1732 L 65.6421,21.9476 L 65.5399,21.7244 L 65.4322,21.5039 L 65.3192,21.286
 L 65.2009,21.071 L 65.0773,20.859 L 64.9485,20.65 L 64.8147,20.4443 L 64.6758,20.2419 L 64.5321,20.043
 L 64.3835,19.8477 L 64.2301,19.6561 L 64.0721,19.4683 L 63.9095,19.2844 L 63.7425,19.1046 L 63.5711,18.9289
 L 63.3954,18.7575 L 63.2156,18.5905 L 63.0317,18.4279 L 62.8439,18.2699 L 62.6523,18.1165 L 62.457,17.9679
 L 62.2581,17.8242 L 62.0557,17.6853 L 61.85,17.5515 L 61.641,17.4227 L 61.429,17.2991 L 61.214,17.1808
 L 60.9961,17.0678 L 60.7756,16.9601 L 60.5524,16.8579 L 60.3268,16.7612 L 60.099,16.6701 L 59.8689,16.5846
 L 59.6368,16.5047 L 59.4028,16.4306 L 59.1671,16.3622 L 58.9298,16.2997 L 58.691,16.243 L 58.4509,16.1921
 L 58.2096,16.1472 L 57.9673,16.1082 L 57.7241,16.0752 L 57.4802,16.0482 L 57.2356,16.0271 L 56.9907,16.012
 L 56.7454,16.003 L 56.5,16 L 56.2546,16.003 L 56.0093,16.012 L 55.7644,16.0271 L 55.5198,16.0482
 L 55.2759,16.0752 L 55.0327,16.1082 L 54.7904,16.1472 L 54.5491,16.1921 L 54.309,16.243 L 54.0702,16.2997
 L 53.8329,16.3622 L 53.5972,16.4306 L 53.3632,16.5047 L 53.1311,16.5846 L 52.901,16.6701 L 52.6732,16.7612
 L 52.4476,16.8579 L 52.2244,16.9601 L 52.0039,17.0678 L 51.786,17.1808 L 51.571,17.2991 L 51.359,17.4227
 L 51.15,17.5515 L 50.9443,17.6853 L 50.7419,17.8242 L 50.543,17.9679 L 50.3477,18.1165 L 50.1561,18.2699
 L 49.9683,18.4279 L 49.7844,18.5905 L 49.6046,18.7575 L 49.4289,18.9289 L 49.2575,19.1046 L 49.0905,19.2844
 L 48.9279,19.4683 L 48.7699,19.6561 L 48.6165,19.8477 L 48.4679,20.043 L 48.3242,20.2419 L 48.1853,20.4443
 L 48.0515,20.65 L 47.9227,20.859 L 47.7991,21.071 L 47.6808,21.286 L 47.5678,21.5039 L 47.4601,21.7244
 L 47.3579,21.9476 L 47.2612,22.1732 L 47.1701,22.401 L 47.0846,22.6311 L 47.0047,22.8632 L 46.9306,23.0972
 L 46.8622,23.3329 L 46.7997,23.5702 L 46.743,23.809 L 46.6921,24.0491 L 46.6472,24.2904 L 46.6082,24.5327
 L 46.5752,24.7759 L 46.5482,25.0198 L 46.5271,25.2644 L 46.512,25.5093 L 46.503,25.7546 L 46.5,26
 L 46.503,26.2454 L 46.512,26.4907 L 46.5271,26.7356 L 46.5482,26.9802 L 46.5752,27.2241 L 46.6082,27.4673
 L 46.6472,27.7096 L 46.6921,27.9509 L 46.743,28.191 L 46.7997,28.4298 L 46.8622,28.6671 L 46.9306,28.9028
 L 47.0047,29.1368 L 47.0846,29.3689 L 47.1701,29.599 L 47.2612,29.8268 L 47.3579,30.0524 L 47.4601,30.2756
 L 47.5678,30.4961 L 47.6808,30.714 L 47.7991,30.929 L 47.9227,31.141 L 48.0515,31.35 L 48.1853,31.5557
 L 48.3242,31.7581 L 48.4679,31.957 L 48.6165,32.1523 L 48.7699,32.3439 L 48.9279,32.5317 L 49.0905,32.7156
 L 49.2575,32.8954 L 49.4289,33.0711 L 49.6046,33.2425 L 49.7844,33.4095 L 49.9683,33.5721 L 50.1561,33.7301
 L 50.3477,33.8835 L 50.543,34.0321 L 50.7419,34.1758 L 50.9443,34.3147 L 51.15,34.4485 L 51.359,34.5773
 L 51.571,34.7009 L 51.786,34.8192 L 52.0039,34.9322 L 52.2244,35.0399 L 52.4476,35.1421 L 52.6732,35.2388
 L 52.901,35.3299 L 53.1311,35.4154 L 53.3632,35.4953 L 53.5972,35.5694 L 53.8329,35.6378 L 54.0702,35.7003
 L 54.309,35.757 L 54.5491,35.8079 L 54.7904,35.8528 L 55.0327,35.8918 L 55.2759,35.9248 L 55.5198,35.9518
 L 55.7644,35.9729 L 56.0093,35.988 L 56.2546,35.997 L 56.5,36 z
" stroke="black" fill="yellow" stroke-width="0.5"/>
<path d="
M 56.7454,-16.003 L 56.9907,-16.012 L 57.2356,-16.0271 L 57.4802,-16.0482 L 57.7241,-16.0752 L 57.9673,-16.1082
 L 58.2096,-16.1472 L 58.4509,-16.1921 L 58.691,-16.243 L 58.9298,-16.2997 L 59.1671,-16.3622 L 59.4028,-16.4306
 L 59.6368,-16.5047 L 59.8689,-16.5846 L 60.099,-16.6701 L 60.3268,-16.7612 L 60.5524,-16.8579 L 60.7756,-16.9601
 L 60.9961,-17.0678 L 61.214,-17.1808 L 61.429,-17.2991 L 61.641,-17.4227 L 61.85,-17.5515 L 62.0557,-17.6853
 L 62.2581,-17.8242 L 62.457,-17.9679 L 62.6523,-18.1165 L 62.8439,-18.2699 L 63.0317,-18.4279 L 63.2156,-18.5905
 L 63.3954,-18.7575 L 63.5711,-18.9289 L 63.7425,-19.1046 L 63.9095,-19.2844 L 64.0721,-19.4683 L 64.2301,-19.6561
 L 64.3835,-19.8477 L 64.5321,-20.043 L 64.6758,-20.2419 L 64.8147,-20.4443 L 64.9485,-20.65 L 65.0773,-20.859
 L 65.2009,-21.071 L 65.3192,-21.286 L 65.4322,-21.5039 L 65.5399,-21.7244 L 65.6421,-21.9476 L 65.7388,-22.1732
 L 65.8299,-22.401 L 65.9154,-22.6311 L 65.9953,-22.8632 L 66.0694,-23.0972 L 66.1378,-23.3329 L 66.2003,-23.5702
 L 66.257,-23.809 L 66.3079,-24.0491 L 66.3528,-24.2904 L 66.3918,-24.5327 L 66.4248,-24.7759 L 66.4518,-25.0198
 L 66.4729,-25.2644 L 66.488,-25.5093 L 66.497,-25.7546 L 66.5,-26 L 66.497,-26.2454 L 66.488,-26.4907
 L 66.4729,-26.7356 L 66.4518,-26.9802 L 66.4248,-27.2241 L 66.3918,-27.4673 L 66.3528,-27.7096 L 66.3079,-27.9509
 L 66.257,-28.191 L 66.2003,-28.4298 L 66.1378,-28.6671 L 66.0694,-28.9028 L 65.9953,-29.1368 L 65.9154,-29.3689
 L 65.8299,-29.599 L 65.7388,-29.8268 L 65.6421,-30.0524 L 65.5399,-30.2756 L 65.4322,-30.4961 L 65.3192,-30.714
 L 65.2009,-30.929 L 65.0773,-31.141 L 64.9485,-31.35 L 64.8147,-31.5557 L 64.6758,-31.7581 L 64.5321,-31.957
 L 64.3835,-32.1523 L 64.2301,-32.3439 L 64.0721,-32.5317 L 63.9095,-32.7156 L 63.7425,-32.8954 L 63.5711,-33.0711
 L 63.3954,-33.2425 L 63.2156,-33.4095 L 63.0317,-33.5721 L 62.8439,-33.7301 L 62.6523,-33.8835 L 62.457,-34.0321
 L 62.2581,-34.1758 L 62.0557,-34.3147 L 61.85,-34.4485 L 61.641,-34.5773 L 61.429,-34.7009 L 61.214,-34.8192
 L 60.9961,-34.9322 L 60.7756,-35.0399 L 60.5524,-35.1421 L 60.3268,-35.2388 L 60.099,-35.3299 L 59.8689,-35.4154
 L 59.6368,-35.4953 L 59.4028,-35.5694 L 59.1671,-35.6378 L 58.9298,-35.7003 L 58.691,-35.757 L 58.4509,-35.8079
 L 58.2096,-35.8528 L 57.9673,-35.8918 L 57.7241,-35.9248 L 57.4802,-35.9518 L 57.2356,-35.9729 L 56.9907,-35.988
 L 56.7454,-35.997 L 56.5,-36 L 56.2546,-35.997 L 56.0093,-35.988 L 55.7644,-35.9729 L 55.5198,-35.9518
 L 55.2759,-35.9248 L 55.0327,-35.8918 L 54.7904,-35.8528 L 54.5491,-35.8079 L 54.309,-35.757 L 54.0702,-35.7003
 L 53.8329,-35.6378 L 53.5972,-35.5694 L 53.3632,-35.4953 L 53.1311,-35.4154 L 52.901,-35.3299 L 52.6732,-35.2388
 L 52.4476,-35.1421 L 52.2244,-35.0399 L 52.0039,-34.9322 L 51.786,-34.8192 L 51.571,-34.7009 L 51.359,-34.5773
 L 51.15,-34.4485 L 50.9443,-34.3147 L 50.7419,-34.1758 L 50.543,-34.0321 L 50.3477,-33.8835 L 50.1561,-33.7301
 L 49.9683,-33.5721 L 49.7844,-33.4095 L 49.6046,-33.2425 L 49.4289,-33.0711 L 49.2575,-32.8954 L 49.0905,-32.7156
 L 48.9279,-32.5317 L 48.7699,-32.3439 L 48.6165,-32.1523 L 48.4679,-31.957 L 48.3242,-31.7581 L 48.1853,-31.5557
 L 48.0515,-31.35 L 47.9227,-31.141 L 47.7991,-30.929 L 47.6808,-30.714 L 47.5678,-30.4961 L 47.4601,-30.2756
 L 47.3579,-30.0524 L 47.2612,-29.8268 L 47.1701,-29.599 L 47.0846,-29.3689 L 47.0047,-29.1368 L 46.9306,-28.9028
 L 46.8622,-28.6671 L 46.7997,-28.4298 L 46.743,-28.191 L 46.6921,-27.9509 L 46.6472,-27.7096 L 46.6082,-27.4673
 L 46.5752,-27.2241 L 46.5482,-26.9802 L 46.5271,-26.7356 L 46.512,-26.4907 L 46.503,-26.2454 L 46.5,-26
 L 46.503,-25.7546 L 46.512,-25.5093 L 46.5271,-25.2644 L 46.5482,-25.0198 L 46.5752,-24.7759 L 46.6082,-24.5327
 L 46.6472,-24.2904 L 46.6921,-24.0491 L 46.743,-23.809 L 46.7997,-23.5702 L 46.8622,-23.3329 L 46.9306,-23.0972
 L 47.0047,-22.8632 L 47.0846,-22.6311 L 47.1701,-22.401 L 47.2612,-22.1732 L 47.3579,-21.9476 L 47.4601,-21.7244
 L 47.5678,-21.5039 L 47.6808,-21.286 L 47.7991,-21.071 L 47.9227,-20.859 L 48.0515,-20.65 L 48.1853,-20.4443
 L 48.3242,-20.2419 L 48.4679,-20.043 L 48.6165,-19.8477 L 48.7699,-19.6561 L 48.9279,-19.4683 L 49.0905,-19.2844
 L 49.2575,-19.1046 L 49.4289,-18.9289 L 49.6046,-18.7575 L 49.7844,-18.5905 L 49.9683,-18.4279 L 50.1561,-18.2699
 L 50.3477,-18.1165 L 50.543,-17.9679 L 50.7419,-17.8242 L 50.9443,-17.6853 L 51.15,-17.5515 L 51.359,-17.4227
 L 51.571,-17.2991 L 51.786,-17.1808 L 52.0039,-17.0678 L 52.2244,-16.9601 L 52.4476,-16.8579 L 52.6732,-16.7612
 L 52.901,-16.6701 L 53.1311,-16.5846 L 53.3632,-16.5047 L 53.5972,-16.4306 L 53.8329,-16.3622 L 54.0702,-16.2997
 L 54.309,-16.243 L 54.5491,-16.1921 L 54.7904,-16.1472 L 55.0327,-16.1082 L 55.2759,-16.0752 L 55.5198,-16.0482
 L 55.7644,-16.0271 L 56.0093,-16.012 L 56.2546,-16.003 L 56.5,-16 z
" stroke="black" fill="blue" stroke-width="0.5"/>
<path d="
M 30.7454,9.99699 L 30.9907,9.98795 L 31.2356,9.9729 L 31.4802,9.95185 L 31.7241,9.9248 L 31.9673,9.89177
 L 32.2096,9.85278 L 32.4509,9.80785 L 32.691,9.75702 L 32.9298,9.70031 L 33.1671,9.63776 L 33.4028,9.5694
 L 33.6368,9.49528 L 33.8689,9.41544 L 34.099,9.32993 L 34.3268,9.2388 L 34.5524,9.1421 L 34.7756,9.03989
 L 34.9961,8.93224 L 35.214,8.81921 L 35.429,8.70087 L 35.641,8.57729 L 35.85,8.44854 L 36.0557,8.3147
 L 36.2581,8.17585 L 36.457,8.03208 L 36.6523,7.88346 L 36.8439,7.7301 L 37.0317,7.57209 L 37.2156,7.40951
 L 37.3954,7.24247 L 37.5711,7.07107 L 37.7425,6.89541 L 37.9095,6.71559 L 38.0721,6.53173 L 38.2301,6.34393
 L 38.3835,6.15232 L 38.5321,5.95699 L 38.6758,5.75808 L 38.8147,5.5557 L 38.9485,5.34998 L 39.0773,5.14103
 L 39.2009,4.92898 L 39.3192,4.71397 L 39.4322,4.49611 L 39.5399,4.27555 L 39.6421,4.05241 L 39.7388,3.82683
 L 39.8299,3.59895 L 39.9154,3.3689 L 39.9953,3.13682 L 40.0694,2.90285 L 40.1378,2.66713 L 40.2003,2.4298
 L 40.257,2.19101 L 40.3079,1.9509 L 40.3528,1.70962 L 40.3918,1.4673 L 40.4248,1.22411 L 40.4518,0.980171
 L 40.4729,0.735646 L 40.488,0.490677 L 40.497,0.245412 L 40.5,-0 L 40.497,-0.245412 L 40.488,-0.490677
 L 40.4729,-0.735646 L 40.4518,-0.980171 L 40.4248,-1.22411 L 40.3918,-1.4673 L 40.3528,-1.70962 L 40.3079,-1.9509
 L 40.257,-2.19101 L 40.2003,-2.4298 L 40.1378,-2.66713 L 40.0694,-2.90285 L 39.9953,-3.13682 L 39.9154,-3.3689
 L 39.8299,-3.59895 L 39.7388,-3.82683 L 39.6421,-4.05241 L 39.5399,-4.27555 L 39.4322,-4.49611 L 39.3192,-4.71397
 L 39.2009,-4.92898 L 39.0773,-5.14103 L 38.9485,-5.34998 L 38.8147,-5.5557 L 38.6758,-5.75808 L 38.5321,-5.95699
 L 38.3835,-6.15232 L 38.2301,-6.34393 L 38.0721,-6.53173 L 37.9095,-6.71559 L 37.7425,-6.89541 L 37.5711,-7.07107
 L 37.3954,-7.24247 L 37.2156,-7.40951 L 37.0317,-7.57209 L 36.8439,-7.7301 L 36.6523,-7.88346 L 36.457,-8.03208
 L 36.2581,-8.17585 L 36.0557,-8.3147 L 35.85,-8.44854 L 35.641,-8.57729 L 35.429,-8.70087 L 35.214,-8.81921
 L 34.9961,-8.93224 L 34.7756,-9.03989 L 34.5524,-9.1421 L 34.3268,-9.2388 L 34.099,-9.32993 L 33.8689,-9.41544
 L 33.6368,-9.49528 L 33.4028,-9.5694 L 33.1671,-9.63776 L 32.9298,-9.70031 L 32.691,-9.75702 L 32.4509,-9.80785
 L 32.2096,-9.85278 L 31.9673,-9.89177 L 31.7241,-9.9248 L 31.4802,-9.95185 L 31.2356,-9.9729 L 30.9907,-9.98795
 L 30.7454,-9.99699 L 30.5,-10 L 30.2546,-9.99699 L 30.0093,-9.98795 L 29.7644,-9.9729 L 29.5198,-9.95185
 L 29.2759,-9.9248 L 29.0327,-9.89177 L 28.7904,-9.85278 L 28.5491,-9.80785 L 28.309,-9.75702 L 28.0702,-9.70031
 L 27.8329,-9.63776 L 27.5972,-9.5694 L 27.3632,-9.49528 L 27.1311,-9.41544 L 26.901,-9.32993 L 26.6732,-9.2388
 L 26.4476,-9.1421 L 26.2244,-9.03989 L 26.0039,-8.93224 L 25.786,-8.81921 L 25.571,-8.70087 L 25.359,-8.57729
 L 25.15,-8.44854 L 24.9443,-8.3147 L 24.7419,-8.17585 L 24.543,-8.03208 L 24.3477,-7.88346 L 24.1561,-7.7301
 L 23.9683,-7.57209 L 23.7844,-7.40951 L 23.6046,-7.24247 L 23.4289,-7.07107 L 23.2575,-6.89541 L 23.0905,-6.71559
 L 22.9279,-6.53173 L 22.7699,-6.34393 L 22.6165,-6.15232 L 22.4679,-5.95699 L 22.3242,-5.75808 L 22.1853,-5.5557
 L 22.0515,-5.34998 L 21.9227,-5.14103 L 21.7991,-4.92898 L 21.6808,-4.71397 L 21.5678,-4.49611 L 21.4601,-4.27555
 L 21.3579,-4.05241 L 21.2612,-3.82683 L 21.1701,-3.59895 L 21.0846,-3.3689 L 21.0047,-3.13682 L 20.9306,-2.90285
 L 20.8622,-2.66713 L 20.7997,-2.4298 L 20.743,-2.19101 L 20.6921,-1.9509 L 20.6472,-1.70962 L 20.6082,-1.4673
 L 20.5752,-1.22411 L 20.5482,-0.980171 L 20.5271,-0.735646 L 20.512,-0.490677 L 20.503,-0.245412 L 20.5,-0
 L 20.503,0.245412 L 20.512,0.490677 L 20.5271,0.735646 L 20.5482,0.980171 L 20.5752,1.22411 L 20.6082,1.4673
 L 20.6472,1.70962 L 20.6921,1.9509 L 20.743,2.19101 L 20.7997,2.4298 L 20.8622,2.66713 L 20.9306,2.90285
 L 21.0047,3.13682 L 21.0846,3.3689 L 21.1701,3.59895 L 21.2612,3.82683 L 21.3579,4.05241 L 21.4601,4.27555
 L 21.5678,4.49611 L 21.6808,4.71397 L 21.7991,4.92898 L 21.9227,5.14103 L 22.0515,5.34998 L 22.1853,5.5557
 L 22.3242,5.75808 L 22.4679,5.95699 L 22.6165,6.15232 L 22.7699,6.34393 L 22.9279,6.53173 L 23.0905,6.71559
 L 23.2575,6.89541 L 23.4289,7.07107 L 23.6046,7.24247 L 23.7844,7.40951 L 23.9683,7.57209 L 24.1561,7.7301
 L 24.3477,7.88346 L 24.543,8.03208 L 24.7419,8.17585 L 24.9443,8.3147 L 25.15,8.44854 L 25.359,8.57729
 L 25.571,8.70087 L 25.786,8.81921 L 26.0039,8.93224 L 26.2244,9.03989 L 26.4476,9.1421 L 26.6732,9.2388
 L 26.901,9.32993 L 27.1311,9.41544 L 27.3632,9.49528 L 27.5972,9.5694 L 27.8329,9.63776 L 28.0702,9.70031
 L 28.309,9.75702 L 28.5491,9.80785 L 28.7904,9.85278 L 29.0327,9.89177 L 29.2759,9.9248 L 29.5198,9.95185
 L 29.7644,9.9729 L 30.0093,9.98795 L 30.2546,9.99699 L 30.5,10 z
" stroke="black" fill="green" stroke-width="0.5"/>
<path d="
M 1.65653,67.4797 L 3.31207,67.4187 L 4.96561,67.3171 L 6.61616,67.175 L 8.26272,66.9924 L 9.90431,66.7694
 L 11.5399,66.5062 L 13.1686,66.203 L 14.7893,65.8599 L 16.4012,65.4771 L 18.0031,65.0549 L 19.5942,64.5935
 L 20.5,64.3065 L 20.5,28.9818 L 20.4412,29.0243 L 19.7227,29.5172 L 18.9924,29.9923 L 18.2506,30.4494
 L 17.4979,30.8881 L 16.7346,31.3082 L 15.9612,31.7095 L 15.1782,32.0916 L 14.3861,32.4544 L 13.5853,32.7977
 L 12.7763,33.1212 L 11.9596,33.4248 L 11.1357,33.7083 L 10.3051,33.9714 L 9.4683,34.2141 L 8.6258,34.4361
 L 7.77809,34.6374 L 6.92571,34.8179 L 6.06915,34.9774 L 5.20893,35.1158 L 4.34558,35.233 L 3.47961,35.3291
 L 2.61154,35.4038 L 1.7419,35.4572 L 0.871213,35.4893 L 0,35.5 L -0.871213,35.4893 L -1.7419,35.4572
 L -2.61154,35.4038 L -3.47961,35.3291 L -4.34558,35.233 L -5.20893,35.1158 L -6.06915,34.9774 L -6.92571,34.8179
 L -7.77809,34.6374 L -8.6258,34.4361 L -9.4683,34.2141 L -10.3051,33.9714 L -11.1357,33.7083 L -11.9596,33.4248
 L -12.7763,33.1212 L -13.5853,32.7977 L -14.3861,32.4544 L -15.1782,32.0916 L -15.9612,31.7095 L -16.7346,31.3082
 L -17.4979,30.8881 L -18.2506,30.4494 L -18.9924,29.9923 L -19.7227,29.5172 L -20.4412,29.0243 L -21.1473,28.5139
 L -21.8407,27.9863 L -22.521,27.4419 L -23.1876,26.8809 L -23.8403,26.3038 L -24.4787,25.7108 L -25.1023,25.1023
 L -25.7108,24.4787 L -26.3038,23.8403 L -26.8809,23.1876 L -27.4419,22.521 L -27.9863,21.8407 L -28.5139,21.1473
 L -29.0243,20.4412 L -29.5172,19.7227 L -29.9923,18.9924 L -30.4494,18.2506 L -30.8881,17.4979 L -31.3082,16.7346
 L -31.7095,15.9612 L -32.0916,15.1782 L -32.4544,14.3861 L -32.7977,13.5853 L -33.1212,12.7763 L -33.4248,11.9596
 L -33.7083,11.1357 L -33.9714,10.3051 L -34.2141,9.4683 L -34.4361,8.6258 L -34.6374,7.77809 L -34.8179,6.92571
 L -34.9774,6.06915 L -35.1158,5.20893 L -35.233,4.34558 L -35.3291,3.47961 L -35.4038,2.61154 L -35.4572,1.7419
 L -35.4893,0.871213 L -35.5,-0 L -35.4893,-0.871213 L -35.4572,-1.7419 L -35.4038,-2.61154 L -35.3291,-3.47961
 L -35.233,-4.34558 L -35.1158,-5.20893 L -34.9774,-6.06915 L -34.8179,-6.92571 L -34.6374,-7.77809 L -34.4361,-8.6258
 L -34.2141,-9.4683 L -33.9714,-10.3051 L -33.7083,-11.1357 L -33.4248,-11.9596 L -33.1212,-12.7763 L -32.7977,-13.5853
 L -32.4544,-14.3861 L -32.0916,-15.1782 L -31.7095,-15.9612 L -31.3082,-16.7346 L -30.8881,-17.4979 L -30.4494,-18.2506
 L -29.9923,-18.9924 L -29.5172,-19.7227 L -29.0243,-20.4412 L -28.5139,-21.1473 L -27.9863,-21.8407 L -27.4419,-22.521
 L -26.8809,-23.1876 L -26.3038,-23.8403 L -25.7108,-24.4787 L -25.1023,-25.1023 L -24.4787,-25.7108 L -23.8403,-26.3038
 L -23.1876,-26.8809 L -22.521,-27.4419 L -21.8407,-27.9863 L -21.1473,-28.5139 L -20.4412,-29.0243 L -19.7227,-29.5172
 L -18.9924,-29.9923 L -18.2506,-30.4494 L -17.4979,-30.8881 L -16.7346,-31.3082 L -15.9612,-31.7095 L -15.1782,-32.0916
 L -14.3861,-32.4544 L -13.5853,-32.7977 L -12.7763,-33.1212 L -11.9596,-33.4248 L -11.1357,-33.7083 L -10.3051,-33.9714
 L -9.4683,-34.2141 L -8.6258,-34.4361 L -7.77809,-34.6374 L -6.92571,-34.8179 L -6.06915,-34.9774 L -5.20893,-35.1158
 L -4.34558,-35.233 L -3.47961,-35.3291 L -2.61154,-35.4038 L -1.7419,-35.4572 L -0.871213,-35.4893 L 0,-35.5
 L 0.871213,-35.4893 L 1.7419,-35.4572 L 2.61154,-35.4038 L 3.47961,-35.3291 L 4.34558,-35.233 L 5.20893,-35.1158
 L 6.06915,-34.9774 L 6.92571,-34.8179 L 7.77809,-34.6374 L 8.6258,-34.4361 L 9.4683,-34.2141 L 10.3051,-33.9714
 L 11.1357,-33.7083 L 11.9596,-33.4248 L 12.7763,-33.1212 L 13.5853,-32.7977 L 14.3861,-32.4544 L 15.1782,-32.0916
 L 15.9612,-31.7095 L 16.7346,-31.3082 L 17.4979,-30.8881 L 18.2506,-30.4494 L 18.9924,-29.9923 L 19.7227,-29.5172
 L 20.4412,-29.0243 L 20.5,-28.9818 L 20.5,-64.3065 L 19.5942,-64.5935 L 18.0031,-65.0549 L 16.4012,-65.4771
 L 14.7893,-65.8599 L 13.1686,-66.203 L 11.5399,-66.5062 L 9.90431,-66.7694 L 8.26272,-66.9924 L 6.61616,-67.175
 L 4.96561,-67.3171 L 3.31207,-67.4187 L 1.65653,-67.4797 L 0,-67.5 L -1.65653,-67.4797 L -3.31207,-67.4187
 L -4.96561,-67.3171 L -6.61616,-67.175 L -8.26272,-66.9924 L -9.90431,-66.7694 L -11.5399,-66.5062 L -13.1686,-66.203
 L -14.7893,-65.8599 L -16.4012,-65.4771 L -18.0031,-65.0549 L -19.5942,-64.5935 L -21.1735,-64.0932 L -22.7401,-63.5542
 L -24.2929,-62.977 L -25.8311,-62.3619 L -27.3538,-61.7092 L -28.86,-61.0193 L -30.3488,-60.2926 L -31.8193,-59.5297
 L -33.2706,-58.7309 L -34.7019,-57.8967 L -36.1123,-57.0276 L -37.501,-56.1242 L -38.8671,-55.187 L -40.2097,-54.2165
 L -41.5281,-53.2134 L -42.8215,-52.1782 L -44.0892,-51.1116 L -45.3302,-50.0142 L -46.544,-48.8867 L -47.7297,-47.7297
 L -48.8867,-46.544 L -50.0142,-45.3302 L -51.1116,-44.0892 L -52.1782,-42.8215 L -53.2134,-41.5281 L -54.2165,-40.2097
 L -55.187,-38.8671 L -56.1242,-37.501 L -57.0276,-36.1123 L -57.8967,-34.7019 L -58.7309,-33.2706 L -59.5297,-31.8193
 L -60.2926,-30.3488 L -61.0193,-28.86 L -61.7092,-27.3538 L -62.3619,-25.8311 L -62.977,-24.2929 L -63.5542,-22.7401
 L -64.0932,-21.1735 L -64.5935,-19.5942 L -65.0549,-18.0031 L -65.4771,-16.4012 L -65.8599,-14.7893 L -66.203,-13.1686
 L -66.5062,-11.5399 L -66.7694,-9.90431 L -66.9924,-8.26272 L -67.175,-6.61616 L -67.3171,-4.96561 L -67.4187,-3.31207
 L -67.4797,-1.65653 L -67.5,-0 L -67.4797,1.65653 L -67.4187,3.31207 L -67.3171,4.96561 L -67.175,6.61616
 L -66.9924,8.26272 L -66.7694,9.90431 L -66.5062,11.5399 L -66.203,13.1686 L -65.8599,14.7893 L -65.4771,16.4012
 L -65.0549,18.0031 L -64.5935,19.5942 L -64.0932,21.1735 L -63.5542,22.7401 L -62.977,24.2929 L -62.3619,25.8311
 L -61.7092,27.3538 L -61.0193,28.86 L -60.2926,30.3488 L -59.5297,31.8193 L -58.7309,33.2706 L -57.8967,34.7019
 L -57.0276,36.1123 L -56.1242,37.501 L -55.187,38.8671 L -54.2165,40.2097 L -53.2134,41.5281 L -52.1782,42.8215
 L -51.1116,44.0892 L -50.0142,45.3302 L -48.8867,46.544 L -47.7297,47.7297 L -46.544,48.8867 L -45.3302,50.0142
 L -44.0892,51.1116 L -42.8215,52.1782 L -41.5281,53.2134 L -40.2097,54.2165 L -38.8671,55.187 L -37.501,56.1242
 L -36.1123,57.0276 L -34.7019,57.8967 L -33.2706,58.7309 L -31.8193,59.5297 L -30.3488,60.2926 L -28.86,61.0193
 L -27.3538,61.7092 L -25.8311,62.3619 L -24.2929,62.977 L -22.7401,63.5542 L -21.1735,64.0932 L -19.5942,64.5935
 L -18.0031,65.0549 L -16.4012,65.4771 L -14.7893,65.8599 L -13.1686,66.203 L -11.5399,66.5062 L -9.90431,66.7694
 L -8.26272,66.9924 L -6.61616,67.175 L -4.96561,67.3171 L -3.31207,67.4187 L -1.65653,67.4797 L 0,67.5
 z
" stroke="black" fill="#025" stroke-width="0.5"/>

</svg>
