<?xml version="1.0" standalone="no"?>
<!DOCTYPE svg PUBLIC "-//W3C//DTD SVG 1.1//EN" "http://www.w3.org/Graphics/SVG/1.1/DTD/svg11.dtd">
<svg width="10mm" height="10mm" viewBox="-5 8 10 10" xmlns="http://www.w3.org/2000/svg" version="1.1">
<title>OpenSCAD Model</title>
<path d="
M 0.122706,17.9985 L 0.245338,17.994 L 0.367823,17.9865 L 0.490086,17.9759 L 0.612053,17.9624 L 0.733652,17.9459
 L 0.854809,17.9264 L 0.975452,17.9039 L 1.09551,17.8785 L 1.2149,17.8502 L 1.33356,17.8189 L 1.45142,17.7847
 L 1.56841,17.7476 L 1.68445,17.7077 L 1.79948,17.665 L 1.91342,17.6194 L 2.02621,17.571 L 2.13778,17.5199
 L 2.24806,17.4661 L 2.35698,17.4096 L 2.46449,17.3504 L 2.57051,17.2886 L 2.67499,17.2243 L 2.77785,17.1573
 L 2.87904,17.0879 L 2.9785,17.016 L 3.07616,16.9417 L 3.17197,16.8651 L 3.26586,16.786 L 3.35779,16.7048
 L 3.4477,16.6212 L 3.53553,16.5355 L 3.62124,16.4477 L 3.70476,16.3578 L 3.78604,16.2659 L 3.86505,16.172
 L 3.94173,16.0762 L 4.01604,15.9785 L 4.08792,15.879 L 4.15735,15.7779 L 4.22427,15.675 L 4.28864,15.5705
 L 4.35043,15.4645 L 4.40961,15.357 L 4.46612,15.2481 L 4.51995,15.1378 L 4.57105,15.0262 L 4.6194,14.9134
 L 4.66496,14.7995 L 4.70772,14.6844 L 4.74764,14.5684 L 4.7847,14.4514 L 4.81888,14.3336 L 4.85016,14.2149
 L 4.87851,14.0955 L 4.90393,13.9755 L 4.92639,13.8548 L 4.94588,13.7337 L 4.9624,13.6121 L 4.97592,13.4901
 L 4.98645,13.3678 L 4.99398,13.2453 L 4.99849,13.1227 L 5,13 L 4.99849,12.8773 L 4.99398,12.7547
 L 4.98645,12.6322 L 4.97592,12.5099 L 4.9624,12.3879 L 4.94588,12.2663 L 4.92639,12.1452 L 4.90393,12.0245
 L 4.87851,11.9045 L 4.85016,11.7851 L 4.81888,11.6664 L 4.7847,11.5486 L 4.74764,11.4316 L 4.70772,11.3156
 L 4.66496,11.2005 L 4.6194,11.0866 L 4.57105,10.9738 L 4.51995,10.8622 L 4.46612,10.7519 L 4.40961,10.643
 L 4.35043,10.5355 L 4.28864,10.4295 L 4.22427,10.325 L 4.15735,10.2221 L 4.08792,10.121 L 4.01604,10.0215
 L 3.94173,9.92384 L 3.86505,9.82803 L 3.78604,9.73414 L 3.70476,9.64221 L 3.62124,9.5523 L 3.53553,9.46447
 L 3.4477,9.37876 L 3.35779,9.29524 L 3.26586,9.21396 L 3.17197,9.13495 L 3.07616,9.05827 L 2.9785,8.98396
 L 2.87904,8.91208 L 2.77785,8.84265 L 2.67499,8.77573 L 2.57051,8.71136 L 2.46449,8.64957 L 2.35698,8.59039
 L 2.24806,8.53388 L 2.13778,8.48005 L 2.02621,8.42895 L 1.91342,8.3806 L 1.79948,8.33504 L 1.68445,8.29228
 L 1.56841,8.25236 L 1.45142,8.2153 L 1.33356,8.18112 L 1.2149,8.14984 L 1.09551,8.12149 L 0.975452,8.09607
 L 0.854809,8.07361 L 0.733652,8.05412 L 0.612053,8.0376 L 0.490086,8.02408 L 0.367823,8.01355 L 0.245338,8.00602
 L 0.122706,8.00151 L 0,8 L -0.122706,8.00151 L -0.245338,8.00602 L -0.367823,8.01355 L -0.490086,8.02408
 L -0.612053,8.0376 L -0.733652,8.05412 L -0.854809,8.07361 L -0.975452,8.09607 L -1.09551,8.12149 L -1.2149,8.14984
 L -1.33356,8.18112 L -1.45142,8.2153 L -1.56841,8.25236 L -1.68445,8.29228 L -1.79948,8.33504 L -1.91342,8.3806
 L -2.02621,8.42895 L -2.13778,8.48005 L -2.24806,8.53388 L -2.35698,8.59039 L -2.46449,8.64957 L -2.57051,8.71136
 L -2.67499,8.77573 L -2.77785,8.84265 L -2.87904,8.91208 L -2.9785,8.98396 L -3.07616,9.05827 L -3.17197,9.13495
 L -3.26586,9.21396 L -3.35779,9.29524 L -3.4477,9.37876 L -3.53553,9.46447 L -3.62124,9.5523 L -3.70476,9.64221
 L -3.78604,9.73414 L -3.86505,9.82803 L -3.94173,9.92384 L -4.01604,10.0215 L -4.08792,10.121 L -4.15735,10.2221
 L -4.22427,10.325 L -4.28864,10.4295 L -4.35043,10.5355 L -4.40961,10.643 L -4.46612,10.7519 L -4.51995,10.8622
 L -4.57105,10.9738 L -4.6194,11.0866 L -4.66496,11.2005 L -4.70772,11.3156 L -4.74764,11.4316 L -4.7847,11.5486
 L -4.81888,11.6664 L -4.85016,11.7851 L -4.87851,11.9045 L -4.90393,12.0245 L -4.92639,12.1452 L -4.94588,12.2663
 L -4.9624,12.3879 L -4.97592,12.5099 L -4.98645,12.6322 L -4.99398,12.7547 L -4.99849,12.8773 L -5,13
 L -4.99849,13.1227 L -4.99398,13.2453 L -4.98645,13.3678 L -4.97592,13.4901 L -4.9624,13.6121 L -4.94588,13.7337
 L -4.92639,13.8548 L -4.90393,13.9755 L -4.87851,14.0955 L -4.85016,14.2149 L -4.81888,14.3336 L -4.7847,14.4514
 L -4.74764,14.5684 L -4.70772,14.6844 L -4.66496,14.7995 L -4.6194,14.9134 L -4.57105,15.0262 L -4.51995,15.1378
 L -4.46612,15.2481 L -4.40961,15.357 L -4.35043,15.4645 L -4.28864,15.5705 L -4.22427,15.675 L -4.15735,15.7779
 L -4.08792,15.879 L -4.01604,15.9785 L -3.94173,16.0762 L -3.86505,16.172 L -3.78604,16.2659 L -3.70476,16.3578
 L -3.62124,16.4477 L -3.53553,16.5355 L -3.4477,16.6212 L -3.35779,16.7048 L -3.26586,16.786 L -3.17197,16.8651
 L -3.07616,16.9417 L -2.9785,17.016 L -2.87904,17.0879 L -2.77785,17.1573 L -2.67499,17.2243 L -2.57051,17.2886
 L -2.46449,17.3504 L -2.35698,17.4096 L -2.24806,17.4661 L -2.13778,17.5199 L -2.02621,17.571 L -1.91342,17.6194
 L -1.79948,17.665 L -1.68445,17.7077 L -1.56841,17.7476 L -1.45142,17.7847 L -1.33356,17.8189 L -1.2149,17.8502
 L -1.09551,17.8785 L -0.975452,17.9039 L -0.854809,17.9264 L -0.733652,17.9459 L -0.612053,17.9624 L -0.490086,17.9759
 L -0.367823,17.9865 L -0.245338,17.994 L -0.122706,17.9985 L 0,18 z
" stroke="black" fill="yellow" stroke-width="0.5"/>
</svg>
