<?xml version="1.0" standalone="no"?>
<!DOCTYPE svg PUBLIC "-//W3C//DTD SVG 1.1//EN" "http://www.w3.org/Graphics/SVG/1.1/DTD/svg11.dtd">
<svg width="32mm" height="32mm" viewBox="-19 -19 40 40" xmlns="http://www.w3.org/2000/svg" version="1.1">
<title>OpenSCAD Model</title>
<path d="
M 13.1227,4.99849 L 13.2453,4.99398 L 13.3678,4.98645 L 13.4901,4.97592 L 13.6121,4.9624 L 13.7337,4.94588
 L 13.8548,4.92639 L 13.9755,4.90393 L 14.0955,4.87851 L 14.2149,4.85016 L 14.3336,4.81888 L 14.4514,4.7847
 L 14.5684,4.74764 L 14.6844,4.70772 L 14.7995,4.66496 L 14.9134,4.6194 L 15.0262,4.57105 L 15.1378,4.51995
 L 15.2481,4.46612 L 15.357,4.40961 L 15.4645,4.35043 L 15.5705,4.28864 L 15.675,4.22427 L 15.7779,4.15735
 L 15.879,4.08792 L 15.9785,4.01604 L 16.0762,3.94173 L 16.172,3.86505 L 16.2659,3.78604 L 16.3578,3.70476
 L 16.4477,3.62124 L 16.5355,3.53553 L 16.6212,3.4477 L 16.7048,3.35779 L 16.786,3.26586 L 16.8651,3.17197
 L 16.9417,3.07616 L 17.016,2.9785 L 17.0879,2.87904 L 17.1573,2.77785 L 17.2243,2.67499 L 17.2886,2.57051
 L 17.3504,2.46449 L 17.4096,2.35698 L 17.4661,2.24806 L 17.5199,2.13778 L 17.571,2.02621 L 17.6194,1.91342
 L 17.665,1.79948 L 17.7077,1.68445 L 17.7476,1.56841 L 17.7847,1.45142 L 17.8189,1.33356 L 17.8502,1.2149
 L 17.8785,1.09551 L 17.9039,0.975452 L 17.9264,0.854809 L 17.9459,0.733652 L 17.9624,0.612053 L 17.9759,0.490086
 L 17.9865,0.367823 L 17.994,0.245338 L 17.9985,0.122706 L 18,-0 L 17.9985,-0.122706 L 17.994,-0.245338
 L 17.9865,-0.367823 L 17.9759,-0.490086 L 17.9624,-0.612053 L 17.9459,-0.733652 L 17.9264,-0.854809 L 17.9039,-0.975452
 L 17.8785,-1.09551 L 17.8502,-1.2149 L 17.8189,-1.33356 L 17.7847,-1.45142 L 17.7476,-1.56841 L 17.7077,-1.68445
 L 17.665,-1.79948 L 17.6194,-1.91342 L 17.571,-2.02621 L 17.5199,-2.13778 L 17.4661,-2.24806 L 17.4096,-2.35698
 L 17.3504,-2.46449 L 17.2886,-2.57051 L 17.2243,-2.67499 L 17.1573,-2.77785 L 17.0879,-2.87904 L 17.016,-2.9785
 L 16.9417,-3.07616 L 16.8651,-3.17197 L 16.786,-3.26586 L 16.7048,-3.35779 L 16.6212,-3.4477 L 16.5355,-3.53553
 L 16.4477,-3.62124 L 16.3578,-3.70476 L 16.2659,-3.78604 L 16.172,-3.86505 L 16.0762,-3.94173 L 15.9785,-4.01604
 L 15.879,-4.08792 L 15.7779,-4.15735 L 15.675,-4.22427 L 15.5705,-4.28864 L 15.4645,-4.35043 L 15.357,-4.40961
 L 15.2481,-4.46612 L 15.1378,-4.51995 L 15.0262,-4.57105 L 14.9134,-4.6194 L 14.7995,-4.66496 L 14.6844,-4.70772
 L 14.5684,-4.74764 L 14.4514,-4.7847 L 14.3336,-4.81888 L 14.2149,-4.85016 L 14.0955,-4.87851 L 13.9755,-4.90393
 L 13.8548,-4.92639 L 13.7337,-4.94588 L 13.6121,-4.9624 L 13.4901,-4.97592 L 13.3678,-4.98645 L 13.2453,-4.99398
 L 13.1227,-4.99849 L 13,-5 L 12.8773,-4.99849 L 12.7547,-4.99398 L 12.6322,-4.98645 L 12.5099,-4.97592
 L 12.3879,-4.9624 L 12.2663,-4.94588 L 12.1452,-4.92639 L 12.0245,-4.90393 L 11.9045,-4.87851 L 11.7851,-4.85016
 L 11.6664,-4.81888 L 11.5486,-4.7847 L 11.4316,-4.74764 L 11.3156,-4.70772 L 11.2005,-4.66496 L 11.0866,-4.6194
 L 10.9738,-4.57105 L 10.8622,-4.51995 L 10.7519,-4.46612 L 10.643,-4.40961 L 10.5355,-4.35043 L 10.4295,-4.28864
 L 10.325,-4.22427 L 10.2221,-4.15735 L 10.121,-4.08792 L 10.0215,-4.01604 L 9.92384,-3.94173 L 9.82803,-3.86505
 L 9.73414,-3.78604 L 9.64221,-3.70476 L 9.5523,-3.62124 L 9.46447,-3.53553 L 9.37876,-3.4477 L 9.29524,-3.35779
 L 9.21396,-3.26586 L 9.13495,-3.17197 L 9.05827,-3.07616 L 8.98396,-2.9785 L 8.91208,-2.87904 L 8.84265,-2.77785
 L 8.77573,-2.67499 L 8.71136,-2.57051 L 8.64957,-2.46449 L 8.59039,-2.35698 L 8.53388,-2.24806 L 8.48005,-2.13778
 L 8.42895,-2.02621 L 8.3806,-1.91342 L 8.33504,-1.79948 L 8.29228,-1.68445 L 8.25236,-1.56841 L 8.2153,-1.45142
 L 8.18112,-1.33356 L 8.14984,-1.2149 L 8.12149,-1.09551 L 8.09607,-0.975452 L 8.07361,-0.854809 L 8.05412,-0.733652
 L 8.0376,-0.612053 L 8.02408,-0.490086 L 8.01355,-0.367823 L 8.00602,-0.245338 L 8.00151,-0.122706 L 8,-0
 L 8.00151,0.122706 L 8.00602,0.245338 L 8.01355,0.367823 L 8.02408,0.490086 L 8.0376,0.612053 L 8.05412,0.733652
 L 8.07361,0.854809 L 8.09607,0.975452 L 8.12149,1.09551 L 8.14984,1.2149 L 8.18112,1.33356 L 8.2153,1.45142
 L 8.25236,1.56841 L 8.29228,1.68445 L 8.33504,1.79948 L 8.3806,1.91342 L 8.42895,2.02621 L 8.48005,2.13778
 L 8.53388,2.24806 L 8.59039,2.35698 L 8.64957,2.46449 L 8.71136,2.57051 L 8.77573,2.67499 L 8.84265,2.77785
 L 8.91208,2.87904 L 8.98396,2.9785 L 9.05827,3.07616 L 9.13495,3.17197 L 9.21396,3.26586 L 9.29524,3.35779
 L 9.37876,3.4477 L 9.46447,3.53553 L 9.5523,3.62124 L 9.64221,3.70476 L 9.73414,3.78604 L 9.82803,3.86505
 L 9.92384,3.94173 L 10.0215,4.01604 L 10.121,4.08792 L 10.2221,4.15735 L 10.325,4.22427 L 10.4295,4.28864
 L 10.5355,4.35043 L 10.643,4.40961 L 10.7519,4.46612 L 10.8622,4.51995 L 10.9738,4.57105 L 11.0866,4.6194
 L 11.2005,4.66496 L 11.3156,4.70772 L 11.4316,4.74764 L 11.5486,4.7847 L 11.6664,4.81888 L 11.7851,4.85016
 L 11.9045,4.87851 L 12.0245,4.90393 L 12.1452,4.92639 L 12.2663,4.94588 L 12.3879,4.9624 L 12.5099,4.97592
 L 12.6322,4.98645 L 12.7547,4.99398 L 12.8773,4.99849 L 13,5 z
" stroke="black" fill="lightgray" stroke-width="0.5"/>
<path d="
M 0.122706,17.9985 L 0.245338,17.994 L 0.367823,17.9865 L 0.490086,17.9759 L 0.612053,17.9624 L 0.733652,17.9459
 L 0.854809,17.9264 L 0.975452,17.9039 L 1.09551,17.8785 L 1.2149,17.8502 L 1.33356,17.8189 L 1.45142,17.7847
 L 1.56841,17.7476 L 1.68445,17.7077 L 1.79948,17.665 L 1.91342,17.6194 L 2.02621,17.571 L 2.13778,17.5199
 L 2.24806,17.4661 L 2.35698,17.4096 L 2.46449,17.3504 L 2.57051,17.2886 L 2.67499,17.2243 L 2.77785,17.1573
 L 2.87904,17.0879 L 2.9785,17.016 L 3.07616,16.9417 L 3.17197,16.8651 L 3.26586,16.786 L 3.35779,16.7048
 L 3.4477,16.6212 L 3.53553,16.5355 L 3.62124,16.4477 L 3.70476,16.3578 L 3.78604,16.2659 L 3.86505,16.172
 L 3.94173,16.0762 L 4.01604,15.9785 L 4.08792,15.879 L 4.15735,15.7779 L 4.22427,15.675 L 4.28864,15.5705
 L 4.35043,15.4645 L 4.40961,15.357 L 4.46612,15.2481 L 4.51995,15.1378 L 4.57105,15.0262 L 4.6194,14.9134
 L 4.66496,14.7995 L 4.70772,14.6844 L 4.74764,14.5684 L 4.7847,14.4514 L 4.81888,14.3336 L 4.85016,14.2149
 L 4.87851,14.0955 L 4.90393,13.9755 L 4.92639,13.8548 L 4.94588,13.7337 L 4.9624,13.6121 L 4.97592,13.4901
 L 4.98645,13.3678 L 4.99398,13.2453 L 4.99849,13.1227 L 5,13 L 4.99849,12.8773 L 4.99398,12.7547
 L 4.98645,12.6322 L 4.97592,12.5099 L 4.9624,12.3879 L 4.94588,12.2663 L 4.92639,12.1452 L 4.90393,12.0245
 L 4.87851,11.9045 L 4.85016,11.7851 L 4.81888,11.6664 L 4.7847,11.5486 L 4.74764,11.4316 L 4.70772,11.3156
 L 4.66496,11.2005 L 4.6194,11.0866 L 4.57105,10.9738 L 4.51995,10.8622 L 4.46612,10.7519 L 4.40961,10.643
 L 4.35043,10.5355 L 4.28864,10.4295 L 4.22427,10.325 L 4.15735,10.2221 L 4.08792,10.121 L 4.01604,10.0215
 L 3.94173,9.92384 L 3.86505,9.82803 L 3.78604,9.73414 L 3.70476,9.64221 L 3.62124,9.5523 L 3.53553,9.46447
 L 3.4477,9.37876 L 3.35779,9.29524 L 3.26586,9.21396 L 3.17197,9.13495 L 3.07616,9.05827 L 2.9785,8.98396
 L 2.87904,8.91208 L 2.77785,8.84265 L 2.67499,8.77573 L 2.57051,8.71136 L 2.46449,8.64957 L 2.35698,8.59039
 L 2.24806,8.53388 L 2.13778,8.48005 L 2.02621,8.42895 L 1.91342,8.3806 L 1.79948,8.33504 L 1.68445,8.29228
 L 1.56841,8.25236 L 1.45142,8.2153 L 1.33356,8.18112 L 1.2149,8.14984 L 1.09551,8.12149 L 0.975452,8.09607
 L 0.854809,8.07361 L 0.733652,8.05412 L 0.612053,8.0376 L 0.490086,8.02408 L 0.367823,8.01355 L 0.245338,8.00602
 L 0.122706,8.00151 L 0,8 L -0.122706,8.00151 L -0.245338,8.00602 L -0.367823,8.01355 L -0.490086,8.02408
 L -0.612053,8.0376 L -0.733652,8.05412 L -0.854809,8.07361 L -0.975452,8.09607 L -1.09551,8.12149 L -1.2149,8.14984
 L -1.33356,8.18112 L -1.45142,8.2153 L -1.56841,8.25236 L -1.68445,8.29228 L -1.79948,8.33504 L -1.91342,8.3806
 L -2.02621,8.42895 L -2.13778,8.48005 L -2.24806,8.53388 L -2.35698,8.59039 L -2.46449,8.64957 L -2.57051,8.71136
 L -2.67499,8.77573 L -2.77785,8.84265 L -2.87904,8.91208 L -2.9785,8.98396 L -3.07616,9.05827 L -3.17197,9.13495
 L -3.26586,9.21396 L -3.35779,9.29524 L -3.4477,9.37876 L -3.53553,9.46447 L -3.62124,9.5523 L -3.70476,9.64221
 L -3.78604,9.73414 L -3.86505,9.82803 L -3.94173,9.92384 L -4.01604,10.0215 L -4.08792,10.121 L -4.15735,10.2221
 L -4.22427,10.325 L -4.28864,10.4295 L -4.35043,10.5355 L -4.40961,10.643 L -4.46612,10.7519 L -4.51995,10.8622
 L -4.57105,10.9738 L -4.6194,11.0866 L -4.66496,11.2005 L -4.70772,11.3156 L -4.74764,11.4316 L -4.7847,11.5486
 L -4.81888,11.6664 L -4.85016,11.7851 L -4.87851,11.9045 L -4.90393,12.0245 L -4.92639,12.1452 L -4.94588,12.2663
 L -4.9624,12.3879 L -4.97592,12.5099 L -4.98645,12.6322 L -4.99398,12.7547 L -4.99849,12.8773 L -5,13
 L -4.99849,13.1227 L -4.99398,13.2453 L -4.98645,13.3678 L -4.97592,13.4901 L -4.9624,13.6121 L -4.94588,13.7337
 L -4.92639,13.8548 L -4.90393,13.9755 L -4.87851,14.0955 L -4.85016,14.2149 L -4.81888,14.3336 L -4.7847,14.4514
 L -4.74764,14.5684 L -4.70772,14.6844 L -4.66496,14.7995 L -4.6194,14.9134 L -4.57105,15.0262 L -4.51995,15.1378
 L -4.46612,15.2481 L -4.40961,15.357 L -4.35043,15.4645 L -4.28864,15.5705 L -4.22427,15.675 L -4.15735,15.7779
 L -4.08792,15.879 L -4.01604,15.9785 L -3.94173,16.0762 L -3.86505,16.172 L -3.78604,16.2659 L -3.70476,16.3578
 L -3.62124,16.4477 L -3.53553,16.5355 L -3.4477,16.6212 L -3.35779,16.7048 L -3.26586,16.786 L -3.17197,16.8651
 L -3.07616,16.9417 L -2.9785,17.016 L -2.87904,17.0879 L -2.77785,17.1573 L -2.67499,17.2243 L -2.57051,17.2886
 L -2.46449,17.3504 L -2.35698,17.4096 L -2.24806,17.4661 L -2.13778,17.5199 L -2.02621,17.571 L -1.91342,17.6194
 L -1.79948,17.665 L -1.68445,17.7077 L -1.56841,17.7476 L -1.45142,17.7847 L -1.33356,17.8189 L -1.2149,17.8502
 L -1.09551,17.8785 L -0.975452,17.9039 L -0.854809,17.9264 L -0.733652,17.9459 L -0.612053,17.9624 L -0.490086,17.9759
 L -0.367823,17.9865 L -0.245338,17.994 L -0.122706,17.9985 L 0,18 z
" stroke="black" fill="lightgray" stroke-width="0.5"/>
<path d="
M 0.122706,-8.00151 L 0.245338,-8.00602 L 0.367823,-8.01355 L 0.490086,-8.02408 L 0.612053,-8.0376 L 0.733652,-8.05412
 L 0.854809,-8.07361 L 0.975452,-8.09607 L 1.09551,-8.12149 L 1.2149,-8.14984 L 1.33356,-8.18112 L 1.45142,-8.2153
 L 1.56841,-8.25236 L 1.68445,-8.29228 L 1.79948,-8.33504 L 1.91342,-8.3806 L 2.02621,-8.42895 L 2.13778,-8.48005
 L 2.24806,-8.53388 L 2.35698,-8.59039 L 2.46449,-8.64957 L 2.57051,-8.71136 L 2.67499,-8.77573 L 2.77785,-8.84265
 L 2.87904,-8.91208 L 2.9785,-8.98396 L 3.07616,-9.05827 L 3.17197,-9.13495 L 3.26586,-9.21396 L 3.35779,-9.29524
 L 3.4477,-9.37876 L 3.53553,-9.46447 L 3.62124,-9.5523 L 3.70476,-9.64221 L 3.78604,-9.73414 L 3.86505,-9.82803
 L 3.94173,-9.92384 L 4.01604,-10.0215 L 4.08792,-10.121 L 4.15735,-10.2221 L 4.22427,-10.325 L 4.28864,-10.4295
 L 4.35043,-10.5355 L 4.40961,-10.643 L 4.46612,-10.7519 L 4.51995,-10.8622 L 4.57105,-10.9738 L 4.6194,-11.0866
 L 4.66496,-11.2005 L 4.70772,-11.3156 L 4.74764,-11.4316 L 4.7847,-11.5486 L 4.81888,-11.6664 L 4.85016,-11.7851
 L 4.87851,-11.9045 L 4.90393,-12.0245 L 4.92639,-12.1452 L 4.94588,-12.2663 L 4.9624,-12.3879 L 4.97592,-12.5099
 L 4.98645,-12.6322 L 4.99398,-12.7547 L 4.99849,-12.8773 L 5,-13 L 4.99849,-13.1227 L 4.99398,-13.2453
 L 4.98645,-13.3678 L 4.97592,-13.4901 L 4.9624,-13.6121 L 4.94588,-13.7337 L 4.92639,-13.8548 L 4.90393,-13.9755
 L 4.87851,-14.0955 L 4.85016,-14.2149 L 4.81888,-14.3336 L 4.7847,-14.4514 L 4.74764,-14.5684 L 4.70772,-14.6844
 L 4.66496,-14.7995 L 4.6194,-14.9134 L 4.57105,-15.0262 L 4.51995,-15.1378 L 4.46612,-15.2481 L 4.40961,-15.357
 L 4.35043,-15.4645 L 4.28864,-15.5705 L 4.22427,-15.675 L 4.15735,-15.7779 L 4.08792,-15.879 L 4.01604,-15.9785
 L 3.94173,-16.0762 L 3.86505,-16.172 L 3.78604,-16.2659 L 3.70476,-16.3578 L 3.62124,-16.4477 L 3.53553,-16.5355
 L 3.4477,-16.6212 L 3.35779,-16.7048 L 3.26586,-16.786 L 3.17197,-16.8651 L 3.07616,-16.9417 L 2.9785,-17.016
 L 2.87904,-17.0879 L 2.77785,-17.1573 L 2.67499,-17.2243 L 2.57051,-17.2886 L 2.46449,-17.3504 L 2.35698,-17.4096
 L 2.24806,-17.4661 L 2.13778,-17.5199 L 2.02621,-17.571 L 1.91342,-17.6194 L 1.79948,-17.665 L 1.68445,-17.7077
 L 1.56841,-17.7476 L 1.45142,-17.7847 L 1.33356,-17.8189 L 1.2149,-17.8502 L 1.09551,-17.8785 L 0.975452,-17.9039
 L 0.854809,-17.9264 L 0.733652,-17.9459 L 0.612053,-17.9624 L 0.490086,-17.9759 L 0.367823,-17.9865 L 0.245338,-17.994
 L 0.122706,-17.9985 L 0,-18 L -0.122706,-17.9985 L -0.245338,-17.994 L -0.367823,-17.9865 L -0.490086,-17.9759
 L -0.612053,-17.9624 L -0.733652,-17.9459 L -0.854809,-17.9264 L -0.975452,-17.9039 L -1.09551,-17.8785 L -1.2149,-17.8502
 L -1.33356,-17.8189 L -1.45142,-17.7847 L -1.56841,-17.7476 L -1.68445,-17.7077 L -1.79948,-17.665 L -1.91342,-17.6194
 L -2.02621,-17.571 L -2.13778,-17.5199 L -2.24806,-17.4661 L -2.35698,-17.4096 L -2.46449,-17.3504 L -2.57051,-17.2886
 L -2.67499,-17.2243 L -2.77785,-17.1573 L -2.87904,-17.0879 L -2.9785,-17.016 L -3.07616,-16.9417 L -3.17197,-16.8651
 L -3.26586,-16.786 L -3.35779,-16.7048 L -3.4477,-16.6212 L -3.53553,-16.5355 L -3.62124,-16.4477 L -3.70476,-16.3578
 L -3.78604,-16.2659 L -3.86505,-16.172 L -3.94173,-16.0762 L -4.01604,-15.9785 L -4.08792,-15.879 L -4.15735,-15.7779
 L -4.22427,-15.675 L -4.28864,-15.5705 L -4.35043,-15.4645 L -4.40961,-15.357 L -4.46612,-15.2481 L -4.51995,-15.1378
 L -4.57105,-15.0262 L -4.6194,-14.9134 L -4.66496,-14.7995 L -4.70772,-14.6844 L -4.74764,-14.5684 L -4.7847,-14.4514
 L -4.81888,-14.3336 L -4.85016,-14.2149 L -4.87851,-14.0955 L -4.90393,-13.9755 L -4.92639,-13.8548 L -4.94588,-13.7337
 L -4.9624,-13.6121 L -4.97592,-13.4901 L -4.98645,-13.3678 L -4.99398,-13.2453 L -4.99849,-13.1227 L -5,-13
 L -4.99849,-12.8773 L -4.99398,-12.7547 L -4.98645,-12.6322 L -4.97592,-12.5099 L -4.9624,-12.3879 L -4.94588,-12.2663
 L -4.92639,-12.1452 L -4.90393,-12.0245 L -4.87851,-11.9045 L -4.85016,-11.7851 L -4.81888,-11.6664 L -4.7847,-11.5486
 L -4.74764,-11.4316 L -4.70772,-11.3156 L -4.66496,-11.2005 L -4.6194,-11.0866 L -4.57105,-10.9738 L -4.51995,-10.8622
 L -4.46612,-10.7519 L -4.40961,-10.643 L -4.35043,-10.5355 L -4.28864,-10.4295 L -4.22427,-10.325 L -4.15735,-10.2221
 L -4.08792,-10.121 L -4.01604,-10.0215 L -3.94173,-9.92384 L -3.86505,-9.82803 L -3.78604,-9.73414 L -3.70476,-9.64221
 L -3.62124,-9.5523 L -3.53553,-9.46447 L -3.4477,-9.37876 L -3.35779,-9.29524 L -3.26586,-9.21396 L -3.17197,-9.13495
 L -3.07616,-9.05827 L -2.9785,-8.98396 L -2.87904,-8.91208 L -2.77785,-8.84265 L -2.67499,-8.77573 L -2.57051,-8.71136
 L -2.46449,-8.64957 L -2.35698,-8.59039 L -2.24806,-8.53388 L -2.13778,-8.48005 L -2.02621,-8.42895 L -1.91342,-8.3806
 L -1.79948,-8.33504 L -1.68445,-8.29228 L -1.56841,-8.25236 L -1.45142,-8.2153 L -1.33356,-8.18112 L -1.2149,-8.14984
 L -1.09551,-8.12149 L -0.975452,-8.09607 L -0.854809,-8.07361 L -0.733652,-8.05412 L -0.612053,-8.0376 L -0.490086,-8.02408
 L -0.367823,-8.01355 L -0.245338,-8.00602 L -0.122706,-8.00151 L 0,-8 z
" stroke="black" fill="blue" stroke-width="0.5"/>
<path d="
M -12.8773,4.99849 L -12.7547,4.99398 L -12.6322,4.98645 L -12.5099,4.97592 L -12.3879,4.9624 L -12.2663,4.94588
 L -12.1452,4.92639 L -12.0245,4.90393 L -11.9045,4.87851 L -11.7851,4.85016 L -11.6664,4.81888 L -11.5486,4.7847
 L -11.4316,4.74764 L -11.3156,4.70772 L -11.2005,4.66496 L -11.0866,4.6194 L -10.9738,4.57105 L -10.8622,4.51995
 L -10.7519,4.46612 L -10.643,4.40961 L -10.5355,4.35043 L -10.4295,4.28864 L -10.325,4.22427 L -10.2221,4.15735
 L -10.121,4.08792 L -10.0215,4.01604 L -9.92384,3.94173 L -9.82803,3.86505 L -9.73414,3.78604 L -9.64221,3.70476
 L -9.5523,3.62124 L -9.46447,3.53553 L -9.37876,3.4477 L -9.29524,3.35779 L -9.21396,3.26586 L -9.13495,3.17197
 L -9.05827,3.07616 L -8.98396,2.9785 L -8.91208,2.87904 L -8.84265,2.77785 L -8.77573,2.67499 L -8.71136,2.57051
 L -8.64957,2.46449 L -8.59039,2.35698 L -8.53388,2.24806 L -8.48005,2.13778 L -8.42895,2.02621 L -8.3806,1.91342
 L -8.33504,1.79948 L -8.29228,1.68445 L -8.25236,1.56841 L -8.2153,1.45142 L -8.18112,1.33356 L -8.14984,1.2149
 L -8.12149,1.09551 L -8.09607,0.975452 L -8.07361,0.854809 L -8.05412,0.733652 L -8.0376,0.612053 L -8.02408,0.490086
 L -8.01355,0.367823 L -8.00602,0.245338 L -8.00151,0.122706 L -8,-0 L -8.00151,-0.122706 L -8.00602,-0.245338
 L -8.01355,-0.367823 L -8.02408,-0.490086 L -8.0376,-0.612053 L -8.05412,-0.733652 L -8.07361,-0.854809 L -8.09607,-0.975452
 L -8.12149,-1.09551 L -8.14984,-1.2149 L -8.18112,-1.33356 L -8.2153,-1.45142 L -8.25236,-1.56841 L -8.29228,-1.68445
 L -8.33504,-1.79948 L -8.3806,-1.91342 L -8.42895,-2.02621 L -8.48005,-2.13778 L -8.53388,-2.24806 L -8.59039,-2.35698
 L -8.64957,-2.46449 L -8.71136,-2.57051 L -8.77573,-2.67499 L -8.84265,-2.77785 L -8.91208,-2.87904 L -8.98396,-2.9785
 L -9.05827,-3.07616 L -9.13495,-3.17197 L -9.21396,-3.26586 L -9.29524,-3.35779 L -9.37876,-3.4477 L -9.46447,-3.53553
 L -9.5523,-3.62124 L -9.64221,-3.70476 L -9.73414,-3.78604 L -9.82803,-3.86505 L -9.92384,-3.94173 L -10.0215,-4.01604
 L -10.121,-4.08792 L -10.2221,-4.15735 L -10.325,-4.22427 L -10.4295,-4.28864 L -10.5355,-4.35043 L -10.643,-4.40961
 L -10.7519,-4.46612 L -10.8622,-4.51995 L -10.9738,-4.57105 L -11.0866,-4.6194 L -11.2005,-4.66496 L -11.3156,-4.70772
 L -11.4316,-4.74764 L -11.5486,-4.7847 L -11.6664,-4.81888 L -11.7851,-4.85016 L -11.9045,-4.87851 L -12.0245,-4.90393
 L -12.1452,-4.92639 L -12.2663,-4.94588 L -12.3879,-4.9624 L -12.5099,-4.97592 L -12.6322,-4.98645 L -12.7547,-4.99398
 L -12.8773,-4.99849 L -13,-5 L -13.1227,-4.99849 L -13.2453,-4.99398 L -13.3678,-4.98645 L -13.4901,-4.97592
 L -13.6121,-4.9624 L -13.7337,-4.94588 L -13.8548,-4.92639 L -13.9755,-4.90393 L -14.0955,-4.87851 L -14.2149,-4.85016
 L -14.3336,-4.81888 L -14.4514,-4.7847 L -14.5684,-4.74764 L -14.6844,-4.70772 L -14.7995,-4.66496 L -14.9134,-4.6194
 L -15.0262,-4.57105 L -15.1378,-4.51995 L -15.2481,-4.46612 L -15.357,-4.40961 L -15.4645,-4.35043 L -15.5705,-4.28864
 L -15.675,-4.22427 L -15.7779,-4.15735 L -15.879,-4.08792 L -15.9785,-4.01604 L -16.0762,-3.94173 L -16.172,-3.86505
 L -16.2659,-3.78604 L -16.3578,-3.70476 L -16.4477,-3.62124 L -16.5355,-3.53553 L -16.6212,-3.4477 L -16.7048,-3.35779
 L -16.786,-3.26586 L -16.8651,-3.17197 L -16.9417,-3.07616 L -17.016,-2.9785 L -17.0879,-2.87904 L -17.1573,-2.77785
 L -17.2243,-2.67499 L -17.2886,-2.57051 L -17.3504,-2.46449 L -17.4096,-2.35698 L -17.4661,-2.24806 L -17.5199,-2.13778
 L -17.571,-2.02621 L -17.6194,-1.91342 L -17.665,-1.79948 L -17.7077,-1.68445 L -17.7476,-1.56841 L -17.7847,-1.45142
 L -17.8189,-1.33356 L -17.8502,-1.2149 L -17.8785,-1.09551 L -17.9039,-0.975452 L -17.9264,-0.854809 L -17.9459,-0.733652
 L -17.9624,-0.612053 L -17.9759,-0.490086 L -17.9865,-0.367823 L -17.994,-0.245338 L -17.9985,-0.122706 L -18,-0
 L -17.9985,0.122706 L -17.994,0.245338 L -17.9865,0.367823 L -17.9759,0.490086 L -17.9624,0.612053 L -17.9459,0.733652
 L -17.9264,0.854809 L -17.9039,0.975452 L -17.8785,1.09551 L -17.8502,1.2149 L -17.8189,1.33356 L -17.7847,1.45142
 L -17.7476,1.56841 L -17.7077,1.68445 L -17.665,1.79948 L -17.6194,1.91342 L -17.571,2.02621 L -17.5199,2.13778
 L -17.4661,2.24806 L -17.4096,2.35698 L -17.3504,2.46449 L -17.2886,2.57051 L -17.2243,2.67499 L -17.1573,2.77785
 L -17.0879,2.87904 L -17.016,2.9785 L -16.9417,3.07616 L -16.8651,3.17197 L -16.786,3.26586 L -16.7048,3.35779
 L -16.6212,3.4477 L -16.5355,3.53553 L -16.4477,3.62124 L -16.3578,3.70476 L -16.2659,3.78604 L -16.172,3.86505
 L -16.0762,3.94173 L -15.9785,4.01604 L -15.879,4.08792 L -15.7779,4.15735 L -15.675,4.22427 L -15.5705,4.28864
 L -15.4645,4.35043 L -15.357,4.40961 L -15.2481,4.46612 L -15.1378,4.51995 L -15.0262,4.57105 L -14.9134,4.6194
 L -14.7995,4.66496 L -14.6844,4.70772 L -14.5684,4.74764 L -14.4514,4.7847 L -14.3336,4.81888 L -14.2149,4.85016
 L -14.0955,4.87851 L -13.9755,4.90393 L -13.8548,4.92639 L -13.7337,4.94588 L -13.6121,4.9624 L -13.4901,4.97592
 L -13.3678,4.98645 L -13.2453,4.99398 L -13.1227,4.99849 L -13,5 z
" stroke="black" fill="lightgray" stroke-width="0.5"/>

</svg>
