<?xml version="1.0" standalone="no"?>
<!DOCTYPE svg PUBLIC "-//W3C//DTD SVG 1.1//EN" "http://www.w3.org/Graphics/SVG/1.1/DTD/svg11.dtd">
<svg width="30mm" height="20mm" viewBox="-15 -9 30 20" xmlns="http://www.w3.org/2000/svg" version="1.1">
<title>OpenSCAD Model</title>
<path d="
M 4.04908,3.9994 L 4.09813,3.99759 L 4.14713,3.99458 L 4.19603,3.99037 L 4.24482,3.98496 L 4.29346,3.97835
 L 4.34192,3.97055 L 4.39018,3.96157 L 4.4382,3.9514 L 4.48596,3.94006 L 4.53343,3.92755 L 4.58057,3.91388
 L 4.62736,3.89906 L 4.67378,3.88309 L 4.71979,3.86598 L 4.76537,3.84776 L 4.81048,3.82842 L 4.85511,3.80798
 L 4.89922,3.78645 L 4.94279,3.76384 L 4.9858,3.74017 L 5.0282,3.71546 L 5.06999,3.68971 L 5.11114,3.66294
 L 5.15162,3.63517 L 5.1914,3.60641 L 5.23046,3.57669 L 5.26879,3.54602 L 5.30634,3.51442 L 5.34312,3.4819
 L 5.37908,3.44849 L 5.41421,3.41421 L 14.4142,-5.58579 L 14.4485,-5.62092 L 14.4819,-5.65688 L 14.5144,-5.69365
 L 14.546,-5.73121 L 14.5767,-5.76954 L 14.6064,-5.8086 L 14.6352,-5.84838 L 14.6629,-5.88886 L 14.6897,-5.93
 L 14.7155,-5.97179 L 14.7402,-6.0142 L 14.7638,-6.05721 L 14.7864,-6.10078 L 14.808,-6.14489 L 14.8284,-6.18952
 L 14.8478,-6.23463 L 14.866,-6.28021 L 14.8831,-6.32622 L 14.8991,-6.37264 L 14.9139,-6.41943 L 14.9276,-6.46657
 L 14.9401,-6.51404 L 14.9514,-6.5618 L 14.9616,-6.60982 L 14.9706,-6.65808 L 14.9784,-6.70654 L 14.985,-6.75518
 L 14.9904,-6.80397 L 14.9946,-6.85287 L 14.9976,-6.90186 L 14.9994,-6.95092 L 15,-7 L 14.9994,-7.04908
 L 14.9976,-7.09813 L 14.9946,-7.14713 L 14.9904,-7.19603 L 14.985,-7.24482 L 14.9784,-7.29346 L 14.9706,-7.34192
 L 14.9616,-7.39018 L 14.9514,-7.4382 L 14.9401,-7.48596 L 14.9276,-7.53343 L 14.9139,-7.58057 L 14.8991,-7.62736
 L 14.8831,-7.67378 L 14.866,-7.71979 L 14.8478,-7.76537 L 14.8284,-7.81048 L 14.808,-7.85511 L 14.7864,-7.89922
 L 14.7638,-7.94279 L 14.7402,-7.9858 L 14.7155,-8.0282 L 14.6897,-8.06999 L 14.6629,-8.11114 L 14.6352,-8.15162
 L 14.6064,-8.1914 L 14.5767,-8.23046 L 14.546,-8.26879 L 14.5144,-8.30634 L 14.4819,-8.34312 L 14.4485,-8.37908
 L 14.4142,-8.41421 L 14.3791,-8.44849 L 14.3431,-8.4819 L 14.3063,-8.51442 L 14.2688,-8.54602 L 14.2305,-8.57669
 L 14.1914,-8.60641 L 14.1516,-8.63517 L 14.1111,-8.66294 L 14.07,-8.68971 L 14.0282,-8.71546 L 13.9858,-8.74017
 L 13.9428,-8.76384 L 13.8992,-8.78645 L 13.8551,-8.80798 L 13.8105,-8.82842 L 13.7654,-8.84776 L 13.7198,-8.86598
 L 13.6738,-8.88309 L 13.6274,-8.89906 L 13.5806,-8.91388 L 13.5334,-8.92755 L 13.486,-8.94006 L 13.4382,-8.9514
 L 13.3902,-8.96157 L 13.3419,-8.97055 L 13.2935,-8.97835 L 13.2448,-8.98496 L 13.196,-8.99037 L 13.1471,-8.99458
 L 13.0981,-8.99759 L 13.0491,-8.9994 L 13,-9 L 12.9509,-8.9994 L 12.9019,-8.99759 L 12.8529,-8.99458
 L 12.804,-8.99037 L 12.7552,-8.98496 L 12.7065,-8.97835 L 12.6581,-8.97055 L 12.6098,-8.96157 L 12.5618,-8.9514
 L 12.514,-8.94006 L 12.4666,-8.92755 L 12.4194,-8.91388 L 12.3726,-8.89906 L 12.3262,-8.88309 L 12.2802,-8.86598
 L 12.2346,-8.84776 L 12.1895,-8.82842 L 12.1449,-8.80798 L 12.1008,-8.78645 L 12.0572,-8.76384 L 12.0142,-8.74017
 L 11.9718,-8.71546 L 11.93,-8.68971 L 11.8889,-8.66294 L 11.8484,-8.63517 L 11.8086,-8.60641 L 11.7695,-8.57669
 L 11.7312,-8.54602 L 11.6937,-8.51442 L 11.6569,-8.4819 L 11.6209,-8.44849 L 11.5858,-8.41421 L 2.58579,0.585786
 L 2.55151,0.620918 L 2.5181,0.656881 L 2.48558,0.693654 L 2.45398,0.731213 L 2.42331,0.769536 L 2.39358,0.808601
 L 2.36483,0.848383 L 2.33706,0.888859 L 2.31029,0.930004 L 2.28454,0.971794 L 2.25983,1.0142 L 2.23616,1.05721
 L 2.21355,1.10078 L 2.19202,1.14489 L 2.17158,1.18952 L 2.15224,1.23463 L 2.13401,1.28021 L 2.11691,1.32622
 L 2.10094,1.37264 L 2.08612,1.41943 L 2.07245,1.46657 L 2.05994,1.51404 L 2.0486,1.5618 L 2.03843,1.60982
 L 2.02944,1.65808 L 2.02165,1.70654 L 2.01504,1.75518 L 2.00963,1.80397 L 2.00542,1.85287 L 2.00241,1.90186
 L 2.0006,1.95092 L 2,2 L 2.0006,2.04908 L 2.00241,2.09813 L 2.00542,2.14713 L 2.00963,2.19603
 L 2.01504,2.24482 L 2.02165,2.29346 L 2.02944,2.34192 L 2.03843,2.39018 L 2.0486,2.4382 L 2.05994,2.48596
 L 2.07245,2.53343 L 2.08612,2.58057 L 2.10094,2.62736 L 2.11691,2.67378 L 2.13401,2.71979 L 2.15224,2.76537
 L 2.17158,2.81048 L 2.19202,2.85511 L 2.21355,2.89922 L 2.23616,2.94279 L 2.25983,2.9858 L 2.28454,3.0282
 L 2.31029,3.06999 L 2.33706,3.11114 L 2.36483,3.15162 L 2.39358,3.1914 L 2.42331,3.23046 L 2.45398,3.26879
 L 2.48558,3.30634 L 2.5181,3.34312 L 2.55151,3.37908 L 2.58579,3.41421 L 2.62092,3.44849 L 2.65688,3.4819
 L 2.69365,3.51442 L 2.73121,3.54602 L 2.76954,3.57669 L 2.8086,3.60641 L 2.84838,3.63517 L 2.88886,3.66294
 L 2.93,3.68971 L 2.97179,3.71546 L 3.0142,3.74017 L 3.05721,3.76384 L 3.10078,3.78645 L 3.14489,3.80798
 L 3.18952,3.82842 L 3.23463,3.84776 L 3.28021,3.86598 L 3.32622,3.88309 L 3.37264,3.89906 L 3.41943,3.91388
 L 3.46657,3.92755 L 3.51404,3.94006 L 3.5618,3.9514 L 3.60982,3.96157 L 3.65808,3.97055 L 3.70654,3.97835
 L 3.75518,3.98496 L 3.80397,3.99037 L 3.85287,3.99458 L 3.90186,3.99759 L 3.95092,3.9994 L 4,4
 z
M -12.9509,3.9994 L -12.9019,3.99759 L -12.8529,3.99458 L -12.804,3.99037 L -12.7552,3.98496 L -12.7065,3.97835
 L -12.6581,3.97055 L -12.6098,3.96157 L -12.5618,3.9514 L -12.514,3.94006 L -12.4666,3.92755 L -12.4194,3.91388
 L -12.3726,3.89906 L -12.3262,3.88309 L -12.2802,3.86598 L -12.2346,3.84776 L -12.1895,3.82842 L -12.1449,3.80798
 L -12.1008,3.78645 L -12.0572,3.76384 L -12.0142,3.74017 L -11.9718,3.71546 L -11.93,3.68971 L -11.8889,3.66294
 L -11.8484,3.63517 L -11.8086,3.60641 L -11.7695,3.57669 L -11.7312,3.54602 L -11.6937,3.51442 L -11.6569,3.4819
 L -11.6209,3.44849 L -11.5858,3.41421 L -2.58579,-5.58579 L -2.55151,-5.62092 L -2.5181,-5.65688 L -2.48558,-5.69365
 L -2.45398,-5.73121 L -2.42331,-5.76954 L -2.39358,-5.8086 L -2.36483,-5.84838 L -2.33706,-5.88886 L -2.31029,-5.93
 L -2.28454,-5.97179 L -2.25983,-6.0142 L -2.23616,-6.05721 L -2.21355,-6.10078 L -2.19202,-6.14489 L -2.17158,-6.18952
 L -2.15224,-6.23463 L -2.13401,-6.28021 L -2.11691,-6.32622 L -2.10094,-6.37264 L -2.08612,-6.41943 L -2.07245,-6.46657
 L -2.05994,-6.51404 L -2.0486,-6.5618 L -2.03843,-6.60982 L -2.02944,-6.65808 L -2.02165,-6.70654 L -2.01504,-6.75518
 L -2.00963,-6.80397 L -2.00542,-6.85287 L -2.00241,-6.90186 L -2.0006,-6.95092 L -2,-7 L -2.0006,-7.04908
 L -2.00241,-7.09813 L -2.00542,-7.14713 L -2.00963,-7.19603 L -2.01504,-7.24482 L -2.02165,-7.29346 L -2.02944,-7.34192
 L -2.03843,-7.39018 L -2.0486,-7.4382 L -2.05994,-7.48596 L -2.07245,-7.53343 L -2.08612,-7.58057 L -2.10094,-7.62736
 L -2.11691,-7.67378 L -2.13401,-7.71979 L -2.15224,-7.76537 L -2.17158,-7.81048 L -2.19202,-7.85511 L -2.21355,-7.89922
 L -2.23616,-7.94279 L -2.25983,-7.9858 L -2.28454,-8.0282 L -2.31029,-8.06999 L -2.33706,-8.11114 L -2.36483,-8.15162
 L -2.39358,-8.1914 L -2.42331,-8.23046 L -2.45398,-8.26879 L -2.48558,-8.30634 L -2.5181,-8.34312 L -2.55151,-8.37908
 L -2.58579,-8.41421 L -2.62092,-8.44849 L -2.65688,-8.4819 L -2.69365,-8.51442 L -2.73121,-8.54602 L -2.76954,-8.57669
 L -2.8086,-8.60641 L -2.84838,-8.63517 L -2.88886,-8.66294 L -2.93,-8.68971 L -2.97179,-8.71546 L -3.0142,-8.74017
 L -3.05721,-8.76384 L -3.10078,-8.78645 L -3.14489,-8.80798 L -3.18952,-8.82842 L -3.23463,-8.84776 L -3.28021,-8.86598
 L -3.32622,-8.88309 L -3.37264,-8.89906 L -3.41943,-8.91388 L -3.46657,-8.92755 L -3.51404,-8.94006 L -3.5618,-8.9514
 L -3.60982,-8.96157 L -3.65808,-8.97055 L -3.70654,-8.97835 L -3.75518,-8.98496 L -3.80397,-8.99037 L -3.85287,-8.99458
 L -3.90186,-8.99759 L -3.95092,-8.9994 L -4,-9 L -4.04908,-8.9994 L -4.09813,-8.99759 L -4.14713,-8.99458
 L -4.19603,-8.99037 L -4.24482,-8.98496 L -4.29346,-8.97835 L -4.34192,-8.97055 L -4.39018,-8.96157 L -4.4382,-8.9514
 L -4.48596,-8.94006 L -4.53343,-8.92755 L -4.58057,-8.91388 L -4.62736,-8.89906 L -4.67378,-8.88309 L -4.71979,-8.86598
 L -4.76537,-8.84776 L -4.81048,-8.82842 L -4.85511,-8.80798 L -4.89922,-8.78645 L -4.94279,-8.76384 L -4.9858,-8.74017
 L -5.0282,-8.71546 L -5.06999,-8.68971 L -5.11114,-8.66294 L -5.15162,-8.63517 L -5.1914,-8.60641 L -5.23046,-8.57669
 L -5.26879,-8.54602 L -5.30634,-8.51442 L -5.34312,-8.4819 L -5.37908,-8.44849 L -5.41421,-8.41421 L -14.4142,0.585786
 L -14.4485,0.620918 L -14.4819,0.656881 L -14.5144,0.693654 L -14.546,0.731213 L -14.5767,0.769536 L -14.6064,0.808601
 L -14.6352,0.848383 L -14.6629,0.888859 L -14.6897,0.930004 L -14.7155,0.971794 L -14.7402,1.0142 L -14.7638,1.05721
 L -14.7864,1.10078 L -14.808,1.14489 L -14.8284,1.18952 L -14.8478,1.23463 L -14.866,1.28021 L -14.8831,1.32622
 L -14.8991,1.37264 L -14.9139,1.41943 L -14.9276,1.46657 L -14.9401,1.51404 L -14.9514,1.5618 L -14.9616,1.60982
 L -14.9706,1.65808 L -14.9784,1.70654 L -14.985,1.75518 L -14.9904,1.80397 L -14.9946,1.85287 L -14.9976,1.90186
 L -14.9994,1.95092 L -15,2 L -14.9994,2.04908 L -14.9976,2.09813 L -14.9946,2.14713 L -14.9904,2.19603
 L -14.985,2.24482 L -14.9784,2.29346 L -14.9706,2.34192 L -14.9616,2.39018 L -14.9514,2.4382 L -14.9401,2.48596
 L -14.9276,2.53343 L -14.9139,2.58057 L -14.8991,2.62736 L -14.8831,2.67378 L -14.866,2.71979 L -14.8478,2.76537
 L -14.8284,2.81048 L -14.808,2.85511 L -14.7864,2.89922 L -14.7638,2.94279 L -14.7402,2.9858 L -14.7155,3.0282
 L -14.6897,3.06999 L -14.6629,3.11114 L -14.6352,3.15162 L -14.6064,3.1914 L -14.5767,3.23046 L -14.546,3.26879
 L -14.5144,3.30634 L -14.4819,3.34312 L -14.4485,3.37908 L -14.4142,3.41421 L -14.3791,3.44849 L -14.3431,3.4819
 L -14.3063,3.51442 L -14.2688,3.54602 L -14.2305,3.57669 L -14.1914,3.60641 L -14.1516,3.63517 L -14.1111,3.66294
 L -14.07,3.68971 L -14.0282,3.71546 L -13.9858,3.74017 L -13.9428,3.76384 L -13.8992,3.78645 L -13.8551,3.80798
 L -13.8105,3.82842 L -13.7654,3.84776 L -13.7198,3.86598 L -13.6738,3.88309 L -13.6274,3.89906 L -13.5806,3.91388
 L -13.5334,3.92755 L -13.486,3.94006 L -13.4382,3.9514 L -13.3902,3.96157 L -13.3419,3.97055 L -13.2935,3.97835
 L -13.2448,3.98496 L -13.196,3.99037 L -13.1471,3.99458 L -13.0981,3.99759 L -13.0491,3.9994 L -13,4
 z
M -11.1888,10.4579 L -11.133,10.4569 L -11.078,10.4552 L -11.0238,10.4529 L -10.9704,10.4499 L -10.9177,10.4462
 L -10.8658,10.4419 L -10.8147,10.4369 L -10.7644,10.4312 L -10.7149,10.4249 L -10.6661,10.4179 L -10.6181,10.4102
 L -10.5708,10.4019 L -10.5244,10.3929 L -10.4787,10.3832 L -10.4338,10.3729 L -10.3897,10.3619 L -10.3463,10.3503
 L -10.3037,10.3379 L -10.2619,10.3249 L -10.2209,10.3113 L -10.1807,10.297 L -10.1412,10.282 L -10.1025,10.2663
 L -10.0646,10.25 L -10.0274,10.233 L -9.99102,10.2153 L -9.95542,10.197 L -9.9206,10.178 L -9.88655,10.1584
 L -9.85327,10.138 L -9.82077,10.1171 L -9.78905,10.0954 L -9.75819,10.0731 L -9.72827,10.0503 L -9.6993,10.027
 L -9.67129,10.0031 L -9.64422,9.97861 L -9.61811,9.95361 L -9.59294,9.92806 L -9.56872,9.90196 L -9.54546,9.87532
 L -9.52314,9.84812 L -9.50177,9.82038 L -9.48135,9.79209 L -9.46189,9.76326 L -9.44337,9.73387 L -9.4258,9.70394
 L -9.40918,9.67346 L -9.39351,9.64243 L -9.37879,9.61085 L -9.36502,9.57873 L -9.3522,9.54605 L -9.34033,9.51283
 L -9.3294,9.47907 L -9.31943,9.44475 L -9.31041,9.40989 L -9.30234,9.37447 L -9.29522,9.33851 L -9.28904,9.302
 L -9.28382,9.26495 L -9.27955,9.22734 L -9.27622,9.18919 L -9.27385,9.15049 L -9.27242,9.11125 L -9.27195,9.07145
 L -9.27202,9.05569 L -9.27222,9.04005 L -9.27255,9.02454 L -9.27302,9.00915 L -9.27362,8.99389 L -9.27436,8.97875
 L -9.27523,8.96373 L -9.27623,8.94884 L -9.27737,8.93408 L -9.27864,8.91944 L -9.28005,8.90492 L -9.28159,8.89053
 L -9.28326,8.87626 L -9.28507,8.86212 L -9.28701,8.8481 L -9.28909,8.83421 L -9.2913,8.82044 L -9.29364,8.8068
 L -9.29612,8.79328 L -9.29873,8.77989 L -9.30147,8.76662 L -9.30435,8.75347 L -9.30736,8.74045 L -9.31051,8.72756
 L -9.31379,8.71478 L -9.3172,8.70214 L -9.32075,8.68962 L -9.32443,8.67722 L -9.32825,8.66494 L -9.3322,8.6528
 L -9.33628,8.64077 L -9.3405,8.62887 L -9.34485,8.6171 L -9.34932,8.60543 L -9.35389,8.59386 L -9.35857,8.58238
 L -9.36334,8.571 L -9.36823,8.55971 L -9.37321,8.54851 L -9.37829,8.5374 L -9.38348,8.52639 L -9.38877,8.51547
 L -9.39417,8.50465 L -9.39967,8.49392 L -9.40527,8.48328 L -9.41097,8.47273 L -9.41677,8.46228 L -9.42268,8.45192
 L -9.42869,8.44166 L -9.43481,8.43149 L -9.44102,8.42141 L -9.44734,8.41143 L -9.45376,8.40154 L -9.46029,8.39174
 L -9.46692,8.38203 L -9.47365,8.37242 L -9.48048,8.3629 L -9.48742,8.35348 L -9.49445,8.34415 L -9.50159,8.33491
 L -9.50884,8.32577 L -9.51618,8.31672 L -9.52363,8.30776 L -9.53119,8.2989 L -9.53884,8.29013 L -9.5466,8.28145
 L -9.55445,8.27286 L -9.56239,8.26435 L -9.57041,8.25591 L -9.57851,8.24757 L -9.5867,8.2393 L -9.59497,8.23111
 L -9.60332,8.223 L -9.61176,8.21498 L -9.62029,8.20703 L -9.6289,8.19917 L -9.63759,8.19139 L -9.64637,8.18369
 L -9.65523,8.17607 L -9.66417,8.16853 L -9.6732,8.16107 L -9.68231,8.1537 L -9.69151,8.1464 L -9.70079,8.13918
 L -9.71015,8.13205 L -9.7196,8.125 L -9.72914,8.11803 L -9.73876,8.11114 L -9.74846,8.10433 L -9.75824,8.0976
 L -9.76811,8.09095 L -9.77807,8.08439 L -9.7881,8.0779 L -9.79823,8.0715 L -9.80843,8.06518 L -9.81872,8.05894
 L -9.8291,8.05278 L -9.83956,8.0467 L -9.8501,8.0407 L -9.8607,8.03476 L -9.87136,8.02887 L -9.88206,8.02303
 L -9.8928,8.01723 L -9.90359,8.01148 L -9.91443,8.00578 L -9.92532,8.00012 L -9.93625,7.99451 L -9.94723,7.98895
 L -9.95825,7.98343 L -9.96933,7.97796 L -9.98045,7.97254 L -9.99161,7.96716 L -10.0028,7.96183 L -10.0141,7.95655
 L -10.0254,7.95131 L -10.0367,7.94612 L -10.0481,7.94098 L -10.0596,7.93588 L -10.0711,7.93084 L -10.0826,7.92583
 L -10.0942,7.92088 L -10.1058,7.91597 L -10.1175,7.91111 L -10.1293,7.90629 L -10.141,7.90152 L -10.1528,7.8968
 L -10.1647,7.89213 L -10.1766,7.8875 L -10.1886,7.88291 L -10.2006,7.87838 L -10.2126,7.87389 L -10.2247,7.86945
 L -10.2369,7.86505 L -10.2491,7.86069 L -10.2613,7.85636 L -10.2735,7.85208 L -10.2858,7.84783 L -10.2981,7.84361
 L -10.3105,7.83944 L -10.3228,7.8353 L -10.3353,7.8312 L -10.3477,7.82714 L -10.3602,7.82311 L -10.3727,7.81912
 L -10.3853,7.81517 L -10.3978,7.81126 L -10.4105,7.80738 L -10.4231,7.80354 L -10.4358,7.79974 L -10.4485,7.79598
 L -10.4613,7.79225 L -10.4741,7.78856 L -10.4869,7.78491 L -10.4998,7.78129 L -10.5127,7.77772 L -10.5256,7.77418
 L -10.5386,7.77067 L -10.5516,7.76721 L -10.5646,7.76378 L -10.5777,7.76039 L -10.5908,7.75704 L -10.6039,7.75372
 L -10.6171,7.75044 L -10.6303,7.7472 L -10.6435,7.744 L -10.6568,7.74082 L -10.67,7.73764 L -10.6833,7.73446
 L -10.6965,7.73129 L -10.7098,7.72811 L -10.7231,7.72495 L -10.7364,7.72178 L -10.7496,7.71862 L -10.7629,7.71546
 L -10.7762,7.71231 L -10.7895,7.70916 L -10.8028,7.70601 L -10.8161,7.70286 L -10.8294,7.69972 L -10.8427,7.69658
 L -10.856,7.69344 L -10.8693,7.69031 L -10.8826,7.68718 L -10.8959,7.68405 L -10.9092,7.68093 L -10.9225,7.67781
 L -10.9358,7.67469 L -10.9492,7.67157 L -10.9625,7.66846 L -10.9758,7.66535 L -10.9891,7.66225 L -11.0025,7.65915
 L -11.0158,7.65605 L -11.0292,7.65295 L -11.0425,7.64986 L -11.0558,7.64677 L -11.0692,7.64368 L -11.0825,7.6406
 L -11.122,7.63181 L -11.1607,7.62309 L -11.1985,7.61447 L -11.2356,7.60593 L -11.2718,7.59747 L -11.3073,7.5891
 L -11.3419,7.58081 L -11.3758,7.5726 L -11.4088,7.56448 L -11.4411,7.55644 L -11.4725,7.54849 L -11.5031,7.54062
 L -11.5329,7.53283 L -11.562,7.52513 L -11.5902,7.51752 L -11.6176,7.50998 L -11.6442,7.50254 L -11.67,7.49517
 L -11.695,7.48789 L -11.7192,7.48069 L -11.7426,7.47358 L -11.7652,7.46655 L -11.787,7.45961 L -11.808,7.45275
 L -11.8282,7.44598 L -11.8476,7.43928 L -11.8661,7.43268 L -11.8839,7.42615 L -11.9009,7.41971 L -11.9171,7.41336
 L -11.9324,7.40709 L -11.947,7.4009 L -11.9607,7.3948 L -11.974,7.3887 L -11.9871,7.38251 L -12,7.37624
 L -12.0127,7.3699 L -12.0252,7.36347 L -12.0375,7.35696 L -12.0496,7.35037 L -12.0615,7.3437 L -12.0733,7.33695
 L -12.0848,7.33012 L -12.0962,7.3232 L -12.1074,7.31621 L -12.1184,7.30914 L -12.1291,7.30198 L -12.1397,7.29474
 L -12.1502,7.28743 L -12.1604,7.28003 L -12.1704,7.27255 L -12.1803,7.26499 L -12.1899,7.25735 L -12.1994,7.24963
 L -12.2087,7.24182 L -12.2177,7.23394 L -12.2266,7.22597 L -12.2353,7.21793 L -12.2439,7.2098 L -12.2522,7.20159
 L -12.2603,7.19331 L -12.2683,7.18494 L -12.276,7.17649 L -12.2836,7.16795 L -12.291,7.15934 L -12.2981,7.15065
 L -12.3051,7.14185 L -12.3119,7.1329 L -12.3184,7.12382 L -12.3248,7.1146 L -12.3309,7.10523 L -12.3368,7.09573
 L -12.3425,7.08608 L -12.348,7.0763 L -12.3532,7.06637 L -12.3583,7.05631 L -12.3631,7.04611 L -12.3677,7.03576
 L -12.3721,7.02528 L -12.3763,7.01465 L -12.3803,7.00389 L -12.3841,6.99298 L -12.3876,6.98193 L -12.3909,6.97075
 L -12.3941,6.95942 L -12.397,6.94796 L -12.3996,6.93635 L -12.4021,6.92461 L -12.4044,6.91272 L -12.4064,6.90069
 L -12.4082,6.88853 L -12.4098,6.87622 L -12.4112,6.86377 L -12.4124,6.85119 L -12.4134,6.83846 L -12.4141,6.82559
 L -12.4147,6.81258 L -12.415,6.79944 L -12.4151,6.78615 L -12.4148,6.76351 L -12.414,6.74122 L -12.4126,6.71926
 L -12.4107,6.69765 L -12.4082,6.67639 L -12.4051,6.65546 L -12.4015,6.63488 L -12.3974,6.61464 L -12.3927,6.59474
 L -12.3874,6.57518 L -12.3816,6.55597 L -12.3752,6.5371 L -12.3683,6.51857 L -12.3608,6.50039 L -12.3528,6.48255
 L -12.3442,6.46505 L -12.335,6.44789 L -12.3253,6.43107 L -12.3151,6.4146 L -12.3043,6.39847 L -12.2929,6.38268
 L -12.281,6.36724 L -12.2685,6.35214 L -12.2555,6.33738 L -12.2419,6.32296 L -12.2278,6.30888 L -12.2131,6.29515
 L -12.1979,6.28176 L -12.1821,6.26871 L -12.1657,6.25601 L -12.1488,6.24365 L -12.1314,6.23163 L -12.1133,6.21995
 L -12.0948,6.20861 L -12.0758,6.19763 L -12.0562,6.18699 L -12.0362,6.1767 L -12.0157,6.16676 L -11.9946,6.15717
 L -11.9731,6.14793 L -11.9511,6.13904 L -11.9286,6.13049 L -11.9055,6.1223 L -11.882,6.11445 L -11.858,6.10695
 L -11.8335,6.0998 L -11.8085,6.093 L -11.783,6.08655 L -11.7569,6.08045 L -11.7304,6.07469 L -11.7034,6.06929
 L -11.6759,6.06423 L -11.6479,6.05952 L -11.6194,6.05516 L -11.5904,6.05115 L -11.5609,6.04749 L -11.5309,6.04417
 L -11.5004,6.04121 L -11.4694,6.03859 L -11.4379,6.03633 L -11.406,6.03441 L -11.3735,6.03284 L -11.3405,6.03162
 L -11.307,6.03075 L -11.273,6.03022 L -11.2385,6.03005 L -11.2071,6.03021 L -11.1761,6.03068 L -11.1455,6.03146
 L -11.1153,6.03257 L -11.0855,6.03398 L -11.0562,6.03571 L -11.0273,6.03776 L -10.9987,6.04011 L -10.9706,6.04279
 L -10.943,6.04578 L -10.9157,6.04908 L -10.8888,6.05269 L -10.8624,6.05663 L -10.8364,6.06087 L -10.8108,6.06543
 L -10.7856,6.07031 L -10.7609,6.0755 L -10.7365,6.081 L -10.7126,6.08682 L -10.6891,6.09295 L -10.666,6.0994
 L -10.6433,6.10616 L -10.621,6.11324 L -10.5992,6.12063 L -10.5778,6.12833 L -10.5568,6.13635 L -10.5362,6.14469
 L -10.516,6.15334 L -10.4963,6.1623 L -10.4769,6.17158 L -10.458,6.18117 L -10.4395,6.19108 L -10.4214,6.2013
 L -10.4037,6.21187 L -10.3863,6.22282 L -10.3693,6.23415 L -10.3527,6.24587 L -10.3364,6.25797 L -10.3204,6.27045
 L -10.3048,6.28331 L -10.2895,6.29656 L -10.2746,6.31019 L -10.26,6.32421 L -10.2458,6.3386 L -10.232,6.35339
 L -10.2184,6.36855 L -10.2053,6.3841 L -10.1925,6.40002 L -10.18,6.41634 L -10.1679,6.43303 L -10.1561,6.45011
 L -10.1447,6.46757 L -10.1336,6.48542 L -10.1228,6.50364 L -10.1125,6.52225 L -10.1024,6.54125 L -10.0928,6.56063
 L -10.0834,6.58038 L -10.0744,6.60053 L -10.0658,6.62105 L -10.0575,6.64196 L -10.0496,6.66325 L -10.042,6.68493
 L -10.0347,6.70699 L -10.0278,6.72943 L -10.0213,6.75225 L -9.38385,6.64035 L -9.39457,6.6043 L -9.40576,6.5689
 L -9.41742,6.53414 L -9.42956,6.50003 L -9.44217,6.46656 L -9.45526,6.43373 L -9.46881,6.40155 L -9.48285,6.37001
 L -9.49735,6.33912 L -9.51233,6.30888 L -9.52778,6.27927 L -9.5437,6.25031 L -9.5601,6.222 L -9.57697,6.19433
 L -9.59431,6.1673 L -9.61213,6.14092 L -9.63042,6.11519 L -9.64918,6.09009 L -9.66841,6.06565 L -9.68812,6.04184
 L -9.70831,6.01869 L -9.72896,5.99617 L -9.75009,5.9743 L -9.77169,5.95308 L -9.79377,5.9325 L -9.81631,5.91256
 L -9.83934,5.89327 L -9.86283,5.87462 L -9.8868,5.85662 L -9.91124,5.83926 L -9.93615,5.82254 L -9.96154,5.80647
 L -9.9874,5.79105 L -10.0138,5.77617 L -10.041,5.76175 L -10.0689,5.74779 L -10.0974,5.73429 L -10.1267,5.72124
 L -10.1566,5.70865 L -10.1873,5.69652 L -10.2187,5.68485 L -10.2508,5.67363 L -10.2836,5.66288 L -10.317,5.65258
 L -10.3512,5.64274 L -10.3861,5.63335 L -10.4217,5.62442 L -10.458,5.61596 L -10.495,5.60795 L -10.5327,5.60039
 L -10.5711,5.5933 L -10.6103,5.58666 L -10.6501,5.58048 L -10.6906,5.57476 L -10.7318,5.56949 L -10.7738,5.56469
 L -10.8164,5.56034 L -10.8597,5.55645 L -10.9038,5.55301 L -10.9485,5.55004 L -10.994,5.54752 L -11.0401,5.54546
 L -11.087,5.54386 L -11.1345,5.54272 L -11.1828,5.54203 L -11.2317,5.5418 L -11.2844,5.5421 L -11.3363,5.54302
 L -11.3875,5.54455 L -11.4379,5.54668 L -11.4875,5.54943 L -11.5365,5.55278 L -11.5846,5.55675 L -11.6321,5.56133
 L -11.6788,5.56652 L -11.7247,5.57231 L -11.7699,5.57872 L -11.8144,5.58574 L -11.8581,5.59337 L -11.9011,5.60161
 L -11.9433,5.61046 L -11.9848,5.61992 L -12.0255,5.62999 L -12.0655,5.64067 L -12.1048,5.65196 L -12.1433,5.66386
 L -12.181,5.67637 L -12.2181,5.68949 L -12.2543,5.70322 L -12.2899,5.71756 L -12.3247,5.73251 L -12.3587,5.74808
 L -12.392,5.76425 L -12.4245,5.78103 L -12.4564,5.79842 L -12.4874,5.81643 L -12.5177,5.83504 L -12.5473,5.85427
 L -12.5761,5.8741 L -12.6042,5.89449 L -12.6313,5.91541 L -12.6576,5.93683 L -12.6831,5.95878 L -12.7077,5.98124
 L -12.7314,6.00422 L -12.7542,6.02772 L -12.7762,6.05173 L -12.7974,6.07626 L -12.8176,6.10131 L -12.837,6.12687
 L -12.8556,6.15295 L -12.8733,6.17955 L -12.8901,6.20666 L -12.906,6.2343 L -12.9211,6.26244 L -12.9354,6.29111
 L -12.9487,6.32029 L -12.9612,6.34999 L -12.9729,6.38021 L -12.9837,6.41094 L -12.9936,6.44219 L -13.0026,6.47396
 L -13.0108,6.50624 L -13.0182,6.53904 L -13.0246,6.57236 L -13.0302,6.60619 L -13.035,6.64054 L -13.0388,6.67541
 L -13.0419,6.71079 L -13.044,6.7467 L -13.0453,6.78311 L -13.0457,6.82005 L -13.0457,6.83623 L -13.0454,6.8523
 L -13.045,6.86825 L -13.0444,6.8841 L -13.0437,6.89983 L -13.0428,6.91545 L -13.0417,6.93096 L -13.0405,6.94635
 L -13.0391,6.96164 L -13.0375,6.97681 L -13.0358,6.99187 L -13.0339,7.00681 L -13.0318,7.02165 L -13.0296,7.03637
 L -13.0272,7.05098 L -13.0246,7.06548 L -13.0219,7.07987 L -13.019,7.09414 L -13.016,7.1083 L -13.0127,7.12235
 L -13.0094,7.13629 L -13.0058,7.15012 L -13.0021,7.16383 L -12.9982,7.17743 L -12.9942,7.19092 L -12.99,7.2043
 L -12.9856,7.21756 L -12.9811,7.23072 L -12.9764,7.24376 L -12.9715,7.25669 L -12.9665,7.2695 L -12.9613,7.28221
 L -12.9559,7.2948 L -12.9504,7.30728 L -12.9447,7.31967 L -12.9389,7.33197 L -12.9329,7.34416 L -12.9268,7.35626
 L -12.9206,7.36826 L -12.9142,7.38017 L -12.9077,7.39198 L -12.901,7.40369 L -12.8941,7.41531 L -12.8871,7.42683
 L -12.88,7.43826 L -12.8727,7.44959 L -12.8653,7.46082 L -12.8578,7.47195 L -12.85,7.48299 L -12.8422,7.49393
 L -12.8342,7.50478 L -12.826,7.51553 L -12.8177,7.52618 L -12.8093,7.53674 L -12.8007,7.5472 L -12.7919,7.55756
 L -12.7831,7.56783 L -12.774,7.578 L -12.7648,7.58808 L -12.7555,7.59805 L -12.746,7.60794 L -12.7364,7.61772
 L -12.7267,7.62741 L -12.7168,7.637 L -12.7067,7.6465 L -12.6965,7.6559 L -12.6861,7.66522 L -12.6755,7.67449
 L -12.6646,7.68371 L -12.6536,7.69287 L -12.6423,7.70198 L -12.6308,7.71104 L -12.619,7.72004 L -12.607,7.72899
 L -12.5948,7.73789 L -12.5824,7.74674 L -12.5697,7.75553 L -12.5568,7.76427 L -12.5437,7.77296 L -12.5304,7.7816
 L -12.5168,7.79018 L -12.503,7.79871 L -12.489,7.80718 L -12.4747,7.8156 L -12.4603,7.82397 L -12.4455,7.83229
 L -12.4306,7.84056 L -12.4155,7.84877 L -12.4001,7.85693 L -12.3845,7.86503 L -12.3686,7.87308 L -12.3525,7.88108
 L -12.3362,7.88903 L -12.3197,7.89692 L -12.303,7.90476 L -12.286,7.91255 L -12.2688,7.92029 L -12.2514,7.92797
 L -12.2337,7.9356 L -12.2157,7.9432 L -12.1971,7.95081 L -12.1781,7.95841 L -12.1586,7.96601 L -12.1386,7.97361
 L -12.118,7.98122 L -12.097,7.98882 L -12.0755,7.99642 L -12.0534,8.00403 L -12.0309,8.01163 L -12.0078,8.01923
 L -11.9843,8.02684 L -11.9603,8.03444 L -11.9357,8.04204 L -11.9107,8.04965 L -11.8851,8.05725 L -11.8591,8.06485
 L -11.8325,8.07245 L -11.8055,8.08006 L -11.7779,8.08766 L -11.7499,8.09526 L -11.7213,8.10287 L -11.6923,8.11047
 L -11.6627,8.11807 L -11.6327,8.12568 L -11.6021,8.13328 L -11.571,8.14088 L -11.5395,8.14848 L -11.5074,8.15609
 L -11.4748,8.16369 L -11.4418,8.17129 L -11.4082,8.1789 L -11.3741,8.1865 L -11.3545,8.19101 L -11.3349,8.19551
 L -11.3154,8.19998 L -11.2961,8.20444 L -11.2768,8.20887 L -11.2577,8.21329 L -11.2387,8.21769 L -11.2197,8.22207
 L -11.2009,8.22644 L -11.1822,8.23078 L -11.1636,8.23511 L -11.145,8.23941 L -11.1266,8.2437 L -11.1083,8.24797
 L -11.0902,8.25222 L -11.0721,8.25645 L -11.0541,8.26067 L -11.0362,8.26486 L -11.0184,8.26904 L -11.0008,8.2732
 L -10.9832,8.27733 L -10.9658,8.28146 L -10.9484,8.28556 L -10.9312,8.28964 L -10.9141,8.2937 L -10.897,8.29775
 L -10.8801,8.30178 L -10.8633,8.30579 L -10.8466,8.30978 L -10.83,8.31375 L -10.8135,8.3177 L -10.7971,8.32163
 L -10.7808,8.32555 L -10.7646,8.32948 L -10.7486,8.33347 L -10.7327,8.33751 L -10.717,8.34161 L -10.7013,8.34577
 L -10.6859,8.34998 L -10.6705,8.35425 L -10.6553,8.35857 L -10.6402,8.36295 L -10.6253,8.36738 L -10.6105,8.37188
 L -10.5959,8.37643 L -10.5813,8.38103 L -10.567,8.38569 L -10.5527,8.39041 L -10.5386,8.39518 L -10.5246,8.40001
 L -10.5108,8.40489 L -10.4971,8.40983 L -10.4835,8.41483 L -10.4701,8.41988 L -10.4568,8.42499 L -10.4437,8.43016
 L -10.4307,8.43538 L -10.4178,8.44066 L -10.405,8.44599 L -10.3924,8.45138 L -10.38,8.45683 L -10.3676,8.46233
 L -10.3555,8.46789 L -10.3434,8.4735 L -10.3315,8.47917 L -10.3197,8.4849 L -10.3081,8.4907 L -10.2966,8.49659
 L -10.2853,8.50257 L -10.2741,8.50865 L -10.2631,8.51483 L -10.2523,8.52109 L -10.2416,8.52745 L -10.2311,8.5339
 L -10.2207,8.54045 L -10.2105,8.54709 L -10.2004,8.55382 L -10.1906,8.56065 L -10.1808,8.56757 L -10.1713,8.57458
 L -10.1618,8.58169 L -10.1526,8.58889 L -10.1435,8.59618 L -10.1346,8.60357 L -10.1258,8.61105 L -10.1172,8.61863
 L -10.1087,8.62629 L -10.1004,8.63406 L -10.0923,8.64191 L -10.0843,8.64986 L -10.0765,8.6579 L -10.0688,8.66604
 L -10.0613,8.67426 L -10.0539,8.68259 L -10.0468,8.691 L -10.0397,8.69951 L -10.0329,8.70811 L -10.0262,8.71681
 L -10.0196,8.7256 L -10.0132,8.73452 L -10.007,8.7436 L -10.0011,8.75284 L -9.99528,8.76224 L -9.98969,8.7718
 L -9.98429,8.78153 L -9.9791,8.79142 L -9.97409,8.80147 L -9.96929,8.81168 L -9.96468,8.82206 L -9.96027,8.83259
 L -9.95605,8.84329 L -9.95203,8.85415 L -9.9482,8.86517 L -9.94457,8.87636 L -9.94114,8.8877 L -9.93791,8.89921
 L -9.93487,8.91088 L -9.93202,8.92271 L -9.92937,8.9347 L -9.92692,8.94686 L -9.92467,8.95918 L -9.92261,8.97166
 L -9.92074,8.9843 L -9.91908,8.9971 L -9.91761,9.01006 L -9.91633,9.02319 L -9.91525,9.03648 L -9.91437,9.04993
 L -9.91368,9.06354 L -9.91319,9.07732 L -9.9129,9.09125 L -9.9128,9.10535 L -9.91311,9.13044 L -9.91405,9.15516
 L -9.91562,9.17951 L -9.91781,9.20349 L -9.92062,9.2271 L -9.92406,9.25033 L -9.92813,9.2732 L -9.93283,9.2957
 L -9.93814,9.31783 L -9.94409,9.33958 L -9.95066,9.36097 L -9.95786,9.38198 L -9.96568,9.40263 L -9.97413,9.4229
 L -9.9832,9.4428 L -9.9929,9.46233 L -10.0032,9.4815 L -10.0142,9.50029 L -10.0258,9.51871 L -10.038,9.53676
 L -10.0508,9.55444 L -10.0642,9.57175 L -10.0783,9.58869 L -10.093,9.60526 L -10.1084,9.62146 L -10.1243,9.63728
 L -10.1409,9.65274 L -10.1581,9.66783 L -10.176,9.68254 L -10.1944,9.69689 L -10.2135,9.71086 L -10.2332,9.72447
 L -10.2535,9.7377 L -10.2745,9.75055 L -10.2959,9.76301 L -10.3179,9.77507 L -10.3404,9.78673 L -10.3634,9.798
 L -10.3869,9.80887 L -10.411,9.81935 L -10.4356,9.82943 L -10.4607,9.83912 L -10.4864,9.84841 L -10.5126,9.85731
 L -10.5393,9.86581 L -10.5665,9.87392 L -10.5942,9.88163 L -10.6225,9.88894 L -10.6513,9.89586 L -10.6807,9.90239
 L -10.7105,9.90852 L -10.7409,9.91425 L -10.7718,9.91959 L -10.8033,9.92453 L -10.8352,9.92908 L -10.8677,9.93323
 L -10.9007,9.93699 L -10.9343,9.94035 L -10.9684,9.94331 L -11.003,9.94588 L -11.0381,9.94806 L -11.0737,9.94984
 L -11.1099,9.95122 L -11.1466,9.95221 L -11.1838,9.9528 L -11.2216,9.953 L -11.2581,9.95281 L -11.2942,9.95226
 L -11.3298,9.95133 L -11.365,9.95004 L -11.3997,9.94837 L -11.4339,9.94633 L -11.4676,9.94392 L -11.5009,9.94114
 L -11.5337,9.93799 L -11.5661,9.93447 L -11.5979,9.93058 L -11.6294,9.92632 L -11.6603,9.92169 L -11.6908,9.91669
 L -11.7208,9.91132 L -11.7503,9.90557 L -11.7794,9.89946 L -11.808,9.89297 L -11.8362,9.88612 L -11.8638,9.87889
 L -11.8911,9.8713 L -11.9178,9.86333 L -11.9441,9.855 L -11.9699,9.84629 L -11.9952,9.83721 L -12.0201,9.82776
 L -12.0445,9.81794 L -12.0684,9.80775 L -12.0919,9.79719 L -12.1149,9.78626 L -12.1375,9.77496 L -12.1595,9.76329
 L -12.1811,9.75125 L -12.2023,9.73881 L -12.223,9.72595 L -12.2432,9.71268 L -12.263,9.69898 L -12.2824,9.68486
 L -12.3013,9.67032 L -12.3198,9.65536 L -12.3378,9.63998 L -12.3553,9.62418 L -12.3724,9.60796 L -12.3891,9.59132
 L -12.4053,9.57426 L -12.4211,9.55678 L -12.4364,9.53888 L -12.4513,9.52056 L -12.4657,9.50182 L -12.4797,9.48265
 L -12.4932,9.46307 L -12.5063,9.44307 L -12.5189,9.42265 L -12.5311,9.4018 L -12.5428,9.38054 L -12.5541,9.35885
 L -12.5649,9.33675 L -12.5753,9.31423 L -12.5852,9.29128 L -12.5947,9.26792 L -12.6038,9.24413 L -12.6124,9.21992
 L -12.6205,9.1953 L -12.6282,9.17025 L -12.6354,9.14479 L -12.6422,9.1189 L -13.2695,9.24435 L -13.2513,9.3168
 L -13.2304,9.38702 L -13.2068,9.45502 L -13.1805,9.52078 L -13.1516,9.58432 L -13.1199,9.64562 L -13.0855,9.7047
 L -13.0484,9.76155 L -13.0087,9.81616 L -12.9662,9.86855 L -12.921,9.91871 L -12.8732,9.96664 L -12.8226,10.0123
 L -12.7694,10.0558 L -12.7134,10.0971 L -12.6548,10.1361 L -12.5934,10.1728 L -12.5294,10.2074 L -12.4627,10.2397
 L -12.3932,10.2698 L -12.3211,10.2977 L -12.2463,10.3233 L -12.1688,10.3467 L -12.0886,10.3679 L -12.0057,10.3869
 L -11.92,10.4036 L -11.8317,10.4181 L -11.7407,10.4303 L -11.647,10.4404 L -11.5507,10.4482 L -11.4516,10.4537
 L -11.3498,10.4571 L -11.2453,10.4582 z
M 6.89758,10.4579 L 6.93986,10.457 L 6.98181,10.4555 L 7.02345,10.4535 L 7.06478,10.4508 L 7.10579,10.4476
 L 7.14649,10.4437 L 7.18687,10.4393 L 7.22694,10.4342 L 7.2667,10.4286 L 7.30614,10.4224 L 7.34526,10.4156
 L 7.38408,10.4082 L 7.42257,10.4002 L 7.46075,10.3917 L 7.49862,10.3825 L 7.53617,10.3727 L 7.57341,10.3624
 L 7.61034,10.3514 L 7.64695,10.3399 L 7.68324,10.3278 L 7.71922,10.315 L 7.75489,10.3017 L 7.79024,10.2878
 L 7.82528,10.2733 L 7.86,10.2583 L 7.89441,10.2426 L 7.9285,10.2263 L 7.96228,10.2095 L 7.99574,10.192
 L 8.02889,10.174 L 8.06173,10.1553 L 8.09425,10.1361 L 8.1264,10.1163 L 8.1581,10.096 L 8.18937,10.0751
 L 8.2202,10.0537 L 8.25059,10.0317 L 8.28055,10.0092 L 8.31006,9.98618 L 8.33913,9.96259 L 8.36777,9.93847
 L 8.39596,9.9138 L 8.42372,9.88859 L 8.45103,9.86284 L 8.47791,9.83654 L 8.50435,9.80971 L 8.53035,9.78233
 L 8.55591,9.75441 L 8.58103,9.72595 L 8.60571,9.69695 L 8.62996,9.66741 L 8.65376,9.63732 L 8.67712,9.60669
 L 8.70005,9.57552 L 8.72254,9.54381 L 8.74458,9.51156 L 8.76619,9.47876 L 8.78736,9.44543 L 8.80809,9.41155
 L 8.82838,9.37713 L 8.84823,9.34216 L 8.86765,9.30666 L 8.88662,9.27062 L 8.90515,9.23403 L 8.92325,9.1969
 L 8.39435,8.93245 L 8.36327,8.99175 L 8.33128,9.04922 L 8.29838,9.10487 L 8.26455,9.15869 L 8.22982,9.21069
 L 8.19416,9.26086 L 8.15759,9.30921 L 8.12011,9.35574 L 8.08171,9.40044 L 8.0424,9.44331 L 8.00217,9.48437
 L 7.96102,9.52359 L 7.91896,9.561 L 7.87598,9.59657 L 7.83209,9.63033 L 7.78728,9.66226 L 7.74156,9.69236
 L 7.69492,9.72064 L 7.64737,9.7471 L 7.5989,9.77173 L 7.54952,9.79453 L 7.49922,9.81552 L 7.448,9.83467
 L 7.39587,9.85201 L 7.34282,9.86751 L 7.28886,9.8812 L 7.23399,9.89306 L 7.17819,9.90309 L 7.12148,9.9113
 L 7.06386,9.91769 L 7.00532,9.92225 L 6.94587,9.92499 L 6.8855,9.9259 L 6.83833,9.92541 L 6.79175,9.92394
 L 6.74577,9.92149 L 6.70038,9.91805 L 6.65558,9.91364 L 6.61139,9.90825 L 6.56778,9.90187 L 6.52477,9.89452
 L 6.48236,9.88618 L 6.44054,9.87686 L 6.39931,9.86657 L 6.35868,9.85529 L 6.31864,9.84303 L 6.2792,9.82979
 L 6.24035,9.81557 L 6.2021,9.80037 L 6.16444,9.78419 L 6.12738,9.76702 L 6.09091,9.74888 L 6.05504,9.72976
 L 6.01976,9.70965 L 5.98508,9.68857 L 5.95099,9.6665 L 5.91749,9.64345 L 5.88459,9.61943 L 5.85229,9.59442
 L 5.82058,9.56843 L 5.78946,9.54146 L 5.75894,9.51351 L 5.72901,9.48458 L 5.69968,9.45467 L 5.67094,9.42377
 L 5.6428,9.3919 L 5.61538,9.35922 L 5.5888,9.3259 L 5.56307,9.29195 L 5.53818,9.25738 L 5.51413,9.22217
 L 5.49093,9.18632 L 5.46857,9.14985 L 5.44706,9.11274 L 5.42639,9.075 L 5.40656,9.03663 L 5.38758,8.99763
 L 5.36944,8.95799 L 5.35214,8.91772 L 5.33569,8.87683 L 5.32008,8.83529 L 5.30532,8.79313 L 5.29139,8.75034
 L 5.27832,8.70691 L 5.26608,8.66285 L 5.25469,8.61816 L 5.24415,8.57283 L 5.23444,8.52688 L 5.22558,8.48029
 L 5.21757,8.43307 L 5.2104,8.38522 L 5.20407,8.33673 L 5.19859,8.28762 L 5.19395,8.23787 L 5.19015,8.18749
 L 5.1872,8.13648 L 5.18509,8.08483 L 5.18382,8.03256 L 5.1834,7.97965 L 5.1838,7.92616 L 5.18502,7.87336
 L 5.18704,7.82126 L 5.18988,7.76985 L 5.19352,7.71913 L 5.19797,7.66911 L 5.20323,7.61979 L 5.2093,7.57116
 L 5.21618,7.52322 L 5.22387,7.47598 L 5.23237,7.42943 L 5.24168,7.38357 L 5.2518,7.33841 L 5.26273,7.29395
 L 5.27446,7.25018 L 5.28701,7.2071 L 5.30037,7.16472 L 5.31453,7.12303 L 5.32951,7.08204 L 5.34529,7.04174
 L 5.36189,7.00214 L 5.37929,6.96323 L 5.3975,6.92501 L 5.41652,6.88749 L 5.43636,6.85066 L 5.457,6.81453
 L 5.47845,6.77909 L 5.50071,6.74435 L 5.52378,6.7103 L 5.54766,6.67695 L 5.57234,6.64429 L 5.59784,6.61232
 L 5.62415,6.58105 L 5.65119,6.55059 L 5.67887,6.52107 L 5.70721,6.49249 L 5.73619,6.46484 L 5.76582,6.43813
 L 5.7961,6.41236 L 5.82702,6.38752 L 5.8586,6.36362 L 5.89082,6.34066 L 5.92368,6.31864 L 5.9572,6.29755
 L 5.99136,6.2774 L 6.02617,6.25819 L 6.06163,6.23991 L 6.09774,6.22257 L 6.13449,6.20617 L 6.17189,6.19071
 L 6.20994,6.17618 L 6.24864,6.16259 L 6.28798,6.14994 L 6.32798,6.13823 L 6.36862,6.12745 L 6.4099,6.11761
 L 6.45184,6.10871 L 6.49442,6.10074 L 6.53765,6.09371 L 6.58153,6.08762 L 6.62606,6.08246 L 6.67123,6.07825
 L 6.71705,6.07497 L 6.76352,6.07262 L 6.81064,6.07122 L 6.8584,6.07075 L 6.88889,6.07095 L 6.91913,6.07156
 L 6.94912,6.07257 L 6.97885,6.07399 L 7.00834,6.07581 L 7.03757,6.07804 L 7.06655,6.08067 L 7.09527,6.0837
 L 7.12375,6.08714 L 7.15197,6.09099 L 7.17994,6.09524 L 7.20766,6.09989 L 7.23512,6.10495 L 7.26233,6.11042
 L 7.28929,6.11629 L 7.316,6.12256 L 7.34246,6.12924 L 7.36866,6.13632 L 7.39461,6.14381 L 7.42031,6.1517
 L 7.44576,6.16 L 7.47095,6.1687 L 7.4959,6.17781 L 7.52059,6.18732 L 7.54503,6.19724 L 7.56921,6.20756
 L 7.59315,6.21829 L 7.61683,6.22942 L 7.64026,6.24096 L 7.66343,6.2529 L 7.68636,6.26524 L 7.70903,6.27799
 L 7.73145,6.29115 L 7.75356,6.30468 L 7.7753,6.31858 L 7.79667,6.33284 L 7.81767,6.34746 L 7.8383,6.36244
 L 7.85856,6.37778 L 7.87845,6.39348 L 7.89797,6.40955 L 7.91712,6.42597 L 7.93589,6.44276 L 7.9543,6.4599
 L 7.97234,6.47741 L 7.99,6.49528 L 8.0073,6.51352 L 8.02422,6.53211 L 8.04077,6.55106 L 8.05696,6.57038
 L 8.07277,6.59005 L 8.08821,6.61009 L 8.10328,6.63049 L 8.11799,6.65125 L 8.13232,6.67237 L 8.14628,6.69385
 L 8.15987,6.7157 L 8.17309,6.7379 L 8.18593,6.76047 L 8.19841,6.7834 L 8.21052,6.80669 L 8.22226,6.83034
 L 8.23362,6.85435 L 8.24462,6.87872 L 8.25524,6.90345 L 8.2655,6.92855 L 8.8792,6.72515 L 8.86436,6.68986
 L 8.84902,6.65511 L 8.83319,6.62088 L 8.81685,6.58718 L 8.80002,6.55401 L 8.78269,6.52137 L 8.76486,6.48926
 L 8.74653,6.45768 L 8.72771,6.42663 L 8.70838,6.3961 L 8.68856,6.36611 L 8.66824,6.33665 L 8.64742,6.30771
 L 8.62611,6.27931 L 8.60429,6.25143 L 8.58198,6.22409 L 8.55917,6.19727 L 8.53586,6.17098 L 8.51205,6.14522
 L 8.48775,6.12 L 8.46294,6.0953 L 8.43764,6.07113 L 8.41184,6.04749 L 8.38555,6.02438 L 8.35875,6.00179
 L 8.33146,5.97974 L 8.30366,5.95822 L 8.27537,5.93723 L 8.24659,5.91676 L 8.2173,5.89683 L 8.18751,5.87742
 L 8.15723,5.85855 L 8.12645,5.8402 L 8.09519,5.82239 L 8.06347,5.80513 L 8.03129,5.78841 L 7.99865,5.77224
 L 7.96555,5.75663 L 7.93199,5.74156 L 7.89797,5.72703 L 7.86348,5.71306 L 7.82854,5.69963 L 7.79313,5.68675
 L 7.75727,5.67442 L 7.72094,5.66264 L 7.68415,5.6514 L 7.6469,5.64072 L 7.60919,5.63058 L 7.57102,5.62099
 L 7.53239,5.61195 L 7.4933,5.60345 L 7.45374,5.59551 L 7.41373,5.58811 L 7.37325,5.58126 L 7.33232,5.57495
 L 7.29092,5.5692 L 7.24906,5.56399 L 7.20674,5.55934 L 7.16396,5.55523 L 7.12072,5.55166 L 7.07702,5.54865
 L 7.03286,5.54618 L 6.98823,5.54427 L 6.94315,5.5429 L 6.89761,5.54207 L 6.8516,5.5418 L 6.78587,5.54239
 L 6.721,5.54418 L 6.65701,5.54715 L 6.59389,5.55131 L 6.53165,5.55667 L 6.47027,5.56321 L 6.40977,5.57094
 L 6.35014,5.57986 L 6.29138,5.58997 L 6.23349,5.60127 L 6.17648,5.61376 L 6.12033,5.62743 L 6.06506,5.6423
 L 6.01066,5.65836 L 5.95713,5.6756 L 5.90448,5.69404 L 5.85269,5.71366 L 5.80178,5.73447 L 5.75174,5.75648
 L 5.70257,5.77967 L 5.65427,5.80405 L 5.60684,5.82962 L 5.56029,5.85638 L 5.51461,5.88433 L 5.4698,5.91347
 L 5.42586,5.9438 L 5.38279,5.97532 L 5.3406,6.00802 L 5.29927,6.04192 L 5.25882,6.07701 L 5.21924,6.11328
 L 5.18054,6.15075 L 5.1427,6.1894 L 5.10587,6.2291 L 5.07017,6.26972 L 5.03561,6.31124 L 5.00218,6.35367
 L 4.96988,6.39701 L 4.93872,6.44126 L 4.90868,6.48641 L 4.87979,6.53248 L 4.85202,6.57946 L 4.82539,6.62734
 L 4.79989,6.67614 L 4.77553,6.72584 L 4.7523,6.77646 L 4.7302,6.82798 L 4.70923,6.88041 L 4.6894,6.93375
 L 4.6707,6.988 L 4.65314,7.04316 L 4.63671,7.09923 L 4.62141,7.15621 L 4.60724,7.21409 L 4.59421,7.27289
 L 4.58231,7.33259 L 4.57155,7.39321 L 4.56191,7.45473 L 4.55341,7.51716 L 4.54605,7.58051 L 4.53981,7.64476
 L 4.53472,7.70992 L 4.53075,7.77599 L 4.52792,7.84297 L 4.52622,7.91085 L 4.52565,7.97965 L 4.5259,8.0257
 L 4.52666,8.07137 L 4.52793,8.11666 L 4.52971,8.16158 L 4.53199,8.20612 L 4.53478,8.25029 L 4.53808,8.29407
 L 4.54189,8.33748 L 4.5462,8.38052 L 4.55102,8.42317 L 4.55635,8.46546 L 4.56219,8.50736 L 4.56853,8.54889
 L 4.57538,8.59004 L 4.58274,8.63081 L 4.5906,8.67121 L 4.59897,8.71122 L 4.60785,8.75087 L 4.61724,8.79013
 L 4.62714,8.82902 L 4.63754,8.86754 L 4.64845,8.90567 L 4.65987,8.94343 L 4.67179,8.98081 L 4.68422,9.01782
 L 4.69716,9.05445 L 4.71061,9.0907 L 4.72457,9.12657 L 4.73903,9.16207 L 4.754,9.1972 L 4.76947,9.23194
 L 4.78546,9.26631 L 4.80195,9.3003 L 4.81893,9.33387 L 4.83637,9.36696 L 4.85427,9.39958 L 4.87263,9.43173
 L 4.89145,9.4634 L 4.91073,9.4946 L 4.93048,9.52533 L 4.95068,9.55558 L 4.97135,9.58536 L 4.99247,9.61467
 L 5.01406,9.64351 L 5.03611,9.67187 L 5.05862,9.69975 L 5.08159,9.72717 L 5.10502,9.75411 L 5.12891,9.78058
 L 5.15326,9.80658 L 5.17807,9.8321 L 5.20334,9.85715 L 5.22908,9.88172 L 5.25527,9.90583 L 5.28193,9.92945
 L 5.30904,9.95261 L 5.33662,9.97529 L 5.36466,9.9975 L 5.39316,10.0192 L 5.42212,10.0405 L 5.45154,10.0613
 L 5.48142,10.0816 L 5.51176,10.1015 L 5.54256,10.1208 L 5.57383,10.1397 L 5.60555,10.1581 L 5.63768,10.1761
 L 5.67017,10.1934 L 5.70302,10.2102 L 5.73623,10.2265 L 5.7698,10.2422 L 5.80372,10.2573 L 5.838,10.2719
 L 5.87264,10.286 L 5.90764,10.2995 L 5.943,10.3124 L 5.97871,10.3248 L 6.01478,10.3367 L 6.05121,10.348
 L 6.088,10.3587 L 6.12515,10.3689 L 6.16265,10.3786 L 6.20051,10.3877 L 6.23873,10.3962 L 6.27731,10.4042
 L 6.31625,10.4116 L 6.35554,10.4185 L 6.39519,10.4249 L 6.4352,10.4306 L 6.47557,10.4359 L 6.5163,10.4406
 L 6.55738,10.4447 L 6.59883,10.4483 L 6.64063,10.4513 L 6.68279,10.4538 L 6.7253,10.4557 L 6.76818,10.4571
 L 6.81141,10.4579 L 6.855,10.4582 z
M 11.6293,6.14195 L 13.2703,6.14195 L 13.2703,5.613 L 9.344,5.613 L 9.344,6.14195 L 10.9851,6.14195
 L 10.9851,10.3904 L 11.6293,10.3904 z
M -4.61975,9.86145 L -7.7357,9.86145 L -7.7357,8.19665 L -4.9622,8.19665 L -4.9622,7.6745 L -7.7357,7.6745
 L -7.7357,6.14195 L -4.75875,6.14195 L -4.75875,5.613 L -8.3833,5.613 L -8.3833,10.3904 L -4.61975,10.3904
 z
M -0.689699,9.86145 L -3.1038,9.86145 L -3.1038,5.613 L -3.7514,5.613 L -3.7514,10.3904 L -0.689699,10.3904
 z
M 3.8743,9.86145 L 0.758349,9.86145 L 0.758349,8.19665 L 3.53185,8.19665 L 3.53185,7.6745 L 0.758349,7.6745
 L 0.758349,6.14195 L 3.7353,6.14195 L 3.7353,5.613 L 0.110749,5.613 L 0.110749,10.3904 L 3.8743,10.3904
 z
" stroke="black" fill="lightgray" stroke-width="0.5"/>
</svg>
