<?xml version="1.0" standalone="no"?>
<!DOCTYPE svg PUBLIC "-//W3C//DTD SVG 1.1//EN" "http://www.w3.org/Graphics/SVG/1.1/DTD/svg11.dtd">
<svg width="10mm" height="10mm" viewBox="-5 8 10 10" xmlns="http://www.w3.org/2000/svg" version="1.1">
<title>OpenSCAD Model</title>
<path d="
M 0.490086,17.9759 L 0.975452,17.9039 L 1.45142,17.7847 L 1.91342,17.6194 L 2.35698,17.4096 L 2.77785,17.1573
 L 3.17197,16.8651 L 3.53553,16.5355 L 3.86505,16.172 L 4.15735,15.7779 L 4.40961,15.357 L 4.6194,14.9134
 L 4.7847,14.4514 L 4.90393,13.9755 L 4.97592,13.4901 L 5,13 L 4.97592,12.5099 L 4.90393,12.0245
 L 4.7847,11.5486 L 4.6194,11.0866 L 4.40961,10.643 L 4.15735,10.2221 L 3.86505,9.82803 L 3.53553,9.46447
 L 3.17197,9.13495 L 2.77785,8.84265 L 2.35698,8.59039 L 1.91342,8.3806 L 1.45142,8.2153 L 0.975452,8.09607
 L 0.490086,8.02408 L 0,8 L -0.490086,8.02408 L -0.975452,8.09607 L -1.45142,8.2153 L -1.91342,8.3806
 L -2.35698,8.59039 L -2.77785,8.84265 L -3.17197,9.13495 L -3.53553,9.46447 L -3.86505,9.82803 L -4.15735,10.2221
 L -4.40961,10.643 L -4.6194,11.0866 L -4.7847,11.5486 L -4.90393,12.0245 L -4.97592,12.5099 L -5,13
 L -4.97592,13.4901 L -4.90393,13.9755 L -4.7847,14.4514 L -4.6194,14.9134 L -4.40961,15.357 L -4.15735,15.7779
 L -3.86505,16.172 L -3.53553,16.5355 L -3.17197,16.8651 L -2.77785,17.1573 L -2.35698,17.4096 L -1.91342,17.6194
 L -1.45142,17.7847 L -0.975452,17.9039 L -0.490086,17.9759 L 0,18 z
" stroke="black" fill="yellow" stroke-width="0.5"/>
</svg>
