<?xml version="1.0" standalone="no"?>
<!DOCTYPE svg PUBLIC "-//W3C//DTD SVG 1.1//EN" "http://www.w3.org/Graphics/SVG/1.1/DTD/svg11.dtd">
<svg width="30mm" height="20mm" viewBox="-15 -9 30 20" xmlns="http://www.w3.org/2000/svg" version="1.1">
<title>OpenSCAD Model</title>
<path d="
M 4.04908,3.9994 L 4.09813,3.99759 L 4.14713,3.99458 L 4.19603,3.99037 L 4.24482,3.98496 L 4.29346,3.97835
 L 4.34192,3.97055 L 4.39018,3.96157 L 4.4382,3.9514 L 4.48596,3.94006 L 4.53343,3.92755 L 4.58057,3.91388
 L 4.62736,3.89906 L 4.67378,3.88309 L 4.71979,3.86598 L 4.76537,3.84776 L 4.81048,3.82842 L 4.85511,3.80798
 L 4.89922,3.78645 L 4.94279,3.76384 L 4.9858,3.74017 L 5.0282,3.71546 L 5.06999,3.68971 L 5.11114,3.66294
 L 5.15162,3.63517 L 5.1914,3.60641 L 5.23046,3.57669 L 5.26879,3.54602 L 5.30634,3.51442 L 5.34312,3.4819
 L 5.37908,3.44849 L 5.41421,3.41421 L 14.4142,-5.58579 L 14.4485,-5.62092 L 14.4819,-5.65688 L 14.5144,-5.69365
 L 14.546,-5.73121 L 14.5767,-5.76954 L 14.6064,-5.8086 L 14.6352,-5.84838 L 14.6629,-5.88886 L 14.6897,-5.93
 L 14.7155,-5.97179 L 14.7402,-6.0142 L 14.7638,-6.05721 L 14.7864,-6.10078 L 14.808,-6.14489 L 14.8284,-6.18952
 L 14.8478,-6.23463 L 14.866,-6.28021 L 14.8831,-6.32622 L 14.8991,-6.37264 L 14.9139,-6.41943 L 14.9276,-6.46657
 L 14.9401,-6.51404 L 14.9514,-6.5618 L 14.9616,-6.60982 L 14.9706,-6.65808 L 14.9784,-6.70654 L 14.985,-6.75518
 L 14.9904,-6.80397 L 14.9946,-6.85287 L 14.9976,-6.90186 L 14.9994,-6.95092 L 15,-7 L 14.9994,-7.04908
 L 14.9976,-7.09813 L 14.9946,-7.14713 L 14.9904,-7.19603 L 14.985,-7.24482 L 14.9784,-7.29346 L 14.9706,-7.34192
 L 14.9616,-7.39018 L 14.9514,-7.4382 L 14.9401,-7.48596 L 14.9276,-7.53343 L 14.9139,-7.58057 L 14.8991,-7.62736
 L 14.8831,-7.67378 L 14.866,-7.71979 L 14.8478,-7.76537 L 14.8284,-7.81048 L 14.808,-7.85511 L 14.7864,-7.89922
 L 14.7638,-7.94279 L 14.7402,-7.9858 L 14.7155,-8.0282 L 14.6897,-8.06999 L 14.6629,-8.11114 L 14.6352,-8.15162
 L 14.6064,-8.1914 L 14.5767,-8.23046 L 14.546,-8.26879 L 14.5144,-8.30634 L 14.4819,-8.34312 L 14.4485,-8.37908
 L 14.4142,-8.41421 L 14.3791,-8.44849 L 14.3431,-8.4819 L 14.3063,-8.51442 L 14.2688,-8.54602 L 14.2305,-8.57669
 L 14.1914,-8.60641 L 14.1516,-8.63517 L 14.1111,-8.66294 L 14.07,-8.68971 L 14.0282,-8.71546 L 13.9858,-8.74017
 L 13.9428,-8.76384 L 13.8992,-8.78645 L 13.8551,-8.80798 L 13.8105,-8.82842 L 13.7654,-8.84776 L 13.7198,-8.86598
 L 13.6738,-8.88309 L 13.6274,-8.89906 L 13.5806,-8.91388 L 13.5334,-8.92755 L 13.486,-8.94006 L 13.4382,-8.9514
 L 13.3902,-8.96157 L 13.3419,-8.97055 L 13.2935,-8.97835 L 13.2448,-8.98496 L 13.196,-8.99037 L 13.1471,-8.99458
 L 13.0981,-8.99759 L 13.0491,-8.9994 L 13,-9 L 12.9509,-8.9994 L 12.9019,-8.99759 L 12.8529,-8.99458
 L 12.804,-8.99037 L 12.7552,-8.98496 L 12.7065,-8.97835 L 12.6581,-8.97055 L 12.6098,-8.96157 L 12.5618,-8.9514
 L 12.514,-8.94006 L 12.4666,-8.92755 L 12.4194,-8.91388 L 12.3726,-8.89906 L 12.3262,-8.88309 L 12.2802,-8.86598
 L 12.2346,-8.84776 L 12.1895,-8.82842 L 12.1449,-8.80798 L 12.1008,-8.78645 L 12.0572,-8.76384 L 12.0142,-8.74017
 L 11.9718,-8.71546 L 11.93,-8.68971 L 11.8889,-8.66294 L 11.8484,-8.63517 L 11.8086,-8.60641 L 11.7695,-8.57669
 L 11.7312,-8.54602 L 11.6937,-8.51442 L 11.6569,-8.4819 L 11.6209,-8.44849 L 11.5858,-8.41421 L 2.58579,0.585786
 L 2.55151,0.620918 L 2.5181,0.656881 L 2.48558,0.693654 L 2.45398,0.731213 L 2.42331,0.769536 L 2.39358,0.808601
 L 2.36483,0.848383 L 2.33706,0.888859 L 2.31029,0.930004 L 2.28454,0.971794 L 2.25983,1.0142 L 2.23616,1.05721
 L 2.21355,1.10078 L 2.19202,1.14489 L 2.17158,1.18952 L 2.15224,1.23463 L 2.13401,1.28021 L 2.11691,1.32622
 L 2.10094,1.37264 L 2.08612,1.41943 L 2.07245,1.46657 L 2.05994,1.51404 L 2.0486,1.5618 L 2.03843,1.60982
 L 2.02944,1.65808 L 2.02165,1.70654 L 2.01504,1.75518 L 2.00963,1.80397 L 2.00542,1.85287 L 2.00241,1.90186
 L 2.0006,1.95092 L 2,2 L 2.0006,2.04908 L 2.00241,2.09813 L 2.00542,2.14713 L 2.00963,2.19603
 L 2.01504,2.24482 L 2.02165,2.29346 L 2.02944,2.34192 L 2.03843,2.39018 L 2.0486,2.4382 L 2.05994,2.48596
 L 2.07245,2.53343 L 2.08612,2.58057 L 2.10094,2.62736 L 2.11691,2.67378 L 2.13401,2.71979 L 2.15224,2.76537
 L 2.17158,2.81048 L 2.19202,2.85511 L 2.21355,2.89922 L 2.23616,2.94279 L 2.25983,2.9858 L 2.28454,3.0282
 L 2.31029,3.06999 L 2.33706,3.11114 L 2.36483,3.15162 L 2.39358,3.1914 L 2.42331,3.23046 L 2.45398,3.26879
 L 2.48558,3.30634 L 2.5181,3.34312 L 2.55151,3.37908 L 2.58579,3.41421 L 2.62092,3.44849 L 2.65688,3.4819
 L 2.69365,3.51442 L 2.73121,3.54602 L 2.76954,3.57669 L 2.8086,3.60641 L 2.84838,3.63517 L 2.88886,3.66294
 L 2.93,3.68971 L 2.97179,3.71546 L 3.0142,3.74017 L 3.05721,3.76384 L 3.10078,3.78645 L 3.14489,3.80798
 L 3.18952,3.82842 L 3.23463,3.84776 L 3.28021,3.86598 L 3.32622,3.88309 L 3.37264,3.89906 L 3.41943,3.91388
 L 3.46657,3.92755 L 3.51404,3.94006 L 3.5618,3.9514 L 3.60982,3.96157 L 3.65808,3.97055 L 3.70654,3.97835
 L 3.75518,3.98496 L 3.80397,3.99037 L 3.85287,3.99458 L 3.90186,3.99759 L 3.95092,3.9994 L 4,4
 z
M -12.9509,3.9994 L -12.9019,3.99759 L -12.8529,3.99458 L -12.804,3.99037 L -12.7552,3.98496 L -12.7065,3.97835
 L -12.6581,3.97055 L -12.6098,3.96157 L -12.5618,3.9514 L -12.514,3.94006 L -12.4666,3.92755 L -12.4194,3.91388
 L -12.3726,3.89906 L -12.3262,3.88309 L -12.2802,3.86598 L -12.2346,3.84776 L -12.1895,3.82842 L -12.1449,3.80798
 L -12.1008,3.78645 L -12.0572,3.76384 L -12.0142,3.74017 L -11.9718,3.71546 L -11.93,3.68971 L -11.8889,3.66294
 L -11.8484,3.63517 L -11.8086,3.60641 L -11.7695,3.57669 L -11.7312,3.54602 L -11.6937,3.51442 L -11.6569,3.4819
 L -11.6209,3.44849 L -11.5858,3.41421 L -2.58579,-5.58579 L -2.55151,-5.62092 L -2.5181,-5.65688 L -2.48558,-5.69365
 L -2.45398,-5.73121 L -2.42331,-5.76954 L -2.39358,-5.8086 L -2.36483,-5.84838 L -2.33706,-5.88886 L -2.31029,-5.93
 L -2.28454,-5.97179 L -2.25983,-6.0142 L -2.23616,-6.05721 L -2.21355,-6.10078 L -2.19202,-6.14489 L -2.17158,-6.18952
 L -2.15224,-6.23463 L -2.13401,-6.28021 L -2.11691,-6.32622 L -2.10094,-6.37264 L -2.08612,-6.41943 L -2.07245,-6.46657
 L -2.05994,-6.51404 L -2.0486,-6.5618 L -2.03843,-6.60982 L -2.02944,-6.65808 L -2.02165,-6.70654 L -2.01504,-6.75518
 L -2.00963,-6.80397 L -2.00542,-6.85287 L -2.00241,-6.90186 L -2.0006,-6.95092 L -2,-7 L -2.0006,-7.04908
 L -2.00241,-7.09813 L -2.00542,-7.14713 L -2.00963,-7.19603 L -2.01504,-7.24482 L -2.02165,-7.29346 L -2.02944,-7.34192
 L -2.03843,-7.39018 L -2.0486,-7.4382 L -2.05994,-7.48596 L -2.07245,-7.53343 L -2.08612,-7.58057 L -2.10094,-7.62736
 L -2.11691,-7.67378 L -2.13401,-7.71979 L -2.15224,-7.76537 L -2.17158,-7.81048 L -2.19202,-7.85511 L -2.21355,-7.89922
 L -2.23616,-7.94279 L -2.25983,-7.9858 L -2.28454,-8.0282 L -2.31029,-8.06999 L -2.33706,-8.11114 L -2.36483,-8.15162
 L -2.39358,-8.1914 L -2.42331,-8.23046 L -2.45398,-8.26879 L -2.48558,-8.30634 L -2.5181,-8.34312 L -2.55151,-8.37908
 L -2.58579,-8.41421 L -2.62092,-8.44849 L -2.65688,-8.4819 L -2.69365,-8.51442 L -2.73121,-8.54602 L -2.76954,-8.57669
 L -2.8086,-8.60641 L -2.84838,-8.63517 L -2.88886,-8.66294 L -2.93,-8.68971 L -2.97179,-8.71546 L -3.0142,-8.74017
 L -3.05721,-8.76384 L -3.10078,-8.78645 L -3.14489,-8.80798 L -3.18952,-8.82842 L -3.23463,-8.84776 L -3.28021,-8.86598
 L -3.32622,-8.88309 L -3.37264,-8.89906 L -3.41943,-8.91388 L -3.46657,-8.92755 L -3.51404,-8.94006 L -3.5618,-8.9514
 L -3.60982,-8.96157 L -3.65808,-8.97055 L -3.70654,-8.97835 L -3.75518,-8.98496 L -3.80397,-8.99037 L -3.85287,-8.99458
 L -3.90186,-8.99759 L -3.95092,-8.9994 L -4,-9 L -4.04908,-8.9994 L -4.09813,-8.99759 L -4.14713,-8.99458
 L -4.19603,-8.99037 L -4.24482,-8.98496 L -4.29346,-8.97835 L -4.34192,-8.97055 L -4.39018,-8.96157 L -4.4382,-8.9514
 L -4.48596,-8.94006 L -4.53343,-8.92755 L -4.58057,-8.91388 L -4.62736,-8.89906 L -4.67378,-8.88309 L -4.71979,-8.86598
 L -4.76537,-8.84776 L -4.81048,-8.82842 L -4.85511,-8.80798 L -4.89922,-8.78645 L -4.94279,-8.76384 L -4.9858,-8.74017
 L -5.0282,-8.71546 L -5.06999,-8.68971 L -5.11114,-8.66294 L -5.15162,-8.63517 L -5.1914,-8.60641 L -5.23046,-8.57669
 L -5.26879,-8.54602 L -5.30634,-8.51442 L -5.34312,-8.4819 L -5.37908,-8.44849 L -5.41421,-8.41421 L -14.4142,0.585786
 L -14.4485,0.620918 L -14.4819,0.656881 L -14.5144,0.693654 L -14.546,0.731213 L -14.5767,0.769536 L -14.6064,0.808601
 L -14.6352,0.848383 L -14.6629,0.888859 L -14.6897,0.930004 L -14.7155,0.971794 L -14.7402,1.0142 L -14.7638,1.05721
 L -14.7864,1.10078 L -14.808,1.14489 L -14.8284,1.18952 L -14.8478,1.23463 L -14.866,1.28021 L -14.8831,1.32622
 L -14.8991,1.37264 L -14.9139,1.41943 L -14.9276,1.46657 L -14.9401,1.51404 L -14.9514,1.5618 L -14.9616,1.60982
 L -14.9706,1.65808 L -14.9784,1.70654 L -14.985,1.75518 L -14.9904,1.80397 L -14.9946,1.85287 L -14.9976,1.90186
 L -14.9994,1.95092 L -15,2 L -14.9994,2.04908 L -14.9976,2.09813 L -14.9946,2.14713 L -14.9904,2.19603
 L -14.985,2.24482 L -14.9784,2.29346 L -14.9706,2.34192 L -14.9616,2.39018 L -14.9514,2.4382 L -14.9401,2.48596
 L -14.9276,2.53343 L -14.9139,2.58057 L -14.8991,2.62736 L -14.8831,2.67378 L -14.866,2.71979 L -14.8478,2.76537
 L -14.8284,2.81048 L -14.808,2.85511 L -14.7864,2.89922 L -14.7638,2.94279 L -14.7402,2.9858 L -14.7155,3.0282
 L -14.6897,3.06999 L -14.6629,3.11114 L -14.6352,3.15162 L -14.6064,3.1914 L -14.5767,3.23046 L -14.546,3.26879
 L -14.5144,3.30634 L -14.4819,3.34312 L -14.4485,3.37908 L -14.4142,3.41421 L -14.3791,3.44849 L -14.3431,3.4819
 L -14.3063,3.51442 L -14.2688,3.54602 L -14.2305,3.57669 L -14.1914,3.60641 L -14.1516,3.63517 L -14.1111,3.66294
 L -14.07,3.68971 L -14.0282,3.71546 L -13.9858,3.74017 L -13.9428,3.76384 L -13.8992,3.78645 L -13.8551,3.80798
 L -13.8105,3.82842 L -13.7654,3.84776 L -13.7198,3.86598 L -13.6738,3.88309 L -13.6274,3.89906 L -13.5806,3.91388
 L -13.5334,3.92755 L -13.486,3.94006 L -13.4382,3.9514 L -13.3902,3.96157 L -13.3419,3.97055 L -13.2935,3.97835
 L -13.2448,3.98496 L -13.196,3.99037 L -13.1471,3.99458 L -13.0981,3.99759 L -13.0491,3.9994 L -13,4
 z
M -8.74224,10.4579 L -8.68648,10.4569 L -8.6315,10.4552 L -8.57729,10.4529 L -8.52386,10.4499 L -8.4712,10.4462
 L -8.41932,10.4419 L -8.36821,10.4369 L -8.31788,10.4312 L -8.26833,10.4249 L -8.21955,10.4179 L -8.17154,10.4102
 L -8.12431,10.4019 L -8.07786,10.3929 L -8.03218,10.3832 L -7.98727,10.3729 L -7.94314,10.3619 L -7.89979,10.3503
 L -7.85721,10.3379 L -7.81541,10.3249 L -7.77438,10.3113 L -7.73413,10.297 L -7.69465,10.282 L -7.65595,10.2663
 L -7.61802,10.25 L -7.58087,10.233 L -7.5445,10.2153 L -7.5089,10.197 L -7.47407,10.178 L -7.44002,10.1584
 L -7.40675,10.138 L -7.37425,10.1171 L -7.34252,10.0954 L -7.31166,10.0731 L -7.28174,10.0503 L -7.25278,10.027
 L -7.22476,10.0031 L -7.1977,9.97861 L -7.17158,9.95361 L -7.14642,9.92806 L -7.1222,9.90196 L -7.09893,9.87532
 L -7.07661,9.84812 L -7.05525,9.82038 L -7.03483,9.79209 L -7.01536,9.76326 L -6.99684,9.73387 L -6.97927,9.70394
 L -6.96265,9.67346 L -6.94698,9.64243 L -6.93226,9.61085 L -6.91849,9.57873 L -6.90567,9.54605 L -6.8938,9.51283
 L -6.88288,9.47907 L -6.87291,9.44475 L -6.86389,9.40989 L -6.85581,9.37447 L -6.84869,9.33851 L -6.84252,9.302
 L -6.8373,9.26495 L -6.83302,9.22734 L -6.8297,9.18919 L -6.82732,9.15049 L -6.8259,9.11125 L -6.82542,9.07145
 L -6.82549,9.05569 L -6.82569,9.04005 L -6.82603,9.02454 L -6.8265,9.00915 L -6.8271,8.99389 L -6.82783,8.97875
 L -6.8287,8.96373 L -6.82971,8.94884 L -6.83085,8.93408 L -6.83212,8.91944 L -6.83352,8.90492 L -6.83506,8.89053
 L -6.83674,8.87626 L -6.83854,8.86212 L -6.84049,8.8481 L -6.84256,8.83421 L -6.84477,8.82044 L -6.84711,8.8068
 L -6.84959,8.79328 L -6.8522,8.77989 L -6.85495,8.76662 L -6.85782,8.75347 L -6.86084,8.74045 L -6.86398,8.72756
 L -6.86726,8.71478 L -6.87068,8.70214 L -6.87423,8.68962 L -6.87791,8.67722 L -6.88172,8.66494 L -6.88567,8.6528
 L -6.88976,8.64077 L -6.89397,8.62887 L -6.89832,8.6171 L -6.90279,8.60543 L -6.90737,8.59386 L -6.91204,8.58238
 L -6.91682,8.571 L -6.9217,8.55971 L -6.92668,8.54851 L -6.93177,8.5374 L -6.93696,8.52639 L -6.94225,8.51547
 L -6.94764,8.50465 L -6.95314,8.49392 L -6.95874,8.48328 L -6.96444,8.47273 L -6.97025,8.46228 L -6.97616,8.45192
 L -6.98217,8.44166 L -6.98828,8.43149 L -6.9945,8.42141 L -7.00082,8.41143 L -7.00724,8.40154 L -7.01376,8.39174
 L -7.02039,8.38203 L -7.02712,8.37242 L -7.03395,8.3629 L -7.04089,8.35348 L -7.04793,8.34415 L -7.05507,8.33491
 L -7.06231,8.32577 L -7.06966,8.31672 L -7.07711,8.30776 L -7.08466,8.2989 L -7.09232,8.29013 L -7.10007,8.28145
 L -7.10793,8.27286 L -7.11586,8.26435 L -7.12388,8.25591 L -7.13198,8.24757 L -7.14017,8.2393 L -7.14844,8.23111
 L -7.1568,8.223 L -7.16524,8.21498 L -7.17376,8.20703 L -7.18237,8.19917 L -7.19106,8.19139 L -7.19984,8.18369
 L -7.2087,8.17607 L -7.21764,8.16853 L -7.22667,8.16107 L -7.23579,8.1537 L -7.24498,8.1464 L -7.25426,8.13918
 L -7.26363,8.13205 L -7.27308,8.125 L -7.28261,8.11803 L -7.29223,8.11114 L -7.30193,8.10433 L -7.31172,8.0976
 L -7.32159,8.09095 L -7.33154,8.08439 L -7.34158,8.0779 L -7.3517,8.0715 L -7.36191,8.06518 L -7.3722,8.05894
 L -7.38257,8.05278 L -7.39303,8.0467 L -7.40357,8.0407 L -7.41418,8.03476 L -7.42483,8.02887 L -7.43553,8.02303
 L -7.44628,8.01723 L -7.45707,8.01148 L -7.46791,8.00578 L -7.47879,8.00012 L -7.48973,7.99451 L -7.5007,7.98895
 L -7.51173,7.98343 L -7.5228,7.97796 L -7.53392,7.97254 L -7.54509,7.96716 L -7.5563,7.96183 L -7.56756,7.95655
 L -7.57887,7.95131 L -7.59022,7.94612 L -7.60162,7.94098 L -7.61307,7.93588 L -7.62456,7.93084 L -7.6361,7.92583
 L -7.64769,7.92088 L -7.65932,7.91597 L -7.671,7.91111 L -7.68273,7.90629 L -7.6945,7.90152 L -7.70632,7.8968
 L -7.71819,7.89213 L -7.7301,7.8875 L -7.74206,7.88291 L -7.75407,7.87838 L -7.76612,7.87389 L -7.77822,7.86945
 L -7.79037,7.86505 L -7.80254,7.86069 L -7.81475,7.85636 L -7.827,7.85208 L -7.83927,7.84783 L -7.85159,7.84361
 L -7.86393,7.83944 L -7.87631,7.8353 L -7.88873,7.8312 L -7.90118,7.82714 L -7.91366,7.82311 L -7.92618,7.81912
 L -7.93873,7.81517 L -7.95132,7.81126 L -7.96394,7.80738 L -7.9766,7.80354 L -7.98929,7.79974 L -8.00201,7.79598
 L -8.01477,7.79225 L -8.02756,7.78856 L -8.04039,7.78491 L -8.05325,7.78129 L -8.06614,7.77772 L -8.07907,7.77418
 L -8.09203,7.77067 L -8.10503,7.76721 L -8.11806,7.76378 L -8.13113,7.76039 L -8.14423,7.75704 L -8.15736,7.75372
 L -8.17053,7.75044 L -8.18374,7.7472 L -8.19697,7.744 L -8.21023,7.74082 L -8.22349,7.73764 L -8.23675,7.73446
 L -8.25002,7.73129 L -8.26328,7.72811 L -8.27656,7.72495 L -8.28983,7.72178 L -8.30311,7.71862 L -8.31639,7.71546
 L -8.32967,7.71231 L -8.34296,7.70916 L -8.35625,7.70601 L -8.36954,7.70286 L -8.38284,7.69972 L -8.39613,7.69658
 L -8.40944,7.69344 L -8.42274,7.69031 L -8.43605,7.68718 L -8.44936,7.68405 L -8.46267,7.68093 L -8.47599,7.67781
 L -8.48931,7.67469 L -8.50263,7.67157 L -8.51596,7.66846 L -8.52929,7.66535 L -8.54262,7.66225 L -8.55595,7.65915
 L -8.56929,7.65605 L -8.58263,7.65295 L -8.59597,7.64986 L -8.60932,7.64677 L -8.62267,7.64368 L -8.63602,7.6406
 L -8.67549,7.63181 L -8.71415,7.62309 L -8.75201,7.61447 L -8.78906,7.60593 L -8.82532,7.59747 L -8.86077,7.5891
 L -8.89541,7.58081 L -8.92925,7.5726 L -8.96229,7.56448 L -8.99453,7.55644 L -9.02596,7.54849 L -9.05659,7.54062
 L -9.08641,7.53283 L -9.11543,7.52513 L -9.14365,7.51752 L -9.17107,7.50998 L -9.19768,7.50254 L -9.22349,7.49517
 L -9.24849,7.48789 L -9.2727,7.48069 L -9.2961,7.47358 L -9.31869,7.46655 L -9.34048,7.45961 L -9.36147,7.45275
 L -9.38166,7.44598 L -9.40104,7.43928 L -9.41962,7.43268 L -9.4374,7.42615 L -9.45437,7.41971 L -9.47054,7.41336
 L -9.4859,7.40709 L -9.50047,7.4009 L -9.51422,7.3948 L -9.52749,7.3887 L -9.54056,7.38251 L -9.55344,7.37624
 L -9.56614,7.3699 L -9.57864,7.36347 L -9.59095,7.35696 L -9.60308,7.35037 L -9.61501,7.3437 L -9.62675,7.33695
 L -9.63831,7.33012 L -9.64967,7.3232 L -9.66084,7.31621 L -9.67183,7.30914 L -9.68262,7.30198 L -9.69322,7.29474
 L -9.70364,7.28743 L -9.71386,7.28003 L -9.7239,7.27255 L -9.73374,7.26499 L -9.7434,7.25735 L -9.75286,7.24963
 L -9.76214,7.24182 L -9.77122,7.23394 L -9.78012,7.22597 L -9.78882,7.21793 L -9.79734,7.2098 L -9.80566,7.20159
 L -9.8138,7.19331 L -9.82174,7.18494 L -9.8295,7.17649 L -9.83706,7.16795 L -9.84444,7.15934 L -9.85162,7.15065
 L -9.85861,7.14185 L -9.86537,7.1329 L -9.87192,7.12382 L -9.87826,7.1146 L -9.88438,7.10523 L -9.89029,7.09573
 L -9.89598,7.08608 L -9.90145,7.0763 L -9.90672,7.06637 L -9.91176,7.05631 L -9.9166,7.04611 L -9.92122,7.03576
 L -9.92562,7.02528 L -9.92981,7.01465 L -9.93378,7.00389 L -9.93754,6.99298 L -9.94108,6.98193 L -9.94441,6.97075
 L -9.94753,6.95942 L -9.95043,6.94796 L -9.95311,6.93635 L -9.95558,6.92461 L -9.95784,6.91272 L -9.95988,6.90069
 L -9.9617,6.88853 L -9.96331,6.87622 L -9.96471,6.86377 L -9.96589,6.85119 L -9.96686,6.83846 L -9.96761,6.82559
 L -9.96815,6.81258 L -9.96847,6.79944 L -9.96857,6.78615 L -9.9683,6.76351 L -9.96747,6.74122 L -9.96608,6.71926
 L -9.96414,6.69765 L -9.96165,6.67639 L -9.9586,6.65546 L -9.955,6.63488 L -9.95084,6.61464 L -9.94613,6.59474
 L -9.94087,6.57518 L -9.93505,6.55597 L -9.92867,6.5371 L -9.92175,6.51857 L -9.91426,6.50039 L -9.90623,6.48255
 L -9.89764,6.46505 L -9.8885,6.44789 L -9.8788,6.43107 L -9.86855,6.4146 L -9.85774,6.39847 L -9.84638,6.38268
 L -9.83446,6.36724 L -9.82199,6.35214 L -9.80897,6.33738 L -9.79539,6.32296 L -9.78126,6.30888 L -9.76658,6.29515
 L -9.75134,6.28176 L -9.73554,6.26871 L -9.71919,6.25601 L -9.70229,6.24365 L -9.68484,6.23163 L -9.66682,6.21995
 L -9.64828,6.20861 L -9.62925,6.19763 L -9.60971,6.18699 L -9.58968,6.1767 L -9.56914,6.16676 L -9.54811,6.15717
 L -9.52659,6.14793 L -9.50456,6.13904 L -9.48203,6.13049 L -9.45901,6.1223 L -9.43549,6.11445 L -9.41147,6.10695
 L -9.38696,6.0998 L -9.36194,6.093 L -9.33643,6.08655 L -9.31042,6.08045 L -9.28391,6.07469 L -9.2569,6.06929
 L -9.22939,6.06423 L -9.20139,6.05952 L -9.17289,6.05516 L -9.14389,6.05115 L -9.11439,6.04749 L -9.0844,6.04417
 L -9.0539,6.04121 L -9.02291,6.03859 L -8.99142,6.03633 L -8.95944,6.03441 L -8.92695,6.03284 L -8.89396,6.03162
 L -8.86048,6.03075 L -8.8265,6.03022 L -8.79202,6.03005 L -8.76059,6.03021 L -8.72957,6.03068 L -8.69897,6.03146
 L -8.66878,6.03257 L -8.63901,6.03398 L -8.60966,6.03571 L -8.58073,6.03776 L -8.55221,6.04011 L -8.52411,6.04279
 L -8.49643,6.04578 L -8.46916,6.04908 L -8.44232,6.05269 L -8.41588,6.05663 L -8.38987,6.06087 L -8.36427,6.06543
 L -8.3391,6.07031 L -8.31433,6.0755 L -8.28999,6.081 L -8.26606,6.08682 L -8.24255,6.09295 L -8.21946,6.0994
 L -8.19678,6.10616 L -8.17452,6.11324 L -8.15268,6.12063 L -8.13125,6.12833 L -8.11025,6.13635 L -8.08966,6.14469
 L -8.06948,6.15334 L -8.04973,6.1623 L -8.03039,6.17158 L -8.01147,6.18117 L -7.99296,6.19108 L -7.97487,6.2013
 L -7.95717,6.21187 L -7.93981,6.22282 L -7.92281,6.23415 L -7.90615,6.24587 L -7.88984,6.25797 L -7.87388,6.27045
 L -7.85827,6.28331 L -7.843,6.29656 L -7.82809,6.31019 L -7.81352,6.32421 L -7.79931,6.3386 L -7.78544,6.35339
 L -7.77192,6.36855 L -7.75875,6.3841 L -7.74593,6.40002 L -7.73346,6.41634 L -7.72133,6.43303 L -7.70956,6.45011
 L -7.69813,6.46757 L -7.68705,6.48542 L -7.67632,6.50364 L -7.66594,6.52225 L -7.65591,6.54125 L -7.64623,6.56063
 L -7.63689,6.58038 L -7.62791,6.60053 L -7.61927,6.62105 L -7.61098,6.64196 L -7.60304,6.66325 L -7.59545,6.68493
 L -7.58821,6.70699 L -7.58132,6.72943 L -7.57477,6.75225 L -6.93732,6.64035 L -6.94804,6.6043 L -6.95923,6.5689
 L -6.9709,6.53414 L -6.98304,6.50003 L -6.99565,6.46656 L -7.00873,6.43373 L -7.02229,6.40155 L -7.03632,6.37001
 L -7.05083,6.33912 L -7.0658,6.30888 L -7.08125,6.27927 L -7.09718,6.25031 L -7.11357,6.222 L -7.13044,6.19433
 L -7.14779,6.1673 L -7.1656,6.14092 L -7.18389,6.11519 L -7.20265,6.09009 L -7.22189,6.06565 L -7.2416,6.04184
 L -7.26178,6.01869 L -7.28244,5.99617 L -7.30356,5.9743 L -7.32517,5.95308 L -7.34724,5.9325 L -7.36979,5.91256
 L -7.39281,5.89327 L -7.4163,5.87462 L -7.44027,5.85662 L -7.46471,5.83926 L -7.48963,5.82254 L -7.51501,5.80647
 L -7.54087,5.79105 L -7.56732,5.77617 L -7.59448,5.76175 L -7.62233,5.74779 L -7.65089,5.73429 L -7.68016,5.72124
 L -7.71012,5.70865 L -7.74079,5.69652 L -7.77217,5.68485 L -7.80425,5.67363 L -7.83703,5.66288 L -7.87051,5.65258
 L -7.9047,5.64274 L -7.9396,5.63335 L -7.97519,5.62442 L -8.01149,5.61596 L -8.0485,5.60795 L -8.0862,5.60039
 L -8.12461,5.5933 L -8.16373,5.58666 L -8.20355,5.58048 L -8.24407,5.57476 L -8.2853,5.56949 L -8.32723,5.56469
 L -8.36986,5.56034 L -8.4132,5.55645 L -8.45724,5.55301 L -8.50198,5.55004 L -8.54743,5.54752 L -8.59358,5.54546
 L -8.64044,5.54386 L -8.688,5.54272 L -8.73626,5.54203 L -8.78522,5.5418 L -8.83787,5.5421 L -8.88977,5.54302
 L -8.94093,5.54455 L -8.99134,5.54668 L -9.04101,5.54943 L -9.08994,5.55278 L -9.13812,5.55675 L -9.18556,5.56133
 L -9.23225,5.56652 L -9.2782,5.57231 L -9.3234,5.57872 L -9.36786,5.58574 L -9.41158,5.59337 L -9.45455,5.60161
 L -9.49678,5.61046 L -9.53826,5.61992 L -9.579,5.62999 L -9.619,5.64067 L -9.65825,5.65196 L -9.69675,5.66386
 L -9.73452,5.67637 L -9.77154,5.68949 L -9.80781,5.70322 L -9.84334,5.71756 L -9.87813,5.73251 L -9.91217,5.74808
 L -9.94547,5.76425 L -9.97802,5.78103 L -10.0098,5.79842 L -10.0409,5.81643 L -10.0712,5.83504 L -10.1008,5.85427
 L -10.1296,5.8741 L -10.1577,5.89449 L -10.1848,5.91541 L -10.2111,5.93683 L -10.2366,5.95878 L -10.2611,5.98124
 L -10.2849,6.00422 L -10.3077,6.02772 L -10.3297,6.05173 L -10.3508,6.07626 L -10.3711,6.10131 L -10.3905,6.12687
 L -10.4091,6.15295 L -10.4267,6.17955 L -10.4436,6.20666 L -10.4595,6.2343 L -10.4746,6.26244 L -10.4888,6.29111
 L -10.5022,6.32029 L -10.5147,6.34999 L -10.5263,6.38021 L -10.5371,6.41094 L -10.547,6.44219 L -10.5561,6.47396
 L -10.5643,6.50624 L -10.5716,6.53904 L -10.5781,6.57236 L -10.5837,6.60619 L -10.5884,6.64054 L -10.5923,6.67541
 L -10.5953,6.71079 L -10.5975,6.7467 L -10.5988,6.78311 L -10.5992,6.82005 L -10.5991,6.83623 L -10.5989,6.8523
 L -10.5985,6.86825 L -10.5979,6.8841 L -10.5972,6.89983 L -10.5963,6.91545 L -10.5952,6.93096 L -10.5939,6.94635
 L -10.5925,6.96164 L -10.591,6.97681 L -10.5892,6.99187 L -10.5873,7.00681 L -10.5853,7.02165 L -10.5831,7.03637
 L -10.5807,7.05098 L -10.5781,7.06548 L -10.5754,7.07987 L -10.5725,7.09414 L -10.5694,7.1083 L -10.5662,7.12235
 L -10.5628,7.13629 L -10.5593,7.15012 L -10.5556,7.16383 L -10.5517,7.17743 L -10.5477,7.19092 L -10.5434,7.2043
 L -10.5391,7.21756 L -10.5345,7.23072 L -10.5298,7.24376 L -10.525,7.25669 L -10.5199,7.2695 L -10.5147,7.28221
 L -10.5094,7.2948 L -10.5039,7.30728 L -10.4982,7.31967 L -10.4924,7.33197 L -10.4864,7.34416 L -10.4803,7.35626
 L -10.4741,7.36826 L -10.4677,7.38017 L -10.4611,7.39198 L -10.4544,7.40369 L -10.4476,7.41531 L -10.4406,7.42683
 L -10.4335,7.43826 L -10.4262,7.44959 L -10.4188,7.46082 L -10.4112,7.47195 L -10.4035,7.48299 L -10.3957,7.49393
 L -10.3876,7.50478 L -10.3795,7.51553 L -10.3712,7.52618 L -10.3627,7.53674 L -10.3542,7.5472 L -10.3454,7.55756
 L -10.3365,7.56783 L -10.3275,7.578 L -10.3183,7.58808 L -10.309,7.59805 L -10.2995,7.60794 L -10.2899,7.61772
 L -10.2801,7.62741 L -10.2702,7.637 L -10.2602,7.6465 L -10.25,7.6559 L -10.2396,7.66522 L -10.229,7.67449
 L -10.2181,7.68371 L -10.2071,7.69287 L -10.1958,7.70198 L -10.1842,7.71104 L -10.1725,7.72004 L -10.1605,7.72899
 L -10.1483,7.73789 L -10.1359,7.74674 L -10.1232,7.75553 L -10.1103,7.76427 L -10.0972,7.77296 L -10.0838,7.7816
 L -10.0703,7.79018 L -10.0565,7.79871 L -10.0425,7.80718 L -10.0282,7.8156 L -10.0137,7.82397 L -9.99902,7.83229
 L -9.98409,7.84056 L -9.96893,7.84877 L -9.95354,7.85693 L -9.93793,7.86503 L -9.92209,7.87308 L -9.90602,7.88108
 L -9.88972,7.88903 L -9.8732,7.89692 L -9.85645,7.90476 L -9.83947,7.91255 L -9.82227,7.92029 L -9.80483,7.92797
 L -9.78717,7.9356 L -9.76915,7.9432 L -9.75062,7.95081 L -9.73159,7.95841 L -9.71206,7.96601 L -9.69203,7.97361
 L -9.6715,7.98122 L -9.65046,7.98882 L -9.62893,7.99642 L -9.60689,8.00403 L -9.58435,8.01163 L -9.56131,8.01923
 L -9.53777,8.02684 L -9.51373,8.03444 L -9.48919,8.04204 L -9.46414,8.04965 L -9.4386,8.05725 L -9.41255,8.06485
 L -9.386,8.07245 L -9.35895,8.08006 L -9.3314,8.08766 L -9.30335,8.09526 L -9.2748,8.10287 L -9.24574,8.11047
 L -9.21619,8.11807 L -9.18613,8.12568 L -9.15557,8.13328 L -9.12451,8.14088 L -9.09295,8.14848 L -9.06089,8.15609
 L -9.02832,8.16369 L -8.99526,8.17129 L -8.96169,8.1789 L -8.92762,8.1865 L -8.90795,8.19101 L -8.88838,8.19551
 L -8.86892,8.19998 L -8.84956,8.20444 L -8.83031,8.20887 L -8.81117,8.21329 L -8.79213,8.21769 L -8.77319,8.22207
 L -8.75437,8.22644 L -8.73565,8.23078 L -8.71703,8.23511 L -8.69852,8.23941 L -8.68012,8.2437 L -8.66182,8.24797
 L -8.64363,8.25222 L -8.62554,8.25645 L -8.60756,8.26067 L -8.58969,8.26486 L -8.57192,8.26904 L -8.55425,8.2732
 L -8.5367,8.27733 L -8.51925,8.28146 L -8.5019,8.28556 L -8.48466,8.28964 L -8.46753,8.2937 L -8.4505,8.29775
 L -8.43358,8.30178 L -8.41676,8.30579 L -8.40005,8.30978 L -8.38345,8.31375 L -8.36695,8.3177 L -8.35056,8.32163
 L -8.33427,8.32555 L -8.31811,8.32948 L -8.30208,8.33347 L -8.28619,8.33751 L -8.27044,8.34161 L -8.25482,8.34577
 L -8.23934,8.34998 L -8.224,8.35425 L -8.20879,8.35857 L -8.19372,8.36295 L -8.17879,8.36738 L -8.164,8.37188
 L -8.14934,8.37643 L -8.13482,8.38103 L -8.12043,8.38569 L -8.10619,8.39041 L -8.09208,8.39518 L -8.0781,8.40001
 L -8.06427,8.40489 L -8.05057,8.40983 L -8.03701,8.41483 L -8.02358,8.41988 L -8.0103,8.42499 L -7.99715,8.43016
 L -7.98413,8.43538 L -7.97126,8.44066 L -7.95852,8.44599 L -7.94591,8.45138 L -7.93345,8.45683 L -7.92112,8.46233
 L -7.90893,8.46789 L -7.89687,8.4735 L -7.88496,8.47917 L -7.87317,8.4849 L -7.86154,8.4907 L -7.85006,8.49659
 L -7.83874,8.50257 L -7.82759,8.50865 L -7.81658,8.51483 L -7.80574,8.52109 L -7.79506,8.52745 L -7.78454,8.5339
 L -7.77417,8.54045 L -7.76397,8.54709 L -7.75392,8.55382 L -7.74403,8.56065 L -7.7343,8.56757 L -7.72473,8.57458
 L -7.71532,8.58169 L -7.70607,8.58889 L -7.69697,8.59618 L -7.68804,8.60357 L -7.67926,8.61105 L -7.67064,8.61863
 L -7.66219,8.62629 L -7.65389,8.63406 L -7.64575,8.64191 L -7.63776,8.64986 L -7.62994,8.6579 L -7.62228,8.66604
 L -7.61477,8.67426 L -7.60742,8.68259 L -7.60024,8.691 L -7.59321,8.69951 L -7.58634,8.70811 L -7.57963,8.71681
 L -7.57307,8.7256 L -7.5667,8.73452 L -7.56052,8.7436 L -7.55454,8.75284 L -7.54875,8.76224 L -7.54316,8.7718
 L -7.53777,8.78153 L -7.53257,8.79142 L -7.52757,8.80147 L -7.52276,8.81168 L -7.51815,8.82206 L -7.51374,8.83259
 L -7.50952,8.84329 L -7.5055,8.85415 L -7.50168,8.86517 L -7.49805,8.87636 L -7.49462,8.8877 L -7.49138,8.89921
 L -7.48834,8.91088 L -7.4855,8.92271 L -7.48285,8.9347 L -7.4804,8.94686 L -7.47814,8.95918 L -7.47608,8.97166
 L -7.47422,8.9843 L -7.47255,8.9971 L -7.47108,9.01006 L -7.4698,9.02319 L -7.46873,9.03648 L -7.46784,9.04993
 L -7.46716,9.06354 L -7.46667,9.07732 L -7.46637,9.09125 L -7.46627,9.10535 L -7.46659,9.13044 L -7.46753,9.15516
 L -7.46909,9.17951 L -7.47128,9.20349 L -7.4741,9.2271 L -7.47754,9.25033 L -7.48161,9.2732 L -7.4863,9.2957
 L -7.49162,9.31783 L -7.49756,9.33958 L -7.50414,9.36097 L -7.51133,9.38198 L -7.51915,9.40263 L -7.5276,9.4229
 L -7.53668,9.4428 L -7.54638,9.46233 L -7.5567,9.4815 L -7.56765,9.50029 L -7.57923,9.51871 L -7.59144,9.53676
 L -7.60426,9.55444 L -7.61772,9.57175 L -7.6318,9.58869 L -7.64651,9.60526 L -7.66184,9.62146 L -7.6778,9.63728
 L -7.69438,9.65274 L -7.71159,9.66783 L -7.72942,9.68254 L -7.74789,9.69689 L -7.76697,9.71086 L -7.78669,9.72447
 L -7.80702,9.7377 L -7.82794,9.75055 L -7.84938,9.76301 L -7.87135,9.77507 L -7.89384,9.78673 L -7.91686,9.798
 L -7.94041,9.80887 L -7.96448,9.81935 L -7.98908,9.82943 L -8.0142,9.83912 L -8.03985,9.84841 L -8.06603,9.85731
 L -8.09273,9.86581 L -8.11996,9.87392 L -8.14772,9.88163 L -8.176,9.88894 L -8.20481,9.89586 L -8.23415,9.90239
 L -8.26401,9.90852 L -8.29439,9.91425 L -8.32531,9.91959 L -8.35675,9.92453 L -8.38871,9.92908 L -8.42121,9.93323
 L -8.45422,9.93699 L -8.48777,9.94035 L -8.52184,9.94331 L -8.55644,9.94588 L -8.59156,9.94806 L -8.62721,9.94984
 L -8.66339,9.95122 L -8.70009,9.95221 L -8.73732,9.9528 L -8.77507,9.953 L -8.81162,9.95281 L -8.8477,9.95226
 L -8.88332,9.95133 L -8.91847,9.95004 L -8.95315,9.94837 L -8.98736,9.94633 L -9.02111,9.94392 L -9.05439,9.94114
 L -9.0872,9.93799 L -9.11955,9.93447 L -9.15142,9.93058 L -9.18284,9.92632 L -9.21378,9.92169 L -9.24426,9.91669
 L -9.27427,9.91132 L -9.30381,9.90557 L -9.33289,9.89946 L -9.3615,9.89297 L -9.38965,9.88612 L -9.41732,9.87889
 L -9.44453,9.8713 L -9.47127,9.86333 L -9.49755,9.855 L -9.52336,9.84629 L -9.5487,9.83721 L -9.57358,9.82776
 L -9.59798,9.81794 L -9.62192,9.80775 L -9.6454,9.79719 L -9.66841,9.78626 L -9.69095,9.77496 L -9.71302,9.76329
 L -9.73462,9.75125 L -9.75577,9.73881 L -9.77647,9.72595 L -9.79672,9.71268 L -9.81652,9.69898 L -9.83587,9.68486
 L -9.85477,9.67032 L -9.87323,9.65536 L -9.89124,9.63998 L -9.9088,9.62418 L -9.92591,9.60796 L -9.94257,9.59132
 L -9.95878,9.57426 L -9.97455,9.55678 L -9.98987,9.53888 L -10.0047,9.52056 L -10.0192,9.50182 L -10.0331,9.48265
 L -10.0467,9.46307 L -10.0597,9.44307 L -10.0724,9.42265 L -10.0845,9.4018 L -10.0963,9.38054 L -10.1076,9.35885
 L -10.1184,9.33675 L -10.1288,9.31423 L -10.1387,9.29128 L -10.1482,9.26792 L -10.1572,9.24413 L -10.1658,9.21992
 L -10.174,9.1953 L -10.1817,9.17025 L -10.1889,9.14479 L -10.1957,9.1189 L -10.823,9.24435 L -10.8048,9.3168
 L -10.7839,9.38702 L -10.7603,9.45502 L -10.734,9.52078 L -10.705,9.58432 L -10.6733,9.64562 L -10.639,9.7047
 L -10.6019,9.76155 L -10.5621,9.81616 L -10.5197,9.86855 L -10.4745,9.91871 L -10.4267,9.96664 L -10.3761,10.0123
 L -10.3228,10.0558 L -10.2669,10.0971 L -10.2083,10.1361 L -10.1469,10.1728 L -10.0829,10.2074 L -10.0161,10.2397
 L -9.94672,10.2698 L -9.8746,10.2977 L -9.79977,10.3233 L -9.72226,10.3467 L -9.64204,10.3679 L -9.55913,10.3869
 L -9.47352,10.4036 L -9.38522,10.4181 L -9.29422,10.4303 L -9.20052,10.4404 L -9.10413,10.4482 L -9.00504,10.4537
 L -8.90326,10.4571 L -8.79877,10.4582 z
M 9.18277,6.14195 L 10.8238,6.14195 L 10.8238,5.613 L 6.89747,5.613 L 6.89747,6.14195 L 8.53857,6.14195
 L 8.53857,10.3904 L 9.18277,10.3904 z
M -4.06517,6.14195 L -2.42412,6.14195 L -2.42412,5.613 L -6.35047,5.613 L -6.35047,6.14195 L -4.70937,6.14195
 L -4.70937,10.3904 L -4.06517,10.3904 z
M 3.06922,8.4069 L 4.55767,8.4069 L 5.79867,10.3904 L 6.54462,10.3904 L 5.18837,8.3323 L 5.22124,8.3263
 L 5.25367,8.31981 L 5.28567,8.31282 L 5.31724,8.30535 L 5.34838,8.29738 L 5.37908,8.28892 L 5.40935,8.27997
 L 5.43918,8.27052 L 5.46859,8.26059 L 5.49756,8.25016 L 5.5261,8.23924 L 5.5542,8.22783 L 5.58188,8.21592
 L 5.60912,8.20353 L 5.63592,8.19064 L 5.6623,8.17726 L 5.68824,8.16339 L 5.71375,8.14903 L 5.73883,8.13417
 L 5.76347,8.11882 L 5.78768,8.10299 L 5.81146,8.08665 L 5.83481,8.06983 L 5.85772,8.05252 L 5.8802,8.03471
 L 5.90225,8.01641 L 5.92387,7.99762 L 5.94505,7.97834 L 5.9658,7.95857 L 5.98612,7.9383 L 6.006,7.91754
 L 6.02546,7.89629 L 6.04447,7.87455 L 6.06299,7.85241 L 6.08094,7.82995 L 6.09832,7.80719 L 6.11513,7.78411
 L 6.13137,7.76072 L 6.14704,7.73702 L 6.16214,7.71301 L 6.17667,7.68869 L 6.19063,7.66405 L 6.20402,7.63911
 L 6.21684,7.61385 L 6.22909,7.58828 L 6.24077,7.5624 L 6.25188,7.53621 L 6.26242,7.50971 L 6.27239,7.4829
 L 6.28179,7.45577 L 6.29062,7.42834 L 6.29889,7.40059 L 6.30658,7.37253 L 6.3137,7.34416 L 6.32025,7.31548
 L 6.32623,7.28649 L 6.33165,7.25719 L 6.33649,7.22757 L 6.34076,7.19765 L 6.34447,7.16741 L 6.3476,7.13686
 L 6.35017,7.106 L 6.35216,7.07483 L 6.35359,7.04335 L 6.35444,7.01155 L 6.35472,6.97945 L 6.35432,6.94066
 L 6.35311,6.9024 L 6.3511,6.86465 L 6.34827,6.82743 L 6.34464,6.79072 L 6.34021,6.75454 L 6.33497,6.71887
 L 6.32892,6.68373 L 6.32206,6.6491 L 6.3144,6.615 L 6.30594,6.58141 L 6.29666,6.54835 L 6.28658,6.5158
 L 6.27569,6.48378 L 6.264,6.45227 L 6.2515,6.42128 L 6.2382,6.39082 L 6.22408,6.36087 L 6.20916,6.33145
 L 6.19344,6.30254 L 6.17691,6.27416 L 6.15957,6.24629 L 6.14142,6.21895 L 6.12247,6.19212 L 6.10272,6.16582
 L 6.08215,6.14003 L 6.06078,6.11477 L 6.0386,6.09002 L 6.01562,6.0658 L 5.99183,6.04209 L 5.96724,6.01891
 L 5.94183,5.99624 L 5.91562,5.9741 L 5.88868,5.95255 L 5.86105,5.93166 L 5.83276,5.91143 L 5.80378,5.89187
 L 5.77413,5.87296 L 5.74381,5.85473 L 5.7128,5.83715 L 5.68113,5.82024 L 5.64877,5.80399 L 5.61575,5.78841
 L 5.58204,5.77349 L 5.54766,5.75923 L 5.5126,5.74564 L 5.47687,5.7327 L 5.44046,5.72043 L 5.40338,5.70883
 L 5.36562,5.69789 L 5.32719,5.68761 L 5.28808,5.67799 L 5.24829,5.66904 L 5.20783,5.66075 L 5.16669,5.65312
 L 5.12488,5.64616 L 5.08239,5.63986 L 5.03922,5.63422 L 4.99538,5.62925 L 4.95087,5.62494 L 4.90567,5.62129
 L 4.85981,5.61831 L 4.81326,5.61598 L 4.76604,5.61433 L 4.71815,5.61333 L 4.66957,5.613 L 2.42162,5.613
 L 2.42162,10.3904 L 3.06922,10.3904 z
M 3.06922,7.8949 L 3.06922,6.13175 L 4.60517,6.13175 L 4.63721,6.13195 L 4.66878,6.13255 L 4.6999,6.13356
 L 4.73056,6.13496 L 4.76076,6.13677 L 4.7905,6.13898 L 4.81979,6.14159 L 4.84861,6.1446 L 4.87698,6.14802
 L 4.9049,6.15183 L 4.93235,6.15605 L 4.95935,6.16067 L 4.98589,6.16569 L 5.01197,6.17111 L 5.0376,6.17694
 L 5.06276,6.18316 L 5.08747,6.18979 L 5.11172,6.19682 L 5.13552,6.20425 L 5.15885,6.21208 L 5.18173,6.22031
 L 5.20415,6.22895 L 5.22612,6.23799 L 5.24762,6.24743 L 5.26867,6.25727 L 5.28926,6.26751 L 5.30939,6.27815
 L 5.32907,6.2892 L 5.34828,6.30064 L 5.36704,6.31249 L 5.38534,6.32474 L 5.40319,6.3374 L 5.42057,6.35045
 L 5.43748,6.36389 L 5.45386,6.37769 L 5.46972,6.39185 L 5.48506,6.40638 L 5.49988,6.42128 L 5.51418,6.43653
 L 5.52796,6.45216 L 5.54122,6.46814 L 5.55396,6.48449 L 5.56618,6.50121 L 5.57788,6.51829 L 5.58906,6.53573
 L 5.59972,6.55354 L 5.60986,6.57171 L 5.61948,6.59025 L 5.62858,6.60915 L 5.63716,6.62842 L 5.64522,6.64804
 L 5.65276,6.66804 L 5.65978,6.6884 L 5.66628,6.70912 L 5.67226,6.73021 L 5.67772,6.75166 L 5.68266,6.77347
 L 5.68708,6.79565 L 5.69098,6.81819 L 5.69436,6.8411 L 5.69722,6.86437 L 5.69956,6.88801 L 5.70138,6.91201
 L 5.70268,6.93638 L 5.70346,6.96111 L 5.70372,6.9862 L 5.70347,7.01212 L 5.7027,7.03769 L 5.70141,7.06291
 L 5.69961,7.08777 L 5.6973,7.11229 L 5.69448,7.13645 L 5.69114,7.16026 L 5.68728,7.18372 L 5.68292,7.20682
 L 5.67804,7.22958 L 5.67264,7.25198 L 5.66673,7.27403 L 5.66031,7.29573 L 5.65337,7.31708 L 5.64592,7.33808
 L 5.63796,7.35872 L 5.62948,7.37901 L 5.62049,7.39896 L 5.61099,7.41854 L 5.60097,7.43778 L 5.59044,7.45667
 L 5.57939,7.4752 L 5.56783,7.49338 L 5.55576,7.51121 L 5.54317,7.52869 L 5.53007,7.54582 L 5.51645,7.56259
 L 5.50233,7.57901 L 5.48768,7.59508 L 5.47253,7.6108 L 5.45686,7.62617 L 5.44067,7.64119 L 5.42397,7.65585
 L 5.40681,7.67012 L 5.38922,7.68395 L 5.3712,7.69734 L 5.35276,7.71029 L 5.33388,7.7228 L 5.31459,7.73487
 L 5.29486,7.74651 L 5.27471,7.7577 L 5.25413,7.76846 L 5.23313,7.77878 L 5.2117,7.78866 L 5.18984,7.79809
 L 5.16755,7.80709 L 5.14484,7.81565 L 5.12171,7.82378 L 5.09814,7.83146 L 5.07415,7.8387 L 5.04973,7.84551
 L 5.02489,7.85188 L 4.99962,7.8578 L 4.97392,7.86329 L 4.9478,7.86834 L 4.92125,7.87295 L 4.89427,7.87712
 L 4.86687,7.88085 L 4.83903,7.88414 L 4.81078,7.887 L 4.78209,7.88941 L 4.75298,7.89139 L 4.72345,7.89292
 L 4.69348,7.89402 L 4.66309,7.89468 L 4.63227,7.8949 z
M -1.54572,8.99345 L 0.631024,8.99345 L 1.17692,10.3904 L 1.83812,10.3904 L -0.0809746,5.613 L -0.816774,5.613
 L -2.76637,10.3904 L -2.09502,10.3904 z
M -1.34907,8.48825 L -0.738774,6.9184 L -0.72878,6.89183 L -0.718934,6.86555 L -0.709238,6.83957 L -0.699692,6.81388
 L -0.690294,6.78848 L -0.681047,6.76338 L -0.671949,6.73857 L -0.663001,6.71405 L -0.654202,6.68982 L -0.645553,6.66588
 L -0.637053,6.64224 L -0.628702,6.6189 L -0.620501,6.59584 L -0.61245,6.57308 L -0.604548,6.55061 L -0.596795,6.52843
 L -0.589191,6.50654 L -0.581738,6.48495 L -0.574434,6.46365 L -0.56728,6.44265 L -0.560274,6.42193 L -0.553419,6.40151
 L -0.546713,6.38138 L -0.540156,6.36155 L -0.53375,6.342 L -0.527492,6.32275 L -0.521383,6.3038 L -0.515425,6.28513
 L -0.509616,6.26676 L -0.503957,6.24868 L -0.498446,6.23089 L -0.493086,6.2134 L -0.487875,6.1962 L -0.457325,6.10125
 L -0.365774,6.3827 L -0.360023,6.40052 L -0.354271,6.41823 L -0.348519,6.43582 L -0.342768,6.45331 L -0.337016,6.47068
 L -0.331264,6.48794 L -0.325512,6.50508 L -0.319759,6.52212 L -0.314007,6.53904 L -0.308255,6.55586 L -0.302503,6.57256
 L -0.29675,6.58914 L -0.290998,6.60562 L -0.285244,6.62198 L -0.279491,6.63823 L -0.273739,6.65437 L -0.267985,6.6704
 L -0.262233,6.68631 L -0.256479,6.70212 L -0.250726,6.71781 L -0.244972,6.73339 L -0.239219,6.74885 L -0.233465,6.76421
 L -0.227712,6.77945 L -0.221958,6.79458 L -0.216204,6.8096 L -0.21045,6.82451 L -0.204696,6.8393 L -0.198942,6.85399
 L -0.193188,6.86856 L -0.187433,6.88302 L -0.181679,6.89736 L -0.175924,6.9116 L 0.437775,8.48825 z
" stroke="black" fill="lightgray" stroke-width="0.5"/>
</svg>
