<?xml version="1.0" standalone="no"?>
<!DOCTYPE svg PUBLIC "-//W3C//DTD SVG 1.1//EN" "http://www.w3.org/Graphics/SVG/1.1/DTD/svg11.dtd">
<svg width="10mm" height="10mm" viewBox="8 -5 10 10" xmlns="http://www.w3.org/2000/svg" version="1.1">
<title>OpenSCAD Model</title>
<path d="
M 13.4901,4.97592 L 13.9755,4.90393 L 14.4514,4.7847 L 14.9134,4.6194 L 15.357,4.40961 L 15.7779,4.15735
 L 16.172,3.86505 L 16.5355,3.53553 L 16.8651,3.17197 L 17.1573,2.77785 L 17.4096,2.35698 L 17.6194,1.91342
 L 17.7847,1.45142 L 17.9039,0.975452 L 17.9759,0.490086 L 18,-0 L 17.9759,-0.490086 L 17.9039,-0.975452
 L 17.7847,-1.45142 L 17.6194,-1.91342 L 17.4096,-2.35698 L 17.1573,-2.77785 L 16.8651,-3.17197 L 16.5355,-3.53553
 L 16.172,-3.86505 L 15.7779,-4.15735 L 15.357,-4.40961 L 14.9134,-4.6194 L 14.4514,-4.7847 L 13.9755,-4.90393
 L 13.4901,-4.97592 L 13,-5 L 12.5099,-4.97592 L 12.0245,-4.90393 L 11.5486,-4.7847 L 11.0866,-4.6194
 L 10.643,-4.40961 L 10.2221,-4.15735 L 9.82803,-3.86505 L 9.46447,-3.53553 L 9.13495,-3.17197 L 8.84265,-2.77785
 L 8.59039,-2.35698 L 8.3806,-1.91342 L 8.2153,-1.45142 L 8.09607,-0.975452 L 8.02408,-0.490086 L 8,-0
 L 8.02408,0.490086 L 8.09607,0.975452 L 8.2153,1.45142 L 8.3806,1.91342 L 8.59039,2.35698 L 8.84265,2.77785
 L 9.13495,3.17197 L 9.46447,3.53553 L 9.82803,3.86505 L 10.2221,4.15735 L 10.643,4.40961 L 11.0866,4.6194
 L 11.5486,4.7847 L 12.0245,4.90393 L 12.5099,4.97592 L 13,5 z
" stroke="black" fill="red" stroke-width="0.5"/>
</svg>
